<?xml version="1.0" encoding="utf-8" standalone="no"?>
<!DOCTYPE svg PUBLIC "-//W3C//DTD SVG 1.1//EN"
  "http://www.w3.org/Graphics/SVG/1.1/DTD/svg11.dtd">
<svg xmlns:xlink="http://www.w3.org/1999/xlink" width="504pt" height="432pt" viewBox="0 0 504 432" xmlns="http://www.w3.org/2000/svg" version="1.1">
 <metadata>
  <rdf:RDF xmlns:dc="http://purl.org/dc/elements/1.1/" xmlns:cc="http://creativecommons.org/ns#" xmlns:rdf="http://www.w3.org/1999/02/22-rdf-syntax-ns#">
   <cc:Work>
    <dc:type rdf:resource="http://purl.org/dc/dcmitype/StillImage"/>
    <dc:date>2026-03-04T13:11:31.454051</dc:date>
    <dc:format>image/svg+xml</dc:format>
    <dc:creator>
     <cc:Agent>
      <dc:title>Matplotlib v3.10.8, https://matplotlib.org/</dc:title>
     </cc:Agent>
    </dc:creator>
   </cc:Work>
  </rdf:RDF>
 </metadata>
 <defs>
  <style type="text/css">*{stroke-linejoin: round; stroke-linecap: butt}</style>
 </defs>
 <g id="figure_1">
  <g id="patch_1">
   <path d="M 0 432 
L 504 432 
L 504 0 
L 0 0 
z
" style="fill: #ffffff"/>
  </g>
  <g id="axes_1">
   <g id="patch_2">
    <path d="M 46.55 127.68 
L 493.2 127.68 
L 493.2 26.88 
L 46.55 26.88 
z
" style="fill: #ffffff"/>
   </g>
   <g id="PathCollection_1">
    <defs>
     <path id="m0b6ed67d09" d="M 0 3 
C 0.795609 3 1.55874 2.683901 2.12132 2.12132 
C 2.683901 1.55874 3 0.795609 3 0 
C 3 -0.795609 2.683901 -1.55874 2.12132 -2.12132 
C 1.55874 -2.683901 0.795609 -3 0 -3 
C -0.795609 -3 -1.55874 -2.683901 -2.12132 -2.12132 
C -2.683901 -1.55874 -3 -0.795609 -3 0 
C -3 0.795609 -2.683901 1.55874 -2.12132 2.12132 
C -1.55874 2.683901 -0.795609 3 0 3 
z
" style="stroke: #1f77b4"/>
    </defs>
    <g clip-path="url(#pe0f78d7dc3)">
     <use xlink:href="#m0b6ed67d09" x="411.990909" y="50.004347" style="fill: #1f77b4; stroke: #1f77b4"/>
     <use xlink:href="#m0b6ed67d09" x="371.386364" y="66.943276" style="fill: #1f77b4; stroke: #1f77b4"/>
     <use xlink:href="#m0b6ed67d09" x="290.177273" y="108.227298" style="fill: #1f77b4; stroke: #1f77b4"/>
     <use xlink:href="#m0b6ed67d09" x="208.968182" y="73.399744" style="fill: #1f77b4; stroke: #1f77b4"/>
     <use xlink:href="#m0b6ed67d09" x="87.154545" y="84.899726" style="fill: #1f77b4; stroke: #1f77b4"/>
     <use xlink:href="#m0b6ed67d09" x="127.759091" y="68.06605" style="fill: #1f77b4; stroke: #1f77b4"/>
    </g>
   </g>
   <g id="PathCollection_2">
    <defs>
     <path id="md5c99e67fa" d="M 0 -3 
L -0.673542 -0.927051 
L -2.85317 -0.927051 
L -1.089814 0.354102 
L -1.763356 2.427051 
L -0 1.145898 
L 1.763356 2.427051 
L 1.089814 0.354102 
L 2.85317 -0.927051 
L 0.673542 -0.927051 
z
" style="stroke: #ff7f0e"/>
    </defs>
    <g clip-path="url(#pe0f78d7dc3)">
     <use xlink:href="#md5c99e67fa" x="249.572727" y="96.557039" style="fill: #ff7f0e; stroke: #ff7f0e"/>
     <use xlink:href="#md5c99e67fa" x="452.595455" y="61.854402" style="fill: #ff7f0e; stroke: #ff7f0e"/>
    </g>
   </g>
   <g id="FillBetweenPolyCollection_1">
    <defs>
     <path id="m178c484acb" d="M 66.852273 -369.755995 
L 66.852273 -324.334754 
L 70.953742 -326.952407 
L 75.055211 -329.948131 
L 79.156681 -333.097465 
L 83.25815 -335.90302 
L 87.359619 -337.620797 
L 91.461089 -337.988748 
L 95.562556 -337.749859 
L 99.664027 -337.760631 
L 103.765497 -338.480481 
L 107.866964 -340.06677 
L 111.968435 -342.489311 
L 116.069905 -345.562931 
L 120.171372 -348.906416 
L 124.27284 -351.828036 
L 128.374313 -353.317439 
L 132.47578 -352.765971 
L 136.577248 -350.665604 
L 140.678721 -347.836727 
L 144.780189 -344.83555 
L 148.881656 -341.977064 
L 152.983129 -339.438645 
L 157.084597 -337.32133 
L 161.186064 -335.682603 
L 165.287537 -334.555075 
L 169.388999 -333.957505 
L 173.490472 -333.900857 
L 177.591945 -334.390477 
L 181.693407 -335.424523 
L 185.79488 -336.988077 
L 189.896354 -339.040994 
L 193.997815 -341.49468 
L 198.099288 -344.165055 
L 202.200762 -346.670344 
L 206.302223 -348.245929 
L 210.403696 -347.813673 
L 214.50517 -345.134875 
L 218.606631 -341.166078 
L 222.708104 -336.78336 
L 226.809578 -332.4358 
L 230.911039 -328.328858 
L 235.012512 -324.553238 
L 239.113986 -321.145683 
L 243.215447 -318.119372 
L 247.316921 -315.481122 
L 251.418394 -313.241955 
L 255.519855 -311.42341 
L 259.621329 -310.060528 
L 263.722802 -309.20137 
L 267.824263 -308.901818 
L 271.925749 -309.212801 
L 276.027198 -310.153007 
L 280.128671 -311.650106 
L 284.230145 -313.412181 
L 288.331594 -314.721449 
L 292.433092 -314.644076 
L 296.534541 -313.252853 
L 300.636014 -311.509677 
L 304.737488 -310.086471 
L 308.838961 -309.247615 
L 312.940434 -309.055994 
L 317.041884 -309.492409 
L 321.143381 -310.510035 
L 325.24483 -312.059715 
L 329.346304 -314.101816 
L 333.447777 -316.610639 
L 337.549226 -319.574263 
L 341.650724 -322.990787 
L 345.752173 -326.860556 
L 349.853646 -331.174119 
L 353.95512 -335.892167 
L 358.056593 -340.911858 
L 362.158067 -346.004955 
L 366.259516 -350.710763 
L 370.361013 -354.276777 
L 374.462463 -356.151439 
L 378.563936 -356.815057 
L 382.665409 -357.213753 
L 386.766859 -357.971604 
L 390.868356 -359.364808 
L 394.969805 -361.444937 
L 399.071279 -364.091759 
L 403.172752 -366.994728 
L 407.274226 -369.559563 
L 411.375699 -370.818729 
L 415.477148 -369.893103 
L 419.578622 -366.976337 
L 423.680095 -362.928112 
L 427.781568 -358.430465 
L 431.883042 -353.885343 
L 435.984491 -349.520193 
L 440.085964 -345.460454 
L 444.187438 -341.768902 
L 448.288911 -338.468181 
L 452.390385 -335.555228 
L 456.491858 -333.01101 
L 460.593331 -330.807288 
L 464.69478 -328.911308 
L 468.796254 -327.288937 
L 472.897727 -325.906806 
L 472.897727 -397.399464 
L 472.897727 -397.399464 
L 468.796254 -398.013458 
L 464.69478 -398.630676 
L 460.593331 -399.22492 
L 456.491858 -399.761532 
L 452.390385 -400.196504 
L 448.288911 -400.476208 
L 444.187438 -400.538182 
L 440.085964 -400.313755 
L 435.984491 -399.733823 
L 431.883042 -398.740157 
L 427.781568 -397.306928 
L 423.680095 -395.482707 
L 419.578622 -393.472482 
L 415.477148 -391.76359 
L 411.375699 -391.060856 
L 407.274226 -391.502977 
L 403.172752 -392.287507 
L 399.071279 -392.603393 
L 394.969805 -392.038177 
L 390.868356 -390.45653 
L 386.766859 -387.889896 
L 382.665409 -384.511034 
L 378.563936 -380.68523 
L 374.462463 -377.096118 
L 370.361013 -374.724216 
L 366.259516 -374.064715 
L 362.158067 -374.566679 
L 358.056593 -375.46647 
L 353.95512 -376.283545 
L 349.853646 -376.764079 
L 345.752173 -376.777295 
L 341.650724 -376.257208 
L 337.549226 -375.172692 
L 333.447777 -373.511898 
L 329.346304 -371.274445 
L 325.24483 -368.468931 
L 321.143381 -365.114341 
L 317.041884 -361.245075 
L 312.940434 -356.920424 
L 308.838961 -352.239258 
L 304.737488 -347.36575 
L 300.636014 -342.578132 
L 296.534541 -338.373023 
L 292.433092 -335.640979 
L 288.331594 -335.494376 
L 284.230145 -338.012476 
L 280.128671 -342.117841 
L 276.027198 -346.87339 
L 271.925749 -351.749363 
L 267.824263 -356.449288 
L 263.722802 -360.797222 
L 259.621329 -364.685113 
L 255.519855 -368.045272 
L 251.418394 -370.834206 
L 247.316921 -373.022354 
L 243.215447 -374.587832 
L 239.113986 -375.513817 
L 235.012512 -375.789681 
L 230.911039 -375.41698 
L 226.809578 -374.423096 
L 222.708104 -372.889219 
L 218.606631 -371.010206 
L 214.50517 -369.224747 
L 210.403696 -368.403125 
L 206.302223 -369.509459 
L 202.200762 -372.336941 
L 198.099288 -375.860221 
L 193.997815 -379.375534 
L 189.896354 -382.561152 
L 185.79488 -385.286995 
L 181.693407 -387.509395 
L 177.591945 -389.222339 
L 173.490472 -390.433156 
L 169.388999 -391.149478 
L 165.287537 -391.372442 
L 161.186064 -391.094067 
L 157.084597 -390.298232 
L 152.983129 -388.965591 
L 148.881656 -387.083821 
L 144.780189 -384.666497 
L 140.678721 -381.78801 
L 136.577248 -378.650327 
L 132.47578 -375.697627 
L 128.374313 -373.659021 
L 124.27284 -372.988631 
L 120.171372 -373.124802 
L 116.069905 -373.173397 
L 111.968435 -372.596471 
L 107.866964 -371.184784 
L 103.765497 -368.932637 
L 99.664027 -365.990304 
L 95.562556 -362.690427 
L 91.461089 -359.652791 
L 87.359619 -357.861728 
L 83.25815 -358.125302 
L 79.156681 -360.159604 
L 75.055211 -363.136686 
L 70.953742 -366.448639 
L 66.852273 -369.755995 
z
" style="stroke: #1f77b4; stroke-opacity: 0.2"/>
    </defs>
    <g clip-path="url(#pe0f78d7dc3)">
     <use xlink:href="#m178c484acb" x="0" y="432" style="fill: #1f77b4; fill-opacity: 0.2; stroke: #1f77b4; stroke-opacity: 0.2"/>
    </g>
   </g>
   <g id="matplotlib.axis_1">
    <g id="xtick_1">
     <g id="line2d_1">
      <defs>
       <path id="mf640f76772" d="M 0 0 
L 0 3.5 
" style="stroke: #000000; stroke-width: 0.8"/>
      </defs>
      <g>
       <use xlink:href="#mf640f76772" x="66.852273" y="127.68" style="stroke: #000000; stroke-width: 0.8"/>
      </g>
     </g>
    </g>
    <g id="xtick_2">
     <g id="line2d_2">
      <g>
       <use xlink:href="#mf640f76772" x="148.061364" y="127.68" style="stroke: #000000; stroke-width: 0.8"/>
      </g>
     </g>
    </g>
    <g id="xtick_3">
     <g id="line2d_3">
      <g>
       <use xlink:href="#mf640f76772" x="229.270455" y="127.68" style="stroke: #000000; stroke-width: 0.8"/>
      </g>
     </g>
    </g>
    <g id="xtick_4">
     <g id="line2d_4">
      <g>
       <use xlink:href="#mf640f76772" x="310.479545" y="127.68" style="stroke: #000000; stroke-width: 0.8"/>
      </g>
     </g>
    </g>
    <g id="xtick_5">
     <g id="line2d_5">
      <g>
       <use xlink:href="#mf640f76772" x="391.688636" y="127.68" style="stroke: #000000; stroke-width: 0.8"/>
      </g>
     </g>
    </g>
    <g id="xtick_6">
     <g id="line2d_6">
      <g>
       <use xlink:href="#mf640f76772" x="472.897727" y="127.68" style="stroke: #000000; stroke-width: 0.8"/>
      </g>
     </g>
    </g>
   </g>
   <g id="matplotlib.axis_2">
    <g id="ytick_1">
     <g id="line2d_7">
      <defs>
       <path id="mc032636937" d="M 0 0 
L -3.5 0 
" style="stroke: #000000; stroke-width: 0.8"/>
      </defs>
      <g>
       <use xlink:href="#mc032636937" x="46.55" y="112.114609" style="stroke: #000000; stroke-width: 0.8"/>
      </g>
     </g>
     <g id="text_1">
      <!-- −2 -->
      <g transform="translate(24.807813 115.913828) scale(0.1 -0.1)">
       <defs>
        <path id="DejaVuSans-2212" d="M 678 2272 
L 4684 2272 
L 4684 1741 
L 678 1741 
L 678 2272 
z
" transform="scale(0.015625)"/>
        <path id="DejaVuSans-32" d="M 1228 531 
L 3431 531 
L 3431 0 
L 469 0 
L 469 531 
Q 828 903 1448 1529 
Q 2069 2156 2228 2338 
Q 2531 2678 2651 2914 
Q 2772 3150 2772 3378 
Q 2772 3750 2511 3984 
Q 2250 4219 1831 4219 
Q 1534 4219 1204 4116 
Q 875 4013 500 3803 
L 500 4441 
Q 881 4594 1212 4672 
Q 1544 4750 1819 4750 
Q 2544 4750 2975 4387 
Q 3406 4025 3406 3419 
Q 3406 3131 3298 2873 
Q 3191 2616 2906 2266 
Q 2828 2175 2409 1742 
Q 1991 1309 1228 531 
z
" transform="scale(0.015625)"/>
       </defs>
       <use xlink:href="#DejaVuSans-2212"/>
       <use xlink:href="#DejaVuSans-32" transform="translate(83.789062 0)"/>
      </g>
     </g>
    </g>
    <g id="ytick_2">
     <g id="line2d_8">
      <g>
       <use xlink:href="#mc032636937" x="46.55" y="76.574419" style="stroke: #000000; stroke-width: 0.8"/>
      </g>
     </g>
     <g id="text_2">
      <!-- 0 -->
      <g transform="translate(33.1875 80.373638) scale(0.1 -0.1)">
       <defs>
        <path id="DejaVuSans-30" d="M 2034 4250 
Q 1547 4250 1301 3770 
Q 1056 3291 1056 2328 
Q 1056 1369 1301 889 
Q 1547 409 2034 409 
Q 2525 409 2770 889 
Q 3016 1369 3016 2328 
Q 3016 3291 2770 3770 
Q 2525 4250 2034 4250 
z
M 2034 4750 
Q 2819 4750 3233 4129 
Q 3647 3509 3647 2328 
Q 3647 1150 3233 529 
Q 2819 -91 2034 -91 
Q 1250 -91 836 529 
Q 422 1150 422 2328 
Q 422 3509 836 4129 
Q 1250 4750 2034 4750 
z
" transform="scale(0.015625)"/>
       </defs>
       <use xlink:href="#DejaVuSans-30"/>
      </g>
     </g>
    </g>
    <g id="ytick_3">
     <g id="line2d_9">
      <g>
       <use xlink:href="#mc032636937" x="46.55" y="41.03423" style="stroke: #000000; stroke-width: 0.8"/>
      </g>
     </g>
     <g id="text_3">
      <!-- 2 -->
      <g transform="translate(33.1875 44.833448) scale(0.1 -0.1)">
       <use xlink:href="#DejaVuSans-32"/>
      </g>
     </g>
    </g>
    <g id="text_4">
     <!-- y -->
     <g transform="translate(18.728125 80.239375) rotate(-90) scale(0.1 -0.1)">
      <defs>
       <path id="DejaVuSans-79" d="M 2059 -325 
Q 1816 -950 1584 -1140 
Q 1353 -1331 966 -1331 
L 506 -1331 
L 506 -850 
L 844 -850 
Q 1081 -850 1212 -737 
Q 1344 -625 1503 -206 
L 1606 56 
L 191 3500 
L 800 3500 
L 1894 763 
L 2988 3500 
L 3597 3500 
L 2059 -325 
z
" transform="scale(0.015625)"/>
      </defs>
      <use xlink:href="#DejaVuSans-79"/>
     </g>
    </g>
   </g>
   <g id="line2d_10">
    <path d="M 66.852273 91.171328 
L 70.953742 90.163763 
L 75.055211 89.013962 
L 79.156681 87.732082 
L 83.25815 86.330168 
L 87.359619 84.822028 
L 91.461089 83.223077 
L 95.562556 81.550174 
L 99.664027 79.821423 
L 103.765497 78.055977 
L 107.866964 76.273814 
L 111.968435 74.4955 
L 116.069905 72.74196 
L 120.171372 71.034225 
L 124.27284 69.393181 
L 128.374313 67.839318 
L 132.47578 66.39249 
L 136.577248 65.071661 
L 140.678721 63.894669 
L 144.780189 62.878016 
L 148.881656 62.036637 
L 152.983129 61.383715 
L 157.084597 60.930509 
L 161.186064 60.686181 
L 165.287537 60.657678 
L 169.388999 60.849612 
L 173.490472 61.264177 
L 177.591945 61.901095 
L 181.693407 62.757576 
L 185.79488 63.828333 
L 189.896354 65.105587 
L 193.997815 66.579134 
L 198.099288 68.236437 
L 202.200762 70.062712 
L 206.302223 72.041077 
L 210.403696 74.152733 
L 214.50517 76.37711 
L 218.606631 78.692095 
L 222.708104 81.074279 
L 226.809578 83.499154 
L 230.911039 85.941399 
L 235.012512 88.375163 
L 239.113986 90.77431 
L 243.215447 93.112714 
L 247.316921 95.364578 
L 251.418394 97.504671 
L 255.519855 99.508637 
L 259.621329 101.353287 
L 263.722802 103.016832 
L 267.824263 104.479155 
L 271.925749 105.722063 
L 276.027198 106.729464 
L 280.128671 107.487626 
L 284.230145 107.985295 
L 288.331594 108.213878 
L 292.433092 108.167558 
L 296.534541 107.843384 
L 300.636014 107.241334 
L 304.737488 106.364349 
L 308.838961 105.218335 
L 312.940434 103.812126 
L 317.041884 102.157435 
L 321.143381 100.268702 
L 325.24483 98.163087 
L 329.346304 95.860158 
L 333.447777 93.381835 
L 337.549226 90.752131 
L 341.650724 87.996856 
L 345.752173 85.14353 
L 349.853646 82.220879 
L 353.95512 79.258727 
L 358.056593 76.287601 
L 362.158067 73.338432 
L 366.259516 70.442245 
L 370.361013 67.629748 
L 374.462463 64.931188 
L 378.563936 62.375792 
L 382.665409 59.991629 
L 386.766859 57.805232 
L 390.868356 55.84126 
L 394.969805 54.122353 
L 399.071279 52.668708 
L 403.172752 51.497973 
L 407.274226 50.62498 
L 411.375699 50.061575 
L 415.477148 49.816468 
L 419.578622 49.895113 
L 423.680095 50.299629 
L 427.781568 51.028741 
L 431.883042 52.07777 
L 435.984491 53.438644 
L 440.085964 55.099988 
L 444.187438 57.047172 
L 448.288911 59.262463 
L 452.390385 61.725182 
L 456.491858 64.4119 
L 460.593331 67.296656 
L 464.69478 70.351197 
L 468.796254 73.545326 
L 472.897727 76.847095 
" clip-path="url(#pe0f78d7dc3)" style="fill: none; stroke-dasharray: 5.55,2.4; stroke-dashoffset: 0; stroke: #000000; stroke-width: 1.5"/>
   </g>
   <g id="line2d_11">
    <path d="M 66.852273 84.954625 
L 70.953742 85.299477 
L 75.055211 85.457591 
L 79.156681 85.371466 
L 83.25815 84.985839 
L 87.359619 84.258738 
L 91.461089 83.17923 
L 95.562556 81.779857 
L 99.664027 80.124532 
L 103.765497 78.293441 
L 107.866964 76.374223 
L 111.968435 74.457109 
L 116.069905 72.631836 
L 120.171372 70.984391 
L 124.27284 69.591667 
L 128.374313 68.51177 
L 132.47578 67.768201 
L 136.577248 67.342034 
L 140.678721 67.187632 
L 144.780189 67.248977 
L 148.881656 67.469558 
L 152.983129 67.797882 
L 157.084597 68.190219 
L 161.186064 68.611665 
L 165.287537 69.036242 
L 169.388999 69.446508 
L 173.490472 69.832993 
L 177.591945 70.193592 
L 181.693407 70.533041 
L 185.79488 70.862464 
L 189.896354 71.198927 
L 193.997815 71.564893 
L 198.099288 71.987362 
L 202.200762 72.496358 
L 206.302223 73.122306 
L 210.403696 73.891601 
L 214.50517 74.820189 
L 218.606631 75.911858 
L 222.708104 77.16371 
L 226.809578 78.570552 
L 230.911039 80.127081 
L 235.012512 81.828541 
L 239.113986 83.67025 
L 243.215447 85.646398 
L 247.316921 87.748262 
L 251.418394 89.96192 
L 255.519855 92.265659 
L 259.621329 94.627179 
L 263.722802 97.000704 
L 267.824263 99.324447 
L 271.925749 101.518918 
L 276.027198 103.486801 
L 280.128671 105.116027 
L 284.230145 106.287672 
L 288.331594 106.892087 
L 292.433092 106.857473 
L 296.534541 106.187062 
L 300.636014 104.956096 
L 304.737488 103.273889 
L 308.838961 101.256563 
L 312.940434 99.011791 
L 317.041884 96.631258 
L 321.143381 94.187812 
L 325.24483 91.735677 
L 329.346304 89.311869 
L 333.447777 86.938732 
L 337.549226 84.626523 
L 341.650724 82.376002 
L 345.752173 80.181075 
L 349.853646 78.030901 
L 353.95512 75.912144 
L 358.056593 73.810836 
L 362.158067 71.714183 
L 366.259516 69.612261 
L 370.361013 67.499504 
L 374.462463 65.376221 
L 378.563936 63.249856 
L 382.665409 61.137606 
L 386.766859 59.06925 
L 390.868356 57.089331 
L 394.969805 55.258443 
L 399.071279 53.652424 
L 403.172752 52.358882 
L 407.274226 51.46873 
L 411.375699 51.060207 
L 415.477148 51.171653 
L 419.578622 51.77559 
L 423.680095 52.79459 
L 427.781568 54.131304 
L 431.883042 55.68725 
L 435.984491 57.372992 
L 440.085964 59.112896 
L 444.187438 60.846458 
L 448.288911 62.527805 
L 452.390385 64.124134 
L 456.491858 65.613729 
L 460.593331 66.983896 
L 464.69478 68.229008 
L 468.796254 69.348802 
L 472.897727 70.346865 
" clip-path="url(#pe0f78d7dc3)" style="fill: none; stroke: #1f77b4; stroke-width: 1.5; stroke-linecap: square"/>
   </g>
   <g id="patch_3">
    <path d="M 46.55 127.68 
L 46.55 26.88 
" style="fill: none; stroke: #000000; stroke-width: 0.8; stroke-linejoin: miter; stroke-linecap: square"/>
   </g>
   <g id="patch_4">
    <path d="M 493.2 127.68 
L 493.2 26.88 
" style="fill: none; stroke: #000000; stroke-width: 0.8; stroke-linejoin: miter; stroke-linecap: square"/>
   </g>
   <g id="patch_5">
    <path d="M 46.55 127.68 
L 493.2 127.68 
" style="fill: none; stroke: #000000; stroke-width: 0.8; stroke-linejoin: miter; stroke-linecap: square"/>
   </g>
   <g id="patch_6">
    <path d="M 46.55 26.88 
L 493.2 26.88 
" style="fill: none; stroke: #000000; stroke-width: 0.8; stroke-linejoin: miter; stroke-linecap: square"/>
   </g>
   <g id="text_5">
    <!-- MaternKernel -->
    <g transform="translate(229.96375 20.88) scale(0.12 -0.12)">
     <defs>
      <path id="DejaVuSans-4d" d="M 628 4666 
L 1569 4666 
L 2759 1491 
L 3956 4666 
L 4897 4666 
L 4897 0 
L 4281 0 
L 4281 4097 
L 3078 897 
L 2444 897 
L 1241 4097 
L 1241 0 
L 628 0 
L 628 4666 
z
" transform="scale(0.015625)"/>
      <path id="DejaVuSans-61" d="M 2194 1759 
Q 1497 1759 1228 1600 
Q 959 1441 959 1056 
Q 959 750 1161 570 
Q 1363 391 1709 391 
Q 2188 391 2477 730 
Q 2766 1069 2766 1631 
L 2766 1759 
L 2194 1759 
z
M 3341 1997 
L 3341 0 
L 2766 0 
L 2766 531 
Q 2569 213 2275 61 
Q 1981 -91 1556 -91 
Q 1019 -91 701 211 
Q 384 513 384 1019 
Q 384 1609 779 1909 
Q 1175 2209 1959 2209 
L 2766 2209 
L 2766 2266 
Q 2766 2663 2505 2880 
Q 2244 3097 1772 3097 
Q 1472 3097 1187 3025 
Q 903 2953 641 2809 
L 641 3341 
Q 956 3463 1253 3523 
Q 1550 3584 1831 3584 
Q 2591 3584 2966 3190 
Q 3341 2797 3341 1997 
z
" transform="scale(0.015625)"/>
      <path id="DejaVuSans-74" d="M 1172 4494 
L 1172 3500 
L 2356 3500 
L 2356 3053 
L 1172 3053 
L 1172 1153 
Q 1172 725 1289 603 
Q 1406 481 1766 481 
L 2356 481 
L 2356 0 
L 1766 0 
Q 1100 0 847 248 
Q 594 497 594 1153 
L 594 3053 
L 172 3053 
L 172 3500 
L 594 3500 
L 594 4494 
L 1172 4494 
z
" transform="scale(0.015625)"/>
      <path id="DejaVuSans-65" d="M 3597 1894 
L 3597 1613 
L 953 1613 
Q 991 1019 1311 708 
Q 1631 397 2203 397 
Q 2534 397 2845 478 
Q 3156 559 3463 722 
L 3463 178 
Q 3153 47 2828 -22 
Q 2503 -91 2169 -91 
Q 1331 -91 842 396 
Q 353 884 353 1716 
Q 353 2575 817 3079 
Q 1281 3584 2069 3584 
Q 2775 3584 3186 3129 
Q 3597 2675 3597 1894 
z
M 3022 2063 
Q 3016 2534 2758 2815 
Q 2500 3097 2075 3097 
Q 1594 3097 1305 2825 
Q 1016 2553 972 2059 
L 3022 2063 
z
" transform="scale(0.015625)"/>
      <path id="DejaVuSans-72" d="M 2631 2963 
Q 2534 3019 2420 3045 
Q 2306 3072 2169 3072 
Q 1681 3072 1420 2755 
Q 1159 2438 1159 1844 
L 1159 0 
L 581 0 
L 581 3500 
L 1159 3500 
L 1159 2956 
Q 1341 3275 1631 3429 
Q 1922 3584 2338 3584 
Q 2397 3584 2469 3576 
Q 2541 3569 2628 3553 
L 2631 2963 
z
" transform="scale(0.015625)"/>
      <path id="DejaVuSans-6e" d="M 3513 2113 
L 3513 0 
L 2938 0 
L 2938 2094 
Q 2938 2591 2744 2837 
Q 2550 3084 2163 3084 
Q 1697 3084 1428 2787 
Q 1159 2491 1159 1978 
L 1159 0 
L 581 0 
L 581 3500 
L 1159 3500 
L 1159 2956 
Q 1366 3272 1645 3428 
Q 1925 3584 2291 3584 
Q 2894 3584 3203 3211 
Q 3513 2838 3513 2113 
z
" transform="scale(0.015625)"/>
      <path id="DejaVuSans-4b" d="M 628 4666 
L 1259 4666 
L 1259 2694 
L 3353 4666 
L 4166 4666 
L 1850 2491 
L 4331 0 
L 3500 0 
L 1259 2247 
L 1259 0 
L 628 0 
L 628 4666 
z
" transform="scale(0.015625)"/>
      <path id="DejaVuSans-6c" d="M 603 4863 
L 1178 4863 
L 1178 0 
L 603 0 
L 603 4863 
z
" transform="scale(0.015625)"/>
     </defs>
     <use xlink:href="#DejaVuSans-4d"/>
     <use xlink:href="#DejaVuSans-61" transform="translate(86.279297 0)"/>
     <use xlink:href="#DejaVuSans-74" transform="translate(147.558594 0)"/>
     <use xlink:href="#DejaVuSans-65" transform="translate(186.767578 0)"/>
     <use xlink:href="#DejaVuSans-72" transform="translate(248.291016 0)"/>
     <use xlink:href="#DejaVuSans-6e" transform="translate(287.654297 0)"/>
     <use xlink:href="#DejaVuSans-4b" transform="translate(351.033203 0)"/>
     <use xlink:href="#DejaVuSans-65" transform="translate(411.609375 0)"/>
     <use xlink:href="#DejaVuSans-72" transform="translate(473.132812 0)"/>
     <use xlink:href="#DejaVuSans-6e" transform="translate(512.496094 0)"/>
     <use xlink:href="#DejaVuSans-65" transform="translate(575.875 0)"/>
     <use xlink:href="#DejaVuSans-6c" transform="translate(637.398438 0)"/>
    </g>
   </g>
   <g id="legend_1">
    <g id="patch_7">
     <path d="M 51.408 42.618619 
L 400.394575 42.618619 
Q 401.782575 42.618619 401.782575 41.230619 
L 401.782575 31.738 
Q 401.782575 30.35 400.394575 30.35 
L 51.408 30.35 
Q 50.02 30.35 50.02 31.738 
L 50.02 41.230619 
Q 50.02 42.618619 51.408 42.618619 
z
" style="fill: #ffffff; opacity: 0.8; stroke: #cccccc; stroke-linejoin: miter"/>
    </g>
    <g id="line2d_12">
     <path d="M 52.796 35.970316 
L 59.736 35.970316 
L 66.676 35.970316 
" style="fill: none; stroke-dasharray: 5.55,2.4; stroke-dashoffset: 0; stroke: #000000; stroke-width: 1.5"/>
    </g>
    <g id="text_6">
     <!-- Objective -->
     <g transform="translate(72.228 38.399316) scale(0.0694 -0.0694)">
      <defs>
       <path id="DejaVuSans-4f" d="M 2522 4238 
Q 1834 4238 1429 3725 
Q 1025 3213 1025 2328 
Q 1025 1447 1429 934 
Q 1834 422 2522 422 
Q 3209 422 3611 934 
Q 4013 1447 4013 2328 
Q 4013 3213 3611 3725 
Q 3209 4238 2522 4238 
z
M 2522 4750 
Q 3503 4750 4090 4092 
Q 4678 3434 4678 2328 
Q 4678 1225 4090 567 
Q 3503 -91 2522 -91 
Q 1538 -91 948 565 
Q 359 1222 359 2328 
Q 359 3434 948 4092 
Q 1538 4750 2522 4750 
z
" transform="scale(0.015625)"/>
       <path id="DejaVuSans-62" d="M 3116 1747 
Q 3116 2381 2855 2742 
Q 2594 3103 2138 3103 
Q 1681 3103 1420 2742 
Q 1159 2381 1159 1747 
Q 1159 1113 1420 752 
Q 1681 391 2138 391 
Q 2594 391 2855 752 
Q 3116 1113 3116 1747 
z
M 1159 2969 
Q 1341 3281 1617 3432 
Q 1894 3584 2278 3584 
Q 2916 3584 3314 3078 
Q 3713 2572 3713 1747 
Q 3713 922 3314 415 
Q 2916 -91 2278 -91 
Q 1894 -91 1617 61 
Q 1341 213 1159 525 
L 1159 0 
L 581 0 
L 581 4863 
L 1159 4863 
L 1159 2969 
z
" transform="scale(0.015625)"/>
       <path id="DejaVuSans-6a" d="M 603 3500 
L 1178 3500 
L 1178 -63 
Q 1178 -731 923 -1031 
Q 669 -1331 103 -1331 
L -116 -1331 
L -116 -844 
L 38 -844 
Q 366 -844 484 -692 
Q 603 -541 603 -63 
L 603 3500 
z
M 603 4863 
L 1178 4863 
L 1178 4134 
L 603 4134 
L 603 4863 
z
" transform="scale(0.015625)"/>
       <path id="DejaVuSans-63" d="M 3122 3366 
L 3122 2828 
Q 2878 2963 2633 3030 
Q 2388 3097 2138 3097 
Q 1578 3097 1268 2742 
Q 959 2388 959 1747 
Q 959 1106 1268 751 
Q 1578 397 2138 397 
Q 2388 397 2633 464 
Q 2878 531 3122 666 
L 3122 134 
Q 2881 22 2623 -34 
Q 2366 -91 2075 -91 
Q 1284 -91 818 406 
Q 353 903 353 1747 
Q 353 2603 823 3093 
Q 1294 3584 2113 3584 
Q 2378 3584 2631 3529 
Q 2884 3475 3122 3366 
z
" transform="scale(0.015625)"/>
       <path id="DejaVuSans-69" d="M 603 3500 
L 1178 3500 
L 1178 0 
L 603 0 
L 603 3500 
z
M 603 4863 
L 1178 4863 
L 1178 4134 
L 603 4134 
L 603 4863 
z
" transform="scale(0.015625)"/>
       <path id="DejaVuSans-76" d="M 191 3500 
L 800 3500 
L 1894 563 
L 2988 3500 
L 3597 3500 
L 2284 0 
L 1503 0 
L 191 3500 
z
" transform="scale(0.015625)"/>
      </defs>
      <use xlink:href="#DejaVuSans-4f"/>
      <use xlink:href="#DejaVuSans-62" transform="translate(78.710938 0)"/>
      <use xlink:href="#DejaVuSans-6a" transform="translate(142.1875 0)"/>
      <use xlink:href="#DejaVuSans-65" transform="translate(169.970703 0)"/>
      <use xlink:href="#DejaVuSans-63" transform="translate(231.494141 0)"/>
      <use xlink:href="#DejaVuSans-74" transform="translate(286.474609 0)"/>
      <use xlink:href="#DejaVuSans-69" transform="translate(325.683594 0)"/>
      <use xlink:href="#DejaVuSans-76" transform="translate(353.466797 0)"/>
      <use xlink:href="#DejaVuSans-65" transform="translate(412.646484 0)"/>
     </g>
    </g>
    <g id="PathCollection_3">
     <g>
      <use xlink:href="#m0b6ed67d09" x="125.957697" y="36.577566" style="fill: #1f77b4; stroke: #1f77b4"/>
     </g>
    </g>
    <g id="text_7">
     <!-- Training data -->
     <g transform="translate(138.449697 38.399316) scale(0.0694 -0.0694)">
      <defs>
       <path id="DejaVuSans-54" d="M -19 4666 
L 3928 4666 
L 3928 4134 
L 2272 4134 
L 2272 0 
L 1638 0 
L 1638 4134 
L -19 4134 
L -19 4666 
z
" transform="scale(0.015625)"/>
       <path id="DejaVuSans-67" d="M 2906 1791 
Q 2906 2416 2648 2759 
Q 2391 3103 1925 3103 
Q 1463 3103 1205 2759 
Q 947 2416 947 1791 
Q 947 1169 1205 825 
Q 1463 481 1925 481 
Q 2391 481 2648 825 
Q 2906 1169 2906 1791 
z
M 3481 434 
Q 3481 -459 3084 -895 
Q 2688 -1331 1869 -1331 
Q 1566 -1331 1297 -1286 
Q 1028 -1241 775 -1147 
L 775 -588 
Q 1028 -725 1275 -790 
Q 1522 -856 1778 -856 
Q 2344 -856 2625 -561 
Q 2906 -266 2906 331 
L 2906 616 
Q 2728 306 2450 153 
Q 2172 0 1784 0 
Q 1141 0 747 490 
Q 353 981 353 1791 
Q 353 2603 747 3093 
Q 1141 3584 1784 3584 
Q 2172 3584 2450 3431 
Q 2728 3278 2906 2969 
L 2906 3500 
L 3481 3500 
L 3481 434 
z
" transform="scale(0.015625)"/>
       <path id="DejaVuSans-20" transform="scale(0.015625)"/>
       <path id="DejaVuSans-64" d="M 2906 2969 
L 2906 4863 
L 3481 4863 
L 3481 0 
L 2906 0 
L 2906 525 
Q 2725 213 2448 61 
Q 2172 -91 1784 -91 
Q 1150 -91 751 415 
Q 353 922 353 1747 
Q 353 2572 751 3078 
Q 1150 3584 1784 3584 
Q 2172 3584 2448 3432 
Q 2725 3281 2906 2969 
z
M 947 1747 
Q 947 1113 1208 752 
Q 1469 391 1925 391 
Q 2381 391 2643 752 
Q 2906 1113 2906 1747 
Q 2906 2381 2643 2742 
Q 2381 3103 1925 3103 
Q 1469 3103 1208 2742 
Q 947 2381 947 1747 
z
" transform="scale(0.015625)"/>
      </defs>
      <use xlink:href="#DejaVuSans-54"/>
      <use xlink:href="#DejaVuSans-72" transform="translate(46.333984 0)"/>
      <use xlink:href="#DejaVuSans-61" transform="translate(87.447266 0)"/>
      <use xlink:href="#DejaVuSans-69" transform="translate(148.726562 0)"/>
      <use xlink:href="#DejaVuSans-6e" transform="translate(176.509766 0)"/>
      <use xlink:href="#DejaVuSans-69" transform="translate(239.888672 0)"/>
      <use xlink:href="#DejaVuSans-6e" transform="translate(267.671875 0)"/>
      <use xlink:href="#DejaVuSans-67" transform="translate(331.050781 0)"/>
      <use xlink:href="#DejaVuSans-20" transform="translate(394.527344 0)"/>
      <use xlink:href="#DejaVuSans-64" transform="translate(426.314453 0)"/>
      <use xlink:href="#DejaVuSans-61" transform="translate(489.791016 0)"/>
      <use xlink:href="#DejaVuSans-74" transform="translate(551.070312 0)"/>
      <use xlink:href="#DejaVuSans-61" transform="translate(590.279297 0)"/>
     </g>
    </g>
    <g id="PathCollection_4">
     <g>
      <use xlink:href="#md5c99e67fa" x="204.48705" y="36.577566" style="fill: #ff7f0e; stroke: #ff7f0e"/>
     </g>
    </g>
    <g id="text_8">
     <!-- Test data -->
     <g transform="translate(216.97905 38.399316) scale(0.0694 -0.0694)">
      <defs>
       <path id="DejaVuSans-73" d="M 2834 3397 
L 2834 2853 
Q 2591 2978 2328 3040 
Q 2066 3103 1784 3103 
Q 1356 3103 1142 2972 
Q 928 2841 928 2578 
Q 928 2378 1081 2264 
Q 1234 2150 1697 2047 
L 1894 2003 
Q 2506 1872 2764 1633 
Q 3022 1394 3022 966 
Q 3022 478 2636 193 
Q 2250 -91 1575 -91 
Q 1294 -91 989 -36 
Q 684 19 347 128 
L 347 722 
Q 666 556 975 473 
Q 1284 391 1588 391 
Q 1994 391 2212 530 
Q 2431 669 2431 922 
Q 2431 1156 2273 1281 
Q 2116 1406 1581 1522 
L 1381 1569 
Q 847 1681 609 1914 
Q 372 2147 372 2553 
Q 372 3047 722 3315 
Q 1072 3584 1716 3584 
Q 2034 3584 2315 3537 
Q 2597 3491 2834 3397 
z
" transform="scale(0.015625)"/>
      </defs>
      <use xlink:href="#DejaVuSans-54"/>
      <use xlink:href="#DejaVuSans-65" transform="translate(44.083984 0)"/>
      <use xlink:href="#DejaVuSans-73" transform="translate(105.607422 0)"/>
      <use xlink:href="#DejaVuSans-74" transform="translate(157.707031 0)"/>
      <use xlink:href="#DejaVuSans-20" transform="translate(196.916016 0)"/>
      <use xlink:href="#DejaVuSans-64" transform="translate(228.703125 0)"/>
      <use xlink:href="#DejaVuSans-61" transform="translate(292.179688 0)"/>
      <use xlink:href="#DejaVuSans-74" transform="translate(353.458984 0)"/>
      <use xlink:href="#DejaVuSans-61" transform="translate(392.667969 0)"/>
     </g>
    </g>
    <g id="line2d_13">
     <path d="M 262.362312 35.970316 
L 269.302312 35.970316 
L 276.242312 35.970316 
" style="fill: none; stroke: #1f77b4; stroke-width: 1.5; stroke-linecap: square"/>
    </g>
    <g id="text_9">
     <!-- Pred. mean -->
     <g transform="translate(281.794312 38.399316) scale(0.0694 -0.0694)">
      <defs>
       <path id="DejaVuSans-50" d="M 1259 4147 
L 1259 2394 
L 2053 2394 
Q 2494 2394 2734 2622 
Q 2975 2850 2975 3272 
Q 2975 3691 2734 3919 
Q 2494 4147 2053 4147 
L 1259 4147 
z
M 628 4666 
L 2053 4666 
Q 2838 4666 3239 4311 
Q 3641 3956 3641 3272 
Q 3641 2581 3239 2228 
Q 2838 1875 2053 1875 
L 1259 1875 
L 1259 0 
L 628 0 
L 628 4666 
z
" transform="scale(0.015625)"/>
       <path id="DejaVuSans-2e" d="M 684 794 
L 1344 794 
L 1344 0 
L 684 0 
L 684 794 
z
" transform="scale(0.015625)"/>
       <path id="DejaVuSans-6d" d="M 3328 2828 
Q 3544 3216 3844 3400 
Q 4144 3584 4550 3584 
Q 5097 3584 5394 3201 
Q 5691 2819 5691 2113 
L 5691 0 
L 5113 0 
L 5113 2094 
Q 5113 2597 4934 2840 
Q 4756 3084 4391 3084 
Q 3944 3084 3684 2787 
Q 3425 2491 3425 1978 
L 3425 0 
L 2847 0 
L 2847 2094 
Q 2847 2600 2669 2842 
Q 2491 3084 2119 3084 
Q 1678 3084 1418 2786 
Q 1159 2488 1159 1978 
L 1159 0 
L 581 0 
L 581 3500 
L 1159 3500 
L 1159 2956 
Q 1356 3278 1631 3431 
Q 1906 3584 2284 3584 
Q 2666 3584 2933 3390 
Q 3200 3197 3328 2828 
z
" transform="scale(0.015625)"/>
      </defs>
      <use xlink:href="#DejaVuSans-50"/>
      <use xlink:href="#DejaVuSans-72" transform="translate(58.552734 0)"/>
      <use xlink:href="#DejaVuSans-65" transform="translate(97.416016 0)"/>
      <use xlink:href="#DejaVuSans-64" transform="translate(158.939453 0)"/>
      <use xlink:href="#DejaVuSans-2e" transform="translate(222.416016 0)"/>
      <use xlink:href="#DejaVuSans-20" transform="translate(254.203125 0)"/>
      <use xlink:href="#DejaVuSans-6d" transform="translate(285.990234 0)"/>
      <use xlink:href="#DejaVuSans-65" transform="translate(383.402344 0)"/>
      <use xlink:href="#DejaVuSans-61" transform="translate(444.925781 0)"/>
      <use xlink:href="#DejaVuSans-6e" transform="translate(506.205078 0)"/>
     </g>
    </g>
    <g id="patch_8">
     <path d="M 335.203034 38.399316 
L 349.083034 38.399316 
L 349.083034 33.541316 
L 335.203034 33.541316 
z
" style="fill: #1f77b4; fill-opacity: 0.2; stroke: #1f77b4; stroke-opacity: 0.2; stroke-linejoin: miter"/>
    </g>
    <g id="text_10">
     <!-- Pred. 95% CI -->
     <g transform="translate(354.635034 38.399316) scale(0.0694 -0.0694)">
      <defs>
       <path id="DejaVuSans-39" d="M 703 97 
L 703 672 
Q 941 559 1184 500 
Q 1428 441 1663 441 
Q 2288 441 2617 861 
Q 2947 1281 2994 2138 
Q 2813 1869 2534 1725 
Q 2256 1581 1919 1581 
Q 1219 1581 811 2004 
Q 403 2428 403 3163 
Q 403 3881 828 4315 
Q 1253 4750 1959 4750 
Q 2769 4750 3195 4129 
Q 3622 3509 3622 2328 
Q 3622 1225 3098 567 
Q 2575 -91 1691 -91 
Q 1453 -91 1209 -44 
Q 966 3 703 97 
z
M 1959 2075 
Q 2384 2075 2632 2365 
Q 2881 2656 2881 3163 
Q 2881 3666 2632 3958 
Q 2384 4250 1959 4250 
Q 1534 4250 1286 3958 
Q 1038 3666 1038 3163 
Q 1038 2656 1286 2365 
Q 1534 2075 1959 2075 
z
" transform="scale(0.015625)"/>
       <path id="DejaVuSans-35" d="M 691 4666 
L 3169 4666 
L 3169 4134 
L 1269 4134 
L 1269 2991 
Q 1406 3038 1543 3061 
Q 1681 3084 1819 3084 
Q 2600 3084 3056 2656 
Q 3513 2228 3513 1497 
Q 3513 744 3044 326 
Q 2575 -91 1722 -91 
Q 1428 -91 1123 -41 
Q 819 9 494 109 
L 494 744 
Q 775 591 1075 516 
Q 1375 441 1709 441 
Q 2250 441 2565 725 
Q 2881 1009 2881 1497 
Q 2881 1984 2565 2268 
Q 2250 2553 1709 2553 
Q 1456 2553 1204 2497 
Q 953 2441 691 2322 
L 691 4666 
z
" transform="scale(0.015625)"/>
       <path id="DejaVuSans-25" d="M 4653 2053 
Q 4381 2053 4226 1822 
Q 4072 1591 4072 1178 
Q 4072 772 4226 539 
Q 4381 306 4653 306 
Q 4919 306 5073 539 
Q 5228 772 5228 1178 
Q 5228 1588 5073 1820 
Q 4919 2053 4653 2053 
z
M 4653 2450 
Q 5147 2450 5437 2106 
Q 5728 1763 5728 1178 
Q 5728 594 5436 251 
Q 5144 -91 4653 -91 
Q 4153 -91 3862 251 
Q 3572 594 3572 1178 
Q 3572 1766 3864 2108 
Q 4156 2450 4653 2450 
z
M 1428 4353 
Q 1159 4353 1004 4120 
Q 850 3888 850 3481 
Q 850 3069 1003 2837 
Q 1156 2606 1428 2606 
Q 1700 2606 1854 2837 
Q 2009 3069 2009 3481 
Q 2009 3884 1853 4118 
Q 1697 4353 1428 4353 
z
M 4250 4750 
L 4750 4750 
L 1831 -91 
L 1331 -91 
L 4250 4750 
z
M 1428 4750 
Q 1922 4750 2215 4408 
Q 2509 4066 2509 3481 
Q 2509 2891 2217 2550 
Q 1925 2209 1428 2209 
Q 931 2209 642 2551 
Q 353 2894 353 3481 
Q 353 4063 643 4406 
Q 934 4750 1428 4750 
z
" transform="scale(0.015625)"/>
       <path id="DejaVuSans-43" d="M 4122 4306 
L 4122 3641 
Q 3803 3938 3442 4084 
Q 3081 4231 2675 4231 
Q 1875 4231 1450 3742 
Q 1025 3253 1025 2328 
Q 1025 1406 1450 917 
Q 1875 428 2675 428 
Q 3081 428 3442 575 
Q 3803 722 4122 1019 
L 4122 359 
Q 3791 134 3420 21 
Q 3050 -91 2638 -91 
Q 1578 -91 968 557 
Q 359 1206 359 2328 
Q 359 3453 968 4101 
Q 1578 4750 2638 4750 
Q 3056 4750 3426 4639 
Q 3797 4528 4122 4306 
z
" transform="scale(0.015625)"/>
       <path id="DejaVuSans-49" d="M 628 4666 
L 1259 4666 
L 1259 0 
L 628 0 
L 628 4666 
z
" transform="scale(0.015625)"/>
      </defs>
      <use xlink:href="#DejaVuSans-50"/>
      <use xlink:href="#DejaVuSans-72" transform="translate(58.552734 0)"/>
      <use xlink:href="#DejaVuSans-65" transform="translate(97.416016 0)"/>
      <use xlink:href="#DejaVuSans-64" transform="translate(158.939453 0)"/>
      <use xlink:href="#DejaVuSans-2e" transform="translate(222.416016 0)"/>
      <use xlink:href="#DejaVuSans-20" transform="translate(254.203125 0)"/>
      <use xlink:href="#DejaVuSans-39" transform="translate(285.990234 0)"/>
      <use xlink:href="#DejaVuSans-35" transform="translate(349.613281 0)"/>
      <use xlink:href="#DejaVuSans-25" transform="translate(413.236328 0)"/>
      <use xlink:href="#DejaVuSans-20" transform="translate(508.255859 0)"/>
      <use xlink:href="#DejaVuSans-43" transform="translate(540.042969 0)"/>
      <use xlink:href="#DejaVuSans-49" transform="translate(609.867188 0)"/>
     </g>
    </g>
   </g>
  </g>
  <g id="axes_2">
   <g id="patch_9">
    <path d="M 46.55 258.86 
L 493.2 258.86 
L 493.2 158.06 
L 46.55 158.06 
z
" style="fill: #ffffff"/>
   </g>
   <g id="PathCollection_5">
    <g clip-path="url(#p20ccb562db)">
     <use xlink:href="#m0b6ed67d09" x="411.990909" y="180.588582" style="fill: #1f77b4; stroke: #1f77b4"/>
     <use xlink:href="#m0b6ed67d09" x="371.386364" y="197.833945" style="fill: #1f77b4; stroke: #1f77b4"/>
     <use xlink:href="#m0b6ed67d09" x="290.177273" y="239.864815" style="fill: #1f77b4; stroke: #1f77b4"/>
     <use xlink:href="#m0b6ed67d09" x="208.968182" y="204.407214" style="fill: #1f77b4; stroke: #1f77b4"/>
     <use xlink:href="#m0b6ed67d09" x="87.154545" y="216.115235" style="fill: #1f77b4; stroke: #1f77b4"/>
     <use xlink:href="#m0b6ed67d09" x="127.759091" y="198.97703" style="fill: #1f77b4; stroke: #1f77b4"/>
    </g>
   </g>
   <g id="PathCollection_6">
    <g clip-path="url(#p20ccb562db)">
     <use xlink:href="#md5c99e67fa" x="249.572727" y="227.983436" style="fill: #ff7f0e; stroke: #ff7f0e"/>
     <use xlink:href="#md5c99e67fa" x="452.595455" y="192.65301" style="fill: #ff7f0e; stroke: #ff7f0e"/>
    </g>
   </g>
   <g id="FillBetweenPolyCollection_2">
    <defs>
     <path id="m3aa7723d9f" d="M 66.852273 -256.172685 
L 66.852273 -187.045025 
L 70.953742 -187.344014 
L 75.055211 -187.689756 
L 79.156681 -188.074968 
L 83.25815 -188.493139 
L 87.359619 -188.939377 
L 91.461089 -189.410411 
L 95.562556 -189.90363 
L 99.664027 -190.415387 
L 103.765497 -190.939054 
L 107.866964 -191.463455 
L 111.968435 -191.972242 
L 116.069905 -192.444571 
L 120.171372 -192.857093 
L 124.27284 -193.187002 
L 128.374313 -193.41553 
L 132.47578 -193.53119 
L 136.577248 -193.532048 
L 140.678721 -193.426532 
L 144.780189 -193.232652 
L 148.881656 -192.975845 
L 152.983129 -192.685928 
L 157.084597 -192.393723 
L 161.186064 -192.127827 
L 165.287537 -191.911858 
L 169.388999 -191.762339 
L 173.490472 -191.68724 
L 177.591945 -191.685207 
L 181.693407 -191.745436 
L 185.79488 -191.84827 
L 189.896354 -191.966537 
L 193.997815 -192.067694 
L 198.099288 -192.116718 
L 202.200762 -192.079527 
L 206.302223 -191.926546 
L 210.403696 -191.635865 
L 214.50517 -191.195434 
L 218.606631 -190.60392 
L 222.708104 -189.870162 
L 226.809578 -189.01152 
L 230.911039 -188.051591 
L 235.012512 -187.017813 
L 239.113986 -185.939383 
L 243.215447 -184.845599 
L 247.316921 -183.764655 
L 251.418394 -182.722775 
L 255.519855 -181.743482 
L 259.621329 -180.846941 
L 263.722802 -180.049371 
L 267.824263 -179.362585 
L 271.925749 -178.793855 
L 276.027198 -178.346284 
L 280.128671 -178.01972 
L 284.230145 -177.812237 
L 288.331594 -177.721818 
L 292.433092 -177.747873 
L 296.534541 -177.892136 
L 300.636014 -178.158676 
L 304.737488 -178.553012 
L 308.838961 -179.080639 
L 312.940434 -179.745408 
L 317.041884 -180.54813 
L 321.143381 -181.485723 
L 325.24483 -182.550806 
L 329.346304 -183.731875 
L 333.447777 -185.013615 
L 337.549226 -186.377416 
L 341.650724 -187.801954 
L 345.752173 -189.263723 
L 349.853646 -190.737915 
L 353.95512 -192.199351 
L 358.056593 -193.623806 
L 362.158067 -194.989441 
L 366.259516 -196.278108 
L 370.361013 -197.476207 
L 374.462463 -198.574583 
L 378.563936 -199.56762 
L 382.665409 -200.451324 
L 386.766859 -201.221131 
L 390.868356 -201.869941 
L 394.969805 -202.386926 
L 399.071279 -202.7577 
L 403.172752 -202.965777 
L 407.274226 -202.995237 
L 411.375699 -202.834009 
L 415.477148 -202.47709 
L 419.578622 -201.928925 
L 423.680095 -201.204441 
L 427.781568 -200.328442 
L 431.883042 -199.333572 
L 435.984491 -198.257306 
L 440.085964 -197.138541 
L 444.187438 -196.014475 
L 448.288911 -194.918053 
L 452.390385 -193.876296 
L 456.491858 -192.909498 
L 460.593331 -192.031191 
L 464.69478 -191.248683 
L 468.796254 -190.563955 
L 472.897727 -189.974775 
L 472.897727 -263.354512 
L 472.897727 -263.354512 
L 468.796254 -263.801657 
L 464.69478 -264.292096 
L 460.593331 -264.817449 
L 456.491858 -265.366635 
L 452.390385 -265.926458 
L 448.288911 -266.482507 
L 444.187438 -267.020202 
L 440.085964 -267.525826 
L 435.984491 -267.987324 
L 431.883042 -268.394684 
L 427.781568 -268.739779 
L 423.680095 -269.015697 
L 419.578622 -269.215778 
L 415.477148 -269.332724 
L 411.375699 -269.358182 
L 407.274226 -269.283143 
L 403.172752 -269.09921 
L 399.071279 -268.8005 
L 394.969805 -268.385673 
L 390.868356 -267.859473 
L 386.766859 -267.233238 
L 382.665409 -266.524145 
L 378.563936 -265.753057 
L 374.462463 -264.941496 
L 370.361013 -264.108177 
L 366.259516 -263.265912 
L 362.158067 -262.419637 
L 358.056593 -261.565829 
L 353.95512 -260.69364 
L 349.853646 -259.787295 
L 345.752173 -258.829324 
L 341.650724 -257.80404 
L 337.549226 -256.700713 
L 333.447777 -255.516237 
L 329.346304 -254.256847 
L 325.24483 -252.939151 
L 321.143381 -251.590178 
L 317.041884 -250.246548 
L 312.940434 -248.952847 
L 308.838961 -247.758901 
L 304.737488 -246.716372 
L 300.636014 -245.874528 
L 296.534541 -245.275696 
L 292.433092 -244.950895 
L 288.331594 -244.916307 
L 284.230145 -245.17125 
L 280.128671 -245.698013 
L 276.027198 -246.463598 
L 271.925749 -247.423008 
L 267.824263 -248.523495 
L 263.722802 -249.708999 
L 259.621329 -250.924435 
L 255.519855 -252.11927 
L 251.418394 -253.250387 
L 247.316921 -254.28417 
L 243.215447 -255.197806 
L 239.113986 -255.979918 
L 235.012512 -256.63048 
L 230.911039 -257.159962 
L 226.809578 -257.587703 
L 222.708104 -257.939455 
L 218.606631 -258.244207 
L 214.50517 -258.530586 
L 210.403696 -258.823282 
L 206.302223 -259.140071 
L 202.200762 -259.489977 
L 198.099288 -259.872856 
L 193.997815 -260.280368 
L 189.896354 -260.697962 
L 185.79488 -261.107356 
L 181.693407 -261.488981 
L 177.591945 -261.824061 
L 173.490472 -262.096176 
L 169.388999 -262.292303 
L 165.287537 -262.403461 
L 161.186064 -262.425031 
L 157.084597 -262.356822 
L 152.983129 -262.202848 
L 148.881656 -261.970767 
L 144.780189 -261.670919 
L 140.678721 -261.314993 
L 136.577248 -260.914498 
L 132.47578 -260.479344 
L 128.374313 -260.016949 
L 124.27284 -259.532205 
L 120.171372 -259.028451 
L 116.069905 -258.509254 
L 111.968435 -257.980549 
L 107.866964 -257.452503 
L 103.765497 -256.940507 
L 99.664027 -256.464899 
L 95.562556 -256.049328 
L 91.461089 -255.717989 
L 87.359619 -255.492255 
L 83.25815 -255.387424 
L 79.156681 -255.410276 
L 75.055211 -255.557988 
L 70.953742 -255.818575 
L 66.852273 -256.172685 
z
" style="stroke: #1f77b4; stroke-opacity: 0.2"/>
    </defs>
    <g clip-path="url(#p20ccb562db)">
     <use xlink:href="#m3aa7723d9f" x="0" y="432" style="fill: #1f77b4; fill-opacity: 0.2; stroke: #1f77b4; stroke-opacity: 0.2"/>
    </g>
   </g>
   <g id="matplotlib.axis_3">
    <g id="xtick_7">
     <g id="line2d_14">
      <g>
       <use xlink:href="#mf640f76772" x="66.852273" y="258.86" style="stroke: #000000; stroke-width: 0.8"/>
      </g>
     </g>
    </g>
    <g id="xtick_8">
     <g id="line2d_15">
      <g>
       <use xlink:href="#mf640f76772" x="148.061364" y="258.86" style="stroke: #000000; stroke-width: 0.8"/>
      </g>
     </g>
    </g>
    <g id="xtick_9">
     <g id="line2d_16">
      <g>
       <use xlink:href="#mf640f76772" x="229.270455" y="258.86" style="stroke: #000000; stroke-width: 0.8"/>
      </g>
     </g>
    </g>
    <g id="xtick_10">
     <g id="line2d_17">
      <g>
       <use xlink:href="#mf640f76772" x="310.479545" y="258.86" style="stroke: #000000; stroke-width: 0.8"/>
      </g>
     </g>
    </g>
    <g id="xtick_11">
     <g id="line2d_18">
      <g>
       <use xlink:href="#mf640f76772" x="391.688636" y="258.86" style="stroke: #000000; stroke-width: 0.8"/>
      </g>
     </g>
    </g>
    <g id="xtick_12">
     <g id="line2d_19">
      <g>
       <use xlink:href="#mf640f76772" x="472.897727" y="258.86" style="stroke: #000000; stroke-width: 0.8"/>
      </g>
     </g>
    </g>
   </g>
   <g id="matplotlib.axis_4">
    <g id="ytick_4">
     <g id="line2d_20">
      <g>
       <use xlink:href="#mc032636937" x="46.55" y="243.82245" style="stroke: #000000; stroke-width: 0.8"/>
      </g>
     </g>
     <g id="text_11">
      <!-- −2 -->
      <g transform="translate(24.807813 247.621668) scale(0.1 -0.1)">
       <use xlink:href="#DejaVuSans-2212"/>
       <use xlink:href="#DejaVuSans-32" transform="translate(83.789062 0)"/>
      </g>
     </g>
    </g>
    <g id="ytick_5">
     <g id="line2d_21">
      <g>
       <use xlink:href="#mc032636937" x="46.55" y="207.63932" style="stroke: #000000; stroke-width: 0.8"/>
      </g>
     </g>
     <g id="text_12">
      <!-- 0 -->
      <g transform="translate(33.1875 211.438539) scale(0.1 -0.1)">
       <use xlink:href="#DejaVuSans-30"/>
      </g>
     </g>
    </g>
    <g id="ytick_6">
     <g id="line2d_22">
      <g>
       <use xlink:href="#mc032636937" x="46.55" y="171.456191" style="stroke: #000000; stroke-width: 0.8"/>
      </g>
     </g>
     <g id="text_13">
      <!-- 2 -->
      <g transform="translate(33.1875 175.255409) scale(0.1 -0.1)">
       <use xlink:href="#DejaVuSans-32"/>
      </g>
     </g>
    </g>
    <g id="text_14">
     <!-- y -->
     <g transform="translate(18.728125 211.419375) rotate(-90) scale(0.1 -0.1)">
      <use xlink:href="#DejaVuSans-79"/>
     </g>
    </g>
   </g>
   <g id="line2d_23">
    <path d="M 66.852273 222.500294 
L 70.953742 221.474501 
L 75.055211 220.303901 
L 79.156681 218.998831 
L 83.25815 217.571555 
L 87.359619 216.036132 
L 91.461089 214.408255 
L 95.562556 212.705088 
L 99.664027 210.945064 
L 103.765497 209.14768 
L 107.866964 207.333277 
L 111.968435 205.522792 
L 116.069905 203.737529 
L 120.171372 201.998901 
L 124.27284 200.328169 
L 128.374313 198.746196 
L 132.47578 197.273195 
L 136.577248 195.928471 
L 140.678721 194.730187 
L 144.780189 193.695142 
L 148.881656 192.838541 
L 152.983129 192.173809 
L 157.084597 191.712403 
L 161.186064 191.463656 
L 165.287537 191.434637 
L 169.388999 191.630043 
L 173.490472 192.052108 
L 177.591945 192.700548 
L 181.693407 193.572523 
L 185.79488 194.66265 
L 189.896354 195.963011 
L 193.997815 197.463215 
L 198.099288 199.150499 
L 202.200762 201.009813 
L 206.302223 203.023968 
L 210.403696 205.173824 
L 214.50517 207.438441 
L 218.606631 209.795306 
L 222.708104 212.220584 
L 226.809578 214.689327 
L 230.911039 217.175753 
L 235.012512 219.653545 
L 239.113986 222.096093 
L 243.215447 224.476801 
L 247.316921 226.769402 
L 251.418394 228.94821 
L 255.519855 230.988429 
L 259.621329 232.86645 
L 263.722802 234.56009 
L 267.824263 236.048867 
L 271.925749 237.31426 
L 276.027198 238.339885 
L 280.128671 239.111762 
L 284.230145 239.618434 
L 288.331594 239.851152 
L 292.433092 239.803994 
L 296.534541 239.473956 
L 300.636014 238.861014 
L 304.737488 237.968164 
L 308.838961 236.801418 
L 312.940434 235.369771 
L 317.041884 233.685145 
L 321.143381 231.762244 
L 325.24483 229.618537 
L 329.346304 227.273948 
L 333.447777 224.75079 
L 337.549226 222.073514 
L 341.650724 219.268395 
L 345.752173 216.36345 
L 349.853646 213.387927 
L 353.95512 210.372188 
L 358.056593 207.347313 
L 362.158067 204.344792 
L 366.259516 201.396211 
L 370.361013 198.532835 
L 374.462463 195.785457 
L 378.563936 193.183833 
L 382.665409 190.756539 
L 386.766859 188.530589 
L 390.868356 186.531088 
L 394.969805 184.781084 
L 399.071279 183.301142 
L 403.172752 182.109228 
L 407.274226 181.220442 
L 411.375699 180.646845 
L 415.477148 180.397304 
L 419.578622 180.477372 
L 423.680095 180.889206 
L 427.781568 181.631507 
L 431.883042 182.699514 
L 435.984491 184.085007 
L 440.085964 185.776406 
L 444.187438 187.758815 
L 448.288911 190.014182 
L 452.390385 192.521453 
L 456.491858 195.256774 
L 460.593331 198.193717 
L 464.69478 201.303517 
L 468.796254 204.555429 
L 472.897727 207.916929 
" clip-path="url(#p20ccb562db)" style="fill: none; stroke-dasharray: 5.55,2.4; stroke-dashoffset: 0; stroke: #000000; stroke-width: 1.5"/>
   </g>
   <g id="line2d_24">
    <path d="M 66.852273 210.391145 
L 70.953742 210.418705 
L 75.055211 210.376128 
L 79.156681 210.257378 
L 83.25815 210.059719 
L 87.359619 209.784184 
L 91.461089 209.4358 
L 95.562556 209.023521 
L 99.664027 208.559857 
L 103.765497 208.060219 
L 107.866964 207.542021 
L 111.968435 207.023605 
L 116.069905 206.523088 
L 120.171372 206.057228 
L 124.27284 205.640396 
L 128.374313 205.28376 
L 132.47578 204.994733 
L 136.577248 204.776727 
L 140.678721 204.629238 
L 144.780189 204.548215 
L 148.881656 204.526694 
L 152.983129 204.555612 
L 157.084597 204.624727 
L 161.186064 204.723571 
L 165.287537 204.842341 
L 169.388999 204.972679 
L 173.490472 205.108292 
L 177.591945 205.245366 
L 181.693407 205.382791 
L 185.79488 205.522187 
L 189.896354 205.667751 
L 193.997815 205.825969 
L 198.099288 206.005213 
L 202.200762 206.215248 
L 206.302223 206.466691 
L 210.403696 206.770426 
L 214.50517 207.13699 
L 218.606631 207.575936 
L 222.708104 208.095191 
L 226.809578 208.700388 
L 230.911039 209.394224 
L 235.012512 210.175854 
L 239.113986 211.04035 
L 243.215447 211.978298 
L 247.316921 212.975588 
L 251.418394 214.013419 
L 255.519855 215.068624 
L 259.621329 216.114312 
L 263.722802 217.120815 
L 267.824263 218.05696 
L 271.925749 218.891568 
L 276.027198 219.595059 
L 280.128671 220.141134 
L 284.230145 220.508256 
L 288.331594 220.680937 
L 292.433092 220.650616 
L 296.534541 220.416084 
L 300.636014 219.983398 
L 304.737488 219.365308 
L 308.838961 218.58023 
L 312.940434 217.650873 
L 317.041884 216.602661 
L 321.143381 215.462049 
L 325.24483 214.255022 
L 329.346304 213.005639 
L 333.447777 211.735074 
L 337.549226 210.460936 
L 341.650724 209.197003 
L 345.752173 207.953477 
L 349.853646 206.737395 
L 353.95512 205.553505 
L 358.056593 204.405183 
L 362.158067 203.295461 
L 366.259516 202.22799 
L 370.361013 201.207808 
L 374.462463 200.24196 
L 378.563936 199.339661 
L 382.665409 198.512266 
L 386.766859 197.772815 
L 390.868356 197.135293 
L 394.969805 196.613701 
L 399.071279 196.2209 
L 403.172752 195.967507 
L 407.274226 195.86081 
L 411.375699 195.903905 
L 415.477148 196.095093 
L 419.578622 196.427648 
L 423.680095 196.889931 
L 427.781568 197.465889 
L 431.883042 198.135872 
L 435.984491 198.877685 
L 440.085964 199.667816 
L 444.187438 200.482661 
L 448.288911 201.29972 
L 452.390385 202.098623 
L 456.491858 202.861933 
L 460.593331 203.57568 
L 464.69478 204.229611 
L 468.796254 204.817194 
L 472.897727 205.335357 
" clip-path="url(#p20ccb562db)" style="fill: none; stroke: #1f77b4; stroke-width: 1.5; stroke-linecap: square"/>
   </g>
   <g id="patch_10">
    <path d="M 46.55 258.86 
L 46.55 158.06 
" style="fill: none; stroke: #000000; stroke-width: 0.8; stroke-linejoin: miter; stroke-linecap: square"/>
   </g>
   <g id="patch_11">
    <path d="M 493.2 258.86 
L 493.2 158.06 
" style="fill: none; stroke: #000000; stroke-width: 0.8; stroke-linejoin: miter; stroke-linecap: square"/>
   </g>
   <g id="patch_12">
    <path d="M 46.55 258.86 
L 493.2 258.86 
" style="fill: none; stroke: #000000; stroke-width: 0.8; stroke-linejoin: miter; stroke-linecap: square"/>
   </g>
   <g id="patch_13">
    <path d="M 46.55 158.06 
L 493.2 158.06 
" style="fill: none; stroke: #000000; stroke-width: 0.8; stroke-linejoin: miter; stroke-linecap: square"/>
   </g>
   <g id="text_15">
    <!-- RBFKernel -->
    <g transform="translate(239.289062 152.06) scale(0.12 -0.12)">
     <defs>
      <path id="DejaVuSans-52" d="M 2841 2188 
Q 3044 2119 3236 1894 
Q 3428 1669 3622 1275 
L 4263 0 
L 3584 0 
L 2988 1197 
Q 2756 1666 2539 1819 
Q 2322 1972 1947 1972 
L 1259 1972 
L 1259 0 
L 628 0 
L 628 4666 
L 2053 4666 
Q 2853 4666 3247 4331 
Q 3641 3997 3641 3322 
Q 3641 2881 3436 2590 
Q 3231 2300 2841 2188 
z
M 1259 4147 
L 1259 2491 
L 2053 2491 
Q 2509 2491 2742 2702 
Q 2975 2913 2975 3322 
Q 2975 3731 2742 3939 
Q 2509 4147 2053 4147 
L 1259 4147 
z
" transform="scale(0.015625)"/>
      <path id="DejaVuSans-42" d="M 1259 2228 
L 1259 519 
L 2272 519 
Q 2781 519 3026 730 
Q 3272 941 3272 1375 
Q 3272 1813 3026 2020 
Q 2781 2228 2272 2228 
L 1259 2228 
z
M 1259 4147 
L 1259 2741 
L 2194 2741 
Q 2656 2741 2882 2914 
Q 3109 3088 3109 3444 
Q 3109 3797 2882 3972 
Q 2656 4147 2194 4147 
L 1259 4147 
z
M 628 4666 
L 2241 4666 
Q 2963 4666 3353 4366 
Q 3744 4066 3744 3513 
Q 3744 3084 3544 2831 
Q 3344 2578 2956 2516 
Q 3422 2416 3680 2098 
Q 3938 1781 3938 1306 
Q 3938 681 3513 340 
Q 3088 0 2303 0 
L 628 0 
L 628 4666 
z
" transform="scale(0.015625)"/>
      <path id="DejaVuSans-46" d="M 628 4666 
L 3309 4666 
L 3309 4134 
L 1259 4134 
L 1259 2759 
L 3109 2759 
L 3109 2228 
L 1259 2228 
L 1259 0 
L 628 0 
L 628 4666 
z
" transform="scale(0.015625)"/>
     </defs>
     <use xlink:href="#DejaVuSans-52"/>
     <use xlink:href="#DejaVuSans-42" transform="translate(69.482422 0)"/>
     <use xlink:href="#DejaVuSans-46" transform="translate(138.085938 0)"/>
     <use xlink:href="#DejaVuSans-4b" transform="translate(195.605469 0)"/>
     <use xlink:href="#DejaVuSans-65" transform="translate(256.181641 0)"/>
     <use xlink:href="#DejaVuSans-72" transform="translate(317.705078 0)"/>
     <use xlink:href="#DejaVuSans-6e" transform="translate(357.068359 0)"/>
     <use xlink:href="#DejaVuSans-65" transform="translate(420.447266 0)"/>
     <use xlink:href="#DejaVuSans-6c" transform="translate(481.970703 0)"/>
    </g>
   </g>
  </g>
  <g id="axes_3">
   <g id="patch_14">
    <path d="M 46.55 390.04 
L 493.2 390.04 
L 493.2 289.24 
L 46.55 289.24 
z
" style="fill: #ffffff"/>
   </g>
   <g id="PathCollection_7">
    <g clip-path="url(#pfe2e2e8bb5)">
     <use xlink:href="#m0b6ed67d09" x="411.990909" y="309.79492" style="fill: #1f77b4; stroke: #1f77b4"/>
     <use xlink:href="#m0b6ed67d09" x="371.386364" y="328.631256" style="fill: #1f77b4; stroke: #1f77b4"/>
     <use xlink:href="#m0b6ed67d09" x="290.177273" y="374.539689" style="fill: #1f77b4; stroke: #1f77b4"/>
     <use xlink:href="#m0b6ed67d09" x="208.968182" y="335.810942" style="fill: #1f77b4; stroke: #1f77b4"/>
     <use xlink:href="#m0b6ed67d09" x="87.154545" y="348.599089" style="fill: #1f77b4; stroke: #1f77b4"/>
     <use xlink:href="#m0b6ed67d09" x="127.759091" y="329.879797" style="fill: #1f77b4; stroke: #1f77b4"/>
    </g>
   </g>
   <g id="PathCollection_8">
    <g clip-path="url(#pfe2e2e8bb5)">
     <use xlink:href="#md5c99e67fa" x="249.572727" y="361.562192" style="fill: #ff7f0e; stroke: #ff7f0e"/>
     <use xlink:href="#md5c99e67fa" x="452.595455" y="322.972353" style="fill: #ff7f0e; stroke: #ff7f0e"/>
    </g>
   </g>
   <g id="FillBetweenPolyCollection_3">
    <defs>
     <path id="me3f6d434d3" d="M 66.852273 -131.105224 
L 66.852273 -51.829736 
L 70.953742 -51.823447 
L 75.055211 -51.849361 
L 79.156681 -51.910014 
L 83.25815 -52.006563 
L 87.359619 -52.140351 
L 91.461089 -52.314181 
L 95.562556 -52.532081 
L 99.664027 -52.797068 
L 103.765497 -53.107576 
L 107.866964 -53.454055 
L 111.968435 -53.817289 
L 116.069905 -54.169447 
L 120.171372 -54.47811 
L 124.27284 -54.712586 
L 128.374313 -54.850834 
L 132.47578 -54.884663 
L 136.577248 -54.821254 
L 140.678721 -54.68047 
L 144.780189 -54.489274 
L 148.881656 -54.27558 
L 152.983129 -54.063573 
L 157.084597 -53.871403 
L 161.186064 -53.711012 
L 165.287537 -53.58924 
L 169.388999 -53.509325 
L 173.490472 -53.472104 
L 177.591945 -53.476575 
L 181.693407 -53.519683 
L 185.79488 -53.595453 
L 189.896354 -53.69381 
L 193.997815 -53.799774 
L 198.099288 -53.893815 
L 202.200762 -53.954036 
L 206.302223 -53.960073 
L 210.403696 -53.897586 
L 214.50517 -53.761458 
L 218.606631 -53.556167 
L 222.708104 -53.293061 
L 226.809578 -52.985861 
L 230.911039 -52.646293 
L 235.012512 -52.281358 
L 239.113986 -51.892719 
L 243.215447 -51.477832 
L 247.316921 -51.032109 
L 251.418394 -50.551528 
L 255.519855 -50.035229 
L 259.621329 -49.487824 
L 263.722802 -48.921092 
L 267.824263 -48.354635 
L 271.925749 -47.815104 
L 276.027198 -47.333835 
L 280.128671 -46.943111 
L 284.230145 -46.671882 
L 288.331594 -46.541818 
L 292.433092 -46.564493 
L 296.534541 -46.740011 
L 300.636014 -47.057107 
L 304.737488 -47.494728 
L 308.838961 -48.025036 
L 312.940434 -48.617465 
L 317.041884 -49.243038 
L 321.143381 -49.878005 
L 325.24483 -50.506002 
L 329.346304 -51.118648 
L 333.447777 -51.714597 
L 337.549226 -52.297603 
L 341.650724 -52.873961 
L 345.752173 -53.449632 
L 349.853646 -54.027582 
L 353.95512 -54.605696 
L 358.056593 -55.176121 
L 362.158067 -55.726648 
L 366.259516 -56.244301 
L 370.361013 -56.720244 
L 374.462463 -57.153896 
L 378.563936 -57.55406 
L 382.665409 -57.935613 
L 386.766859 -58.312568 
L 390.868356 -58.689967 
L 394.969805 -59.057713 
L 399.071279 -59.388963 
L 403.172752 -59.644099 
L 407.274226 -59.77969 
L 411.375699 -59.759918 
L 415.477148 -59.566776 
L 419.578622 -59.205423 
L 423.680095 -58.702951 
L 427.781568 -58.101496 
L 431.883042 -57.448708 
L 435.984491 -56.788997 
L 440.085964 -56.157714 
L 444.187438 -55.578895 
L 448.288911 -55.065733 
L 452.390385 -54.622666 
L 456.491858 -54.247965 
L 460.593331 -53.936133 
L 464.69478 -53.679795 
L 468.796254 -53.471008 
L 472.897727 -53.302094 
L 472.897727 -133.396236 
L 472.897727 -133.396236 
L 468.796254 -133.553874 
L 464.69478 -133.745579 
L 460.593331 -133.976321 
L 456.491858 -134.250375 
L 452.390385 -134.570422 
L 448.288911 -134.936435 
L 444.187438 -135.344441 
L 440.085964 -135.785443 
L 435.984491 -136.244875 
L 431.883042 -136.702971 
L 427.781568 -137.136299 
L 423.680095 -137.520244 
L 419.578622 -137.831925 
L 415.477148 -138.052759 
L 411.375699 -138.170134 
L 407.274226 -138.178182 
L 403.172752 -138.077917 
L 399.071279 -137.877013 
L 394.969805 -137.589153 
L 390.868356 -137.232806 
L 386.766859 -136.829438 
L 382.665409 -136.40134 
L 378.563936 -135.969103 
L 374.462463 -135.549017 
L 370.361013 -135.150732 
L 366.259516 -134.776013 
L 362.158067 -134.419304 
L 358.056593 -134.069971 
L 353.95512 -133.715365 
L 349.853646 -133.343337 
L 345.752173 -132.943465 
L 341.650724 -132.507033 
L 337.549226 -132.026386 
L 333.447777 -131.494541 
L 329.346304 -130.905489 
L 325.24483 -130.255623 
L 321.143381 -129.546134 
L 317.041884 -128.786083 
L 312.940434 -127.995595 
L 308.838961 -127.207942 
L 304.737488 -126.469404 
L 300.636014 -125.835448 
L 296.534541 -125.362927 
L 292.433092 -125.099374 
L 288.331594 -125.072358 
L 284.230145 -125.282603 
L 280.128671 -125.703612 
L 276.027198 -126.287919 
L 271.925749 -126.977478 
L 267.824263 -127.714481 
L 263.722802 -128.449477 
L 259.621329 -129.14559 
L 255.519855 -129.779018 
L 251.418394 -130.337134 
L 247.316921 -130.815518 
L 243.215447 -131.215008 
L 239.113986 -131.539464 
L 235.012512 -131.794538 
L 230.911039 -131.98746 
L 226.809578 -132.127524 
L 222.708104 -132.226654 
L 218.606631 -132.299241 
L 214.50517 -132.360676 
L 210.403696 -132.424638 
L 206.302223 -132.50015 
L 202.200762 -132.589843 
L 198.099288 -132.690433 
L 193.997815 -132.795197 
L 189.896354 -132.897174 
L 185.79488 -132.991652 
L 181.693407 -133.077128 
L 177.591945 -133.154841 
L 173.490472 -133.227438 
L 169.388999 -133.29746 
L 165.287537 -133.366067 
L 161.186064 -133.432228 
L 157.084597 -133.49247 
L 152.983129 -133.541222 
L 148.881656 -133.571744 
L 144.780189 -133.577435 
L 140.678721 -133.553109 
L 136.577248 -133.495609 
L 132.47578 -133.403339 
L 128.374313 -133.274864 
L 124.27284 -133.107526 
L 120.171372 -132.897325 
L 116.069905 -132.640762 
L 111.968435 -132.338219 
L 107.866964 -131.997488 
L 103.765497 -131.635874 
L 99.664027 -131.279728 
L 95.562556 -130.961003 
L 91.461089 -130.711334 
L 87.359619 -130.555115 
L 83.25815 -130.503817 
L 79.156681 -130.553677 
L 75.055211 -130.687627 
L 70.953742 -130.88049 
L 66.852273 -131.105224 
z
" style="stroke: #1f77b4; stroke-opacity: 0.2"/>
    </defs>
    <g clip-path="url(#pfe2e2e8bb5)">
     <use xlink:href="#me3f6d434d3" x="0" y="432" style="fill: #1f77b4; fill-opacity: 0.2; stroke: #1f77b4; stroke-opacity: 0.2"/>
    </g>
   </g>
   <g id="matplotlib.axis_5">
    <g id="xtick_13">
     <g id="line2d_25">
      <g>
       <use xlink:href="#mf640f76772" x="66.852273" y="390.04" style="stroke: #000000; stroke-width: 0.8"/>
      </g>
     </g>
     <g id="text_16">
      <!-- 0.0 -->
      <g transform="translate(58.90071 404.638437) scale(0.1 -0.1)">
       <use xlink:href="#DejaVuSans-30"/>
       <use xlink:href="#DejaVuSans-2e" transform="translate(63.623047 0)"/>
       <use xlink:href="#DejaVuSans-30" transform="translate(95.410156 0)"/>
      </g>
     </g>
    </g>
    <g id="xtick_14">
     <g id="line2d_26">
      <g>
       <use xlink:href="#mf640f76772" x="148.061364" y="390.04" style="stroke: #000000; stroke-width: 0.8"/>
      </g>
     </g>
     <g id="text_17">
      <!-- 0.2 -->
      <g transform="translate(140.109801 404.638437) scale(0.1 -0.1)">
       <use xlink:href="#DejaVuSans-30"/>
       <use xlink:href="#DejaVuSans-2e" transform="translate(63.623047 0)"/>
       <use xlink:href="#DejaVuSans-32" transform="translate(95.410156 0)"/>
      </g>
     </g>
    </g>
    <g id="xtick_15">
     <g id="line2d_27">
      <g>
       <use xlink:href="#mf640f76772" x="229.270455" y="390.04" style="stroke: #000000; stroke-width: 0.8"/>
      </g>
     </g>
     <g id="text_18">
      <!-- 0.4 -->
      <g transform="translate(221.318892 404.638437) scale(0.1 -0.1)">
       <defs>
        <path id="DejaVuSans-34" d="M 2419 4116 
L 825 1625 
L 2419 1625 
L 2419 4116 
z
M 2253 4666 
L 3047 4666 
L 3047 1625 
L 3713 1625 
L 3713 1100 
L 3047 1100 
L 3047 0 
L 2419 0 
L 2419 1100 
L 313 1100 
L 313 1709 
L 2253 4666 
z
" transform="scale(0.015625)"/>
       </defs>
       <use xlink:href="#DejaVuSans-30"/>
       <use xlink:href="#DejaVuSans-2e" transform="translate(63.623047 0)"/>
       <use xlink:href="#DejaVuSans-34" transform="translate(95.410156 0)"/>
      </g>
     </g>
    </g>
    <g id="xtick_16">
     <g id="line2d_28">
      <g>
       <use xlink:href="#mf640f76772" x="310.479545" y="390.04" style="stroke: #000000; stroke-width: 0.8"/>
      </g>
     </g>
     <g id="text_19">
      <!-- 0.6 -->
      <g transform="translate(302.527983 404.638437) scale(0.1 -0.1)">
       <defs>
        <path id="DejaVuSans-36" d="M 2113 2584 
Q 1688 2584 1439 2293 
Q 1191 2003 1191 1497 
Q 1191 994 1439 701 
Q 1688 409 2113 409 
Q 2538 409 2786 701 
Q 3034 994 3034 1497 
Q 3034 2003 2786 2293 
Q 2538 2584 2113 2584 
z
M 3366 4563 
L 3366 3988 
Q 3128 4100 2886 4159 
Q 2644 4219 2406 4219 
Q 1781 4219 1451 3797 
Q 1122 3375 1075 2522 
Q 1259 2794 1537 2939 
Q 1816 3084 2150 3084 
Q 2853 3084 3261 2657 
Q 3669 2231 3669 1497 
Q 3669 778 3244 343 
Q 2819 -91 2113 -91 
Q 1303 -91 875 529 
Q 447 1150 447 2328 
Q 447 3434 972 4092 
Q 1497 4750 2381 4750 
Q 2619 4750 2861 4703 
Q 3103 4656 3366 4563 
z
" transform="scale(0.015625)"/>
       </defs>
       <use xlink:href="#DejaVuSans-30"/>
       <use xlink:href="#DejaVuSans-2e" transform="translate(63.623047 0)"/>
       <use xlink:href="#DejaVuSans-36" transform="translate(95.410156 0)"/>
      </g>
     </g>
    </g>
    <g id="xtick_17">
     <g id="line2d_29">
      <g>
       <use xlink:href="#mf640f76772" x="391.688636" y="390.04" style="stroke: #000000; stroke-width: 0.8"/>
      </g>
     </g>
     <g id="text_20">
      <!-- 0.8 -->
      <g transform="translate(383.737074 404.638437) scale(0.1 -0.1)">
       <defs>
        <path id="DejaVuSans-38" d="M 2034 2216 
Q 1584 2216 1326 1975 
Q 1069 1734 1069 1313 
Q 1069 891 1326 650 
Q 1584 409 2034 409 
Q 2484 409 2743 651 
Q 3003 894 3003 1313 
Q 3003 1734 2745 1975 
Q 2488 2216 2034 2216 
z
M 1403 2484 
Q 997 2584 770 2862 
Q 544 3141 544 3541 
Q 544 4100 942 4425 
Q 1341 4750 2034 4750 
Q 2731 4750 3128 4425 
Q 3525 4100 3525 3541 
Q 3525 3141 3298 2862 
Q 3072 2584 2669 2484 
Q 3125 2378 3379 2068 
Q 3634 1759 3634 1313 
Q 3634 634 3220 271 
Q 2806 -91 2034 -91 
Q 1263 -91 848 271 
Q 434 634 434 1313 
Q 434 1759 690 2068 
Q 947 2378 1403 2484 
z
M 1172 3481 
Q 1172 3119 1398 2916 
Q 1625 2713 2034 2713 
Q 2441 2713 2670 2916 
Q 2900 3119 2900 3481 
Q 2900 3844 2670 4047 
Q 2441 4250 2034 4250 
Q 1625 4250 1398 4047 
Q 1172 3844 1172 3481 
z
" transform="scale(0.015625)"/>
       </defs>
       <use xlink:href="#DejaVuSans-30"/>
       <use xlink:href="#DejaVuSans-2e" transform="translate(63.623047 0)"/>
       <use xlink:href="#DejaVuSans-38" transform="translate(95.410156 0)"/>
      </g>
     </g>
    </g>
    <g id="xtick_18">
     <g id="line2d_30">
      <g>
       <use xlink:href="#mf640f76772" x="472.897727" y="390.04" style="stroke: #000000; stroke-width: 0.8"/>
      </g>
     </g>
     <g id="text_21">
      <!-- 1.0 -->
      <g transform="translate(464.946165 404.638437) scale(0.1 -0.1)">
       <defs>
        <path id="DejaVuSans-31" d="M 794 531 
L 1825 531 
L 1825 4091 
L 703 3866 
L 703 4441 
L 1819 4666 
L 2450 4666 
L 2450 531 
L 3481 531 
L 3481 0 
L 794 0 
L 794 531 
z
" transform="scale(0.015625)"/>
       </defs>
       <use xlink:href="#DejaVuSans-31"/>
       <use xlink:href="#DejaVuSans-2e" transform="translate(63.623047 0)"/>
       <use xlink:href="#DejaVuSans-30" transform="translate(95.410156 0)"/>
      </g>
     </g>
    </g>
    <g id="text_22">
     <!-- x -->
     <g transform="translate(266.915625 418.316562) scale(0.1 -0.1)">
      <defs>
       <path id="DejaVuSans-78" d="M 3513 3500 
L 2247 1797 
L 3578 0 
L 2900 0 
L 1881 1375 
L 863 0 
L 184 0 
L 1544 1831 
L 300 3500 
L 978 3500 
L 1906 2253 
L 2834 3500 
L 3513 3500 
z
" transform="scale(0.015625)"/>
      </defs>
      <use xlink:href="#DejaVuSans-78"/>
     </g>
    </g>
   </g>
   <g id="matplotlib.axis_6">
    <g id="ytick_7">
     <g id="line2d_31">
      <g>
       <use xlink:href="#mc032636937" x="46.55" y="378.862436" style="stroke: #000000; stroke-width: 0.8"/>
      </g>
     </g>
     <g id="text_23">
      <!-- −2 -->
      <g transform="translate(24.807813 382.661655) scale(0.1 -0.1)">
       <use xlink:href="#DejaVuSans-2212"/>
       <use xlink:href="#DejaVuSans-32" transform="translate(83.789062 0)"/>
      </g>
     </g>
    </g>
    <g id="ytick_8">
     <g id="line2d_32">
      <g>
       <use xlink:href="#mc032636937" x="46.55" y="339.341227" style="stroke: #000000; stroke-width: 0.8"/>
      </g>
     </g>
     <g id="text_24">
      <!-- 0 -->
      <g transform="translate(33.1875 343.140446) scale(0.1 -0.1)">
       <use xlink:href="#DejaVuSans-30"/>
      </g>
     </g>
    </g>
    <g id="ytick_9">
     <g id="line2d_33">
      <g>
       <use xlink:href="#mc032636937" x="46.55" y="299.820018" style="stroke: #000000; stroke-width: 0.8"/>
      </g>
     </g>
     <g id="text_25">
      <!-- 2 -->
      <g transform="translate(33.1875 303.619237) scale(0.1 -0.1)">
       <use xlink:href="#DejaVuSans-32"/>
      </g>
     </g>
    </g>
    <g id="text_26">
     <!-- y -->
     <g transform="translate(18.728125 342.599375) rotate(-90) scale(0.1 -0.1)">
      <use xlink:href="#DejaVuSans-79"/>
     </g>
    </g>
   </g>
   <g id="line2d_34">
    <path d="M 66.852273 355.573203 
L 70.953742 354.452775 
L 75.055211 353.17418 
L 79.156681 351.748711 
L 83.25815 350.189762 
L 87.359619 348.512688 
L 91.461089 346.734631 
L 95.562556 344.874339 
L 99.664027 342.951943 
L 103.765497 340.988741 
L 107.866964 339.00695 
L 111.968435 337.029438 
L 116.069905 335.079476 
L 120.171372 333.18045 
L 124.27284 331.355585 
L 128.374313 329.627667 
L 132.47578 328.018774 
L 136.577248 326.549992 
L 140.678721 325.24116 
L 144.780189 324.110627 
L 148.881656 323.175001 
L 152.983129 322.448943 
L 157.084597 321.94497 
L 161.186064 321.673275 
L 165.287537 321.641579 
L 169.388999 321.855012 
L 173.490472 322.316015 
L 177.591945 323.024277 
L 181.693407 323.976696 
L 185.79488 325.167393 
L 189.896354 326.587719 
L 193.997815 328.226324 
L 198.099288 330.069269 
L 202.200762 332.100114 
L 206.302223 334.300085 
L 210.403696 336.648276 
L 214.50517 339.121816 
L 218.606631 341.696114 
L 222.708104 344.345136 
L 226.809578 347.041633 
L 230.911039 349.757445 
L 235.012512 352.463827 
L 239.113986 355.131712 
L 243.215447 357.732052 
L 247.316921 360.236158 
L 251.418394 362.615972 
L 255.519855 364.844411 
L 259.621329 366.895689 
L 263.722802 368.745576 
L 267.824263 370.3717 
L 271.925749 371.753832 
L 276.027198 372.874077 
L 280.128671 373.717163 
L 284.230145 374.270579 
L 288.331594 374.524766 
L 292.433092 374.473258 
L 296.534541 374.112772 
L 300.636014 373.443283 
L 304.737488 372.468063 
L 308.838961 371.193678 
L 312.940434 369.629954 
L 317.041884 367.789914 
L 321.143381 365.689615 
L 325.24483 363.34814 
L 329.346304 360.78725 
L 333.447777 358.031318 
L 337.549226 355.10705 
L 341.650724 352.043144 
L 345.752173 348.870203 
L 349.853646 345.620173 
L 353.95512 342.326217 
L 358.056593 339.022281 
L 362.158067 335.742762 
L 366.259516 332.522159 
L 370.361013 329.394622 
L 374.462463 326.393785 
L 378.563936 323.552147 
L 382.665409 320.900923 
L 386.766859 318.469617 
L 390.868356 316.285652 
L 394.969805 314.374202 
L 399.071279 312.757728 
L 403.172752 311.455853 
L 407.274226 310.485072 
L 411.375699 309.858557 
L 415.477148 309.585995 
L 419.578622 309.67345 
L 423.680095 310.123277 
L 427.781568 310.93406 
L 431.883042 312.100596 
L 435.984491 313.613907 
L 440.085964 315.461347 
L 444.187438 317.626644 
L 448.288911 320.090079 
L 452.390385 322.828659 
L 456.491858 325.816328 
L 460.593331 329.024219 
L 464.69478 332.420913 
L 468.796254 335.972831 
L 472.897727 339.644447 
" clip-path="url(#pfe2e2e8bb5)" style="fill: none; stroke-dasharray: 5.55,2.4; stroke-dashoffset: 0; stroke: #000000; stroke-width: 1.5"/>
   </g>
   <g id="line2d_35">
    <path d="M 66.852273 340.53252 
L 70.953742 340.648031 
L 75.055211 340.731506 
L 79.156681 340.768155 
L 83.25815 340.74481 
L 87.359619 340.652267 
L 91.461089 340.487243 
L 95.562556 340.253458 
L 99.664027 339.961602 
L 103.765497 339.628275 
L 107.866964 339.274229 
L 111.968435 338.922246 
L 116.069905 338.594895 
L 120.171372 338.312283 
L 124.27284 338.089944 
L 128.374313 337.937151 
L 132.47578 337.855999 
L 136.577248 337.841568 
L 140.678721 337.883211 
L 144.780189 337.966646 
L 148.881656 338.076338 
L 152.983129 338.197603 
L 157.084597 338.318063 
L 161.186064 338.42838 
L 165.287537 338.522347 
L 169.388999 338.596608 
L 173.490472 338.650229 
L 177.591945 338.684292 
L 181.693407 338.701594 
L 185.79488 338.706448 
L 189.896354 338.704508 
L 193.997815 338.702515 
L 198.099288 338.707876 
L 202.200762 338.728061 
L 206.302223 338.769889 
L 210.403696 338.838888 
L 214.50517 338.938933 
L 218.606631 339.072296 
L 222.708104 339.240143 
L 226.809578 339.443308 
L 230.911039 339.683124 
L 235.012512 339.962052 
L 239.113986 340.283908 
L 243.215447 340.65358 
L 247.316921 341.076187 
L 251.418394 341.555669 
L 255.519855 342.092877 
L 259.621329 342.683293 
L 263.722802 343.314716 
L 267.824263 343.965442 
L 271.925749 344.603709 
L 276.027198 345.189123 
L 280.128671 345.676639 
L 284.230145 346.022757 
L 288.331594 346.192912 
L 292.433092 346.168066 
L 296.534541 345.948531 
L 300.636014 345.553722 
L 304.737488 345.017934 
L 308.838961 344.383511 
L 312.940434 343.69347 
L 317.041884 342.98544 
L 321.143381 342.287931 
L 325.24483 341.619187 
L 329.346304 340.987932 
L 333.447777 340.395431 
L 337.549226 339.838005 
L 341.650724 339.309503 
L 345.752173 338.803451 
L 349.853646 338.314541 
L 353.95512 337.83947 
L 358.056593 337.376954 
L 362.158067 336.927024 
L 366.259516 336.489843 
L 370.361013 336.064512 
L 374.462463 335.648544 
L 378.563936 335.238419 
L 382.665409 334.831524 
L 386.766859 334.428997 
L 390.868356 334.038613 
L 394.969805 333.676567 
L 399.071279 333.367012 
L 403.172752 333.138992 
L 407.274226 333.021064 
L 411.375699 333.034974 
L 415.477148 333.190233 
L 419.578622 333.481326 
L 423.680095 333.888402 
L 427.781568 334.381102 
L 431.883042 334.92416 
L 435.984491 335.483064 
L 440.085964 336.028421 
L 444.187438 336.538332 
L 448.288911 336.998916 
L 452.390385 337.403456 
L 456.491858 337.75083 
L 460.593331 338.043773 
L 464.69478 338.287313 
L 468.796254 338.487559 
L 472.897727 338.650835 
" clip-path="url(#pfe2e2e8bb5)" style="fill: none; stroke: #1f77b4; stroke-width: 1.5; stroke-linecap: square"/>
   </g>
   <g id="patch_15">
    <path d="M 46.55 390.04 
L 46.55 289.24 
" style="fill: none; stroke: #000000; stroke-width: 0.8; stroke-linejoin: miter; stroke-linecap: square"/>
   </g>
   <g id="patch_16">
    <path d="M 493.2 390.04 
L 493.2 289.24 
" style="fill: none; stroke: #000000; stroke-width: 0.8; stroke-linejoin: miter; stroke-linecap: square"/>
   </g>
   <g id="patch_17">
    <path d="M 46.55 390.04 
L 493.2 390.04 
" style="fill: none; stroke: #000000; stroke-width: 0.8; stroke-linejoin: miter; stroke-linecap: square"/>
   </g>
   <g id="patch_18">
    <path d="M 46.55 289.24 
L 493.2 289.24 
" style="fill: none; stroke: #000000; stroke-width: 0.8; stroke-linejoin: miter; stroke-linecap: square"/>
   </g>
   <g id="text_27">
    <!-- RQKernel -->
    <g transform="translate(242.133438 283.24) scale(0.12 -0.12)">
     <defs>
      <path id="DejaVuSans-51" d="M 2522 4238 
Q 1834 4238 1429 3725 
Q 1025 3213 1025 2328 
Q 1025 1447 1429 934 
Q 1834 422 2522 422 
Q 3209 422 3611 934 
Q 4013 1447 4013 2328 
Q 4013 3213 3611 3725 
Q 3209 4238 2522 4238 
z
M 3406 84 
L 4238 -825 
L 3475 -825 
L 2784 -78 
Q 2681 -84 2626 -87 
Q 2572 -91 2522 -91 
Q 1538 -91 948 567 
Q 359 1225 359 2328 
Q 359 3434 948 4092 
Q 1538 4750 2522 4750 
Q 3503 4750 4090 4092 
Q 4678 3434 4678 2328 
Q 4678 1516 4351 937 
Q 4025 359 3406 84 
z
" transform="scale(0.015625)"/>
     </defs>
     <use xlink:href="#DejaVuSans-52"/>
     <use xlink:href="#DejaVuSans-51" transform="translate(69.482422 0)"/>
     <use xlink:href="#DejaVuSans-4b" transform="translate(148.193359 0)"/>
     <use xlink:href="#DejaVuSans-65" transform="translate(208.769531 0)"/>
     <use xlink:href="#DejaVuSans-72" transform="translate(270.292969 0)"/>
     <use xlink:href="#DejaVuSans-6e" transform="translate(309.65625 0)"/>
     <use xlink:href="#DejaVuSans-65" transform="translate(373.035156 0)"/>
     <use xlink:href="#DejaVuSans-6c" transform="translate(434.558594 0)"/>
    </g>
   </g>
  </g>
 </g>
 <defs>
  <clipPath id="pe0f78d7dc3">
   <rect x="46.55" y="26.88" width="446.65" height="100.8"/>
  </clipPath>
  <clipPath id="p20ccb562db">
   <rect x="46.55" y="158.06" width="446.65" height="100.8"/>
  </clipPath>
  <clipPath id="pfe2e2e8bb5">
   <rect x="46.55" y="289.24" width="446.65" height="100.8"/>
  </clipPath>
 </defs>
</svg>
