<?xml version="1.0" encoding="utf-8" standalone="no"?>
<!DOCTYPE svg PUBLIC "-//W3C//DTD SVG 1.1//EN"
  "http://www.w3.org/Graphics/SVG/1.1/DTD/svg11.dtd">
<svg xmlns:xlink="http://www.w3.org/1999/xlink" width="504pt" height="432pt" viewBox="0 0 504 432" xmlns="http://www.w3.org/2000/svg" version="1.1">
 <metadata>
  <rdf:RDF xmlns:dc="http://purl.org/dc/elements/1.1/" xmlns:cc="http://creativecommons.org/ns#" xmlns:rdf="http://www.w3.org/1999/02/22-rdf-syntax-ns#">
   <cc:Work>
    <dc:type rdf:resource="http://purl.org/dc/dcmitype/StillImage"/>
    <dc:date>2026-03-04T13:11:42.486012</dc:date>
    <dc:format>image/svg+xml</dc:format>
    <dc:creator>
     <cc:Agent>
      <dc:title>Matplotlib v3.10.8, https://matplotlib.org/</dc:title>
     </cc:Agent>
    </dc:creator>
   </cc:Work>
  </rdf:RDF>
 </metadata>
 <defs>
  <style type="text/css">*{stroke-linejoin: round; stroke-linecap: butt}</style>
 </defs>
 <g id="figure_1">
  <g id="patch_1">
   <path d="M 0 432 
L 504 432 
L 504 0 
L 0 0 
z
" style="fill: #ffffff"/>
  </g>
  <g id="axes_1">
   <g id="patch_2">
    <path d="M 46.55 127.68 
L 493.2 127.68 
L 493.2 26.88 
L 46.55 26.88 
z
" style="fill: #ffffff"/>
   </g>
   <g id="PathCollection_1">
    <defs>
     <path id="ma56826666b" d="M 0 3 
C 0.795609 3 1.55874 2.683901 2.12132 2.12132 
C 2.683901 1.55874 3 0.795609 3 0 
C 3 -0.795609 2.683901 -1.55874 2.12132 -2.12132 
C 1.55874 -2.683901 0.795609 -3 0 -3 
C -0.795609 -3 -1.55874 -2.683901 -2.12132 -2.12132 
C -2.683901 -1.55874 -3 -0.795609 -3 0 
C -3 0.795609 -2.683901 1.55874 -2.12132 2.12132 
C -1.55874 2.683901 -0.795609 3 0 3 
z
" style="stroke: #1f77b4"/>
    </defs>
    <g clip-path="url(#p6758bddb95)">
     <use xlink:href="#ma56826666b" x="411.990909" y="50.434255" style="fill: #1f77b4; stroke: #1f77b4"/>
     <use xlink:href="#ma56826666b" x="371.386364" y="67.455555" style="fill: #1f77b4; stroke: #1f77b4"/>
     <use xlink:href="#ma56826666b" x="290.177273" y="108.940332" style="fill: #1f77b4; stroke: #1f77b4"/>
     <use xlink:href="#ma56826666b" x="208.968182" y="73.943419" style="fill: #1f77b4; stroke: #1f77b4"/>
     <use xlink:href="#ma56826666b" x="87.154545" y="85.499323" style="fill: #1f77b4; stroke: #1f77b4"/>
     <use xlink:href="#ma56826666b" x="127.759091" y="68.583789" style="fill: #1f77b4; stroke: #1f77b4"/>
    </g>
   </g>
   <g id="PathCollection_2">
    <defs>
     <path id="meb56d18d47" d="M 0 -3 
L -0.673542 -0.927051 
L -2.85317 -0.927051 
L -1.089814 0.354102 
L -1.763356 2.427051 
L -0 1.145898 
L 1.763356 2.427051 
L 1.089814 0.354102 
L 2.85317 -0.927051 
L 0.673542 -0.927051 
z
" style="stroke: #ff7f0e"/>
    </defs>
    <g clip-path="url(#p6758bddb95)">
     <use xlink:href="#meb56d18d47" x="249.572727" y="97.213324" style="fill: #ff7f0e; stroke: #ff7f0e"/>
     <use xlink:href="#meb56d18d47" x="452.595455" y="62.341934" style="fill: #ff7f0e; stroke: #ff7f0e"/>
    </g>
   </g>
   <g id="FillBetweenPolyCollection_1">
    <defs>
     <path id="m3054ca7044" d="M 66.852273 -365.841931 
L 66.852273 -325.118852 
L 70.953742 -328.335887 
L 75.055211 -332.150934 
L 79.156681 -336.529664 
L 83.25815 -341.32724 
L 87.359619 -345.173927 
L 91.461089 -343.288136 
L 95.562556 -341.503244 
L 99.664027 -340.782142 
L 103.765497 -341.232012 
L 107.866964 -342.850811 
L 111.968435 -345.568356 
L 116.069905 -349.254768 
L 120.171372 -353.715491 
L 124.27284 -358.640557 
L 128.374313 -362.045594 
L 132.47578 -359.241911 
L 136.577248 -355.568105 
L 140.678721 -351.828595 
L 144.780189 -348.257544 
L 148.881656 -345.005615 
L 152.983129 -342.174471 
L 157.084597 -339.831355 
L 161.186064 -338.019607 
L 165.287537 -336.766839 
L 169.388999 -336.090926 
L 173.490472 -336.003838 
L 177.591945 -336.513367 
L 181.693407 -337.622676 
L 185.79488 -339.32768 
L 189.896354 -341.61206 
L 193.997815 -344.439769 
L 198.099288 -347.744195 
L 202.200762 -351.409148 
L 206.302223 -355.181505 
L 210.403696 -355.528774 
L 214.50517 -350.025981 
L 218.606631 -344.37348 
L 222.708104 -338.962688 
L 226.809578 -333.908982 
L 230.911039 -329.270137 
L 235.012512 -325.073086 
L 239.113986 -321.327978 
L 243.215447 -318.038494 
L 247.316921 -315.209916 
L 251.418394 -312.855356 
L 255.519855 -311.000057 
L 259.621329 -309.683882 
L 263.722802 -308.96179 
L 267.824263 -308.901818 
L 271.925749 -309.579952 
L 276.027198 -311.070665 
L 280.128671 -313.430783 
L 284.230145 -316.667232 
L 288.331594 -320.565059 
L 292.433092 -320.166696 
L 296.534541 -316.285867 
L 300.636014 -313.133516 
L 304.737488 -310.873786 
L 308.838961 -309.495694 
L 312.940434 -308.943929 
L 317.041884 -309.148398 
L 321.143381 -310.039633 
L 325.24483 -311.557693 
L 329.346304 -313.656963 
L 333.447777 -316.307634 
L 337.549226 -319.494717 
L 341.650724 -323.214881 
L 345.752173 -327.470794 
L 349.853646 -332.263739 
L 353.95512 -337.583111 
L 358.056593 -343.393109 
L 362.158067 -349.614137 
L 366.259516 -356.085701 
L 370.361013 -362.227224 
L 374.462463 -362.900753 
L 378.563936 -361.735443 
L 382.665409 -361.225852 
L 386.766859 -361.595659 
L 390.868356 -362.913164 
L 394.969805 -365.161991 
L 399.071279 -368.252786 
L 403.172752 -372.023292 
L 407.274226 -376.216685 
L 411.375699 -380.007983 
L 415.477148 -377.506291 
L 419.578622 -372.684572 
L 423.680095 -367.518577 
L 427.781568 -362.314816 
L 431.883042 -357.262094 
L 435.984491 -352.486172 
L 440.085964 -348.06504 
L 444.187438 -344.040059 
L 448.288911 -340.425129 
L 452.390385 -337.214524 
L 456.491858 -334.389258 
L 460.593331 -331.922078 
L 464.69478 -329.781274 
L 468.796254 -327.933402 
L 472.897727 -326.345294 
L 472.897727 -398.104791 
L 472.897727 -398.104791 
L 468.796254 -398.695245 
L 464.69478 -399.262679 
L 460.593331 -399.775571 
L 456.491858 -400.193775 
L 452.390385 -400.467737 
L 448.288911 -400.538182 
L 444.187438 -400.336542 
L 440.085964 -399.786533 
L 435.984491 -398.807426 
L 431.883042 -397.319755 
L 427.781568 -395.254456 
L 423.680095 -392.56736 
L 419.578622 -389.263935 
L 415.477148 -385.472703 
L 411.375699 -383.029959 
L 407.274226 -385.859217 
L 403.172752 -388.137075 
L 399.071279 -389.179177 
L 394.969805 -388.895614 
L 390.868356 -387.288984 
L 386.766859 -384.41694 
L 382.665409 -380.385091 
L 378.563936 -375.35607 
L 374.462463 -369.621279 
L 370.361013 -365.718753 
L 366.259516 -367.300029 
L 362.158067 -369.23248 
L 358.056593 -370.927519 
L 353.95512 -372.207608 
L 349.853646 -372.970782 
L 345.752173 -373.157316 
L 341.650724 -372.734869 
L 337.549226 -371.688851 
L 333.447777 -370.016208 
L 329.346304 -367.721835 
L 325.24483 -364.81764 
L 321.143381 -361.323758 
L 317.041884 -357.271745 
L 312.940434 -352.709967 
L 308.838961 -347.709989 
L 304.737488 -342.374827 
L 300.636014 -336.848123 
L 296.534541 -331.329371 
L 292.433092 -326.177405 
L 288.331594 -325.735091 
L 284.230145 -330.821498 
L 280.128671 -336.352737 
L 276.027198 -341.918253 
L 271.925749 -347.309094 
L 267.824263 -352.374628 
L 263.722802 -357.005118 
L 259.621329 -361.122153 
L 255.519855 -364.669974 
L 251.418394 -367.608177 
L 247.316921 -369.905819 
L 243.215447 -371.537152 
L 239.113986 -372.479362 
L 235.012512 -372.712394 
L 230.911039 -372.221112 
L 226.809578 -371.000219 
L 222.708104 -369.06244 
L 218.606631 -366.451784 
L 214.50517 -363.27154 
L 210.403696 -359.906698 
L 206.302223 -362.064643 
L 202.200762 -367.350467 
L 198.099288 -372.281505 
L 193.997815 -376.662475 
L 189.896354 -380.434667 
L 185.79488 -383.583403 
L 181.693407 -386.115831 
L 177.591945 -388.048143 
L 173.490472 -389.396761 
L 169.388999 -390.172321 
L 165.287537 -390.376089 
L 161.186064 -389.998542 
L 157.084597 -389.020103 
L 152.983129 -387.414198 
L 148.881656 -385.15296 
L 144.780189 -382.216189 
L 140.678721 -378.604594 
L 136.577248 -374.360304 
L 132.47578 -369.612409 
L 128.374313 -365.082568 
L 124.27284 -366.079064 
L 120.171372 -367.96379 
L 116.069905 -368.869796 
L 111.968435 -368.642396 
L 107.866964 -367.261671 
L 103.765497 -364.780771 
L 99.664027 -361.313626 
L 95.562556 -357.036353 
L 91.461089 -352.218146 
L 87.359619 -347.950636 
L 83.25815 -350.134683 
L 79.156681 -353.972935 
L 75.055211 -358.019202 
L 70.953742 -362.02416 
L 66.852273 -365.841931 
z
" style="stroke: #1f77b4; stroke-opacity: 0.2"/>
    </defs>
    <g clip-path="url(#p6758bddb95)">
     <use xlink:href="#m3054ca7044" x="0" y="432" style="fill: #1f77b4; fill-opacity: 0.2; stroke: #1f77b4; stroke-opacity: 0.2"/>
    </g>
   </g>
   <g id="matplotlib.axis_1">
    <g id="xtick_1">
     <g id="line2d_1">
      <defs>
       <path id="mbddaacb751" d="M 0 0 
L 0 3.5 
" style="stroke: #000000; stroke-width: 0.8"/>
      </defs>
      <g>
       <use xlink:href="#mbddaacb751" x="66.852273" y="127.68" style="stroke: #000000; stroke-width: 0.8"/>
      </g>
     </g>
    </g>
    <g id="xtick_2">
     <g id="line2d_2">
      <g>
       <use xlink:href="#mbddaacb751" x="148.061364" y="127.68" style="stroke: #000000; stroke-width: 0.8"/>
      </g>
     </g>
    </g>
    <g id="xtick_3">
     <g id="line2d_3">
      <g>
       <use xlink:href="#mbddaacb751" x="229.270455" y="127.68" style="stroke: #000000; stroke-width: 0.8"/>
      </g>
     </g>
    </g>
    <g id="xtick_4">
     <g id="line2d_4">
      <g>
       <use xlink:href="#mbddaacb751" x="310.479545" y="127.68" style="stroke: #000000; stroke-width: 0.8"/>
      </g>
     </g>
    </g>
    <g id="xtick_5">
     <g id="line2d_5">
      <g>
       <use xlink:href="#mbddaacb751" x="391.688636" y="127.68" style="stroke: #000000; stroke-width: 0.8"/>
      </g>
     </g>
    </g>
    <g id="xtick_6">
     <g id="line2d_6">
      <g>
       <use xlink:href="#mbddaacb751" x="472.897727" y="127.68" style="stroke: #000000; stroke-width: 0.8"/>
      </g>
     </g>
    </g>
   </g>
   <g id="matplotlib.axis_2">
    <g id="ytick_1">
     <g id="line2d_7">
      <defs>
       <path id="mea0a178c45" d="M 0 0 
L -3.5 0 
" style="stroke: #000000; stroke-width: 0.8"/>
      </defs>
      <g>
       <use xlink:href="#mea0a178c45" x="46.55" y="112.846547" style="stroke: #000000; stroke-width: 0.8"/>
      </g>
     </g>
     <g id="text_1">
      <!-- −2 -->
      <g transform="translate(24.807813 116.645766) scale(0.1 -0.1)">
       <defs>
        <path id="DejaVuSans-2212" d="M 678 2272 
L 4684 2272 
L 4684 1741 
L 678 1741 
L 678 2272 
z
" transform="scale(0.015625)"/>
        <path id="DejaVuSans-32" d="M 1228 531 
L 3431 531 
L 3431 0 
L 469 0 
L 469 531 
Q 828 903 1448 1529 
Q 2069 2156 2228 2338 
Q 2531 2678 2651 2914 
Q 2772 3150 2772 3378 
Q 2772 3750 2511 3984 
Q 2250 4219 1831 4219 
Q 1534 4219 1204 4116 
Q 875 4013 500 3803 
L 500 4441 
Q 881 4594 1212 4672 
Q 1544 4750 1819 4750 
Q 2544 4750 2975 4387 
Q 3406 4025 3406 3419 
Q 3406 3131 3298 2873 
Q 3191 2616 2906 2266 
Q 2828 2175 2409 1742 
Q 1991 1309 1228 531 
z
" transform="scale(0.015625)"/>
       </defs>
       <use xlink:href="#DejaVuSans-2212"/>
       <use xlink:href="#DejaVuSans-32" transform="translate(83.789062 0)"/>
      </g>
     </g>
    </g>
    <g id="ytick_2">
     <g id="line2d_8">
      <g>
       <use xlink:href="#mea0a178c45" x="46.55" y="77.133532" style="stroke: #000000; stroke-width: 0.8"/>
      </g>
     </g>
     <g id="text_2">
      <!-- 0 -->
      <g transform="translate(33.1875 80.932751) scale(0.1 -0.1)">
       <defs>
        <path id="DejaVuSans-30" d="M 2034 4250 
Q 1547 4250 1301 3770 
Q 1056 3291 1056 2328 
Q 1056 1369 1301 889 
Q 1547 409 2034 409 
Q 2525 409 2770 889 
Q 3016 1369 3016 2328 
Q 3016 3291 2770 3770 
Q 2525 4250 2034 4250 
z
M 2034 4750 
Q 2819 4750 3233 4129 
Q 3647 3509 3647 2328 
Q 3647 1150 3233 529 
Q 2819 -91 2034 -91 
Q 1250 -91 836 529 
Q 422 1150 422 2328 
Q 422 3509 836 4129 
Q 1250 4750 2034 4750 
z
" transform="scale(0.015625)"/>
       </defs>
       <use xlink:href="#DejaVuSans-30"/>
      </g>
     </g>
    </g>
    <g id="ytick_3">
     <g id="line2d_9">
      <g>
       <use xlink:href="#mea0a178c45" x="46.55" y="41.420517" style="stroke: #000000; stroke-width: 0.8"/>
      </g>
     </g>
     <g id="text_3">
      <!-- 2 -->
      <g transform="translate(33.1875 45.219736) scale(0.1 -0.1)">
       <use xlink:href="#DejaVuSans-32"/>
      </g>
     </g>
    </g>
    <g id="text_4">
     <!-- y -->
     <g transform="translate(18.728125 80.239375) rotate(-90) scale(0.1 -0.1)">
      <defs>
       <path id="DejaVuSans-79" d="M 2059 -325 
Q 1816 -950 1584 -1140 
Q 1353 -1331 966 -1331 
L 506 -1331 
L 506 -850 
L 844 -850 
Q 1081 -850 1212 -737 
Q 1344 -625 1503 -206 
L 1606 56 
L 191 3500 
L 800 3500 
L 1894 763 
L 2988 3500 
L 3597 3500 
L 2059 -325 
z
" transform="scale(0.015625)"/>
      </defs>
      <use xlink:href="#DejaVuSans-79"/>
     </g>
    </g>
   </g>
   <g id="line2d_10">
    <path d="M 66.852273 91.801423 
L 70.953742 90.788958 
L 75.055211 89.633566 
L 79.156681 88.345452 
L 83.25815 86.936721 
L 87.359619 85.421247 
L 91.461089 83.814521 
L 95.562556 82.133483 
L 99.664027 80.396325 
L 103.765497 78.622295 
L 107.866964 76.831465 
L 111.968435 75.044503 
L 116.069905 73.282436 
L 120.171372 71.566397 
L 124.27284 69.917372 
L 128.374313 68.355953 
L 132.47578 66.90209 
L 136.577248 65.574838 
L 140.678721 64.392123 
L 144.780189 63.370525 
L 148.881656 62.525055 
L 152.983129 61.868959 
L 157.084597 61.413548 
L 161.186064 61.168033 
L 165.287537 61.139391 
L 169.388999 61.332258 
L 173.490472 61.748839 
L 177.591945 62.388854 
L 181.693407 63.2495 
L 185.79488 64.325463 
L 189.896354 65.608929 
L 193.997815 67.089642 
L 198.099288 68.755003 
L 202.200762 70.590159 
L 206.302223 72.578145 
L 210.403696 74.700069 
L 214.50517 76.935263 
L 218.606631 79.261506 
L 222.708104 81.655273 
L 226.809578 84.091941 
L 230.911039 86.546061 
L 235.012512 88.991661 
L 239.113986 91.402474 
L 243.215447 93.752249 
L 247.316921 96.015064 
L 251.418394 98.165563 
L 255.519855 100.179274 
L 259.621329 102.032895 
L 263.722802 103.70453 
L 267.824263 105.173963 
L 271.925749 106.422916 
L 276.027198 107.435215 
L 280.128671 108.197063 
L 284.230145 108.697153 
L 288.331594 108.926847 
L 292.433092 108.880302 
L 296.534541 108.554552 
L 300.636014 107.949574 
L 304.737488 107.068324 
L 308.838961 105.916737 
L 312.940434 104.503691 
L 317.041884 102.840953 
L 321.143381 100.943035 
L 325.24483 98.827181 
L 329.346304 96.513054 
L 333.447777 94.022679 
L 337.549226 91.380188 
L 341.650724 88.611514 
L 345.752173 85.744312 
L 349.853646 82.807449 
L 353.95512 79.830893 
L 358.056593 76.845319 
L 362.158067 73.881808 
L 366.259516 70.971538 
L 370.361013 68.145365 
L 374.462463 65.433682 
L 378.563936 62.86586 
L 382.665409 60.470103 
L 386.766859 58.273074 
L 390.868356 56.299551 
L 394.969805 54.572285 
L 399.071279 53.111572 
L 403.172752 51.935144 
L 407.274226 51.057905 
L 411.375699 50.49176 
L 415.477148 50.245462 
L 419.578622 50.32449 
L 423.680095 50.730972 
L 427.781568 51.46363 
L 431.883042 52.51776 
L 435.984491 53.885251 
L 440.085964 55.554675 
L 444.187438 57.511328 
L 448.288911 59.737391 
L 452.390385 62.212086 
L 456.491858 64.911868 
L 460.593331 67.810653 
L 464.69478 70.880048 
L 468.796254 74.089709 
L 472.897727 77.407534 
" clip-path="url(#p6758bddb95)" style="fill: none; stroke-dasharray: 5.55,2.4; stroke-dashoffset: 0; stroke: #000000; stroke-width: 1.5"/>
   </g>
   <g id="line2d_11">
    <path d="M 66.852273 86.519609 
L 70.953742 86.819976 
L 75.055211 86.914932 
L 79.156681 86.748701 
L 83.25815 86.269038 
L 87.359619 85.437718 
L 91.461089 84.246859 
L 95.562556 82.730201 
L 99.664027 80.952116 
L 103.765497 78.993609 
L 107.866964 76.943759 
L 111.968435 74.894624 
L 116.069905 72.937718 
L 120.171372 71.16036 
L 124.27284 69.64019 
L 128.374313 68.435919 
L 132.47578 67.57284 
L 136.577248 67.035795 
L 140.678721 66.783406 
L 144.780189 66.763134 
L 148.881656 66.920713 
L 152.983129 67.205665 
L 157.084597 67.574271 
L 161.186064 67.990926 
L 165.287537 68.428536 
L 169.388999 68.868376 
L 173.490472 69.2997 
L 177.591945 69.719245 
L 181.693407 70.130746 
L 185.79488 70.544459 
L 189.896354 70.976637 
L 193.997815 71.448878 
L 198.099288 71.98715 
L 202.200762 72.620193 
L 206.302223 73.376926 
L 210.403696 74.282264 
L 214.50517 75.351239 
L 218.606631 76.587368 
L 222.708104 77.987436 
L 226.809578 79.545399 
L 230.911039 81.254375 
L 235.012512 83.10726 
L 239.113986 85.09633 
L 243.215447 87.212177 
L 247.316921 89.442132 
L 251.418394 91.768233 
L 255.519855 94.164984 
L 259.621329 96.596982 
L 263.722802 99.016546 
L 267.824263 101.361777 
L 271.925749 103.555477 
L 276.027198 105.505541 
L 280.128671 107.10824 
L 284.230145 108.255635 
L 288.331594 108.849925 
L 292.433092 108.827949 
L 296.534541 108.192381 
L 300.636014 107.00918 
L 304.737488 105.375693 
L 308.838961 103.397158 
L 312.940434 101.173052 
L 317.041884 98.789928 
L 321.143381 96.318304 
L 325.24483 93.812333 
L 329.346304 91.310601 
L 333.447777 88.838079 
L 337.549226 86.408216 
L 341.650724 84.025125 
L 345.752173 81.685945 
L 349.853646 79.382739 
L 353.95512 77.10464 
L 358.056593 74.839686 
L 362.158067 72.576692 
L 366.259516 70.307135 
L 370.361013 68.027011 
L 374.462463 65.738984 
L 378.563936 63.454244 
L 382.665409 61.194528 
L 386.766859 58.9937 
L 390.868356 56.898926 
L 394.969805 54.971198 
L 399.071279 53.284019 
L 403.172752 51.919816 
L 407.274226 50.962049 
L 411.375699 50.481029 
L 415.477148 50.510503 
L 419.578622 51.025747 
L 423.680095 51.957031 
L 427.781568 53.215364 
L 431.883042 54.709076 
L 435.984491 56.353201 
L 440.085964 58.074214 
L 444.187438 59.8117 
L 448.288911 61.518345 
L 452.390385 63.158869 
L 456.491858 64.708483 
L 460.593331 66.151176 
L 464.69478 67.478023 
L 468.796254 68.685677 
L 472.897727 69.774957 
" clip-path="url(#p6758bddb95)" style="fill: none; stroke: #1f77b4; stroke-width: 1.5; stroke-linecap: square"/>
   </g>
   <g id="patch_3">
    <path d="M 46.55 127.68 
L 46.55 26.88 
" style="fill: none; stroke: #000000; stroke-width: 0.8; stroke-linejoin: miter; stroke-linecap: square"/>
   </g>
   <g id="patch_4">
    <path d="M 493.2 127.68 
L 493.2 26.88 
" style="fill: none; stroke: #000000; stroke-width: 0.8; stroke-linejoin: miter; stroke-linecap: square"/>
   </g>
   <g id="patch_5">
    <path d="M 46.55 127.68 
L 493.2 127.68 
" style="fill: none; stroke: #000000; stroke-width: 0.8; stroke-linejoin: miter; stroke-linecap: square"/>
   </g>
   <g id="patch_6">
    <path d="M 46.55 26.88 
L 493.2 26.88 
" style="fill: none; stroke: #000000; stroke-width: 0.8; stroke-linejoin: miter; stroke-linecap: square"/>
   </g>
   <g id="text_5">
    <!-- MaternKernel -->
    <g transform="translate(229.96375 20.88) scale(0.12 -0.12)">
     <defs>
      <path id="DejaVuSans-4d" d="M 628 4666 
L 1569 4666 
L 2759 1491 
L 3956 4666 
L 4897 4666 
L 4897 0 
L 4281 0 
L 4281 4097 
L 3078 897 
L 2444 897 
L 1241 4097 
L 1241 0 
L 628 0 
L 628 4666 
z
" transform="scale(0.015625)"/>
      <path id="DejaVuSans-61" d="M 2194 1759 
Q 1497 1759 1228 1600 
Q 959 1441 959 1056 
Q 959 750 1161 570 
Q 1363 391 1709 391 
Q 2188 391 2477 730 
Q 2766 1069 2766 1631 
L 2766 1759 
L 2194 1759 
z
M 3341 1997 
L 3341 0 
L 2766 0 
L 2766 531 
Q 2569 213 2275 61 
Q 1981 -91 1556 -91 
Q 1019 -91 701 211 
Q 384 513 384 1019 
Q 384 1609 779 1909 
Q 1175 2209 1959 2209 
L 2766 2209 
L 2766 2266 
Q 2766 2663 2505 2880 
Q 2244 3097 1772 3097 
Q 1472 3097 1187 3025 
Q 903 2953 641 2809 
L 641 3341 
Q 956 3463 1253 3523 
Q 1550 3584 1831 3584 
Q 2591 3584 2966 3190 
Q 3341 2797 3341 1997 
z
" transform="scale(0.015625)"/>
      <path id="DejaVuSans-74" d="M 1172 4494 
L 1172 3500 
L 2356 3500 
L 2356 3053 
L 1172 3053 
L 1172 1153 
Q 1172 725 1289 603 
Q 1406 481 1766 481 
L 2356 481 
L 2356 0 
L 1766 0 
Q 1100 0 847 248 
Q 594 497 594 1153 
L 594 3053 
L 172 3053 
L 172 3500 
L 594 3500 
L 594 4494 
L 1172 4494 
z
" transform="scale(0.015625)"/>
      <path id="DejaVuSans-65" d="M 3597 1894 
L 3597 1613 
L 953 1613 
Q 991 1019 1311 708 
Q 1631 397 2203 397 
Q 2534 397 2845 478 
Q 3156 559 3463 722 
L 3463 178 
Q 3153 47 2828 -22 
Q 2503 -91 2169 -91 
Q 1331 -91 842 396 
Q 353 884 353 1716 
Q 353 2575 817 3079 
Q 1281 3584 2069 3584 
Q 2775 3584 3186 3129 
Q 3597 2675 3597 1894 
z
M 3022 2063 
Q 3016 2534 2758 2815 
Q 2500 3097 2075 3097 
Q 1594 3097 1305 2825 
Q 1016 2553 972 2059 
L 3022 2063 
z
" transform="scale(0.015625)"/>
      <path id="DejaVuSans-72" d="M 2631 2963 
Q 2534 3019 2420 3045 
Q 2306 3072 2169 3072 
Q 1681 3072 1420 2755 
Q 1159 2438 1159 1844 
L 1159 0 
L 581 0 
L 581 3500 
L 1159 3500 
L 1159 2956 
Q 1341 3275 1631 3429 
Q 1922 3584 2338 3584 
Q 2397 3584 2469 3576 
Q 2541 3569 2628 3553 
L 2631 2963 
z
" transform="scale(0.015625)"/>
      <path id="DejaVuSans-6e" d="M 3513 2113 
L 3513 0 
L 2938 0 
L 2938 2094 
Q 2938 2591 2744 2837 
Q 2550 3084 2163 3084 
Q 1697 3084 1428 2787 
Q 1159 2491 1159 1978 
L 1159 0 
L 581 0 
L 581 3500 
L 1159 3500 
L 1159 2956 
Q 1366 3272 1645 3428 
Q 1925 3584 2291 3584 
Q 2894 3584 3203 3211 
Q 3513 2838 3513 2113 
z
" transform="scale(0.015625)"/>
      <path id="DejaVuSans-4b" d="M 628 4666 
L 1259 4666 
L 1259 2694 
L 3353 4666 
L 4166 4666 
L 1850 2491 
L 4331 0 
L 3500 0 
L 1259 2247 
L 1259 0 
L 628 0 
L 628 4666 
z
" transform="scale(0.015625)"/>
      <path id="DejaVuSans-6c" d="M 603 4863 
L 1178 4863 
L 1178 0 
L 603 0 
L 603 4863 
z
" transform="scale(0.015625)"/>
     </defs>
     <use xlink:href="#DejaVuSans-4d"/>
     <use xlink:href="#DejaVuSans-61" transform="translate(86.279297 0)"/>
     <use xlink:href="#DejaVuSans-74" transform="translate(147.558594 0)"/>
     <use xlink:href="#DejaVuSans-65" transform="translate(186.767578 0)"/>
     <use xlink:href="#DejaVuSans-72" transform="translate(248.291016 0)"/>
     <use xlink:href="#DejaVuSans-6e" transform="translate(287.654297 0)"/>
     <use xlink:href="#DejaVuSans-4b" transform="translate(351.033203 0)"/>
     <use xlink:href="#DejaVuSans-65" transform="translate(411.609375 0)"/>
     <use xlink:href="#DejaVuSans-72" transform="translate(473.132812 0)"/>
     <use xlink:href="#DejaVuSans-6e" transform="translate(512.496094 0)"/>
     <use xlink:href="#DejaVuSans-65" transform="translate(575.875 0)"/>
     <use xlink:href="#DejaVuSans-6c" transform="translate(637.398438 0)"/>
    </g>
   </g>
   <g id="legend_1">
    <g id="patch_7">
     <path d="M 51.408 42.618619 
L 400.394575 42.618619 
Q 401.782575 42.618619 401.782575 41.230619 
L 401.782575 31.738 
Q 401.782575 30.35 400.394575 30.35 
L 51.408 30.35 
Q 50.02 30.35 50.02 31.738 
L 50.02 41.230619 
Q 50.02 42.618619 51.408 42.618619 
z
" style="fill: #ffffff; opacity: 0.8; stroke: #cccccc; stroke-linejoin: miter"/>
    </g>
    <g id="line2d_12">
     <path d="M 52.796 35.970316 
L 59.736 35.970316 
L 66.676 35.970316 
" style="fill: none; stroke-dasharray: 5.55,2.4; stroke-dashoffset: 0; stroke: #000000; stroke-width: 1.5"/>
    </g>
    <g id="text_6">
     <!-- Objective -->
     <g transform="translate(72.228 38.399316) scale(0.0694 -0.0694)">
      <defs>
       <path id="DejaVuSans-4f" d="M 2522 4238 
Q 1834 4238 1429 3725 
Q 1025 3213 1025 2328 
Q 1025 1447 1429 934 
Q 1834 422 2522 422 
Q 3209 422 3611 934 
Q 4013 1447 4013 2328 
Q 4013 3213 3611 3725 
Q 3209 4238 2522 4238 
z
M 2522 4750 
Q 3503 4750 4090 4092 
Q 4678 3434 4678 2328 
Q 4678 1225 4090 567 
Q 3503 -91 2522 -91 
Q 1538 -91 948 565 
Q 359 1222 359 2328 
Q 359 3434 948 4092 
Q 1538 4750 2522 4750 
z
" transform="scale(0.015625)"/>
       <path id="DejaVuSans-62" d="M 3116 1747 
Q 3116 2381 2855 2742 
Q 2594 3103 2138 3103 
Q 1681 3103 1420 2742 
Q 1159 2381 1159 1747 
Q 1159 1113 1420 752 
Q 1681 391 2138 391 
Q 2594 391 2855 752 
Q 3116 1113 3116 1747 
z
M 1159 2969 
Q 1341 3281 1617 3432 
Q 1894 3584 2278 3584 
Q 2916 3584 3314 3078 
Q 3713 2572 3713 1747 
Q 3713 922 3314 415 
Q 2916 -91 2278 -91 
Q 1894 -91 1617 61 
Q 1341 213 1159 525 
L 1159 0 
L 581 0 
L 581 4863 
L 1159 4863 
L 1159 2969 
z
" transform="scale(0.015625)"/>
       <path id="DejaVuSans-6a" d="M 603 3500 
L 1178 3500 
L 1178 -63 
Q 1178 -731 923 -1031 
Q 669 -1331 103 -1331 
L -116 -1331 
L -116 -844 
L 38 -844 
Q 366 -844 484 -692 
Q 603 -541 603 -63 
L 603 3500 
z
M 603 4863 
L 1178 4863 
L 1178 4134 
L 603 4134 
L 603 4863 
z
" transform="scale(0.015625)"/>
       <path id="DejaVuSans-63" d="M 3122 3366 
L 3122 2828 
Q 2878 2963 2633 3030 
Q 2388 3097 2138 3097 
Q 1578 3097 1268 2742 
Q 959 2388 959 1747 
Q 959 1106 1268 751 
Q 1578 397 2138 397 
Q 2388 397 2633 464 
Q 2878 531 3122 666 
L 3122 134 
Q 2881 22 2623 -34 
Q 2366 -91 2075 -91 
Q 1284 -91 818 406 
Q 353 903 353 1747 
Q 353 2603 823 3093 
Q 1294 3584 2113 3584 
Q 2378 3584 2631 3529 
Q 2884 3475 3122 3366 
z
" transform="scale(0.015625)"/>
       <path id="DejaVuSans-69" d="M 603 3500 
L 1178 3500 
L 1178 0 
L 603 0 
L 603 3500 
z
M 603 4863 
L 1178 4863 
L 1178 4134 
L 603 4134 
L 603 4863 
z
" transform="scale(0.015625)"/>
       <path id="DejaVuSans-76" d="M 191 3500 
L 800 3500 
L 1894 563 
L 2988 3500 
L 3597 3500 
L 2284 0 
L 1503 0 
L 191 3500 
z
" transform="scale(0.015625)"/>
      </defs>
      <use xlink:href="#DejaVuSans-4f"/>
      <use xlink:href="#DejaVuSans-62" transform="translate(78.710938 0)"/>
      <use xlink:href="#DejaVuSans-6a" transform="translate(142.1875 0)"/>
      <use xlink:href="#DejaVuSans-65" transform="translate(169.970703 0)"/>
      <use xlink:href="#DejaVuSans-63" transform="translate(231.494141 0)"/>
      <use xlink:href="#DejaVuSans-74" transform="translate(286.474609 0)"/>
      <use xlink:href="#DejaVuSans-69" transform="translate(325.683594 0)"/>
      <use xlink:href="#DejaVuSans-76" transform="translate(353.466797 0)"/>
      <use xlink:href="#DejaVuSans-65" transform="translate(412.646484 0)"/>
     </g>
    </g>
    <g id="PathCollection_3">
     <g>
      <use xlink:href="#ma56826666b" x="125.957697" y="36.577566" style="fill: #1f77b4; stroke: #1f77b4"/>
     </g>
    </g>
    <g id="text_7">
     <!-- Training data -->
     <g transform="translate(138.449697 38.399316) scale(0.0694 -0.0694)">
      <defs>
       <path id="DejaVuSans-54" d="M -19 4666 
L 3928 4666 
L 3928 4134 
L 2272 4134 
L 2272 0 
L 1638 0 
L 1638 4134 
L -19 4134 
L -19 4666 
z
" transform="scale(0.015625)"/>
       <path id="DejaVuSans-67" d="M 2906 1791 
Q 2906 2416 2648 2759 
Q 2391 3103 1925 3103 
Q 1463 3103 1205 2759 
Q 947 2416 947 1791 
Q 947 1169 1205 825 
Q 1463 481 1925 481 
Q 2391 481 2648 825 
Q 2906 1169 2906 1791 
z
M 3481 434 
Q 3481 -459 3084 -895 
Q 2688 -1331 1869 -1331 
Q 1566 -1331 1297 -1286 
Q 1028 -1241 775 -1147 
L 775 -588 
Q 1028 -725 1275 -790 
Q 1522 -856 1778 -856 
Q 2344 -856 2625 -561 
Q 2906 -266 2906 331 
L 2906 616 
Q 2728 306 2450 153 
Q 2172 0 1784 0 
Q 1141 0 747 490 
Q 353 981 353 1791 
Q 353 2603 747 3093 
Q 1141 3584 1784 3584 
Q 2172 3584 2450 3431 
Q 2728 3278 2906 2969 
L 2906 3500 
L 3481 3500 
L 3481 434 
z
" transform="scale(0.015625)"/>
       <path id="DejaVuSans-20" transform="scale(0.015625)"/>
       <path id="DejaVuSans-64" d="M 2906 2969 
L 2906 4863 
L 3481 4863 
L 3481 0 
L 2906 0 
L 2906 525 
Q 2725 213 2448 61 
Q 2172 -91 1784 -91 
Q 1150 -91 751 415 
Q 353 922 353 1747 
Q 353 2572 751 3078 
Q 1150 3584 1784 3584 
Q 2172 3584 2448 3432 
Q 2725 3281 2906 2969 
z
M 947 1747 
Q 947 1113 1208 752 
Q 1469 391 1925 391 
Q 2381 391 2643 752 
Q 2906 1113 2906 1747 
Q 2906 2381 2643 2742 
Q 2381 3103 1925 3103 
Q 1469 3103 1208 2742 
Q 947 2381 947 1747 
z
" transform="scale(0.015625)"/>
      </defs>
      <use xlink:href="#DejaVuSans-54"/>
      <use xlink:href="#DejaVuSans-72" transform="translate(46.333984 0)"/>
      <use xlink:href="#DejaVuSans-61" transform="translate(87.447266 0)"/>
      <use xlink:href="#DejaVuSans-69" transform="translate(148.726562 0)"/>
      <use xlink:href="#DejaVuSans-6e" transform="translate(176.509766 0)"/>
      <use xlink:href="#DejaVuSans-69" transform="translate(239.888672 0)"/>
      <use xlink:href="#DejaVuSans-6e" transform="translate(267.671875 0)"/>
      <use xlink:href="#DejaVuSans-67" transform="translate(331.050781 0)"/>
      <use xlink:href="#DejaVuSans-20" transform="translate(394.527344 0)"/>
      <use xlink:href="#DejaVuSans-64" transform="translate(426.314453 0)"/>
      <use xlink:href="#DejaVuSans-61" transform="translate(489.791016 0)"/>
      <use xlink:href="#DejaVuSans-74" transform="translate(551.070312 0)"/>
      <use xlink:href="#DejaVuSans-61" transform="translate(590.279297 0)"/>
     </g>
    </g>
    <g id="PathCollection_4">
     <g>
      <use xlink:href="#meb56d18d47" x="204.48705" y="36.577566" style="fill: #ff7f0e; stroke: #ff7f0e"/>
     </g>
    </g>
    <g id="text_8">
     <!-- Test data -->
     <g transform="translate(216.97905 38.399316) scale(0.0694 -0.0694)">
      <defs>
       <path id="DejaVuSans-73" d="M 2834 3397 
L 2834 2853 
Q 2591 2978 2328 3040 
Q 2066 3103 1784 3103 
Q 1356 3103 1142 2972 
Q 928 2841 928 2578 
Q 928 2378 1081 2264 
Q 1234 2150 1697 2047 
L 1894 2003 
Q 2506 1872 2764 1633 
Q 3022 1394 3022 966 
Q 3022 478 2636 193 
Q 2250 -91 1575 -91 
Q 1294 -91 989 -36 
Q 684 19 347 128 
L 347 722 
Q 666 556 975 473 
Q 1284 391 1588 391 
Q 1994 391 2212 530 
Q 2431 669 2431 922 
Q 2431 1156 2273 1281 
Q 2116 1406 1581 1522 
L 1381 1569 
Q 847 1681 609 1914 
Q 372 2147 372 2553 
Q 372 3047 722 3315 
Q 1072 3584 1716 3584 
Q 2034 3584 2315 3537 
Q 2597 3491 2834 3397 
z
" transform="scale(0.015625)"/>
      </defs>
      <use xlink:href="#DejaVuSans-54"/>
      <use xlink:href="#DejaVuSans-65" transform="translate(44.083984 0)"/>
      <use xlink:href="#DejaVuSans-73" transform="translate(105.607422 0)"/>
      <use xlink:href="#DejaVuSans-74" transform="translate(157.707031 0)"/>
      <use xlink:href="#DejaVuSans-20" transform="translate(196.916016 0)"/>
      <use xlink:href="#DejaVuSans-64" transform="translate(228.703125 0)"/>
      <use xlink:href="#DejaVuSans-61" transform="translate(292.179688 0)"/>
      <use xlink:href="#DejaVuSans-74" transform="translate(353.458984 0)"/>
      <use xlink:href="#DejaVuSans-61" transform="translate(392.667969 0)"/>
     </g>
    </g>
    <g id="line2d_13">
     <path d="M 262.362312 35.970316 
L 269.302312 35.970316 
L 276.242312 35.970316 
" style="fill: none; stroke: #1f77b4; stroke-width: 1.5; stroke-linecap: square"/>
    </g>
    <g id="text_9">
     <!-- Pred. mean -->
     <g transform="translate(281.794312 38.399316) scale(0.0694 -0.0694)">
      <defs>
       <path id="DejaVuSans-50" d="M 1259 4147 
L 1259 2394 
L 2053 2394 
Q 2494 2394 2734 2622 
Q 2975 2850 2975 3272 
Q 2975 3691 2734 3919 
Q 2494 4147 2053 4147 
L 1259 4147 
z
M 628 4666 
L 2053 4666 
Q 2838 4666 3239 4311 
Q 3641 3956 3641 3272 
Q 3641 2581 3239 2228 
Q 2838 1875 2053 1875 
L 1259 1875 
L 1259 0 
L 628 0 
L 628 4666 
z
" transform="scale(0.015625)"/>
       <path id="DejaVuSans-2e" d="M 684 794 
L 1344 794 
L 1344 0 
L 684 0 
L 684 794 
z
" transform="scale(0.015625)"/>
       <path id="DejaVuSans-6d" d="M 3328 2828 
Q 3544 3216 3844 3400 
Q 4144 3584 4550 3584 
Q 5097 3584 5394 3201 
Q 5691 2819 5691 2113 
L 5691 0 
L 5113 0 
L 5113 2094 
Q 5113 2597 4934 2840 
Q 4756 3084 4391 3084 
Q 3944 3084 3684 2787 
Q 3425 2491 3425 1978 
L 3425 0 
L 2847 0 
L 2847 2094 
Q 2847 2600 2669 2842 
Q 2491 3084 2119 3084 
Q 1678 3084 1418 2786 
Q 1159 2488 1159 1978 
L 1159 0 
L 581 0 
L 581 3500 
L 1159 3500 
L 1159 2956 
Q 1356 3278 1631 3431 
Q 1906 3584 2284 3584 
Q 2666 3584 2933 3390 
Q 3200 3197 3328 2828 
z
" transform="scale(0.015625)"/>
      </defs>
      <use xlink:href="#DejaVuSans-50"/>
      <use xlink:href="#DejaVuSans-72" transform="translate(58.552734 0)"/>
      <use xlink:href="#DejaVuSans-65" transform="translate(97.416016 0)"/>
      <use xlink:href="#DejaVuSans-64" transform="translate(158.939453 0)"/>
      <use xlink:href="#DejaVuSans-2e" transform="translate(222.416016 0)"/>
      <use xlink:href="#DejaVuSans-20" transform="translate(254.203125 0)"/>
      <use xlink:href="#DejaVuSans-6d" transform="translate(285.990234 0)"/>
      <use xlink:href="#DejaVuSans-65" transform="translate(383.402344 0)"/>
      <use xlink:href="#DejaVuSans-61" transform="translate(444.925781 0)"/>
      <use xlink:href="#DejaVuSans-6e" transform="translate(506.205078 0)"/>
     </g>
    </g>
    <g id="patch_8">
     <path d="M 335.203034 38.399316 
L 349.083034 38.399316 
L 349.083034 33.541316 
L 335.203034 33.541316 
z
" style="fill: #1f77b4; fill-opacity: 0.2; stroke: #1f77b4; stroke-opacity: 0.2; stroke-linejoin: miter"/>
    </g>
    <g id="text_10">
     <!-- Pred. 95% CI -->
     <g transform="translate(354.635034 38.399316) scale(0.0694 -0.0694)">
      <defs>
       <path id="DejaVuSans-39" d="M 703 97 
L 703 672 
Q 941 559 1184 500 
Q 1428 441 1663 441 
Q 2288 441 2617 861 
Q 2947 1281 2994 2138 
Q 2813 1869 2534 1725 
Q 2256 1581 1919 1581 
Q 1219 1581 811 2004 
Q 403 2428 403 3163 
Q 403 3881 828 4315 
Q 1253 4750 1959 4750 
Q 2769 4750 3195 4129 
Q 3622 3509 3622 2328 
Q 3622 1225 3098 567 
Q 2575 -91 1691 -91 
Q 1453 -91 1209 -44 
Q 966 3 703 97 
z
M 1959 2075 
Q 2384 2075 2632 2365 
Q 2881 2656 2881 3163 
Q 2881 3666 2632 3958 
Q 2384 4250 1959 4250 
Q 1534 4250 1286 3958 
Q 1038 3666 1038 3163 
Q 1038 2656 1286 2365 
Q 1534 2075 1959 2075 
z
" transform="scale(0.015625)"/>
       <path id="DejaVuSans-35" d="M 691 4666 
L 3169 4666 
L 3169 4134 
L 1269 4134 
L 1269 2991 
Q 1406 3038 1543 3061 
Q 1681 3084 1819 3084 
Q 2600 3084 3056 2656 
Q 3513 2228 3513 1497 
Q 3513 744 3044 326 
Q 2575 -91 1722 -91 
Q 1428 -91 1123 -41 
Q 819 9 494 109 
L 494 744 
Q 775 591 1075 516 
Q 1375 441 1709 441 
Q 2250 441 2565 725 
Q 2881 1009 2881 1497 
Q 2881 1984 2565 2268 
Q 2250 2553 1709 2553 
Q 1456 2553 1204 2497 
Q 953 2441 691 2322 
L 691 4666 
z
" transform="scale(0.015625)"/>
       <path id="DejaVuSans-25" d="M 4653 2053 
Q 4381 2053 4226 1822 
Q 4072 1591 4072 1178 
Q 4072 772 4226 539 
Q 4381 306 4653 306 
Q 4919 306 5073 539 
Q 5228 772 5228 1178 
Q 5228 1588 5073 1820 
Q 4919 2053 4653 2053 
z
M 4653 2450 
Q 5147 2450 5437 2106 
Q 5728 1763 5728 1178 
Q 5728 594 5436 251 
Q 5144 -91 4653 -91 
Q 4153 -91 3862 251 
Q 3572 594 3572 1178 
Q 3572 1766 3864 2108 
Q 4156 2450 4653 2450 
z
M 1428 4353 
Q 1159 4353 1004 4120 
Q 850 3888 850 3481 
Q 850 3069 1003 2837 
Q 1156 2606 1428 2606 
Q 1700 2606 1854 2837 
Q 2009 3069 2009 3481 
Q 2009 3884 1853 4118 
Q 1697 4353 1428 4353 
z
M 4250 4750 
L 4750 4750 
L 1831 -91 
L 1331 -91 
L 4250 4750 
z
M 1428 4750 
Q 1922 4750 2215 4408 
Q 2509 4066 2509 3481 
Q 2509 2891 2217 2550 
Q 1925 2209 1428 2209 
Q 931 2209 642 2551 
Q 353 2894 353 3481 
Q 353 4063 643 4406 
Q 934 4750 1428 4750 
z
" transform="scale(0.015625)"/>
       <path id="DejaVuSans-43" d="M 4122 4306 
L 4122 3641 
Q 3803 3938 3442 4084 
Q 3081 4231 2675 4231 
Q 1875 4231 1450 3742 
Q 1025 3253 1025 2328 
Q 1025 1406 1450 917 
Q 1875 428 2675 428 
Q 3081 428 3442 575 
Q 3803 722 4122 1019 
L 4122 359 
Q 3791 134 3420 21 
Q 3050 -91 2638 -91 
Q 1578 -91 968 557 
Q 359 1206 359 2328 
Q 359 3453 968 4101 
Q 1578 4750 2638 4750 
Q 3056 4750 3426 4639 
Q 3797 4528 4122 4306 
z
" transform="scale(0.015625)"/>
       <path id="DejaVuSans-49" d="M 628 4666 
L 1259 4666 
L 1259 0 
L 628 0 
L 628 4666 
z
" transform="scale(0.015625)"/>
      </defs>
      <use xlink:href="#DejaVuSans-50"/>
      <use xlink:href="#DejaVuSans-72" transform="translate(58.552734 0)"/>
      <use xlink:href="#DejaVuSans-65" transform="translate(97.416016 0)"/>
      <use xlink:href="#DejaVuSans-64" transform="translate(158.939453 0)"/>
      <use xlink:href="#DejaVuSans-2e" transform="translate(222.416016 0)"/>
      <use xlink:href="#DejaVuSans-20" transform="translate(254.203125 0)"/>
      <use xlink:href="#DejaVuSans-39" transform="translate(285.990234 0)"/>
      <use xlink:href="#DejaVuSans-35" transform="translate(349.613281 0)"/>
      <use xlink:href="#DejaVuSans-25" transform="translate(413.236328 0)"/>
      <use xlink:href="#DejaVuSans-20" transform="translate(508.255859 0)"/>
      <use xlink:href="#DejaVuSans-43" transform="translate(540.042969 0)"/>
      <use xlink:href="#DejaVuSans-49" transform="translate(609.867188 0)"/>
     </g>
    </g>
   </g>
  </g>
  <g id="axes_2">
   <g id="patch_9">
    <path d="M 46.55 258.86 
L 493.2 258.86 
L 493.2 158.06 
L 46.55 158.06 
z
" style="fill: #ffffff"/>
   </g>
   <g id="PathCollection_5">
    <g clip-path="url(#p484c3afc0e)">
     <use xlink:href="#ma56826666b" x="411.990909" y="185.886788" style="fill: #1f77b4; stroke: #1f77b4"/>
     <use xlink:href="#ma56826666b" x="371.386364" y="204.60664" style="fill: #1f77b4; stroke: #1f77b4"/>
     <use xlink:href="#ma56826666b" x="290.177273" y="250.231177" style="fill: #1f77b4; stroke: #1f77b4"/>
     <use xlink:href="#ma56826666b" x="208.968182" y="211.741928" style="fill: #1f77b4; stroke: #1f77b4"/>
     <use xlink:href="#ma56826666b" x="87.154545" y="224.450993" style="fill: #1f77b4; stroke: #1f77b4"/>
     <use xlink:href="#ma56826666b" x="127.759091" y="205.84746" style="fill: #1f77b4; stroke: #1f77b4"/>
    </g>
   </g>
   <g id="PathCollection_6">
    <g clip-path="url(#p484c3afc0e)">
     <use xlink:href="#meb56d18d47" x="249.572727" y="237.333932" style="fill: #ff7f0e; stroke: #ff7f0e"/>
     <use xlink:href="#meb56d18d47" x="452.595455" y="198.982732" style="fill: #ff7f0e; stroke: #ff7f0e"/>
    </g>
   </g>
   <g id="FillBetweenPolyCollection_2">
    <defs>
     <path id="m18bdf2a896" d="M 66.852273 -210.381914 
L 66.852273 -192.355897 
L 70.953742 -195.395256 
L 75.055211 -198.421078 
L 79.156681 -201.363535 
L 83.25815 -204.07509 
L 87.359619 -206.173059 
L 91.461089 -207.499717 
L 95.562556 -208.692875 
L 99.664027 -210.089761 
L 103.765497 -211.757965 
L 107.866964 -213.691353 
L 111.968435 -215.855409 
L 116.069905 -218.194577 
L 120.171372 -220.622104 
L 124.27284 -222.972925 
L 128.374313 -224.897624 
L 132.47578 -226.088819 
L 136.577248 -226.734496 
L 140.678721 -227.062937 
L 144.780189 -227.176525 
L 148.881656 -227.128006 
L 152.983129 -226.953502 
L 157.084597 -226.682022 
L 161.186064 -226.338095 
L 165.287537 -225.942301 
L 169.388999 -225.511113 
L 173.490472 -225.056542 
L 177.591945 -224.5858 
L 181.693407 -224.10099 
L 185.79488 -223.598813 
L 189.896354 -223.070094 
L 193.997815 -222.498439 
L 198.099288 -221.855607 
L 202.200762 -221.082272 
L 206.302223 -219.984124 
L 210.403696 -217.837245 
L 214.50517 -214.379551 
L 218.606631 -210.475543 
L 222.708104 -206.4754 
L 226.809578 -202.508691 
L 230.911039 -198.65929 
L 235.012512 -194.995956 
L 239.113986 -191.578753 
L 243.215447 -188.460267 
L 247.316921 -185.685507 
L 251.418394 -183.291542 
L 255.519855 -181.307021 
L 259.621329 -179.751778 
L 263.722802 -178.636572 
L 267.824263 -177.962776 
L 271.925749 -177.721818 
L 276.027198 -177.893517 
L 280.128671 -178.440031 
L 284.230145 -179.279386 
L 288.331594 -180.137527 
L 292.433092 -180.196906 
L 296.534541 -179.574291 
L 300.636014 -179.066101 
L 304.737488 -178.909962 
L 308.838961 -179.17833 
L 312.940434 -179.902575 
L 317.041884 -181.095537 
L 321.143381 -182.756982 
L 325.24483 -184.875193 
L 329.346304 -187.427885 
L 333.447777 -190.382666 
L 337.549226 -193.697721 
L 341.650724 -197.322631 
L 345.752173 -201.198927 
L 349.853646 -205.261045 
L 353.95512 -209.436173 
L 358.056593 -213.642601 
L 362.158067 -217.78188 
L 366.259516 -221.710134 
L 370.361013 -225.164023 
L 374.462463 -227.875173 
L 378.563936 -230.060045 
L 382.665409 -232.039459 
L 386.766859 -233.946571 
L 390.868356 -235.830334 
L 394.969805 -237.709316 
L 399.071279 -239.584752 
L 403.172752 -241.435411 
L 407.274226 -243.179392 
L 411.375699 -244.50044 
L 415.477148 -244.73189 
L 419.578622 -243.929109 
L 423.680095 -242.492593 
L 427.781568 -240.584951 
L 431.883042 -238.284995 
L 435.984491 -235.651833 
L 440.085964 -232.739642 
L 444.187438 -229.601273 
L 448.288911 -226.288689 
L 452.390385 -222.852558 
L 456.491858 -219.341555 
L 460.593331 -215.80161 
L 464.69478 -212.275249 
L 468.796254 -208.800932 
L 472.897727 -205.412741 
L 472.897727 -269.358182 
L 472.897727 -269.358182 
L 468.796254 -268.612969 
L 464.69478 -267.719857 
L 460.593331 -266.679237 
L 456.491858 -265.494278 
L 452.390385 -264.170983 
L 448.288911 -262.718108 
L 444.187438 -261.14705 
L 440.085964 -259.471701 
L 435.984491 -257.708378 
L 431.883042 -255.876054 
L 427.781568 -253.997453 
L 423.680095 -252.103265 
L 419.578622 -250.24754 
L 415.477148 -248.572348 
L 411.375699 -247.462398 
L 407.274226 -246.962445 
L 403.172752 -246.400819 
L 399.071279 -245.462155 
L 394.969805 -244.071556 
L 390.868356 -242.221076 
L 386.766859 -239.931422 
L 382.665409 -237.247031 
L 378.563936 -234.248609 
L 374.462463 -231.106974 
L 370.361013 -228.186065 
L 366.259516 -225.750329 
L 362.158067 -223.584082 
L 358.056593 -221.480292 
L 353.95512 -219.354688 
L 349.853646 -217.170813 
L 345.752173 -214.910555 
L 341.650724 -212.5655 
L 337.549226 -210.134222 
L 333.447777 -207.621637 
L 329.346304 -205.038563 
L 325.24483 -202.401785 
L 321.143381 -199.73388 
L 317.041884 -197.062988 
L 312.940434 -194.422836 
L 308.838961 -191.852618 
L 304.737488 -189.398285 
L 300.636014 -187.117408 
L 296.534541 -185.10139 
L 292.433092 -183.599314 
L 288.331594 -183.411429 
L 284.230145 -184.650733 
L 280.128671 -186.488434 
L 276.027198 -188.631995 
L 271.925749 -190.974085 
L 267.824263 -193.445151 
L 263.722802 -195.987382 
L 259.621329 -198.549421 
L 255.519855 -201.085283 
L 251.418394 -203.55456 
L 247.316921 -205.922896 
L 243.215447 -208.162408 
L 239.113986 -210.252076 
L 235.012512 -212.178031 
L 230.911039 -213.933797 
L 226.809578 -215.520879 
L 222.708104 -216.950632 
L 218.606631 -218.25113 
L 214.50517 -219.498289 
L 210.403696 -220.991272 
L 206.302223 -223.546502 
L 202.200762 -226.85716 
L 198.099288 -230.158293 
L 193.997815 -233.21846 
L 189.896354 -235.945425 
L 185.79488 -238.282519 
L 181.693407 -240.189581 
L 177.591945 -241.638575 
L 173.490472 -242.612455 
L 169.388999 -243.104835 
L 165.287537 -243.119868 
L 161.186064 -242.672054 
L 157.084597 -241.785962 
L 152.983129 -240.495897 
L 148.881656 -238.845694 
L 144.780189 -236.889129 
L 140.678721 -234.692328 
L 136.577248 -232.342981 
L 132.47578 -229.982971 
L 128.374313 -227.884111 
L 124.27284 -226.281363 
L 120.171372 -224.91711 
L 116.069905 -223.493687 
L 111.968435 -221.89897 
L 107.866964 -220.099458 
L 103.765497 -218.092268 
L 99.664027 -215.894061 
L 95.562556 -213.547527 
L 91.461089 -211.165881 
L 87.359619 -209.128009 
L 83.25815 -208.108749 
L 79.156681 -207.982192 
L 75.055211 -208.391822 
L 70.953742 -209.210311 
L 66.852273 -210.381914 
z
" style="stroke: #1f77b4; stroke-opacity: 0.2"/>
    </defs>
    <g clip-path="url(#p484c3afc0e)">
     <use xlink:href="#m18bdf2a896" x="0" y="432" style="fill: #1f77b4; fill-opacity: 0.2; stroke: #1f77b4; stroke-opacity: 0.2"/>
    </g>
   </g>
   <g id="matplotlib.axis_3">
    <g id="xtick_7">
     <g id="line2d_14">
      <g>
       <use xlink:href="#mbddaacb751" x="66.852273" y="258.86" style="stroke: #000000; stroke-width: 0.8"/>
      </g>
     </g>
    </g>
    <g id="xtick_8">
     <g id="line2d_15">
      <g>
       <use xlink:href="#mbddaacb751" x="148.061364" y="258.86" style="stroke: #000000; stroke-width: 0.8"/>
      </g>
     </g>
    </g>
    <g id="xtick_9">
     <g id="line2d_16">
      <g>
       <use xlink:href="#mbddaacb751" x="229.270455" y="258.86" style="stroke: #000000; stroke-width: 0.8"/>
      </g>
     </g>
    </g>
    <g id="xtick_10">
     <g id="line2d_17">
      <g>
       <use xlink:href="#mbddaacb751" x="310.479545" y="258.86" style="stroke: #000000; stroke-width: 0.8"/>
      </g>
     </g>
    </g>
    <g id="xtick_11">
     <g id="line2d_18">
      <g>
       <use xlink:href="#mbddaacb751" x="391.688636" y="258.86" style="stroke: #000000; stroke-width: 0.8"/>
      </g>
     </g>
    </g>
    <g id="xtick_12">
     <g id="line2d_19">
      <g>
       <use xlink:href="#mbddaacb751" x="472.897727" y="258.86" style="stroke: #000000; stroke-width: 0.8"/>
      </g>
     </g>
    </g>
   </g>
   <g id="matplotlib.axis_4">
    <g id="ytick_4">
     <g id="line2d_20">
      <g>
       <use xlink:href="#mea0a178c45" x="46.55" y="254.527192" style="stroke: #000000; stroke-width: 0.8"/>
      </g>
     </g>
     <g id="text_11">
      <!-- −2 -->
      <g transform="translate(24.807813 258.326411) scale(0.1 -0.1)">
       <use xlink:href="#DejaVuSans-2212"/>
       <use xlink:href="#DejaVuSans-32" transform="translate(83.789062 0)"/>
      </g>
     </g>
    </g>
    <g id="ytick_5">
     <g id="line2d_21">
      <g>
       <use xlink:href="#mea0a178c45" x="46.55" y="215.250382" style="stroke: #000000; stroke-width: 0.8"/>
      </g>
     </g>
     <g id="text_12">
      <!-- 0 -->
      <g transform="translate(33.1875 219.0496) scale(0.1 -0.1)">
       <use xlink:href="#DejaVuSans-30"/>
      </g>
     </g>
    </g>
    <g id="ytick_6">
     <g id="line2d_22">
      <g>
       <use xlink:href="#mea0a178c45" x="46.55" y="175.973571" style="stroke: #000000; stroke-width: 0.8"/>
      </g>
     </g>
     <g id="text_13">
      <!-- 2 -->
      <g transform="translate(33.1875 179.77279) scale(0.1 -0.1)">
       <use xlink:href="#DejaVuSans-32"/>
      </g>
     </g>
    </g>
    <g id="text_14">
     <!-- y -->
     <g transform="translate(18.728125 211.419375) rotate(-90) scale(0.1 -0.1)">
      <use xlink:href="#DejaVuSans-79"/>
     </g>
    </g>
   </g>
   <g id="line2d_23">
    <path d="M 66.852273 231.381979 
L 70.953742 230.26848 
L 75.055211 228.997792 
L 79.156681 227.581137 
L 83.25815 226.031829 
L 87.359619 224.365126 
L 91.461089 222.598065 
L 95.562556 220.749276 
L 99.664027 218.838768 
L 103.765497 216.887707 
L 107.866964 214.918171 
L 111.968435 212.952889 
L 116.069905 211.014985 
L 120.171372 209.127703 
L 124.27284 207.314122 
L 128.374313 205.59689 
L 132.47578 203.997946 
L 136.577248 202.538247 
L 140.678721 201.237509 
L 144.780189 200.113967 
L 148.881656 199.184127 
L 152.983129 198.462559 
L 157.084597 197.961703 
L 161.186064 197.691688 
L 165.287537 197.660188 
L 169.388999 197.872301 
L 173.490472 198.330453 
L 177.591945 199.034335 
L 181.693407 199.980864 
L 185.79488 201.164198 
L 189.896354 202.57574 
L 193.997815 204.204213 
L 198.099288 206.035761 
L 202.200762 208.054047 
L 206.302223 210.240413 
L 210.403696 212.574084 
L 214.50517 215.032327 
L 218.606631 217.590706 
L 222.708104 220.223347 
L 226.809578 222.903168 
L 230.911039 225.602185 
L 235.012512 228.291831 
L 239.113986 230.943218 
L 243.215447 233.527478 
L 247.316921 236.016098 
L 251.418394 238.381196 
L 255.519855 240.595854 
L 259.621329 242.634447 
L 263.722802 244.472894 
L 267.824263 246.088963 
L 271.925749 247.462548 
L 276.027198 248.575864 
L 280.128671 249.413737 
L 284.230145 249.96373 
L 288.331594 250.216346 
L 292.433092 250.165156 
L 296.534541 249.8069 
L 300.636014 249.14155 
L 304.737488 248.172361 
L 308.838961 246.905858 
L 312.940434 245.351803 
L 317.041884 243.523142 
L 321.143381 241.435831 
L 325.24483 239.108836 
L 329.346304 236.563783 
L 333.447777 233.824893 
L 337.549226 230.918708 
L 341.650724 227.87375 
L 345.752173 224.72043 
L 349.853646 221.490498 
L 353.95512 218.216912 
L 358.056593 214.933408 
L 362.158067 211.674169 
L 366.259516 208.473483 
L 370.361013 205.365286 
L 374.462463 202.383006 
L 378.563936 199.558941 
L 382.665409 196.924111 
L 386.766859 194.507841 
L 390.868356 192.337382 
L 394.969805 190.437752 
L 399.071279 188.831274 
L 403.172752 187.53745 
L 407.274226 186.572672 
L 411.375699 185.950032 
L 415.477148 185.679155 
L 419.578622 185.766069 
L 423.680095 186.213115 
L 427.781568 187.018884 
L 431.883042 188.178205 
L 435.984491 189.682159 
L 440.085964 191.518174 
L 444.187438 193.670081 
L 448.288911 196.118282 
L 452.390385 198.839927 
L 456.491858 201.80912 
L 460.593331 204.997173 
L 464.69478 208.372863 
L 468.796254 211.902816 
L 472.897727 215.551726 
" clip-path="url(#p484c3afc0e)" style="fill: none; stroke-dasharray: 5.55,2.4; stroke-dashoffset: 0; stroke: #000000; stroke-width: 1.5"/>
   </g>
   <g id="line2d_24">
    <path d="M 66.852273 230.631094 
L 70.953742 229.697216 
L 75.055211 228.59355 
L 79.156681 227.327136 
L 83.25815 225.908081 
L 87.359619 224.349466 
L 91.461089 222.667201 
L 95.562556 220.879799 
L 99.664027 219.008089 
L 103.765497 217.074883 
L 107.866964 215.104594 
L 111.968435 213.122811 
L 116.069905 211.155868 
L 120.171372 209.230393 
L 124.27284 207.372856 
L 128.374313 205.609133 
L 132.47578 203.964105 
L 136.577248 202.461261 
L 140.678721 201.122368 
L 144.780189 199.967173 
L 148.881656 199.01315 
L 152.983129 198.2753 
L 157.084597 197.766008 
L 161.186064 197.494925 
L 165.287537 197.468915 
L 169.388999 197.692026 
L 173.490472 198.165501 
L 177.591945 198.887812 
L 181.693407 199.854714 
L 185.79488 201.059334 
L 189.896354 202.492241 
L 193.997815 204.14155 
L 198.099288 205.99305 
L 202.200762 208.030284 
L 206.302223 210.234687 
L 210.403696 212.585742 
L 214.50517 215.06108 
L 218.606631 217.636664 
L 222.708104 220.286984 
L 226.809578 222.985215 
L 230.911039 225.703456 
L 235.012512 228.413006 
L 239.113986 231.084585 
L 243.215447 233.688662 
L 247.316921 236.195799 
L 251.418394 238.576949 
L 255.519855 240.803848 
L 259.621329 242.849401 
L 263.722802 244.688023 
L 267.824263 246.296036 
L 271.925749 247.652048 
L 276.027198 248.737244 
L 280.128671 249.535768 
L 284.230145 250.03494 
L 288.331594 250.225522 
L 292.433092 250.10189 
L 296.534541 249.66216 
L 300.636014 248.908246 
L 304.737488 247.845877 
L 308.838961 246.484526 
L 312.940434 244.837294 
L 317.041884 242.920737 
L 321.143381 240.754569 
L 325.24483 238.361511 
L 329.346304 235.766776 
L 333.447777 232.997849 
L 337.549226 230.084028 
L 341.650724 227.055935 
L 345.752173 223.945259 
L 349.853646 220.784071 
L 353.95512 217.60457 
L 358.056593 214.438554 
L 362.158067 211.317019 
L 366.259516 208.269769 
L 370.361013 205.324956 
L 374.462463 202.508926 
L 378.563936 199.845673 
L 382.665409 197.356755 
L 386.766859 195.061003 
L 390.868356 192.974295 
L 394.969805 191.109564 
L 399.071279 189.476547 
L 403.172752 188.081885 
L 407.274226 186.929082 
L 411.375699 186.018581 
L 415.477148 185.347881 
L 419.578622 184.911676 
L 423.680095 184.702071 
L 427.781568 184.708798 
L 431.883042 184.919475 
L 435.984491 185.319894 
L 440.085964 185.894328 
L 444.187438 186.625839 
L 448.288911 187.496602 
L 452.390385 188.488229 
L 456.491858 189.582083 
L 460.593331 190.759576 
L 464.69478 192.002447 
L 468.796254 193.293049 
L 472.897727 194.614539 
" clip-path="url(#p484c3afc0e)" style="fill: none; stroke: #1f77b4; stroke-width: 1.5; stroke-linecap: square"/>
   </g>
   <g id="patch_10">
    <path d="M 46.55 258.86 
L 46.55 158.06 
" style="fill: none; stroke: #000000; stroke-width: 0.8; stroke-linejoin: miter; stroke-linecap: square"/>
   </g>
   <g id="patch_11">
    <path d="M 493.2 258.86 
L 493.2 158.06 
" style="fill: none; stroke: #000000; stroke-width: 0.8; stroke-linejoin: miter; stroke-linecap: square"/>
   </g>
   <g id="patch_12">
    <path d="M 46.55 258.86 
L 493.2 258.86 
" style="fill: none; stroke: #000000; stroke-width: 0.8; stroke-linejoin: miter; stroke-linecap: square"/>
   </g>
   <g id="patch_13">
    <path d="M 46.55 158.06 
L 493.2 158.06 
" style="fill: none; stroke: #000000; stroke-width: 0.8; stroke-linejoin: miter; stroke-linecap: square"/>
   </g>
   <g id="text_15">
    <!-- RBFKernel -->
    <g transform="translate(239.289062 152.06) scale(0.12 -0.12)">
     <defs>
      <path id="DejaVuSans-52" d="M 2841 2188 
Q 3044 2119 3236 1894 
Q 3428 1669 3622 1275 
L 4263 0 
L 3584 0 
L 2988 1197 
Q 2756 1666 2539 1819 
Q 2322 1972 1947 1972 
L 1259 1972 
L 1259 0 
L 628 0 
L 628 4666 
L 2053 4666 
Q 2853 4666 3247 4331 
Q 3641 3997 3641 3322 
Q 3641 2881 3436 2590 
Q 3231 2300 2841 2188 
z
M 1259 4147 
L 1259 2491 
L 2053 2491 
Q 2509 2491 2742 2702 
Q 2975 2913 2975 3322 
Q 2975 3731 2742 3939 
Q 2509 4147 2053 4147 
L 1259 4147 
z
" transform="scale(0.015625)"/>
      <path id="DejaVuSans-42" d="M 1259 2228 
L 1259 519 
L 2272 519 
Q 2781 519 3026 730 
Q 3272 941 3272 1375 
Q 3272 1813 3026 2020 
Q 2781 2228 2272 2228 
L 1259 2228 
z
M 1259 4147 
L 1259 2741 
L 2194 2741 
Q 2656 2741 2882 2914 
Q 3109 3088 3109 3444 
Q 3109 3797 2882 3972 
Q 2656 4147 2194 4147 
L 1259 4147 
z
M 628 4666 
L 2241 4666 
Q 2963 4666 3353 4366 
Q 3744 4066 3744 3513 
Q 3744 3084 3544 2831 
Q 3344 2578 2956 2516 
Q 3422 2416 3680 2098 
Q 3938 1781 3938 1306 
Q 3938 681 3513 340 
Q 3088 0 2303 0 
L 628 0 
L 628 4666 
z
" transform="scale(0.015625)"/>
      <path id="DejaVuSans-46" d="M 628 4666 
L 3309 4666 
L 3309 4134 
L 1259 4134 
L 1259 2759 
L 3109 2759 
L 3109 2228 
L 1259 2228 
L 1259 0 
L 628 0 
L 628 4666 
z
" transform="scale(0.015625)"/>
     </defs>
     <use xlink:href="#DejaVuSans-52"/>
     <use xlink:href="#DejaVuSans-42" transform="translate(69.482422 0)"/>
     <use xlink:href="#DejaVuSans-46" transform="translate(138.085938 0)"/>
     <use xlink:href="#DejaVuSans-4b" transform="translate(195.605469 0)"/>
     <use xlink:href="#DejaVuSans-65" transform="translate(256.181641 0)"/>
     <use xlink:href="#DejaVuSans-72" transform="translate(317.705078 0)"/>
     <use xlink:href="#DejaVuSans-6e" transform="translate(357.068359 0)"/>
     <use xlink:href="#DejaVuSans-65" transform="translate(420.447266 0)"/>
     <use xlink:href="#DejaVuSans-6c" transform="translate(481.970703 0)"/>
    </g>
   </g>
  </g>
  <g id="axes_3">
   <g id="patch_14">
    <path d="M 46.55 390.04 
L 493.2 390.04 
L 493.2 289.24 
L 46.55 289.24 
z
" style="fill: #ffffff"/>
   </g>
   <g id="PathCollection_7">
    <g clip-path="url(#p1221321794)">
     <use xlink:href="#ma56826666b" x="411.990909" y="311.542581" style="fill: #1f77b4; stroke: #1f77b4"/>
     <use xlink:href="#ma56826666b" x="371.386364" y="328.494183" style="fill: #1f77b4; stroke: #1f77b4"/>
     <use xlink:href="#ma56826666b" x="290.177273" y="369.80909" style="fill: #1f77b4; stroke: #1f77b4"/>
     <use xlink:href="#ma56826666b" x="208.968182" y="334.955481" style="fill: #1f77b4; stroke: #1f77b4"/>
     <use xlink:href="#ma56826666b" x="87.154545" y="346.464066" style="fill: #1f77b4; stroke: #1f77b4"/>
     <use xlink:href="#ma56826666b" x="127.759091" y="329.617797" style="fill: #1f77b4; stroke: #1f77b4"/>
    </g>
   </g>
   <g id="PathCollection_8">
    <g clip-path="url(#p1221321794)">
     <use xlink:href="#meb56d18d47" x="249.572727" y="358.130101" style="fill: #ff7f0e; stroke: #ff7f0e"/>
     <use xlink:href="#meb56d18d47" x="452.595455" y="323.401501" style="fill: #ff7f0e; stroke: #ff7f0e"/>
    </g>
   </g>
   <g id="FillBetweenPolyCollection_3">
    <defs>
     <path id="md0192c6692" d="M 66.852273 -111.6677 
L 66.852273 -61.670477 
L 70.953742 -64.704491 
L 75.055211 -68.701081 
L 79.156681 -73.654114 
L 83.25815 -79.408282 
L 87.359619 -84.518435 
L 91.461089 -80.643079 
L 95.562556 -77.310039 
L 99.664027 -75.45505 
L 103.765497 -75.286921 
L 107.866964 -76.855073 
L 111.968435 -80.064855 
L 116.069905 -84.689517 
L 120.171372 -90.384664 
L 124.27284 -96.694907 
L 128.374313 -101.14297 
L 132.47578 -96.137599 
L 136.577248 -90.546562 
L 140.678721 -85.108399 
L 144.780189 -80.149953 
L 148.881656 -75.871652 
L 152.983129 -72.365408 
L 157.084597 -69.643275 
L 161.186064 -67.672069 
L 165.287537 -66.405279 
L 169.388999 -65.807132 
L 173.490472 -65.867255 
L 177.591945 -66.606037 
L 181.693407 -68.070776 
L 185.79488 -70.322288 
L 189.896354 -73.411891 
L 193.997815 -77.350796 
L 198.099288 -82.077604 
L 202.200762 -87.431717 
L 206.302223 -93.115413 
L 210.403696 -94.510746 
L 214.50517 -88.105882 
L 218.606631 -81.814551 
L 222.708104 -76.004118 
L 226.809578 -70.833485 
L 230.911039 -66.352176 
L 235.012512 -62.524157 
L 239.113986 -59.259791 
L 243.215447 -56.449404 
L 247.316921 -53.992564 
L 251.418394 -51.820993 
L 255.519855 -49.915469 
L 259.621329 -48.317583 
L 263.722802 -47.135678 
L 267.824263 -46.541818 
L 271.925749 -46.755247 
L 276.027198 -48.00839 
L 280.128671 -50.495781 
L 284.230145 -54.311397 
L 288.331594 -59.330872 
L 292.433092 -58.820395 
L 296.534541 -53.946651 
L 300.636014 -50.315406 
L 304.737488 -48.013377 
L 308.838961 -46.935197 
L 312.940434 -46.88208 
L 317.041884 -47.623658 
L 321.143381 -48.947858 
L 325.24483 -50.693326 
L 329.346304 -52.764929 
L 333.447777 -55.13605 
L 337.549226 -57.842487 
L 341.650724 -60.970518 
L 345.752173 -64.639086 
L 349.853646 -68.975592 
L 353.95512 -74.083636 
L 358.056593 -80.005583 
L 362.158067 -86.685764 
L 366.259516 -93.939688 
L 370.361013 -101.278502 
L 374.462463 -100.548065 
L 378.563936 -97.490273 
L 382.665409 -95.517945 
L 386.766859 -94.983453 
L 390.868356 -96.05573 
L 394.969805 -98.724845 
L 399.071279 -102.803057 
L 403.172752 -107.942313 
L 407.274226 -113.664973 
L 411.375699 -119.12195 
L 415.477148 -114.989997 
L 419.578622 -108.184649 
L 423.680095 -101.171427 
L 427.781568 -94.389905 
L 431.883042 -88.151013 
L 435.984491 -82.640179 
L 440.085964 -77.92945 
L 444.187438 -74.004838 
L 448.288911 -70.797805 
L 452.390385 -68.213102 
L 456.491858 -66.148935 
L 460.593331 -64.509268 
L 464.69478 -63.209886 
L 468.796254 -62.180267 
L 472.897727 -61.36315 
L 472.897727 -132.861681 
L 472.897727 -132.861681 
L 468.796254 -133.410314 
L 464.69478 -134.042443 
L 460.593331 -134.754909 
L 456.491858 -135.532662 
L 452.390385 -136.342099 
L 448.288911 -137.123031 
L 444.187438 -137.780386 
L 440.085964 -138.178182 
L 435.984491 -138.139762 
L 431.883042 -137.459396 
L 427.781568 -135.929603 
L 423.680095 -133.385112 
L 419.578622 -129.758447 
L 415.477148 -125.149114 
L 411.375699 -121.793423 
L 407.274226 -126.542971 
L 403.172752 -130.190354 
L 399.071279 -132.150135 
L 394.969805 -132.290005 
L 390.868356 -130.613288 
L 386.766859 -127.228166 
L 382.665409 -122.331883 
L 378.563936 -116.206617 
L 374.462463 -109.240463 
L 370.361013 -104.830115 
L 366.259516 -108.674606 
L 362.158067 -112.568245 
L 358.056593 -115.9699 
L 353.95512 -118.642641 
L 349.853646 -120.474257 
L 345.752173 -121.442299 
L 341.650724 -121.575386 
L 337.549226 -120.917356 
L 333.447777 -119.501105 
L 329.346304 -117.334551 
L 325.24483 -114.398643 
L 321.143381 -110.656152 
L 317.041884 -106.070207 
L 312.940434 -100.631755 
L 308.838961 -94.391681 
L 304.737488 -87.492132 
L 300.636014 -80.185401 
L 296.534541 -72.831612 
L 292.433092 -65.909047 
L 288.331594 -65.25286 
L 284.230145 -72.040023 
L 280.128671 -79.324913 
L 276.027198 -86.601387 
L 271.925749 -93.49803 
L 267.824263 -99.749948 
L 263.722802 -105.202846 
L 259.621329 -109.796057 
L 255.519855 -113.53183 
L 251.418394 -116.442416 
L 247.316921 -118.561706 
L 243.215447 -119.904836 
L 239.113986 -120.457189 
L 235.012512 -120.173508 
L 230.911039 -118.988199 
L 226.809578 -116.837341 
L 222.708104 -113.690561 
L 218.606631 -109.587124 
L 214.50517 -104.66936 
L 210.403696 -99.294602 
L 206.302223 -101.385351 
L 202.200762 -107.464828 
L 198.099288 -112.976428 
L 193.997815 -117.703021 
L 189.896354 -121.572919 
L 185.79488 -124.611161 
L 181.693407 -126.90517 
L 177.591945 -128.568329 
L 173.490472 -129.708322 
L 169.388999 -130.404027 
L 165.287537 -130.691153 
L 161.186064 -130.555171 
L 157.084597 -129.930746 
L 152.983129 -128.708501 
L 148.881656 -126.751389 
L 144.780189 -123.922904 
L 140.678721 -120.126708 
L 136.577248 -115.352747 
L 132.47578 -109.725313 
L 128.374313 -103.825751 
L 124.27284 -106.444359 
L 120.171372 -110.012481 
L 116.069905 -112.17602 
L 111.968435 -112.686348 
L 107.866964 -111.462905 
L 103.765497 -108.571801 
L 99.664027 -104.213906 
L 95.562556 -98.710791 
L 91.461089 -92.492362 
L 87.359619 -86.637222 
L 83.25815 -90.718379 
L 79.156681 -96.338555 
L 75.055211 -101.912529 
L 70.953742 -107.093011 
L 66.852273 -111.6677 
z
" style="stroke: #1f77b4; stroke-opacity: 0.2"/>
    </defs>
    <g clip-path="url(#p1221321794)">
     <use xlink:href="#md0192c6692" x="0" y="432" style="fill: #1f77b4; fill-opacity: 0.2; stroke: #1f77b4; stroke-opacity: 0.2"/>
    </g>
   </g>
   <g id="matplotlib.axis_5">
    <g id="xtick_13">
     <g id="line2d_25">
      <g>
       <use xlink:href="#mbddaacb751" x="66.852273" y="390.04" style="stroke: #000000; stroke-width: 0.8"/>
      </g>
     </g>
     <g id="text_16">
      <!-- 0.0 -->
      <g transform="translate(58.90071 404.638437) scale(0.1 -0.1)">
       <use xlink:href="#DejaVuSans-30"/>
       <use xlink:href="#DejaVuSans-2e" transform="translate(63.623047 0)"/>
       <use xlink:href="#DejaVuSans-30" transform="translate(95.410156 0)"/>
      </g>
     </g>
    </g>
    <g id="xtick_14">
     <g id="line2d_26">
      <g>
       <use xlink:href="#mbddaacb751" x="148.061364" y="390.04" style="stroke: #000000; stroke-width: 0.8"/>
      </g>
     </g>
     <g id="text_17">
      <!-- 0.2 -->
      <g transform="translate(140.109801 404.638437) scale(0.1 -0.1)">
       <use xlink:href="#DejaVuSans-30"/>
       <use xlink:href="#DejaVuSans-2e" transform="translate(63.623047 0)"/>
       <use xlink:href="#DejaVuSans-32" transform="translate(95.410156 0)"/>
      </g>
     </g>
    </g>
    <g id="xtick_15">
     <g id="line2d_27">
      <g>
       <use xlink:href="#mbddaacb751" x="229.270455" y="390.04" style="stroke: #000000; stroke-width: 0.8"/>
      </g>
     </g>
     <g id="text_18">
      <!-- 0.4 -->
      <g transform="translate(221.318892 404.638437) scale(0.1 -0.1)">
       <defs>
        <path id="DejaVuSans-34" d="M 2419 4116 
L 825 1625 
L 2419 1625 
L 2419 4116 
z
M 2253 4666 
L 3047 4666 
L 3047 1625 
L 3713 1625 
L 3713 1100 
L 3047 1100 
L 3047 0 
L 2419 0 
L 2419 1100 
L 313 1100 
L 313 1709 
L 2253 4666 
z
" transform="scale(0.015625)"/>
       </defs>
       <use xlink:href="#DejaVuSans-30"/>
       <use xlink:href="#DejaVuSans-2e" transform="translate(63.623047 0)"/>
       <use xlink:href="#DejaVuSans-34" transform="translate(95.410156 0)"/>
      </g>
     </g>
    </g>
    <g id="xtick_16">
     <g id="line2d_28">
      <g>
       <use xlink:href="#mbddaacb751" x="310.479545" y="390.04" style="stroke: #000000; stroke-width: 0.8"/>
      </g>
     </g>
     <g id="text_19">
      <!-- 0.6 -->
      <g transform="translate(302.527983 404.638437) scale(0.1 -0.1)">
       <defs>
        <path id="DejaVuSans-36" d="M 2113 2584 
Q 1688 2584 1439 2293 
Q 1191 2003 1191 1497 
Q 1191 994 1439 701 
Q 1688 409 2113 409 
Q 2538 409 2786 701 
Q 3034 994 3034 1497 
Q 3034 2003 2786 2293 
Q 2538 2584 2113 2584 
z
M 3366 4563 
L 3366 3988 
Q 3128 4100 2886 4159 
Q 2644 4219 2406 4219 
Q 1781 4219 1451 3797 
Q 1122 3375 1075 2522 
Q 1259 2794 1537 2939 
Q 1816 3084 2150 3084 
Q 2853 3084 3261 2657 
Q 3669 2231 3669 1497 
Q 3669 778 3244 343 
Q 2819 -91 2113 -91 
Q 1303 -91 875 529 
Q 447 1150 447 2328 
Q 447 3434 972 4092 
Q 1497 4750 2381 4750 
Q 2619 4750 2861 4703 
Q 3103 4656 3366 4563 
z
" transform="scale(0.015625)"/>
       </defs>
       <use xlink:href="#DejaVuSans-30"/>
       <use xlink:href="#DejaVuSans-2e" transform="translate(63.623047 0)"/>
       <use xlink:href="#DejaVuSans-36" transform="translate(95.410156 0)"/>
      </g>
     </g>
    </g>
    <g id="xtick_17">
     <g id="line2d_29">
      <g>
       <use xlink:href="#mbddaacb751" x="391.688636" y="390.04" style="stroke: #000000; stroke-width: 0.8"/>
      </g>
     </g>
     <g id="text_20">
      <!-- 0.8 -->
      <g transform="translate(383.737074 404.638437) scale(0.1 -0.1)">
       <defs>
        <path id="DejaVuSans-38" d="M 2034 2216 
Q 1584 2216 1326 1975 
Q 1069 1734 1069 1313 
Q 1069 891 1326 650 
Q 1584 409 2034 409 
Q 2484 409 2743 651 
Q 3003 894 3003 1313 
Q 3003 1734 2745 1975 
Q 2488 2216 2034 2216 
z
M 1403 2484 
Q 997 2584 770 2862 
Q 544 3141 544 3541 
Q 544 4100 942 4425 
Q 1341 4750 2034 4750 
Q 2731 4750 3128 4425 
Q 3525 4100 3525 3541 
Q 3525 3141 3298 2862 
Q 3072 2584 2669 2484 
Q 3125 2378 3379 2068 
Q 3634 1759 3634 1313 
Q 3634 634 3220 271 
Q 2806 -91 2034 -91 
Q 1263 -91 848 271 
Q 434 634 434 1313 
Q 434 1759 690 2068 
Q 947 2378 1403 2484 
z
M 1172 3481 
Q 1172 3119 1398 2916 
Q 1625 2713 2034 2713 
Q 2441 2713 2670 2916 
Q 2900 3119 2900 3481 
Q 2900 3844 2670 4047 
Q 2441 4250 2034 4250 
Q 1625 4250 1398 4047 
Q 1172 3844 1172 3481 
z
" transform="scale(0.015625)"/>
       </defs>
       <use xlink:href="#DejaVuSans-30"/>
       <use xlink:href="#DejaVuSans-2e" transform="translate(63.623047 0)"/>
       <use xlink:href="#DejaVuSans-38" transform="translate(95.410156 0)"/>
      </g>
     </g>
    </g>
    <g id="xtick_18">
     <g id="line2d_30">
      <g>
       <use xlink:href="#mbddaacb751" x="472.897727" y="390.04" style="stroke: #000000; stroke-width: 0.8"/>
      </g>
     </g>
     <g id="text_21">
      <!-- 1.0 -->
      <g transform="translate(464.946165 404.638437) scale(0.1 -0.1)">
       <defs>
        <path id="DejaVuSans-31" d="M 794 531 
L 1825 531 
L 1825 4091 
L 703 3866 
L 703 4441 
L 1819 4666 
L 2450 4666 
L 2450 531 
L 3481 531 
L 3481 0 
L 794 0 
L 794 531 
z
" transform="scale(0.015625)"/>
       </defs>
       <use xlink:href="#DejaVuSans-31"/>
       <use xlink:href="#DejaVuSans-2e" transform="translate(63.623047 0)"/>
       <use xlink:href="#DejaVuSans-30" transform="translate(95.410156 0)"/>
      </g>
     </g>
    </g>
    <g id="text_22">
     <!-- x -->
     <g transform="translate(266.915625 418.316562) scale(0.1 -0.1)">
      <defs>
       <path id="DejaVuSans-78" d="M 3513 3500 
L 2247 1797 
L 3578 0 
L 2900 0 
L 1881 1375 
L 863 0 
L 184 0 
L 1544 1831 
L 300 3500 
L 978 3500 
L 1906 2253 
L 2834 3500 
L 3513 3500 
z
" transform="scale(0.015625)"/>
      </defs>
      <use xlink:href="#DejaVuSans-78"/>
     </g>
    </g>
   </g>
   <g id="matplotlib.axis_6">
    <g id="ytick_7">
     <g id="line2d_31">
      <g>
       <use xlink:href="#mea0a178c45" x="46.55" y="373.69931" style="stroke: #000000; stroke-width: 0.8"/>
      </g>
     </g>
     <g id="text_23">
      <!-- −2 -->
      <g transform="translate(24.807813 377.498528) scale(0.1 -0.1)">
       <use xlink:href="#DejaVuSans-2212"/>
       <use xlink:href="#DejaVuSans-32" transform="translate(83.789062 0)"/>
      </g>
     </g>
    </g>
    <g id="ytick_8">
     <g id="line2d_32">
      <g>
       <use xlink:href="#mea0a178c45" x="46.55" y="338.132531" style="stroke: #000000; stroke-width: 0.8"/>
      </g>
     </g>
     <g id="text_24">
      <!-- 0 -->
      <g transform="translate(33.1875 341.93175) scale(0.1 -0.1)">
       <use xlink:href="#DejaVuSans-30"/>
      </g>
     </g>
    </g>
    <g id="ytick_9">
     <g id="line2d_33">
      <g>
       <use xlink:href="#mea0a178c45" x="46.55" y="302.565753" style="stroke: #000000; stroke-width: 0.8"/>
      </g>
     </g>
     <g id="text_25">
      <!-- 2 -->
      <g transform="translate(33.1875 306.364971) scale(0.1 -0.1)">
       <use xlink:href="#DejaVuSans-32"/>
      </g>
     </g>
    </g>
    <g id="text_26">
     <!-- y -->
     <g transform="translate(18.728125 342.599375) rotate(-90) scale(0.1 -0.1)">
      <use xlink:href="#DejaVuSans-79"/>
     </g>
    </g>
   </g>
   <g id="line2d_34">
    <path d="M 66.852273 352.74036 
L 70.953742 351.732041 
L 75.055211 350.581381 
L 79.156681 349.298541 
L 83.25815 347.895579 
L 87.359619 346.38631 
L 91.461089 344.786163 
L 95.562556 343.112008 
L 99.664027 341.381964 
L 103.765497 339.615198 
L 107.866964 337.831701 
L 111.968435 336.052056 
L 116.069905 334.297204 
L 120.171372 332.588192 
L 124.27284 330.94592 
L 128.374313 329.390894 
L 132.47578 327.942985 
L 136.577248 326.621167 
L 140.678721 325.443295 
L 144.780189 324.425881 
L 148.881656 323.583872 
L 152.983129 322.930463 
L 157.084597 322.476917 
L 161.186064 322.232407 
L 165.287537 322.203882 
L 169.388999 322.395959 
L 173.490472 322.810835 
L 177.591945 323.448229 
L 181.693407 324.305351 
L 185.79488 325.376909 
L 189.896354 326.655119 
L 193.997815 328.129768 
L 198.099288 329.788311 
L 202.200762 331.615952 
L 206.302223 333.595798 
L 210.403696 335.709033 
L 214.50517 337.935074 
L 218.606631 340.251792 
L 222.708104 342.635757 
L 226.809578 345.062447 
L 230.911039 347.506518 
L 235.012512 349.942104 
L 239.113986 352.343045 
L 243.215447 354.683199 
L 247.316921 356.936747 
L 251.418394 359.078441 
L 255.519855 361.083906 
L 259.621329 362.929937 
L 263.722802 364.594727 
L 267.824263 366.058143 
L 271.925749 367.301982 
L 276.027198 368.310136 
L 280.128671 369.068865 
L 284.230145 369.566906 
L 288.331594 369.79566 
L 292.433092 369.749306 
L 296.534541 369.424889 
L 300.636014 368.822388 
L 304.737488 367.944747 
L 308.838961 366.797876 
L 312.940434 365.390615 
L 317.041884 363.734686 
L 321.143381 361.84454 
L 325.24483 359.73735 
L 329.346304 357.432698 
L 333.447777 354.952521 
L 337.549226 352.32085 
L 341.650724 349.563514 
L 345.752173 346.708052 
L 349.853646 343.783215 
L 353.95512 340.818847 
L 358.056593 337.845498 
L 362.158067 334.894123 
L 366.259516 331.995769 
L 370.361013 329.181168 
L 374.462463 326.48059 
L 378.563936 323.923282 
L 382.665409 321.537335 
L 386.766859 319.349302 
L 390.868356 317.383861 
L 394.969805 315.663667 
L 399.071279 314.208935 
L 403.172752 313.037324 
L 407.274226 312.163678 
L 411.375699 311.599851 
L 415.477148 311.354561 
L 419.578622 311.433265 
L 423.680095 311.838084 
L 427.781568 312.567741 
L 431.883042 313.617555 
L 435.984491 314.979447 
L 440.085964 316.642035 
L 444.187438 318.590675 
L 448.288911 320.807623 
L 452.390385 323.272185 
L 456.491858 325.960912 
L 460.593331 328.847827 
L 464.69478 331.904653 
L 468.796254 335.101172 
L 472.897727 338.405411 
" clip-path="url(#p1221321794)" style="fill: none; stroke-dasharray: 5.55,2.4; stroke-dashoffset: 0; stroke: #000000; stroke-width: 1.5"/>
   </g>
   <g id="line2d_35">
    <path d="M 66.852273 345.330911 
L 70.953742 346.101249 
L 75.055211 346.693195 
L 79.156681 347.003665 
L 83.25815 346.93667 
L 87.359619 346.422172 
L 91.461089 345.432279 
L 95.562556 343.989585 
L 99.664027 342.165522 
L 103.765497 340.070639 
L 107.866964 337.841011 
L 111.968435 335.624399 
L 116.069905 333.567231 
L 120.171372 331.801428 
L 124.27284 330.430367 
L 128.374313 329.515639 
L 132.47578 329.068544 
L 136.577248 329.050345 
L 140.678721 329.382447 
L 144.780189 329.963571 
L 148.881656 330.688479 
L 152.983129 331.463045 
L 157.084597 332.21299 
L 161.186064 332.88638 
L 165.287537 333.451784 
L 169.388999 333.89442 
L 173.490472 334.212212 
L 177.591945 334.412817 
L 181.693407 334.512027 
L 185.79488 334.533276 
L 189.896354 334.507595 
L 193.997815 334.473091 
L 198.099288 334.472984 
L 202.200762 334.551728 
L 206.302223 334.749618 
L 210.403696 335.097326 
L 214.50517 335.612379 
L 218.606631 336.299162 
L 222.708104 337.15266 
L 226.809578 338.164587 
L 230.911039 339.329812 
L 235.012512 340.651167 
L 239.113986 342.14151 
L 243.215447 343.82288 
L 247.316921 345.722865 
L 251.418394 347.868295 
L 255.519855 350.276351 
L 259.621329 352.94318 
L 263.722802 355.830738 
L 267.824263 358.854117 
L 271.925749 361.873361 
L 276.027198 364.695112 
L 280.128671 367.089653 
L 284.230145 368.82429 
L 288.331594 369.708134 
L 292.433092 369.635279 
L 296.534541 368.610869 
L 300.636014 366.749596 
L 304.737488 364.247246 
L 308.838961 361.336561 
L 312.940434 358.243083 
L 317.041884 355.153067 
L 321.143381 352.197995 
L 325.24483 349.454016 
L 329.346304 346.95026 
L 333.447777 344.681423 
L 337.549226 342.620079 
L 341.650724 340.727048 
L 345.752173 338.959308 
L 349.853646 337.275076 
L 353.95512 335.636861 
L 358.056593 334.012258 
L 362.158067 332.372996 
L 366.259516 330.692853 
L 370.361013 328.945692 
L 374.462463 327.105736 
L 378.563936 325.151555 
L 382.665409 323.075086 
L 386.766859 320.894191 
L 390.868356 318.665491 
L 394.969805 316.492575 
L 399.071279 314.523404 
L 403.172752 312.933666 
L 407.274226 311.896028 
L 411.375699 311.542314 
L 415.477148 311.930445 
L 419.578622 313.028452 
L 423.680095 314.721731 
L 427.781568 316.840246 
L 431.883042 319.194795 
L 435.984491 321.61003 
L 440.085964 323.946184 
L 444.187438 326.107388 
L 448.288911 328.039582 
L 452.390385 329.722399 
L 456.491858 331.159201 
L 460.593331 332.367912 
L 464.69478 333.373836 
L 468.796254 334.204709 
L 472.897727 334.887584 
" clip-path="url(#p1221321794)" style="fill: none; stroke: #1f77b4; stroke-width: 1.5; stroke-linecap: square"/>
   </g>
   <g id="patch_15">
    <path d="M 46.55 390.04 
L 46.55 289.24 
" style="fill: none; stroke: #000000; stroke-width: 0.8; stroke-linejoin: miter; stroke-linecap: square"/>
   </g>
   <g id="patch_16">
    <path d="M 493.2 390.04 
L 493.2 289.24 
" style="fill: none; stroke: #000000; stroke-width: 0.8; stroke-linejoin: miter; stroke-linecap: square"/>
   </g>
   <g id="patch_17">
    <path d="M 46.55 390.04 
L 493.2 390.04 
" style="fill: none; stroke: #000000; stroke-width: 0.8; stroke-linejoin: miter; stroke-linecap: square"/>
   </g>
   <g id="patch_18">
    <path d="M 46.55 289.24 
L 493.2 289.24 
" style="fill: none; stroke: #000000; stroke-width: 0.8; stroke-linejoin: miter; stroke-linecap: square"/>
   </g>
   <g id="text_27">
    <!-- RQKernel -->
    <g transform="translate(242.133438 283.24) scale(0.12 -0.12)">
     <defs>
      <path id="DejaVuSans-51" d="M 2522 4238 
Q 1834 4238 1429 3725 
Q 1025 3213 1025 2328 
Q 1025 1447 1429 934 
Q 1834 422 2522 422 
Q 3209 422 3611 934 
Q 4013 1447 4013 2328 
Q 4013 3213 3611 3725 
Q 3209 4238 2522 4238 
z
M 3406 84 
L 4238 -825 
L 3475 -825 
L 2784 -78 
Q 2681 -84 2626 -87 
Q 2572 -91 2522 -91 
Q 1538 -91 948 567 
Q 359 1225 359 2328 
Q 359 3434 948 4092 
Q 1538 4750 2522 4750 
Q 3503 4750 4090 4092 
Q 4678 3434 4678 2328 
Q 4678 1516 4351 937 
Q 4025 359 3406 84 
z
" transform="scale(0.015625)"/>
     </defs>
     <use xlink:href="#DejaVuSans-52"/>
     <use xlink:href="#DejaVuSans-51" transform="translate(69.482422 0)"/>
     <use xlink:href="#DejaVuSans-4b" transform="translate(148.193359 0)"/>
     <use xlink:href="#DejaVuSans-65" transform="translate(208.769531 0)"/>
     <use xlink:href="#DejaVuSans-72" transform="translate(270.292969 0)"/>
     <use xlink:href="#DejaVuSans-6e" transform="translate(309.65625 0)"/>
     <use xlink:href="#DejaVuSans-65" transform="translate(373.035156 0)"/>
     <use xlink:href="#DejaVuSans-6c" transform="translate(434.558594 0)"/>
    </g>
   </g>
  </g>
 </g>
 <defs>
  <clipPath id="p6758bddb95">
   <rect x="46.55" y="26.88" width="446.65" height="100.8"/>
  </clipPath>
  <clipPath id="p484c3afc0e">
   <rect x="46.55" y="158.06" width="446.65" height="100.8"/>
  </clipPath>
  <clipPath id="p1221321794">
   <rect x="46.55" y="289.24" width="446.65" height="100.8"/>
  </clipPath>
 </defs>
</svg>
