<?xml version="1.0" encoding="utf-8" standalone="no"?>
<!DOCTYPE svg PUBLIC "-//W3C//DTD SVG 1.1//EN"
  "http://www.w3.org/Graphics/SVG/1.1/DTD/svg11.dtd">
<svg xmlns:xlink="http://www.w3.org/1999/xlink" width="504pt" height="432pt" viewBox="0 0 504 432" xmlns="http://www.w3.org/2000/svg" version="1.1">
 <metadata>
  <rdf:RDF xmlns:dc="http://purl.org/dc/elements/1.1/" xmlns:cc="http://creativecommons.org/ns#" xmlns:rdf="http://www.w3.org/1999/02/22-rdf-syntax-ns#">
   <cc:Work>
    <dc:type rdf:resource="http://purl.org/dc/dcmitype/StillImage"/>
    <dc:date>2026-03-05T14:41:39.539074</dc:date>
    <dc:format>image/svg+xml</dc:format>
    <dc:creator>
     <cc:Agent>
      <dc:title>Matplotlib v3.10.8, https://matplotlib.org/</dc:title>
     </cc:Agent>
    </dc:creator>
   </cc:Work>
  </rdf:RDF>
 </metadata>
 <defs>
  <style type="text/css">*{stroke-linejoin: round; stroke-linecap: butt}</style>
 </defs>
 <g id="figure_1">
  <g id="patch_1">
   <path d="M 0 432 
L 504 432 
L 504 0 
L 0 0 
z
" style="fill: #ffffff"/>
  </g>
  <g id="axes_1">
   <g id="patch_2">
    <path d="M 57.17 127.68 
L 493.2 127.68 
L 493.2 26.88 
L 57.17 26.88 
z
" style="fill: #ffffff"/>
   </g>
   <g id="PathCollection_1">
    <defs>
     <path id="m28171de022" d="M 0 3 
C 0.795609 3 1.55874 2.683901 2.12132 2.12132 
C 2.683901 1.55874 3 0.795609 3 0 
C 3 -0.795609 2.683901 -1.55874 2.12132 -2.12132 
C 1.55874 -2.683901 0.795609 -3 0 -3 
C -0.795609 -3 -1.55874 -2.683901 -2.12132 -2.12132 
C -2.683901 -1.55874 -3 -0.795609 -3 0 
C -3 0.795609 -2.683901 1.55874 -2.12132 2.12132 
C -1.55874 2.683901 -0.795609 3 0 3 
z
" style="stroke: #1f77b4"/>
    </defs>
    <g clip-path="url(#pa6c941ea78)">
     <use xlink:href="#m28171de022" x="423.831591" y="91.164598" style="fill: #1f77b4; stroke: #1f77b4"/>
     <use xlink:href="#m28171de022" x="443.651136" y="108.947829" style="fill: #1f77b4; stroke: #1f77b4"/>
     <use xlink:href="#m28171de022" x="225.636136" y="86.41863" style="fill: #1f77b4; stroke: #1f77b4"/>
     <use xlink:href="#m28171de022" x="265.275227" y="78.841487" style="fill: #1f77b4; stroke: #1f77b4"/>
     <use xlink:href="#m28171de022" x="324.733864" y="67.590958" style="fill: #1f77b4; stroke: #1f77b4"/>
     <use xlink:href="#m28171de022" x="106.718864" y="45.061759" style="fill: #1f77b4; stroke: #1f77b4"/>
     <use xlink:href="#m28171de022" x="384.1925" y="60.831213" style="fill: #1f77b4; stroke: #1f77b4"/>
     <use xlink:href="#m28171de022" x="166.1775" y="93.178375" style="fill: #1f77b4; stroke: #1f77b4"/>
     <use xlink:href="#m28171de022" x="205.816591" y="68.759135" style="fill: #1f77b4; stroke: #1f77b4"/>
     <use xlink:href="#m28171de022" x="146.357955" y="95.240708" style="fill: #1f77b4; stroke: #1f77b4"/>
     <use xlink:href="#m28171de022" x="185.997045" y="65.794929" style="fill: #1f77b4; stroke: #1f77b4"/>
     <use xlink:href="#m28171de022" x="304.914318" y="80.98221" style="fill: #1f77b4; stroke: #1f77b4"/>
     <use xlink:href="#m28171de022" x="126.538409" y="62.844991" style="fill: #1f77b4; stroke: #1f77b4"/>
     <use xlink:href="#m28171de022" x="344.553409" y="85.250453" style="fill: #1f77b4; stroke: #1f77b4"/>
     <use xlink:href="#m28171de022" x="364.372955" y="88.214659" style="fill: #1f77b4; stroke: #1f77b4"/>
    </g>
   </g>
   <g id="PathCollection_2">
    <defs>
     <path id="m83c7f35c1a" d="M 0 -3 
L -0.673542 -0.927051 
L -2.85317 -0.927051 
L -1.089814 0.354102 
L -1.763356 2.427051 
L -0 1.145898 
L 1.763356 2.427051 
L 1.089814 0.354102 
L 2.85317 -0.927051 
L 0.673542 -0.927051 
z
" style="stroke: #ff7f0e"/>
    </defs>
    <g clip-path="url(#pa6c941ea78)">
     <use xlink:href="#m83c7f35c1a" x="285.094773" y="75.168101" style="fill: #ff7f0e; stroke: #ff7f0e"/>
     <use xlink:href="#m83c7f35c1a" x="245.455682" y="73.027378" style="fill: #ff7f0e; stroke: #ff7f0e"/>
     <use xlink:href="#m83c7f35c1a" x="463.470682" y="84.115381" style="fill: #ff7f0e; stroke: #ff7f0e"/>
     <use xlink:href="#m83c7f35c1a" x="404.012045" y="58.768881" style="fill: #ff7f0e; stroke: #ff7f0e"/>
     <use xlink:href="#m83c7f35c1a" x="86.899318" y="69.894207" style="fill: #ff7f0e; stroke: #ff7f0e"/>
    </g>
   </g>
   <g id="FillBetweenPolyCollection_1">
    <defs>
     <path id="m65317498cd" d="M 76.989545 -395.298831 
L 76.989545 -329.441562 
L 80.993494 -332.748068 
L 84.997443 -337.17261 
L 89.001392 -342.940846 
L 93.00534 -350.171381 
L 97.009288 -358.683477 
L 101.013238 -367.592708 
L 105.017184 -374.355638 
L 109.021134 -374.76444 
L 113.025084 -370.525543 
L 117.02903 -366.301871 
L 121.03298 -363.453665 
L 125.03693 -360.439374 
L 129.040877 -353.747964 
L 133.044823 -344.475272 
L 137.048776 -336.596536 
L 141.052723 -331.684449 
L 145.056669 -328.703719 
L 149.060622 -324.721755 
L 153.064569 -320.860145 
L 157.068515 -320.163419 
L 161.072468 -323.248888 
L 165.076415 -328.30433 
L 169.080362 -331.964176 
L 173.084314 -335.233421 
L 177.088255 -340.614215 
L 181.092208 -347.92192 
L 185.09616 -354.349462 
L 189.100101 -356.004794 
L 193.104054 -354.568022 
L 197.108006 -353.544637 
L 201.111947 -353.756165 
L 205.1159 -353.191724 
L 209.119852 -348.672351 
L 213.123793 -342.435373 
L 217.127746 -338.082997 
L 221.131699 -336.669726 
L 225.135639 -336.323154 
L 229.139592 -333.018648 
L 233.143545 -328.176289 
L 237.147485 -324.550097 
L 241.151438 -322.835924 
L 245.155391 -323.007986 
L 249.159332 -324.937995 
L 253.163284 -328.538355 
L 257.167237 -333.642211 
L 261.171178 -339.468669 
L 265.17513 -342.91704 
L 269.179083 -340.037542 
L 273.183024 -334.553723 
L 277.186988 -329.761959 
L 281.190917 -326.526285 
L 285.19487 -325.042944 
L 289.198822 -325.405509 
L 293.202751 -327.730713 
L 297.206728 -332.020269 
L 301.210657 -337.566882 
L 305.214609 -341.609743 
L 309.218562 -342.309039 
L 313.222515 -343.454955 
L 317.226467 -346.889899 
L 321.230396 -351.395353 
L 325.234372 -353.189837 
L 329.238301 -349.770976 
L 333.242254 -344.710185 
L 337.246207 -341.026107 
L 341.250136 -339.068194 
L 345.254112 -336.437839 
L 349.258041 -331.634899 
L 353.261994 -328.076545 
L 357.265946 -328.086798 
L 361.269899 -331.468484 
L 365.273852 -335.401298 
L 369.277781 -338.127936 
L 373.281757 -342.296049 
L 377.285686 -348.948453 
L 381.289638 -356.413018 
L 385.293591 -359.963975 
L 389.29752 -356.610577 
L 393.301496 -350.173195 
L 397.305425 -343.590024 
L 401.309378 -338.057804 
L 405.313331 -334.054827 
L 409.317283 -331.754145 
L 413.321236 -331.131956 
L 417.325165 -331.794093 
L 421.329118 -332.225206 
L 425.33307 -328.849061 
L 429.337023 -321.881544 
L 433.340975 -316.077074 
L 437.344904 -313.584825 
L 441.348857 -314.045945 
L 445.35281 -313.881221 
L 449.356762 -311.375504 
L 453.360715 -309.390837 
L 457.364668 -308.901818 
L 461.36862 -309.622505 
L 465.372549 -311.042565 
L 469.376502 -312.731786 
L 473.380455 -314.402831 
L 473.380455 -380.271179 
L 473.380455 -380.271179 
L 469.376502 -376.895619 
L 465.372549 -372.401258 
L 461.36862 -366.574931 
L 457.364668 -359.318487 
L 453.360715 -350.842342 
L 449.356762 -342.067547 
L 445.35281 -335.579337 
L 441.348857 -335.643775 
L 437.344904 -340.468851 
L 433.340975 -345.098801 
L 429.337023 -347.766839 
L 425.33307 -349.681327 
L 421.329118 -355.122728 
L 417.325165 -364.103516 
L 413.321236 -372.98936 
L 409.317283 -380.298909 
L 405.313331 -385.672868 
L 401.309378 -389.007158 
L 397.305425 -390.150154 
L 393.301496 -388.887525 
L 389.29752 -385.295516 
L 385.293591 -380.920112 
L 381.289638 -378.634596 
L 377.285686 -376.135641 
L 373.281757 -370.674899 
L 369.277781 -362.858627 
L 365.273852 -355.863472 
L 361.269899 -353.807303 
L 357.265946 -355.038388 
L 353.261994 -356.031427 
L 349.258041 -355.956746 
L 345.254112 -356.800086 
L 341.250136 -361.644017 
L 337.246207 -368.138249 
L 333.242254 -372.583972 
L 329.238301 -373.844831 
L 325.234372 -373.494389 
L 321.230396 -374.312439 
L 317.226467 -374.447003 
L 313.222515 -371.658066 
L 309.218562 -366.387372 
L 305.214609 -361.921406 
L 301.210657 -362.906439 
L 297.206728 -367.406045 
L 293.202751 -372.052196 
L 289.198822 -375.51336 
L 285.19487 -377.313515 
L 281.190917 -377.250798 
L 277.186988 -375.221093 
L 273.183024 -371.297414 
L 269.179083 -366.257489 
L 265.17513 -363.328656 
L 261.171178 -366.190137 
L 257.167237 -370.889221 
L 253.163284 -374.34748 
L 249.159332 -375.828409 
L 245.155391 -375.258188 
L 241.151438 -372.739149 
L 237.147485 -368.492029 
L 233.143545 -363.056707 
L 229.139592 -357.914536 
L 225.135639 -356.653333 
L 221.131699 -361.019308 
L 217.127746 -366.380653 
L 213.123793 -369.827514 
L 209.119852 -371.339355 
L 205.1159 -373.555026 
L 201.111947 -378.081354 
L 197.108006 -381.501492 
L 193.104054 -381.513564 
L 189.100101 -378.343711 
L 185.09616 -374.789955 
L 181.092208 -372.484377 
L 177.088255 -368.622731 
L 173.084314 -361.990126 
L 169.080362 -354.069135 
L 165.076415 -348.842747 
L 161.072468 -348.056951 
L 157.068515 -348.230529 
L 153.064569 -347.432114 
L 149.060622 -346.604955 
L 145.056669 -349.35965 
L 141.052723 -356.744335 
L 137.048776 -364.728813 
L 133.044823 -370.871936 
L 129.040877 -375.420499 
L 125.03693 -381.264627 
L 121.03298 -388.956766 
L 117.02903 -394.878124 
L 113.025084 -397.149764 
L 109.021134 -396.299304 
L 105.017184 -396.052444 
L 101.013238 -398.248807 
L 97.009288 -400.082012 
L 93.00534 -400.538182 
L 89.001392 -399.854235 
L 84.997443 -398.503856 
L 80.993494 -396.893961 
L 76.989545 -395.298831 
z
" style="stroke: #1f77b4; stroke-opacity: 0.2"/>
    </defs>
    <g clip-path="url(#pa6c941ea78)">
     <use xlink:href="#m65317498cd" x="0" y="432" style="fill: #1f77b4; fill-opacity: 0.2; stroke: #1f77b4; stroke-opacity: 0.2"/>
    </g>
   </g>
   <g id="matplotlib.axis_1">
    <g id="xtick_1">
     <g id="line2d_1">
      <defs>
       <path id="mad116c1064" d="M 0 0 
L 0 3.5 
" style="stroke: #000000; stroke-width: 0.8"/>
      </defs>
      <g>
       <use xlink:href="#mad116c1064" x="116.628636" y="127.68" style="stroke: #000000; stroke-width: 0.8"/>
      </g>
     </g>
    </g>
    <g id="xtick_2">
     <g id="line2d_2">
      <g>
       <use xlink:href="#mad116c1064" x="195.906818" y="127.68" style="stroke: #000000; stroke-width: 0.8"/>
      </g>
     </g>
    </g>
    <g id="xtick_3">
     <g id="line2d_3">
      <g>
       <use xlink:href="#mad116c1064" x="275.185" y="127.68" style="stroke: #000000; stroke-width: 0.8"/>
      </g>
     </g>
    </g>
    <g id="xtick_4">
     <g id="line2d_4">
      <g>
       <use xlink:href="#mad116c1064" x="354.463182" y="127.68" style="stroke: #000000; stroke-width: 0.8"/>
      </g>
     </g>
    </g>
    <g id="xtick_5">
     <g id="line2d_5">
      <g>
       <use xlink:href="#mad116c1064" x="433.741364" y="127.68" style="stroke: #000000; stroke-width: 0.8"/>
      </g>
     </g>
    </g>
   </g>
   <g id="matplotlib.axis_2">
    <g id="ytick_1">
     <g id="line2d_6">
      <defs>
       <path id="m31886faf55" d="M 0 0 
L -3.5 0 
" style="stroke: #000000; stroke-width: 0.8"/>
      </defs>
      <g>
       <use xlink:href="#m31886faf55" x="57.17" y="109.105053" style="stroke: #000000; stroke-width: 0.8"/>
      </g>
     </g>
     <g id="text_1">
      <!-- 0 -->
      <g transform="translate(43.8075 112.904271) scale(0.1 -0.1)">
       <defs>
        <path id="DejaVuSans-30" d="M 2034 4250 
Q 1547 4250 1301 3770 
Q 1056 3291 1056 2328 
Q 1056 1369 1301 889 
Q 1547 409 2034 409 
Q 2525 409 2770 889 
Q 3016 1369 3016 2328 
Q 3016 3291 2770 3770 
Q 2525 4250 2034 4250 
z
M 2034 4750 
Q 2819 4750 3233 4129 
Q 3647 3509 3647 2328 
Q 3647 1150 3233 529 
Q 2819 -91 2034 -91 
Q 1250 -91 836 529 
Q 422 1150 422 2328 
Q 422 3509 836 4129 
Q 1250 4750 2034 4750 
z
" transform="scale(0.015625)"/>
       </defs>
       <use xlink:href="#DejaVuSans-30"/>
      </g>
     </g>
    </g>
    <g id="ytick_2">
     <g id="line2d_7">
      <g>
       <use xlink:href="#m31886faf55" x="57.17" y="70.797692" style="stroke: #000000; stroke-width: 0.8"/>
      </g>
     </g>
     <g id="text_2">
      <!-- 500 -->
      <g transform="translate(31.0825 74.59691) scale(0.1 -0.1)">
       <defs>
        <path id="DejaVuSans-35" d="M 691 4666 
L 3169 4666 
L 3169 4134 
L 1269 4134 
L 1269 2991 
Q 1406 3038 1543 3061 
Q 1681 3084 1819 3084 
Q 2600 3084 3056 2656 
Q 3513 2228 3513 1497 
Q 3513 744 3044 326 
Q 2575 -91 1722 -91 
Q 1428 -91 1123 -41 
Q 819 9 494 109 
L 494 744 
Q 775 591 1075 516 
Q 1375 441 1709 441 
Q 2250 441 2565 725 
Q 2881 1009 2881 1497 
Q 2881 1984 2565 2268 
Q 2250 2553 1709 2553 
Q 1456 2553 1204 2497 
Q 953 2441 691 2322 
L 691 4666 
z
" transform="scale(0.015625)"/>
       </defs>
       <use xlink:href="#DejaVuSans-35"/>
       <use xlink:href="#DejaVuSans-30" transform="translate(63.623047 0)"/>
       <use xlink:href="#DejaVuSans-30" transform="translate(127.246094 0)"/>
      </g>
     </g>
    </g>
    <g id="ytick_3">
     <g id="line2d_8">
      <g>
       <use xlink:href="#m31886faf55" x="57.17" y="32.490331" style="stroke: #000000; stroke-width: 0.8"/>
      </g>
     </g>
     <g id="text_3">
      <!-- 1000 -->
      <g transform="translate(24.72 36.28955) scale(0.1 -0.1)">
       <defs>
        <path id="DejaVuSans-31" d="M 794 531 
L 1825 531 
L 1825 4091 
L 703 3866 
L 703 4441 
L 1819 4666 
L 2450 4666 
L 2450 531 
L 3481 531 
L 3481 0 
L 794 0 
L 794 531 
z
" transform="scale(0.015625)"/>
       </defs>
       <use xlink:href="#DejaVuSans-31"/>
       <use xlink:href="#DejaVuSans-30" transform="translate(63.623047 0)"/>
       <use xlink:href="#DejaVuSans-30" transform="translate(127.246094 0)"/>
       <use xlink:href="#DejaVuSans-30" transform="translate(190.869141 0)"/>
      </g>
     </g>
    </g>
    <g id="text_4">
     <!-- y -->
     <g transform="translate(18.640313 80.239375) rotate(-90) scale(0.1 -0.1)">
      <defs>
       <path id="DejaVuSans-79" d="M 2059 -325 
Q 1816 -950 1584 -1140 
Q 1353 -1331 966 -1331 
L 506 -1331 
L 506 -850 
L 844 -850 
Q 1081 -850 1212 -737 
Q 1344 -625 1503 -206 
L 1606 56 
L 191 3500 
L 800 3500 
L 1894 763 
L 2988 3500 
L 3597 3500 
L 2059 -325 
z
" transform="scale(0.015625)"/>
      </defs>
      <use xlink:href="#DejaVuSans-79"/>
     </g>
    </g>
   </g>
   <g id="line2d_9">
    <path d="M 76.989545 90.840582 
L 80.993494 82.335727 
L 84.997443 73.815972 
L 89.001392 65.730842 
L 93.00534 58.511273 
L 97.009288 52.54527 
L 101.013238 48.154647 
L 105.017184 45.574243 
L 109.021134 44.935033 
L 113.025084 46.252518 
L 117.02903 49.421513 
L 121.03298 54.218274 
L 125.03693 60.310435 
L 129.040877 67.274858 
L 133.044823 74.622926 
L 137.048776 81.832179 
L 141.052723 88.382646 
L 145.056669 93.79577 
L 149.060622 97.673016 
L 153.064569 99.731194 
L 157.068515 99.831263 
L 161.072468 97.997295 
L 165.076415 94.422879 
L 169.080362 89.462703 
L 173.084314 83.608244 
L 177.088255 77.447802 
L 181.092208 71.612559 
L 185.09616 66.712663 
L 189.100101 63.268466 
L 193.104054 61.644313 
L 197.108006 61.993341 
L 201.111947 64.222036 
L 205.1159 67.983168 
L 209.119852 72.703467 
L 213.123793 77.649232 
L 217.127746 82.027801 
L 221.131699 85.115897 
L 225.135639 86.398594 
L 229.139592 85.694337 
L 233.143545 83.235418 
L 237.147485 79.671032 
L 241.151438 75.96467 
L 245.155391 73.173723 
L 249.159332 72.129538 
L 253.163284 73.085115 
L 257.167237 75.462458 
L 261.171178 77.901182 
L 265.17513 78.845629 
L 269.179083 77.796824 
L 273.183024 76.703077 
L 277.186988 77.306512 
L 281.190917 76.212765 
L 285.19487 75.16396 
L 289.198822 76.108406 
L 293.202751 78.547122 
L 297.206728 80.924479 
L 301.210657 81.880051 
L 305.214609 80.835866 
L 309.218562 78.044918 
L 313.222515 74.338556 
L 317.226467 70.774161 
L 321.230396 68.315256 
L 325.234372 67.610996 
L 329.238301 68.893692 
L 333.242254 71.981787 
L 337.246207 76.360357 
L 341.250136 81.306107 
L 345.254112 86.026433 
L 349.258041 89.787544 
L 353.261994 92.016247 
L 357.265946 92.365275 
L 361.269899 90.741122 
L 365.273852 87.296913 
L 369.277781 82.397046 
L 373.281757 76.561769 
L 377.285686 70.401345 
L 381.289638 64.546885 
L 385.293591 59.586703 
L 389.29752 56.012302 
L 393.301496 54.178323 
L 397.305425 54.278393 
L 401.309378 56.336573 
L 405.313331 60.213819 
L 409.317283 65.626952 
L 413.321236 72.17743 
L 417.325165 79.38664 
L 421.329118 86.734719 
L 425.33307 93.699154 
L 429.337023 99.791319 
L 433.340975 104.588082 
L 437.344904 107.757064 
L 441.348857 109.074555 
L 445.35281 108.435348 
L 449.356762 105.854941 
L 453.360715 101.464314 
L 457.364668 95.498303 
L 461.36862 88.278723 
L 465.372549 80.193634 
L 469.376502 71.67387 
L 473.380455 63.169006 
" clip-path="url(#pa6c941ea78)" style="fill: none; stroke-dasharray: 5.55,2.4; stroke-dashoffset: 0; stroke: #000000; stroke-width: 1.5"/>
   </g>
   <g id="line2d_10">
    <path d="M 76.989545 69.629804 
L 80.993494 67.178986 
L 84.997443 64.161767 
L 89.001392 60.60246 
L 93.00534 56.645219 
L 97.009288 52.617255 
L 101.013238 49.079242 
L 105.017184 46.795959 
L 109.021134 46.468128 
L 113.025084 48.162346 
L 117.02903 51.410002 
L 121.03298 55.794785 
L 125.03693 61.147999 
L 129.040877 67.415768 
L 133.044823 74.326396 
L 137.048776 81.337325 
L 141.052723 87.785608 
L 145.056669 92.968315 
L 149.060622 96.336645 
L 153.064569 97.853871 
L 157.068515 97.803026 
L 161.072468 96.34708 
L 165.076415 93.426462 
L 169.080362 88.983345 
L 173.084314 83.388227 
L 177.088255 77.381527 
L 181.092208 71.796852 
L 185.09616 67.430291 
L 189.100101 64.825747 
L 193.104054 63.959207 
L 197.108006 64.476935 
L 201.111947 66.08124 
L 205.1159 68.626625 
L 209.119852 71.994147 
L 213.123793 75.868556 
L 217.127746 79.768175 
L 221.131699 83.155483 
L 225.135639 85.511756 
L 229.139592 86.533408 
L 233.143545 86.383502 
L 237.147485 85.478937 
L 241.151438 84.212464 
L 245.155391 82.866913 
L 249.159332 81.616798 
L 253.163284 80.557083 
L 257.167237 79.734284 
L 261.171178 79.170597 
L 265.17513 78.877152 
L 269.179083 78.852484 
L 273.183024 79.074431 
L 277.186988 79.508474 
L 281.190917 80.111458 
L 285.19487 80.82177 
L 289.198822 81.540566 
L 293.202751 82.108546 
L 297.206728 82.286843 
L 301.210657 81.76334 
L 305.214609 80.234426 
L 309.218562 77.651795 
L 313.222515 74.44349 
L 317.226467 71.331549 
L 321.230396 69.146104 
L 325.234372 68.657887 
L 329.238301 70.192096 
L 333.242254 73.352922 
L 337.246207 77.417822 
L 341.250136 81.643894 
L 345.254112 85.381038 
L 349.258041 88.204178 
L 353.261994 89.946014 
L 357.265946 90.437407 
L 361.269899 89.362106 
L 365.273852 86.367615 
L 369.277781 81.506719 
L 373.281757 75.514526 
L 377.285686 69.457953 
L 381.289638 64.476193 
L 385.293591 61.557956 
L 389.29752 61.046954 
L 393.301496 62.46964 
L 397.305425 65.129911 
L 401.309378 68.467519 
L 405.313331 72.136152 
L 409.317283 75.973473 
L 413.321236 79.939342 
L 417.325165 84.051195 
L 421.329118 88.326033 
L 425.33307 92.734806 
L 429.337023 97.175809 
L 433.340975 101.412063 
L 437.344904 104.973162 
L 441.348857 107.15514 
L 445.35281 107.269721 
L 449.356762 105.278474 
L 453.360715 101.88341 
L 457.364668 97.889848 
L 461.36862 93.901282 
L 465.372549 90.278088 
L 469.376502 87.186298 
L 473.380455 84.662995 
" clip-path="url(#pa6c941ea78)" style="fill: none; stroke: #1f77b4; stroke-width: 1.5; stroke-linecap: square"/>
   </g>
   <g id="patch_3">
    <path d="M 57.17 127.68 
L 57.17 26.88 
" style="fill: none; stroke: #000000; stroke-width: 0.8; stroke-linejoin: miter; stroke-linecap: square"/>
   </g>
   <g id="patch_4">
    <path d="M 493.2 127.68 
L 493.2 26.88 
" style="fill: none; stroke: #000000; stroke-width: 0.8; stroke-linejoin: miter; stroke-linecap: square"/>
   </g>
   <g id="patch_5">
    <path d="M 57.17 127.68 
L 493.2 127.68 
" style="fill: none; stroke: #000000; stroke-width: 0.8; stroke-linejoin: miter; stroke-linecap: square"/>
   </g>
   <g id="patch_6">
    <path d="M 57.17 26.88 
L 493.2 26.88 
" style="fill: none; stroke: #000000; stroke-width: 0.8; stroke-linejoin: miter; stroke-linecap: square"/>
   </g>
   <g id="text_5">
    <!-- MaternKernel -->
    <g transform="translate(235.27375 20.88) scale(0.12 -0.12)">
     <defs>
      <path id="DejaVuSans-4d" d="M 628 4666 
L 1569 4666 
L 2759 1491 
L 3956 4666 
L 4897 4666 
L 4897 0 
L 4281 0 
L 4281 4097 
L 3078 897 
L 2444 897 
L 1241 4097 
L 1241 0 
L 628 0 
L 628 4666 
z
" transform="scale(0.015625)"/>
      <path id="DejaVuSans-61" d="M 2194 1759 
Q 1497 1759 1228 1600 
Q 959 1441 959 1056 
Q 959 750 1161 570 
Q 1363 391 1709 391 
Q 2188 391 2477 730 
Q 2766 1069 2766 1631 
L 2766 1759 
L 2194 1759 
z
M 3341 1997 
L 3341 0 
L 2766 0 
L 2766 531 
Q 2569 213 2275 61 
Q 1981 -91 1556 -91 
Q 1019 -91 701 211 
Q 384 513 384 1019 
Q 384 1609 779 1909 
Q 1175 2209 1959 2209 
L 2766 2209 
L 2766 2266 
Q 2766 2663 2505 2880 
Q 2244 3097 1772 3097 
Q 1472 3097 1187 3025 
Q 903 2953 641 2809 
L 641 3341 
Q 956 3463 1253 3523 
Q 1550 3584 1831 3584 
Q 2591 3584 2966 3190 
Q 3341 2797 3341 1997 
z
" transform="scale(0.015625)"/>
      <path id="DejaVuSans-74" d="M 1172 4494 
L 1172 3500 
L 2356 3500 
L 2356 3053 
L 1172 3053 
L 1172 1153 
Q 1172 725 1289 603 
Q 1406 481 1766 481 
L 2356 481 
L 2356 0 
L 1766 0 
Q 1100 0 847 248 
Q 594 497 594 1153 
L 594 3053 
L 172 3053 
L 172 3500 
L 594 3500 
L 594 4494 
L 1172 4494 
z
" transform="scale(0.015625)"/>
      <path id="DejaVuSans-65" d="M 3597 1894 
L 3597 1613 
L 953 1613 
Q 991 1019 1311 708 
Q 1631 397 2203 397 
Q 2534 397 2845 478 
Q 3156 559 3463 722 
L 3463 178 
Q 3153 47 2828 -22 
Q 2503 -91 2169 -91 
Q 1331 -91 842 396 
Q 353 884 353 1716 
Q 353 2575 817 3079 
Q 1281 3584 2069 3584 
Q 2775 3584 3186 3129 
Q 3597 2675 3597 1894 
z
M 3022 2063 
Q 3016 2534 2758 2815 
Q 2500 3097 2075 3097 
Q 1594 3097 1305 2825 
Q 1016 2553 972 2059 
L 3022 2063 
z
" transform="scale(0.015625)"/>
      <path id="DejaVuSans-72" d="M 2631 2963 
Q 2534 3019 2420 3045 
Q 2306 3072 2169 3072 
Q 1681 3072 1420 2755 
Q 1159 2438 1159 1844 
L 1159 0 
L 581 0 
L 581 3500 
L 1159 3500 
L 1159 2956 
Q 1341 3275 1631 3429 
Q 1922 3584 2338 3584 
Q 2397 3584 2469 3576 
Q 2541 3569 2628 3553 
L 2631 2963 
z
" transform="scale(0.015625)"/>
      <path id="DejaVuSans-6e" d="M 3513 2113 
L 3513 0 
L 2938 0 
L 2938 2094 
Q 2938 2591 2744 2837 
Q 2550 3084 2163 3084 
Q 1697 3084 1428 2787 
Q 1159 2491 1159 1978 
L 1159 0 
L 581 0 
L 581 3500 
L 1159 3500 
L 1159 2956 
Q 1366 3272 1645 3428 
Q 1925 3584 2291 3584 
Q 2894 3584 3203 3211 
Q 3513 2838 3513 2113 
z
" transform="scale(0.015625)"/>
      <path id="DejaVuSans-4b" d="M 628 4666 
L 1259 4666 
L 1259 2694 
L 3353 4666 
L 4166 4666 
L 1850 2491 
L 4331 0 
L 3500 0 
L 1259 2247 
L 1259 0 
L 628 0 
L 628 4666 
z
" transform="scale(0.015625)"/>
      <path id="DejaVuSans-6c" d="M 603 4863 
L 1178 4863 
L 1178 0 
L 603 0 
L 603 4863 
z
" transform="scale(0.015625)"/>
     </defs>
     <use xlink:href="#DejaVuSans-4d"/>
     <use xlink:href="#DejaVuSans-61" transform="translate(86.279297 0)"/>
     <use xlink:href="#DejaVuSans-74" transform="translate(147.558594 0)"/>
     <use xlink:href="#DejaVuSans-65" transform="translate(186.767578 0)"/>
     <use xlink:href="#DejaVuSans-72" transform="translate(248.291016 0)"/>
     <use xlink:href="#DejaVuSans-6e" transform="translate(287.654297 0)"/>
     <use xlink:href="#DejaVuSans-4b" transform="translate(351.033203 0)"/>
     <use xlink:href="#DejaVuSans-65" transform="translate(411.609375 0)"/>
     <use xlink:href="#DejaVuSans-72" transform="translate(473.132812 0)"/>
     <use xlink:href="#DejaVuSans-6e" transform="translate(512.496094 0)"/>
     <use xlink:href="#DejaVuSans-65" transform="translate(575.875 0)"/>
     <use xlink:href="#DejaVuSans-6c" transform="translate(637.398438 0)"/>
    </g>
   </g>
   <g id="legend_1">
    <g id="patch_7">
     <path d="M 62.028 42.618619 
L 411.014575 42.618619 
Q 412.402575 42.618619 412.402575 41.230619 
L 412.402575 31.738 
Q 412.402575 30.35 411.014575 30.35 
L 62.028 30.35 
Q 60.64 30.35 60.64 31.738 
L 60.64 41.230619 
Q 60.64 42.618619 62.028 42.618619 
z
" style="fill: #ffffff; opacity: 0.8; stroke: #cccccc; stroke-linejoin: miter"/>
    </g>
    <g id="line2d_11">
     <path d="M 63.416 35.970316 
L 70.356 35.970316 
L 77.296 35.970316 
" style="fill: none; stroke-dasharray: 5.55,2.4; stroke-dashoffset: 0; stroke: #000000; stroke-width: 1.5"/>
    </g>
    <g id="text_6">
     <!-- Objective -->
     <g transform="translate(82.848 38.399316) scale(0.0694 -0.0694)">
      <defs>
       <path id="DejaVuSans-4f" d="M 2522 4238 
Q 1834 4238 1429 3725 
Q 1025 3213 1025 2328 
Q 1025 1447 1429 934 
Q 1834 422 2522 422 
Q 3209 422 3611 934 
Q 4013 1447 4013 2328 
Q 4013 3213 3611 3725 
Q 3209 4238 2522 4238 
z
M 2522 4750 
Q 3503 4750 4090 4092 
Q 4678 3434 4678 2328 
Q 4678 1225 4090 567 
Q 3503 -91 2522 -91 
Q 1538 -91 948 565 
Q 359 1222 359 2328 
Q 359 3434 948 4092 
Q 1538 4750 2522 4750 
z
" transform="scale(0.015625)"/>
       <path id="DejaVuSans-62" d="M 3116 1747 
Q 3116 2381 2855 2742 
Q 2594 3103 2138 3103 
Q 1681 3103 1420 2742 
Q 1159 2381 1159 1747 
Q 1159 1113 1420 752 
Q 1681 391 2138 391 
Q 2594 391 2855 752 
Q 3116 1113 3116 1747 
z
M 1159 2969 
Q 1341 3281 1617 3432 
Q 1894 3584 2278 3584 
Q 2916 3584 3314 3078 
Q 3713 2572 3713 1747 
Q 3713 922 3314 415 
Q 2916 -91 2278 -91 
Q 1894 -91 1617 61 
Q 1341 213 1159 525 
L 1159 0 
L 581 0 
L 581 4863 
L 1159 4863 
L 1159 2969 
z
" transform="scale(0.015625)"/>
       <path id="DejaVuSans-6a" d="M 603 3500 
L 1178 3500 
L 1178 -63 
Q 1178 -731 923 -1031 
Q 669 -1331 103 -1331 
L -116 -1331 
L -116 -844 
L 38 -844 
Q 366 -844 484 -692 
Q 603 -541 603 -63 
L 603 3500 
z
M 603 4863 
L 1178 4863 
L 1178 4134 
L 603 4134 
L 603 4863 
z
" transform="scale(0.015625)"/>
       <path id="DejaVuSans-63" d="M 3122 3366 
L 3122 2828 
Q 2878 2963 2633 3030 
Q 2388 3097 2138 3097 
Q 1578 3097 1268 2742 
Q 959 2388 959 1747 
Q 959 1106 1268 751 
Q 1578 397 2138 397 
Q 2388 397 2633 464 
Q 2878 531 3122 666 
L 3122 134 
Q 2881 22 2623 -34 
Q 2366 -91 2075 -91 
Q 1284 -91 818 406 
Q 353 903 353 1747 
Q 353 2603 823 3093 
Q 1294 3584 2113 3584 
Q 2378 3584 2631 3529 
Q 2884 3475 3122 3366 
z
" transform="scale(0.015625)"/>
       <path id="DejaVuSans-69" d="M 603 3500 
L 1178 3500 
L 1178 0 
L 603 0 
L 603 3500 
z
M 603 4863 
L 1178 4863 
L 1178 4134 
L 603 4134 
L 603 4863 
z
" transform="scale(0.015625)"/>
       <path id="DejaVuSans-76" d="M 191 3500 
L 800 3500 
L 1894 563 
L 2988 3500 
L 3597 3500 
L 2284 0 
L 1503 0 
L 191 3500 
z
" transform="scale(0.015625)"/>
      </defs>
      <use xlink:href="#DejaVuSans-4f"/>
      <use xlink:href="#DejaVuSans-62" transform="translate(78.710938 0)"/>
      <use xlink:href="#DejaVuSans-6a" transform="translate(142.1875 0)"/>
      <use xlink:href="#DejaVuSans-65" transform="translate(169.970703 0)"/>
      <use xlink:href="#DejaVuSans-63" transform="translate(231.494141 0)"/>
      <use xlink:href="#DejaVuSans-74" transform="translate(286.474609 0)"/>
      <use xlink:href="#DejaVuSans-69" transform="translate(325.683594 0)"/>
      <use xlink:href="#DejaVuSans-76" transform="translate(353.466797 0)"/>
      <use xlink:href="#DejaVuSans-65" transform="translate(412.646484 0)"/>
     </g>
    </g>
    <g id="PathCollection_3">
     <g>
      <use xlink:href="#m28171de022" x="136.577697" y="36.577566" style="fill: #1f77b4; stroke: #1f77b4"/>
     </g>
    </g>
    <g id="text_7">
     <!-- Training data -->
     <g transform="translate(149.069697 38.399316) scale(0.0694 -0.0694)">
      <defs>
       <path id="DejaVuSans-54" d="M -19 4666 
L 3928 4666 
L 3928 4134 
L 2272 4134 
L 2272 0 
L 1638 0 
L 1638 4134 
L -19 4134 
L -19 4666 
z
" transform="scale(0.015625)"/>
       <path id="DejaVuSans-67" d="M 2906 1791 
Q 2906 2416 2648 2759 
Q 2391 3103 1925 3103 
Q 1463 3103 1205 2759 
Q 947 2416 947 1791 
Q 947 1169 1205 825 
Q 1463 481 1925 481 
Q 2391 481 2648 825 
Q 2906 1169 2906 1791 
z
M 3481 434 
Q 3481 -459 3084 -895 
Q 2688 -1331 1869 -1331 
Q 1566 -1331 1297 -1286 
Q 1028 -1241 775 -1147 
L 775 -588 
Q 1028 -725 1275 -790 
Q 1522 -856 1778 -856 
Q 2344 -856 2625 -561 
Q 2906 -266 2906 331 
L 2906 616 
Q 2728 306 2450 153 
Q 2172 0 1784 0 
Q 1141 0 747 490 
Q 353 981 353 1791 
Q 353 2603 747 3093 
Q 1141 3584 1784 3584 
Q 2172 3584 2450 3431 
Q 2728 3278 2906 2969 
L 2906 3500 
L 3481 3500 
L 3481 434 
z
" transform="scale(0.015625)"/>
       <path id="DejaVuSans-20" transform="scale(0.015625)"/>
       <path id="DejaVuSans-64" d="M 2906 2969 
L 2906 4863 
L 3481 4863 
L 3481 0 
L 2906 0 
L 2906 525 
Q 2725 213 2448 61 
Q 2172 -91 1784 -91 
Q 1150 -91 751 415 
Q 353 922 353 1747 
Q 353 2572 751 3078 
Q 1150 3584 1784 3584 
Q 2172 3584 2448 3432 
Q 2725 3281 2906 2969 
z
M 947 1747 
Q 947 1113 1208 752 
Q 1469 391 1925 391 
Q 2381 391 2643 752 
Q 2906 1113 2906 1747 
Q 2906 2381 2643 2742 
Q 2381 3103 1925 3103 
Q 1469 3103 1208 2742 
Q 947 2381 947 1747 
z
" transform="scale(0.015625)"/>
      </defs>
      <use xlink:href="#DejaVuSans-54"/>
      <use xlink:href="#DejaVuSans-72" transform="translate(46.333984 0)"/>
      <use xlink:href="#DejaVuSans-61" transform="translate(87.447266 0)"/>
      <use xlink:href="#DejaVuSans-69" transform="translate(148.726562 0)"/>
      <use xlink:href="#DejaVuSans-6e" transform="translate(176.509766 0)"/>
      <use xlink:href="#DejaVuSans-69" transform="translate(239.888672 0)"/>
      <use xlink:href="#DejaVuSans-6e" transform="translate(267.671875 0)"/>
      <use xlink:href="#DejaVuSans-67" transform="translate(331.050781 0)"/>
      <use xlink:href="#DejaVuSans-20" transform="translate(394.527344 0)"/>
      <use xlink:href="#DejaVuSans-64" transform="translate(426.314453 0)"/>
      <use xlink:href="#DejaVuSans-61" transform="translate(489.791016 0)"/>
      <use xlink:href="#DejaVuSans-74" transform="translate(551.070312 0)"/>
      <use xlink:href="#DejaVuSans-61" transform="translate(590.279297 0)"/>
     </g>
    </g>
    <g id="PathCollection_4">
     <g>
      <use xlink:href="#m83c7f35c1a" x="215.10705" y="36.577566" style="fill: #ff7f0e; stroke: #ff7f0e"/>
     </g>
    </g>
    <g id="text_8">
     <!-- Test data -->
     <g transform="translate(227.59905 38.399316) scale(0.0694 -0.0694)">
      <defs>
       <path id="DejaVuSans-73" d="M 2834 3397 
L 2834 2853 
Q 2591 2978 2328 3040 
Q 2066 3103 1784 3103 
Q 1356 3103 1142 2972 
Q 928 2841 928 2578 
Q 928 2378 1081 2264 
Q 1234 2150 1697 2047 
L 1894 2003 
Q 2506 1872 2764 1633 
Q 3022 1394 3022 966 
Q 3022 478 2636 193 
Q 2250 -91 1575 -91 
Q 1294 -91 989 -36 
Q 684 19 347 128 
L 347 722 
Q 666 556 975 473 
Q 1284 391 1588 391 
Q 1994 391 2212 530 
Q 2431 669 2431 922 
Q 2431 1156 2273 1281 
Q 2116 1406 1581 1522 
L 1381 1569 
Q 847 1681 609 1914 
Q 372 2147 372 2553 
Q 372 3047 722 3315 
Q 1072 3584 1716 3584 
Q 2034 3584 2315 3537 
Q 2597 3491 2834 3397 
z
" transform="scale(0.015625)"/>
      </defs>
      <use xlink:href="#DejaVuSans-54"/>
      <use xlink:href="#DejaVuSans-65" transform="translate(44.083984 0)"/>
      <use xlink:href="#DejaVuSans-73" transform="translate(105.607422 0)"/>
      <use xlink:href="#DejaVuSans-74" transform="translate(157.707031 0)"/>
      <use xlink:href="#DejaVuSans-20" transform="translate(196.916016 0)"/>
      <use xlink:href="#DejaVuSans-64" transform="translate(228.703125 0)"/>
      <use xlink:href="#DejaVuSans-61" transform="translate(292.179688 0)"/>
      <use xlink:href="#DejaVuSans-74" transform="translate(353.458984 0)"/>
      <use xlink:href="#DejaVuSans-61" transform="translate(392.667969 0)"/>
     </g>
    </g>
    <g id="line2d_12">
     <path d="M 272.982312 35.970316 
L 279.922312 35.970316 
L 286.862312 35.970316 
" style="fill: none; stroke: #1f77b4; stroke-width: 1.5; stroke-linecap: square"/>
    </g>
    <g id="text_9">
     <!-- Pred. mean -->
     <g transform="translate(292.414312 38.399316) scale(0.0694 -0.0694)">
      <defs>
       <path id="DejaVuSans-50" d="M 1259 4147 
L 1259 2394 
L 2053 2394 
Q 2494 2394 2734 2622 
Q 2975 2850 2975 3272 
Q 2975 3691 2734 3919 
Q 2494 4147 2053 4147 
L 1259 4147 
z
M 628 4666 
L 2053 4666 
Q 2838 4666 3239 4311 
Q 3641 3956 3641 3272 
Q 3641 2581 3239 2228 
Q 2838 1875 2053 1875 
L 1259 1875 
L 1259 0 
L 628 0 
L 628 4666 
z
" transform="scale(0.015625)"/>
       <path id="DejaVuSans-2e" d="M 684 794 
L 1344 794 
L 1344 0 
L 684 0 
L 684 794 
z
" transform="scale(0.015625)"/>
       <path id="DejaVuSans-6d" d="M 3328 2828 
Q 3544 3216 3844 3400 
Q 4144 3584 4550 3584 
Q 5097 3584 5394 3201 
Q 5691 2819 5691 2113 
L 5691 0 
L 5113 0 
L 5113 2094 
Q 5113 2597 4934 2840 
Q 4756 3084 4391 3084 
Q 3944 3084 3684 2787 
Q 3425 2491 3425 1978 
L 3425 0 
L 2847 0 
L 2847 2094 
Q 2847 2600 2669 2842 
Q 2491 3084 2119 3084 
Q 1678 3084 1418 2786 
Q 1159 2488 1159 1978 
L 1159 0 
L 581 0 
L 581 3500 
L 1159 3500 
L 1159 2956 
Q 1356 3278 1631 3431 
Q 1906 3584 2284 3584 
Q 2666 3584 2933 3390 
Q 3200 3197 3328 2828 
z
" transform="scale(0.015625)"/>
      </defs>
      <use xlink:href="#DejaVuSans-50"/>
      <use xlink:href="#DejaVuSans-72" transform="translate(58.552734 0)"/>
      <use xlink:href="#DejaVuSans-65" transform="translate(97.416016 0)"/>
      <use xlink:href="#DejaVuSans-64" transform="translate(158.939453 0)"/>
      <use xlink:href="#DejaVuSans-2e" transform="translate(222.416016 0)"/>
      <use xlink:href="#DejaVuSans-20" transform="translate(254.203125 0)"/>
      <use xlink:href="#DejaVuSans-6d" transform="translate(285.990234 0)"/>
      <use xlink:href="#DejaVuSans-65" transform="translate(383.402344 0)"/>
      <use xlink:href="#DejaVuSans-61" transform="translate(444.925781 0)"/>
      <use xlink:href="#DejaVuSans-6e" transform="translate(506.205078 0)"/>
     </g>
    </g>
    <g id="patch_8">
     <path d="M 345.823034 38.399316 
L 359.703034 38.399316 
L 359.703034 33.541316 
L 345.823034 33.541316 
z
" style="fill: #1f77b4; fill-opacity: 0.2; stroke: #1f77b4; stroke-opacity: 0.2; stroke-linejoin: miter"/>
    </g>
    <g id="text_10">
     <!-- Pred. 95% CI -->
     <g transform="translate(365.255034 38.399316) scale(0.0694 -0.0694)">
      <defs>
       <path id="DejaVuSans-39" d="M 703 97 
L 703 672 
Q 941 559 1184 500 
Q 1428 441 1663 441 
Q 2288 441 2617 861 
Q 2947 1281 2994 2138 
Q 2813 1869 2534 1725 
Q 2256 1581 1919 1581 
Q 1219 1581 811 2004 
Q 403 2428 403 3163 
Q 403 3881 828 4315 
Q 1253 4750 1959 4750 
Q 2769 4750 3195 4129 
Q 3622 3509 3622 2328 
Q 3622 1225 3098 567 
Q 2575 -91 1691 -91 
Q 1453 -91 1209 -44 
Q 966 3 703 97 
z
M 1959 2075 
Q 2384 2075 2632 2365 
Q 2881 2656 2881 3163 
Q 2881 3666 2632 3958 
Q 2384 4250 1959 4250 
Q 1534 4250 1286 3958 
Q 1038 3666 1038 3163 
Q 1038 2656 1286 2365 
Q 1534 2075 1959 2075 
z
" transform="scale(0.015625)"/>
       <path id="DejaVuSans-25" d="M 4653 2053 
Q 4381 2053 4226 1822 
Q 4072 1591 4072 1178 
Q 4072 772 4226 539 
Q 4381 306 4653 306 
Q 4919 306 5073 539 
Q 5228 772 5228 1178 
Q 5228 1588 5073 1820 
Q 4919 2053 4653 2053 
z
M 4653 2450 
Q 5147 2450 5437 2106 
Q 5728 1763 5728 1178 
Q 5728 594 5436 251 
Q 5144 -91 4653 -91 
Q 4153 -91 3862 251 
Q 3572 594 3572 1178 
Q 3572 1766 3864 2108 
Q 4156 2450 4653 2450 
z
M 1428 4353 
Q 1159 4353 1004 4120 
Q 850 3888 850 3481 
Q 850 3069 1003 2837 
Q 1156 2606 1428 2606 
Q 1700 2606 1854 2837 
Q 2009 3069 2009 3481 
Q 2009 3884 1853 4118 
Q 1697 4353 1428 4353 
z
M 4250 4750 
L 4750 4750 
L 1831 -91 
L 1331 -91 
L 4250 4750 
z
M 1428 4750 
Q 1922 4750 2215 4408 
Q 2509 4066 2509 3481 
Q 2509 2891 2217 2550 
Q 1925 2209 1428 2209 
Q 931 2209 642 2551 
Q 353 2894 353 3481 
Q 353 4063 643 4406 
Q 934 4750 1428 4750 
z
" transform="scale(0.015625)"/>
       <path id="DejaVuSans-43" d="M 4122 4306 
L 4122 3641 
Q 3803 3938 3442 4084 
Q 3081 4231 2675 4231 
Q 1875 4231 1450 3742 
Q 1025 3253 1025 2328 
Q 1025 1406 1450 917 
Q 1875 428 2675 428 
Q 3081 428 3442 575 
Q 3803 722 4122 1019 
L 4122 359 
Q 3791 134 3420 21 
Q 3050 -91 2638 -91 
Q 1578 -91 968 557 
Q 359 1206 359 2328 
Q 359 3453 968 4101 
Q 1578 4750 2638 4750 
Q 3056 4750 3426 4639 
Q 3797 4528 4122 4306 
z
" transform="scale(0.015625)"/>
       <path id="DejaVuSans-49" d="M 628 4666 
L 1259 4666 
L 1259 0 
L 628 0 
L 628 4666 
z
" transform="scale(0.015625)"/>
      </defs>
      <use xlink:href="#DejaVuSans-50"/>
      <use xlink:href="#DejaVuSans-72" transform="translate(58.552734 0)"/>
      <use xlink:href="#DejaVuSans-65" transform="translate(97.416016 0)"/>
      <use xlink:href="#DejaVuSans-64" transform="translate(158.939453 0)"/>
      <use xlink:href="#DejaVuSans-2e" transform="translate(222.416016 0)"/>
      <use xlink:href="#DejaVuSans-20" transform="translate(254.203125 0)"/>
      <use xlink:href="#DejaVuSans-39" transform="translate(285.990234 0)"/>
      <use xlink:href="#DejaVuSans-35" transform="translate(349.613281 0)"/>
      <use xlink:href="#DejaVuSans-25" transform="translate(413.236328 0)"/>
      <use xlink:href="#DejaVuSans-20" transform="translate(508.255859 0)"/>
      <use xlink:href="#DejaVuSans-43" transform="translate(540.042969 0)"/>
      <use xlink:href="#DejaVuSans-49" transform="translate(609.867188 0)"/>
     </g>
    </g>
   </g>
  </g>
  <g id="axes_2">
   <g id="patch_9">
    <path d="M 57.17 258.86 
L 493.2 258.86 
L 493.2 158.06 
L 57.17 158.06 
z
" style="fill: #ffffff"/>
   </g>
   <g id="PathCollection_5">
    <g clip-path="url(#p4fc4ad2a9b)">
     <use xlink:href="#m28171de022" x="423.831591" y="226.867979" style="fill: #1f77b4; stroke: #1f77b4"/>
     <use xlink:href="#m28171de022" x="443.651136" y="250.027701" style="fill: #1f77b4; stroke: #1f77b4"/>
     <use xlink:href="#m28171de022" x="225.636136" y="220.68714" style="fill: #1f77b4; stroke: #1f77b4"/>
     <use xlink:href="#m28171de022" x="265.275227" y="210.819162" style="fill: #1f77b4; stroke: #1f77b4"/>
     <use xlink:href="#m28171de022" x="324.733864" y="196.167206" style="fill: #1f77b4; stroke: #1f77b4"/>
     <use xlink:href="#m28171de022" x="106.718864" y="166.826644" style="fill: #1f77b4; stroke: #1f77b4"/>
     <use xlink:href="#m28171de022" x="384.1925" y="187.363754" style="fill: #1f77b4; stroke: #1f77b4"/>
     <use xlink:href="#m28171de022" x="166.1775" y="229.490591" style="fill: #1f77b4; stroke: #1f77b4"/>
     <use xlink:href="#m28171de022" x="205.816591" y="197.688563" style="fill: #1f77b4; stroke: #1f77b4"/>
     <use xlink:href="#m28171de022" x="146.357955" y="232.176439" style="fill: #1f77b4; stroke: #1f77b4"/>
     <use xlink:href="#m28171de022" x="185.997045" y="193.828175" style="fill: #1f77b4; stroke: #1f77b4"/>
     <use xlink:href="#m28171de022" x="304.914318" y="213.6071" style="fill: #1f77b4; stroke: #1f77b4"/>
     <use xlink:href="#m28171de022" x="126.538409" y="189.986367" style="fill: #1f77b4; stroke: #1f77b4"/>
     <use xlink:href="#m28171de022" x="344.553409" y="219.165782" style="fill: #1f77b4; stroke: #1f77b4"/>
     <use xlink:href="#m28171de022" x="364.372955" y="223.026171" style="fill: #1f77b4; stroke: #1f77b4"/>
    </g>
   </g>
   <g id="PathCollection_6">
    <g clip-path="url(#p4fc4ad2a9b)">
     <use xlink:href="#m83c7f35c1a" x="285.094773" y="206.035183" style="fill: #ff7f0e; stroke: #ff7f0e"/>
     <use xlink:href="#m83c7f35c1a" x="245.455682" y="203.247245" style="fill: #ff7f0e; stroke: #ff7f0e"/>
     <use xlink:href="#m83c7f35c1a" x="463.470682" y="217.687538" style="fill: #ff7f0e; stroke: #ff7f0e"/>
     <use xlink:href="#m83c7f35c1a" x="404.012045" y="184.677907" style="fill: #ff7f0e; stroke: #ff7f0e"/>
     <use xlink:href="#m83c7f35c1a" x="86.899318" y="199.166807" style="fill: #ff7f0e; stroke: #ff7f0e"/>
    </g>
   </g>
   <g id="FillBetweenPolyCollection_2">
    <defs>
     <path id="m598b6e0048" d="M 76.989545 -265.906857 
L 76.989545 -182.360642 
L 80.993494 -182.705636 
L 84.997443 -183.170566 
L 89.001392 -183.745318 
L 93.00534 -184.391326 
L 97.009288 -185.041416 
L 101.013238 -185.609985 
L 105.017184 -186.012091 
L 109.021134 -186.184217 
L 113.025084 -186.09712 
L 117.02903 -185.755683 
L 121.03298 -185.189547 
L 125.03693 -184.443481 
L 129.040877 -183.573078 
L 133.044823 -182.643616 
L 137.048776 -181.7265 
L 141.052723 -180.891548 
L 145.056669 -180.198686 
L 149.060622 -179.692951 
L 153.064569 -179.402721 
L 157.068515 -179.338793 
L 161.072468 -179.493578 
L 165.076415 -179.84177 
L 169.080362 -180.342894 
L 173.084314 -180.9442 
L 177.088255 -181.583297 
L 181.092208 -182.1929 
L 185.09616 -182.710026 
L 189.100101 -183.087339 
L 193.104054 -183.300319 
L 197.108006 -183.34635 
L 201.111947 -183.23878 
L 205.1159 -183.00242 
L 209.119852 -182.672901 
L 213.123793 -182.295962 
L 217.127746 -181.921925 
L 221.131699 -181.59594 
L 225.135639 -181.349232 
L 229.139592 -181.195586 
L 233.143545 -181.132798 
L 237.147485 -181.146486 
L 241.151438 -181.214749 
L 245.155391 -181.313446 
L 249.159332 -181.42116 
L 253.163284 -181.521918 
L 257.167237 -181.604961 
L 261.171178 -181.663286 
L 265.17513 -181.693331 
L 269.179083 -181.696062 
L 273.183024 -181.677481 
L 277.186988 -181.64715 
L 281.190917 -181.615799 
L 285.19487 -181.594045 
L 289.198822 -181.592525 
L 293.202751 -181.621707 
L 297.206728 -181.690029 
L 301.210657 -181.800935 
L 305.214609 -181.950187 
L 309.218562 -182.123765 
L 313.222515 -182.296314 
L 317.226467 -182.431952 
L 321.230396 -182.490688 
L 325.234372 -182.440834 
L 329.238301 -182.271947 
L 333.242254 -182.000344 
L 337.246207 -181.664207 
L 341.250136 -181.312881 
L 345.254112 -180.997525 
L 349.258041 -180.76578 
L 353.261994 -180.657701 
L 357.265946 -180.700319 
L 361.269899 -180.901664 
L 365.273852 -181.246989 
L 369.277781 -181.698198 
L 373.281757 -182.196061 
L 377.285686 -182.666241 
L 381.289638 -183.031598 
L 385.293591 -183.229686 
L 389.29752 -183.228799 
L 393.301496 -183.033878 
L 397.305425 -182.679147 
L 401.309378 -182.212343 
L 405.313331 -181.679076 
L 409.317283 -181.113187 
L 413.321236 -180.534583 
L 417.325165 -179.953524 
L 421.329118 -179.379559 
L 425.33307 -178.831801 
L 429.337023 -178.345083 
L 433.340975 -177.967252 
L 437.344904 -177.747589 
L 441.348857 -177.721818 
L 445.35281 -177.900526 
L 449.356762 -178.264698 
L 453.360715 -178.768479 
L 457.364668 -179.347904 
L 461.36862 -179.933945 
L 465.372549 -180.466835 
L 469.376502 -180.907128 
L 473.380455 -181.239719 
L 473.380455 -264.785934 
L 473.380455 -264.785934 
L 469.376502 -264.441642 
L 465.372549 -263.977728 
L 461.36862 -263.40416 
L 457.364668 -262.758852 
L 453.360715 -262.107274 
L 449.356762 -261.53143 
L 445.35281 -261.109829 
L 441.348857 -260.896101 
L 437.344904 -260.906603 
L 433.340975 -261.122935 
L 429.337023 -261.505914 
L 425.33307 -262.011089 
L 421.329118 -262.597807 
L 417.325165 -263.231001 
L 413.321236 -263.879741 
L 409.317283 -264.515703 
L 405.313331 -265.111468 
L 401.309378 -265.638183 
L 397.305425 -266.063959 
L 393.301496 -266.355509 
L 389.29752 -266.483751 
L 385.293591 -266.431676 
L 381.289638 -266.201983 
L 377.285686 -265.822292 
L 373.281757 -265.345532 
L 369.277781 -264.842798 
L 365.273852 -264.388669 
L 361.269899 -264.044128 
L 357.265946 -263.8455 
L 353.261994 -263.803569 
L 349.258041 -263.909324 
L 345.254112 -264.139001 
L 341.250136 -264.455454 
L 337.246207 -264.809499 
L 333.242254 -265.146153 
L 329.238301 -265.415349 
L 325.234372 -265.582365 
L 321.230396 -265.633917 
L 317.226467 -265.579621 
L 313.222515 -265.449631 
L 309.218562 -265.287639 
L 305.214609 -265.138678 
L 301.210657 -265.035137 
L 297.206728 -264.987716 
L 293.202751 -264.986042 
L 289.198822 -265.007506 
L 285.19487 -265.028548 
L 281.190917 -265.033235 
L 277.186988 -265.01722 
L 273.183024 -264.987139 
L 269.179083 -264.955801 
L 265.17513 -264.934377 
L 261.171178 -264.924914 
L 257.167237 -264.917592 
L 253.163284 -264.894846 
L 249.159332 -264.840269 
L 245.155391 -264.747842 
L 241.151438 -264.627844 
L 237.147485 -264.507713 
L 233.143545 -264.427081 
L 229.139592 -264.427001 
L 225.135639 -264.536017 
L 221.131699 -264.759036 
L 217.127746 -265.074904 
L 213.123793 -265.443381 
L 209.119852 -265.81596 
L 205.1159 -266.14397 
L 201.111947 -266.382327 
L 197.108006 -266.492218 
L 193.104054 -266.445501 
L 189.100101 -266.229788 
L 185.09616 -265.851538 
L 181.092208 -265.336589 
L 177.088255 -264.729214 
L 173.084314 -264.089264 
L 169.080362 -263.485222 
L 165.076415 -262.983327 
L 161.072468 -262.637413 
L 157.068515 -262.484752 
L 153.064569 -262.547663 
L 149.060622 -262.835166 
L 145.056669 -263.340298 
L 141.052723 -264.03553 
L 137.048776 -264.872492 
L 133.044823 -265.788432 
L 129.040877 -266.715211 
L 125.03693 -267.585379 
L 121.03298 -268.334811 
L 117.02903 -268.905966 
L 113.025084 -269.254623 
L 109.021134 -269.358182 
L 105.017184 -269.221352 
L 101.013238 -268.876716 
L 97.009288 -268.380211 
L 93.00534 -267.802273 
L 89.001392 -267.215531 
L 84.997443 -266.681458 
L 80.993494 -266.240151 
L 76.989545 -265.906857 
z
" style="stroke: #1f77b4; stroke-opacity: 0.2"/>
    </defs>
    <g clip-path="url(#p4fc4ad2a9b)">
     <use xlink:href="#m598b6e0048" x="0" y="432" style="fill: #1f77b4; fill-opacity: 0.2; stroke: #1f77b4; stroke-opacity: 0.2"/>
    </g>
   </g>
   <g id="matplotlib.axis_3">
    <g id="xtick_6">
     <g id="line2d_13">
      <g>
       <use xlink:href="#mad116c1064" x="116.628636" y="258.86" style="stroke: #000000; stroke-width: 0.8"/>
      </g>
     </g>
    </g>
    <g id="xtick_7">
     <g id="line2d_14">
      <g>
       <use xlink:href="#mad116c1064" x="195.906818" y="258.86" style="stroke: #000000; stroke-width: 0.8"/>
      </g>
     </g>
    </g>
    <g id="xtick_8">
     <g id="line2d_15">
      <g>
       <use xlink:href="#mad116c1064" x="275.185" y="258.86" style="stroke: #000000; stroke-width: 0.8"/>
      </g>
     </g>
    </g>
    <g id="xtick_9">
     <g id="line2d_16">
      <g>
       <use xlink:href="#mad116c1064" x="354.463182" y="258.86" style="stroke: #000000; stroke-width: 0.8"/>
      </g>
     </g>
    </g>
    <g id="xtick_10">
     <g id="line2d_17">
      <g>
       <use xlink:href="#mad116c1064" x="433.741364" y="258.86" style="stroke: #000000; stroke-width: 0.8"/>
      </g>
     </g>
    </g>
   </g>
   <g id="matplotlib.axis_4">
    <g id="ytick_4">
     <g id="line2d_18">
      <g>
       <use xlink:href="#m31886faf55" x="57.17" y="250.232459" style="stroke: #000000; stroke-width: 0.8"/>
      </g>
     </g>
     <g id="text_11">
      <!-- 0 -->
      <g transform="translate(43.8075 254.031677) scale(0.1 -0.1)">
       <use xlink:href="#DejaVuSans-30"/>
      </g>
     </g>
    </g>
    <g id="ytick_5">
     <g id="line2d_19">
      <g>
       <use xlink:href="#m31886faf55" x="57.17" y="225.287953" style="stroke: #000000; stroke-width: 0.8"/>
      </g>
     </g>
     <g id="text_12">
      <!-- 250 -->
      <g transform="translate(31.0825 229.087171) scale(0.1 -0.1)">
       <defs>
        <path id="DejaVuSans-32" d="M 1228 531 
L 3431 531 
L 3431 0 
L 469 0 
L 469 531 
Q 828 903 1448 1529 
Q 2069 2156 2228 2338 
Q 2531 2678 2651 2914 
Q 2772 3150 2772 3378 
Q 2772 3750 2511 3984 
Q 2250 4219 1831 4219 
Q 1534 4219 1204 4116 
Q 875 4013 500 3803 
L 500 4441 
Q 881 4594 1212 4672 
Q 1544 4750 1819 4750 
Q 2544 4750 2975 4387 
Q 3406 4025 3406 3419 
Q 3406 3131 3298 2873 
Q 3191 2616 2906 2266 
Q 2828 2175 2409 1742 
Q 1991 1309 1228 531 
z
" transform="scale(0.015625)"/>
       </defs>
       <use xlink:href="#DejaVuSans-32"/>
       <use xlink:href="#DejaVuSans-35" transform="translate(63.623047 0)"/>
       <use xlink:href="#DejaVuSans-30" transform="translate(127.246094 0)"/>
      </g>
     </g>
    </g>
    <g id="ytick_6">
     <g id="line2d_20">
      <g>
       <use xlink:href="#m31886faf55" x="57.17" y="200.343447" style="stroke: #000000; stroke-width: 0.8"/>
      </g>
     </g>
     <g id="text_13">
      <!-- 500 -->
      <g transform="translate(31.0825 204.142665) scale(0.1 -0.1)">
       <use xlink:href="#DejaVuSans-35"/>
       <use xlink:href="#DejaVuSans-30" transform="translate(63.623047 0)"/>
       <use xlink:href="#DejaVuSans-30" transform="translate(127.246094 0)"/>
      </g>
     </g>
    </g>
    <g id="ytick_7">
     <g id="line2d_21">
      <g>
       <use xlink:href="#m31886faf55" x="57.17" y="175.398941" style="stroke: #000000; stroke-width: 0.8"/>
      </g>
     </g>
     <g id="text_14">
      <!-- 750 -->
      <g transform="translate(31.0825 179.198159) scale(0.1 -0.1)">
       <defs>
        <path id="DejaVuSans-37" d="M 525 4666 
L 3525 4666 
L 3525 4397 
L 1831 0 
L 1172 0 
L 2766 4134 
L 525 4134 
L 525 4666 
z
" transform="scale(0.015625)"/>
       </defs>
       <use xlink:href="#DejaVuSans-37"/>
       <use xlink:href="#DejaVuSans-35" transform="translate(63.623047 0)"/>
       <use xlink:href="#DejaVuSans-30" transform="translate(127.246094 0)"/>
      </g>
     </g>
    </g>
    <g id="text_15">
     <!-- y -->
     <g transform="translate(25.002813 211.419375) rotate(-90) scale(0.1 -0.1)">
      <use xlink:href="#DejaVuSans-79"/>
     </g>
    </g>
   </g>
   <g id="line2d_22">
    <path d="M 76.989545 226.446002 
L 80.993494 215.369833 
L 84.997443 204.274258 
L 89.001392 193.744712 
L 93.00534 184.342415 
L 97.009288 176.572682 
L 101.013238 170.85462 
L 105.017184 167.49407 
L 109.021134 166.661604 
L 113.025084 168.37741 
L 117.02903 172.504503 
L 121.03298 178.751492 
L 125.03693 186.685526 
L 129.040877 195.755538 
L 133.044823 205.325183 
L 137.048776 214.714045 
L 141.052723 223.244945 
L 145.056669 230.294646 
L 149.060622 235.344118 
L 153.064569 238.024555 
L 157.068515 238.154879 
L 161.072468 235.766439 
L 165.076415 231.111352 
L 169.080362 224.651542 
L 173.084314 217.027075 
L 177.088255 209.004117 
L 181.092208 201.404676 
L 185.09616 195.023371 
L 189.100101 190.537874 
L 193.104054 188.422682 
L 197.108006 188.877234 
L 201.111947 191.779741 
L 205.1159 196.677994 
L 209.119852 202.825404 
L 213.123793 209.266446 
L 217.127746 214.96881 
L 221.131699 218.990544 
L 225.135639 220.661045 
L 229.139592 219.743868 
L 233.143545 216.541531 
L 237.147485 211.899507 
L 241.151438 207.072583 
L 245.155391 203.437834 
L 249.159332 202.077956 
L 253.163284 203.322437 
L 257.167237 206.418535 
L 261.171178 209.59457 
L 265.17513 210.824555 
L 269.179083 209.458661 
L 273.183024 208.034236 
L 277.186988 208.82011 
L 281.190917 207.395685 
L 285.19487 206.02979 
L 289.198822 207.259775 
L 293.202751 210.4358 
L 297.206728 213.531915 
L 301.210657 214.776389 
L 305.214609 213.416511 
L 309.218562 209.781762 
L 313.222515 204.954838 
L 317.226467 200.312802 
L 321.230396 197.110484 
L 325.234372 196.193301 
L 329.238301 197.863801 
L 333.242254 201.885535 
L 337.246207 207.587899 
L 341.250136 214.028922 
L 345.254112 220.176368 
L 349.258041 225.074593 
L 353.261994 227.977112 
L 357.265946 228.431663 
L 361.269899 226.316472 
L 365.273852 221.830958 
L 369.277781 215.44969 
L 373.281757 207.850205 
L 377.285686 199.82727 
L 381.289638 192.202803 
L 385.293591 185.742985 
L 389.29752 181.087917 
L 393.301496 178.699463 
L 397.305425 178.829788 
L 401.309378 181.510227 
L 405.313331 186.5597 
L 409.317283 193.609412 
L 413.321236 202.140328 
L 417.325165 211.529134 
L 421.329118 221.098794 
L 425.33307 230.16882 
L 429.337023 238.102859 
L 433.340975 244.34985 
L 437.344904 248.476927 
L 441.348857 250.192741 
L 445.35281 249.360279 
L 449.356762 245.999725 
L 453.360715 240.281659 
L 457.364668 232.511914 
L 461.36862 223.109604 
L 465.372549 212.58011 
L 469.376502 201.484524 
L 473.380455 190.408343 
" clip-path="url(#p4fc4ad2a9b)" style="fill: none; stroke-dasharray: 5.55,2.4; stroke-dashoffset: 0; stroke: #000000; stroke-width: 1.5"/>
   </g>
   <g id="line2d_23">
    <path d="M 76.989545 207.86625 
L 80.993494 207.527106 
L 84.997443 207.073988 
L 89.001392 206.519575 
L 93.00534 205.9032 
L 97.009288 205.289187 
L 101.013238 204.756649 
L 105.017184 204.383278 
L 109.021134 204.2288 
L 113.025084 204.324129 
L 117.02903 204.669175 
L 121.03298 205.237821 
L 125.03693 205.98557 
L 129.040877 206.855855 
L 133.044823 207.783976 
L 137.048776 208.700504 
L 141.052723 209.536461 
L 145.056669 210.230508 
L 149.060622 210.735942 
L 153.064569 211.024808 
L 157.068515 211.088228 
L 161.072468 210.934505 
L 165.076415 210.587452 
L 169.080362 210.085942 
L 173.084314 209.483268 
L 177.088255 208.843744 
L 181.092208 208.235255 
L 185.09616 207.719218 
L 189.100101 207.341437 
L 193.104054 207.12709 
L 197.108006 207.080716 
L 201.111947 207.189446 
L 205.1159 207.426805 
L 209.119852 207.755569 
L 213.123793 208.130329 
L 217.127746 208.501585 
L 221.131699 208.822512 
L 225.135639 209.057375 
L 229.139592 209.188707 
L 233.143545 209.22006 
L 237.147485 209.1729 
L 241.151438 209.078704 
L 245.155391 208.969356 
L 249.159332 208.869286 
L 253.163284 208.791618 
L 257.167237 208.738723 
L 261.171178 208.7059 
L 265.17513 208.686146 
L 269.179083 208.674068 
L 273.183024 208.66769 
L 277.186988 208.667815 
L 281.190917 208.675483 
L 285.19487 208.688703 
L 289.198822 208.699984 
L 293.202751 208.696126 
L 297.206728 208.661128 
L 301.210657 208.581964 
L 305.214609 208.455568 
L 309.218562 208.294298 
L 313.222515 208.127028 
L 317.226467 207.994213 
L 321.230396 207.937698 
L 325.234372 207.9884 
L 329.238301 208.156352 
L 333.242254 208.426751 
L 337.246207 208.763147 
L 341.250136 209.115833 
L 345.254112 209.431737 
L 349.258041 209.662448 
L 353.261994 209.769365 
L 357.265946 209.72709 
L 361.269899 209.527104 
L 365.273852 209.182171 
L 369.277781 208.729502 
L 373.281757 208.229204 
L 377.285686 207.755734 
L 381.289638 207.38321 
L 385.293591 207.169319 
L 389.29752 207.143725 
L 393.301496 207.305306 
L 397.305425 207.628447 
L 401.309378 208.074737 
L 405.313331 208.604728 
L 409.317283 209.185555 
L 413.321236 209.792838 
L 417.325165 210.407738 
L 421.329118 211.011317 
L 425.33307 211.578555 
L 429.337023 212.074502 
L 433.340975 212.454907 
L 437.344904 212.672904 
L 441.348857 212.691041 
L 445.35281 212.494822 
L 449.356762 212.101936 
L 453.360715 211.562123 
L 457.364668 210.946622 
L 461.36862 210.330947 
L 465.372549 209.777719 
L 469.376502 209.325615 
L 473.380455 208.987174 
" clip-path="url(#p4fc4ad2a9b)" style="fill: none; stroke: #1f77b4; stroke-width: 1.5; stroke-linecap: square"/>
   </g>
   <g id="patch_10">
    <path d="M 57.17 258.86 
L 57.17 158.06 
" style="fill: none; stroke: #000000; stroke-width: 0.8; stroke-linejoin: miter; stroke-linecap: square"/>
   </g>
   <g id="patch_11">
    <path d="M 493.2 258.86 
L 493.2 158.06 
" style="fill: none; stroke: #000000; stroke-width: 0.8; stroke-linejoin: miter; stroke-linecap: square"/>
   </g>
   <g id="patch_12">
    <path d="M 57.17 258.86 
L 493.2 258.86 
" style="fill: none; stroke: #000000; stroke-width: 0.8; stroke-linejoin: miter; stroke-linecap: square"/>
   </g>
   <g id="patch_13">
    <path d="M 57.17 158.06 
L 493.2 158.06 
" style="fill: none; stroke: #000000; stroke-width: 0.8; stroke-linejoin: miter; stroke-linecap: square"/>
   </g>
   <g id="text_16">
    <!-- RBFKernel -->
    <g transform="translate(244.599063 152.06) scale(0.12 -0.12)">
     <defs>
      <path id="DejaVuSans-52" d="M 2841 2188 
Q 3044 2119 3236 1894 
Q 3428 1669 3622 1275 
L 4263 0 
L 3584 0 
L 2988 1197 
Q 2756 1666 2539 1819 
Q 2322 1972 1947 1972 
L 1259 1972 
L 1259 0 
L 628 0 
L 628 4666 
L 2053 4666 
Q 2853 4666 3247 4331 
Q 3641 3997 3641 3322 
Q 3641 2881 3436 2590 
Q 3231 2300 2841 2188 
z
M 1259 4147 
L 1259 2491 
L 2053 2491 
Q 2509 2491 2742 2702 
Q 2975 2913 2975 3322 
Q 2975 3731 2742 3939 
Q 2509 4147 2053 4147 
L 1259 4147 
z
" transform="scale(0.015625)"/>
      <path id="DejaVuSans-42" d="M 1259 2228 
L 1259 519 
L 2272 519 
Q 2781 519 3026 730 
Q 3272 941 3272 1375 
Q 3272 1813 3026 2020 
Q 2781 2228 2272 2228 
L 1259 2228 
z
M 1259 4147 
L 1259 2741 
L 2194 2741 
Q 2656 2741 2882 2914 
Q 3109 3088 3109 3444 
Q 3109 3797 2882 3972 
Q 2656 4147 2194 4147 
L 1259 4147 
z
M 628 4666 
L 2241 4666 
Q 2963 4666 3353 4366 
Q 3744 4066 3744 3513 
Q 3744 3084 3544 2831 
Q 3344 2578 2956 2516 
Q 3422 2416 3680 2098 
Q 3938 1781 3938 1306 
Q 3938 681 3513 340 
Q 3088 0 2303 0 
L 628 0 
L 628 4666 
z
" transform="scale(0.015625)"/>
      <path id="DejaVuSans-46" d="M 628 4666 
L 3309 4666 
L 3309 4134 
L 1259 4134 
L 1259 2759 
L 3109 2759 
L 3109 2228 
L 1259 2228 
L 1259 0 
L 628 0 
L 628 4666 
z
" transform="scale(0.015625)"/>
     </defs>
     <use xlink:href="#DejaVuSans-52"/>
     <use xlink:href="#DejaVuSans-42" transform="translate(69.482422 0)"/>
     <use xlink:href="#DejaVuSans-46" transform="translate(138.085938 0)"/>
     <use xlink:href="#DejaVuSans-4b" transform="translate(195.605469 0)"/>
     <use xlink:href="#DejaVuSans-65" transform="translate(256.181641 0)"/>
     <use xlink:href="#DejaVuSans-72" transform="translate(317.705078 0)"/>
     <use xlink:href="#DejaVuSans-6e" transform="translate(357.068359 0)"/>
     <use xlink:href="#DejaVuSans-65" transform="translate(420.447266 0)"/>
     <use xlink:href="#DejaVuSans-6c" transform="translate(481.970703 0)"/>
    </g>
   </g>
  </g>
  <g id="axes_3">
   <g id="patch_14">
    <path d="M 57.17 390.04 
L 493.2 390.04 
L 493.2 289.24 
L 57.17 289.24 
z
" style="fill: #ffffff"/>
   </g>
   <g id="PathCollection_7">
    <g clip-path="url(#pbdf8aea564)">
     <use xlink:href="#m28171de022" x="423.831591" y="358.512427" style="fill: #1f77b4; stroke: #1f77b4"/>
     <use xlink:href="#m28171de022" x="443.651136" y="382.267638" style="fill: #1f77b4; stroke: #1f77b4"/>
     <use xlink:href="#m28171de022" x="225.636136" y="352.172666" style="fill: #1f77b4; stroke: #1f77b4"/>
     <use xlink:href="#m28171de022" x="265.275227" y="342.05096" style="fill: #1f77b4; stroke: #1f77b4"/>
     <use xlink:href="#m28171de022" x="324.733864" y="327.02227" style="fill: #1f77b4; stroke: #1f77b4"/>
     <use xlink:href="#m28171de022" x="106.718864" y="296.927297" style="fill: #1f77b4; stroke: #1f77b4"/>
     <use xlink:href="#m28171de022" x="384.1925" y="317.992462" style="fill: #1f77b4; stroke: #1f77b4"/>
     <use xlink:href="#m28171de022" x="166.1775" y="361.202473" style="fill: #1f77b4; stroke: #1f77b4"/>
     <use xlink:href="#m28171de022" x="205.816591" y="328.582745" style="fill: #1f77b4; stroke: #1f77b4"/>
     <use xlink:href="#m28171de022" x="146.357955" y="363.95738" style="fill: #1f77b4; stroke: #1f77b4"/>
     <use xlink:href="#m28171de022" x="185.997045" y="324.623097" style="fill: #1f77b4; stroke: #1f77b4"/>
     <use xlink:href="#m28171de022" x="304.914318" y="344.910582" style="fill: #1f77b4; stroke: #1f77b4"/>
     <use xlink:href="#m28171de022" x="126.538409" y="320.682508" style="fill: #1f77b4; stroke: #1f77b4"/>
     <use xlink:href="#m28171de022" x="344.553409" y="350.61219" style="fill: #1f77b4; stroke: #1f77b4"/>
     <use xlink:href="#m28171de022" x="364.372955" y="354.571838" style="fill: #1f77b4; stroke: #1f77b4"/>
    </g>
   </g>
   <g id="PathCollection_8">
    <g clip-path="url(#pbdf8aea564)">
     <use xlink:href="#m83c7f35c1a" x="285.094773" y="337.143975" style="fill: #ff7f0e; stroke: #ff7f0e"/>
     <use xlink:href="#m83c7f35c1a" x="245.455682" y="334.284353" style="fill: #ff7f0e; stroke: #ff7f0e"/>
     <use xlink:href="#m83c7f35c1a" x="463.470682" y="349.095938" style="fill: #ff7f0e; stroke: #ff7f0e"/>
     <use xlink:href="#m83c7f35c1a" x="404.012045" y="315.237555" style="fill: #ff7f0e; stroke: #ff7f0e"/>
     <use xlink:href="#m83c7f35c1a" x="86.899318" y="330.098997" style="fill: #ff7f0e; stroke: #ff7f0e"/>
    </g>
   </g>
   <g id="FillBetweenPolyCollection_3">
    <defs>
     <path id="mab422c8ed9" d="M 76.989545 -135.690502 
L 76.989545 -49.912111 
L 80.993494 -50.102543 
L 84.997443 -50.37277 
L 89.001392 -50.737272 
L 93.00534 -51.19181 
L 97.009288 -51.695616 
L 101.013238 -52.163076 
L 105.017184 -52.485724 
L 109.021134 -52.586261 
L 113.025084 -52.463012 
L 117.02903 -52.175593 
L 121.03298 -51.784252 
L 125.03693 -51.308696 
L 129.040877 -50.743859 
L 133.044823 -50.10358 
L 137.048776 -49.441587 
L 141.052723 -48.835288 
L 145.056669 -48.353402 
L 149.060622 -48.030796 
L 153.064569 -47.864123 
L 157.068515 -47.830351 
L 161.072468 -47.913171 
L 165.076415 -48.113348 
L 169.080362 -48.434261 
L 173.084314 -48.85812 
L 177.088255 -49.334247 
L 181.092208 -49.788513 
L 185.09616 -50.149888 
L 189.100101 -50.380565 
L 193.104054 -50.487185 
L 197.108006 -50.499889 
L 201.111947 -50.438593 
L 205.1159 -50.301557 
L 209.119852 -50.085387 
L 213.123793 -49.810218 
L 217.127746 -49.522051 
L 221.131699 -49.273551 
L 225.135639 -49.102949 
L 229.139592 -49.023431 
L 233.143545 -49.023738 
L 237.147485 -49.07654 
L 241.151438 -49.150858 
L 245.155391 -49.223088 
L 249.159332 -49.281721 
L 253.163284 -49.325466 
L 257.167237 -49.357757 
L 261.171178 -49.381136 
L 265.17513 -49.395368 
L 269.179083 -49.400478 
L 273.183024 -49.399444 
L 277.186988 -49.3959 
L 281.190917 -49.390865 
L 285.19487 -49.383661 
L 289.198822 -49.375679 
L 293.202751 -49.373209 
L 297.206728 -49.38716 
L 301.210657 -49.429622 
L 305.214609 -49.509421 
L 309.218562 -49.628158 
L 313.222515 -49.774426 
L 317.226467 -49.916707 
L 321.230396 -50.005176 
L 325.234372 -49.991598 
L 329.238301 -49.858235 
L 333.242254 -49.630738 
L 337.246207 -49.362636 
L 341.250136 -49.10733 
L 345.254112 -48.900027 
L 349.258041 -48.756754 
L 353.261994 -48.684224 
L 357.265946 -48.691082 
L 361.269899 -48.792326 
L 365.273852 -49.002123 
L 369.277781 -49.317863 
L 373.281757 -49.704921 
L 377.285686 -50.0928 
L 381.289638 -50.391393 
L 385.293591 -50.526914 
L 389.29752 -50.477535 
L 393.301496 -50.27804 
L 397.305425 -49.988636 
L 401.309378 -49.658186 
L 405.313331 -49.309498 
L 409.317283 -48.9468 
L 413.321236 -48.570985 
L 417.325165 -48.189616 
L 421.329118 -47.815751 
L 425.33307 -47.459911 
L 429.337023 -47.128041 
L 433.340975 -46.834127 
L 437.344904 -46.617756 
L 441.348857 -46.541818 
L 445.35281 -46.658104 
L 449.356762 -46.965464 
L 453.360715 -47.401074 
L 457.364668 -47.873407 
L 461.36862 -48.305614 
L 465.372549 -48.657396 
L 469.376502 -48.921534 
L 473.380455 -49.109534 
L 473.380455 -134.887927 
L 473.380455 -134.887927 
L 469.376502 -134.695812 
L 465.372549 -134.423213 
L 461.36862 -134.05529 
L 457.364668 -133.595682 
L 453.360715 -133.084177 
L 449.356762 -132.604819 
L 445.35281 -132.263641 
L 441.348857 -132.134254 
L 437.344904 -132.21287 
L 433.340975 -132.43213 
L 429.337023 -132.721979 
L 425.33307 -133.052977 
L 421.329118 -133.425811 
L 417.325165 -133.835727 
L 413.321236 -134.258814 
L 409.317283 -134.667135 
L 405.313331 -135.045404 
L 401.309378 -135.390755 
L 397.305425 -135.699268 
L 393.301496 -135.951621 
L 389.29752 -136.109405 
L 385.293591 -136.128263 
L 381.289638 -135.982733 
L 377.285686 -135.687214 
L 373.281757 -135.299423 
L 369.277781 -134.903631 
L 365.273852 -134.580009 
L 361.269899 -134.373167 
L 357.265946 -134.28107 
L 353.261994 -134.276492 
L 349.258041 -134.341154 
L 345.254112 -134.477421 
L 341.250136 -134.688443 
L 337.246207 -134.952951 
L 333.242254 -135.222829 
L 329.238301 -135.442248 
L 325.234372 -135.569168 
L 321.230396 -135.587372 
L 317.226467 -135.508906 
L 313.222515 -135.369883 
L 309.218562 -135.219922 
L 305.214609 -135.104954 
L 301.210657 -135.048784 
L 297.206728 -135.04593 
L 293.202751 -135.072308 
L 289.198822 -135.102769 
L 285.19487 -135.120909 
L 281.190917 -135.119519 
L 277.186988 -135.098462 
L 273.183024 -135.064374 
L 269.179083 -135.030492 
L 265.17513 -135.011387 
L 261.171178 -135.012537 
L 257.167237 -135.024656 
L 253.163284 -135.029687 
L 249.159332 -135.011241 
L 245.155391 -134.960275 
L 241.151438 -134.876952 
L 237.147485 -134.773838 
L 233.143545 -134.680373 
L 229.139592 -134.64093 
L 225.135639 -134.697867 
L 221.131699 -134.86547 
L 217.127746 -135.117584 
L 213.123793 -135.401999 
L 209.119852 -135.667118 
L 205.1159 -135.87921 
L 201.111947 -136.023092 
L 197.108006 -136.092175 
L 193.104054 -136.077124 
L 189.100101 -135.961252 
L 185.09616 -135.727399 
L 181.092208 -135.373391 
L 177.088255 -134.92665 
L 173.084314 -134.447642 
L 169.080362 -134.014533 
L 165.076415 -133.691008 
L 161.072468 -133.498542 
L 157.068515 -133.422893 
L 153.064569 -133.453235 
L 149.060622 -133.610687 
L 145.056669 -133.931255 
L 141.052723 -134.42117 
L 137.048776 -135.034276 
L 133.044823 -135.692347 
L 129.040877 -136.323574 
L 125.03693 -136.887199 
L 121.03298 -137.371647 
L 117.02903 -137.770764 
L 113.025084 -138.056918 
L 109.021134 -138.178182 
L 105.017184 -138.091038 
L 101.013238 -137.802332 
L 97.009288 -137.378673 
L 93.00534 -136.914063 
L 89.001392 -136.486937 
L 84.997443 -136.138581 
L 80.993494 -135.876817 
L 76.989545 -135.690502 
z
" style="stroke: #1f77b4; stroke-opacity: 0.2"/>
    </defs>
    <g clip-path="url(#pbdf8aea564)">
     <use xlink:href="#mab422c8ed9" x="0" y="432" style="fill: #1f77b4; fill-opacity: 0.2; stroke: #1f77b4; stroke-opacity: 0.2"/>
    </g>
   </g>
   <g id="matplotlib.axis_5">
    <g id="xtick_11">
     <g id="line2d_24">
      <g>
       <use xlink:href="#mad116c1064" x="116.628636" y="390.04" style="stroke: #000000; stroke-width: 0.8"/>
      </g>
     </g>
     <g id="text_17">
      <!-- −400 -->
      <g transform="translate(102.895043 404.638437) scale(0.1 -0.1)">
       <defs>
        <path id="DejaVuSans-2212" d="M 678 2272 
L 4684 2272 
L 4684 1741 
L 678 1741 
L 678 2272 
z
" transform="scale(0.015625)"/>
        <path id="DejaVuSans-34" d="M 2419 4116 
L 825 1625 
L 2419 1625 
L 2419 4116 
z
M 2253 4666 
L 3047 4666 
L 3047 1625 
L 3713 1625 
L 3713 1100 
L 3047 1100 
L 3047 0 
L 2419 0 
L 2419 1100 
L 313 1100 
L 313 1709 
L 2253 4666 
z
" transform="scale(0.015625)"/>
       </defs>
       <use xlink:href="#DejaVuSans-2212"/>
       <use xlink:href="#DejaVuSans-34" transform="translate(83.789062 0)"/>
       <use xlink:href="#DejaVuSans-30" transform="translate(147.412109 0)"/>
       <use xlink:href="#DejaVuSans-30" transform="translate(211.035156 0)"/>
      </g>
     </g>
    </g>
    <g id="xtick_12">
     <g id="line2d_25">
      <g>
       <use xlink:href="#mad116c1064" x="195.906818" y="390.04" style="stroke: #000000; stroke-width: 0.8"/>
      </g>
     </g>
     <g id="text_18">
      <!-- −200 -->
      <g transform="translate(182.173224 404.638437) scale(0.1 -0.1)">
       <use xlink:href="#DejaVuSans-2212"/>
       <use xlink:href="#DejaVuSans-32" transform="translate(83.789062 0)"/>
       <use xlink:href="#DejaVuSans-30" transform="translate(147.412109 0)"/>
       <use xlink:href="#DejaVuSans-30" transform="translate(211.035156 0)"/>
      </g>
     </g>
    </g>
    <g id="xtick_13">
     <g id="line2d_26">
      <g>
       <use xlink:href="#mad116c1064" x="275.185" y="390.04" style="stroke: #000000; stroke-width: 0.8"/>
      </g>
     </g>
     <g id="text_19">
      <!-- 0 -->
      <g transform="translate(272.00375 404.638437) scale(0.1 -0.1)">
       <use xlink:href="#DejaVuSans-30"/>
      </g>
     </g>
    </g>
    <g id="xtick_14">
     <g id="line2d_27">
      <g>
       <use xlink:href="#mad116c1064" x="354.463182" y="390.04" style="stroke: #000000; stroke-width: 0.8"/>
      </g>
     </g>
     <g id="text_20">
      <!-- 200 -->
      <g transform="translate(344.919432 404.638437) scale(0.1 -0.1)">
       <use xlink:href="#DejaVuSans-32"/>
       <use xlink:href="#DejaVuSans-30" transform="translate(63.623047 0)"/>
       <use xlink:href="#DejaVuSans-30" transform="translate(127.246094 0)"/>
      </g>
     </g>
    </g>
    <g id="xtick_15">
     <g id="line2d_28">
      <g>
       <use xlink:href="#mad116c1064" x="433.741364" y="390.04" style="stroke: #000000; stroke-width: 0.8"/>
      </g>
     </g>
     <g id="text_21">
      <!-- 400 -->
      <g transform="translate(424.197614 404.638437) scale(0.1 -0.1)">
       <use xlink:href="#DejaVuSans-34"/>
       <use xlink:href="#DejaVuSans-30" transform="translate(63.623047 0)"/>
       <use xlink:href="#DejaVuSans-30" transform="translate(127.246094 0)"/>
      </g>
     </g>
    </g>
    <g id="text_22">
     <!-- x -->
     <g transform="translate(272.225625 418.316562) scale(0.1 -0.1)">
      <defs>
       <path id="DejaVuSans-78" d="M 3513 3500 
L 2247 1797 
L 3578 0 
L 2900 0 
L 1881 1375 
L 863 0 
L 184 0 
L 1544 1831 
L 300 3500 
L 978 3500 
L 1906 2253 
L 2834 3500 
L 3513 3500 
z
" transform="scale(0.015625)"/>
      </defs>
      <use xlink:href="#DejaVuSans-78"/>
     </g>
    </g>
   </g>
   <g id="matplotlib.axis_6">
    <g id="ytick_8">
     <g id="line2d_29">
      <g>
       <use xlink:href="#m31886faf55" x="57.17" y="382.47766" style="stroke: #000000; stroke-width: 0.8"/>
      </g>
     </g>
     <g id="text_23">
      <!-- 0 -->
      <g transform="translate(43.8075 386.276879) scale(0.1 -0.1)">
       <use xlink:href="#DejaVuSans-30"/>
      </g>
     </g>
    </g>
    <g id="ytick_9">
     <g id="line2d_30">
      <g>
       <use xlink:href="#m31886faf55" x="57.17" y="362.008952" style="stroke: #000000; stroke-width: 0.8"/>
      </g>
     </g>
     <g id="text_24">
      <!-- 200 -->
      <g transform="translate(31.0825 365.808171) scale(0.1 -0.1)">
       <use xlink:href="#DejaVuSans-32"/>
       <use xlink:href="#DejaVuSans-30" transform="translate(63.623047 0)"/>
       <use xlink:href="#DejaVuSans-30" transform="translate(127.246094 0)"/>
      </g>
     </g>
    </g>
    <g id="ytick_10">
     <g id="line2d_31">
      <g>
       <use xlink:href="#m31886faf55" x="57.17" y="341.540245" style="stroke: #000000; stroke-width: 0.8"/>
      </g>
     </g>
     <g id="text_25">
      <!-- 400 -->
      <g transform="translate(31.0825 345.339463) scale(0.1 -0.1)">
       <use xlink:href="#DejaVuSans-34"/>
       <use xlink:href="#DejaVuSans-30" transform="translate(63.623047 0)"/>
       <use xlink:href="#DejaVuSans-30" transform="translate(127.246094 0)"/>
      </g>
     </g>
    </g>
    <g id="ytick_11">
     <g id="line2d_32">
      <g>
       <use xlink:href="#m31886faf55" x="57.17" y="321.071537" style="stroke: #000000; stroke-width: 0.8"/>
      </g>
     </g>
     <g id="text_26">
      <!-- 600 -->
      <g transform="translate(31.0825 324.870756) scale(0.1 -0.1)">
       <defs>
        <path id="DejaVuSans-36" d="M 2113 2584 
Q 1688 2584 1439 2293 
Q 1191 2003 1191 1497 
Q 1191 994 1439 701 
Q 1688 409 2113 409 
Q 2538 409 2786 701 
Q 3034 994 3034 1497 
Q 3034 2003 2786 2293 
Q 2538 2584 2113 2584 
z
M 3366 4563 
L 3366 3988 
Q 3128 4100 2886 4159 
Q 2644 4219 2406 4219 
Q 1781 4219 1451 3797 
Q 1122 3375 1075 2522 
Q 1259 2794 1537 2939 
Q 1816 3084 2150 3084 
Q 2853 3084 3261 2657 
Q 3669 2231 3669 1497 
Q 3669 778 3244 343 
Q 2819 -91 2113 -91 
Q 1303 -91 875 529 
Q 447 1150 447 2328 
Q 447 3434 972 4092 
Q 1497 4750 2381 4750 
Q 2619 4750 2861 4703 
Q 3103 4656 3366 4563 
z
" transform="scale(0.015625)"/>
       </defs>
       <use xlink:href="#DejaVuSans-36"/>
       <use xlink:href="#DejaVuSans-30" transform="translate(63.623047 0)"/>
       <use xlink:href="#DejaVuSans-30" transform="translate(127.246094 0)"/>
      </g>
     </g>
    </g>
    <g id="ytick_12">
     <g id="line2d_33">
      <g>
       <use xlink:href="#m31886faf55" x="57.17" y="300.602829" style="stroke: #000000; stroke-width: 0.8"/>
      </g>
     </g>
     <g id="text_27">
      <!-- 800 -->
      <g transform="translate(31.0825 304.402048) scale(0.1 -0.1)">
       <defs>
        <path id="DejaVuSans-38" d="M 2034 2216 
Q 1584 2216 1326 1975 
Q 1069 1734 1069 1313 
Q 1069 891 1326 650 
Q 1584 409 2034 409 
Q 2484 409 2743 651 
Q 3003 894 3003 1313 
Q 3003 1734 2745 1975 
Q 2488 2216 2034 2216 
z
M 1403 2484 
Q 997 2584 770 2862 
Q 544 3141 544 3541 
Q 544 4100 942 4425 
Q 1341 4750 2034 4750 
Q 2731 4750 3128 4425 
Q 3525 4100 3525 3541 
Q 3525 3141 3298 2862 
Q 3072 2584 2669 2484 
Q 3125 2378 3379 2068 
Q 3634 1759 3634 1313 
Q 3634 634 3220 271 
Q 2806 -91 2034 -91 
Q 1263 -91 848 271 
Q 434 634 434 1313 
Q 434 1759 690 2068 
Q 947 2378 1403 2484 
z
M 1172 3481 
Q 1172 3119 1398 2916 
Q 1625 2713 2034 2713 
Q 2441 2713 2670 2916 
Q 2900 3119 2900 3481 
Q 2900 3844 2670 4047 
Q 2441 4250 2034 4250 
Q 1625 4250 1398 4047 
Q 1172 3844 1172 3481 
z
" transform="scale(0.015625)"/>
       </defs>
       <use xlink:href="#DejaVuSans-38"/>
       <use xlink:href="#DejaVuSans-30" transform="translate(63.623047 0)"/>
       <use xlink:href="#DejaVuSans-30" transform="translate(127.246094 0)"/>
      </g>
     </g>
    </g>
    <g id="text_28">
     <!-- y -->
     <g transform="translate(25.002813 342.599375) rotate(-90) scale(0.1 -0.1)">
      <use xlink:href="#DejaVuSans-79"/>
     </g>
    </g>
   </g>
   <g id="line2d_34">
    <path d="M 76.989545 358.079601 
L 80.993494 346.718638 
L 84.997443 335.337772 
L 89.001392 324.537488 
L 93.00534 314.893438 
L 97.009288 306.923927 
L 101.013238 301.058841 
L 105.017184 297.611884 
L 109.021134 296.758013 
L 113.025084 298.517937 
L 117.02903 302.751146 
L 121.03298 309.158759 
L 125.03693 317.296795 
L 129.040877 326.600017 
L 133.044823 336.415719 
L 137.048776 346.045989 
L 141.052723 354.796238 
L 145.056669 362.027202 
L 149.060622 367.206507 
L 153.064569 369.955865 
L 157.068515 370.089539 
L 161.072468 367.639687 
L 165.076415 362.864908 
L 169.080362 356.239002 
L 173.084314 348.418492 
L 177.088255 340.189246 
L 181.092208 332.394407 
L 185.09616 325.849024 
L 189.100101 321.248195 
L 193.104054 319.078617 
L 197.108006 319.544856 
L 201.111947 322.521993 
L 205.1159 327.546192 
L 209.119852 333.851665 
L 213.123793 340.458321 
L 217.127746 346.307305 
L 221.131699 350.432447 
L 225.135639 352.1459 
L 229.139592 351.20514 
L 233.143545 347.920464 
L 237.147485 343.159083 
L 241.151438 338.208048 
L 245.155391 334.479842 
L 249.159332 333.084999 
L 253.163284 334.361478 
L 257.167237 337.537183 
L 261.171178 340.794881 
L 265.17513 342.056492 
L 269.179083 340.655477 
L 273.183024 339.194427 
L 277.186988 340.000508 
L 281.190917 338.539458 
L 285.19487 337.138443 
L 289.198822 338.400054 
L 293.202751 341.657741 
L 297.206728 344.833464 
L 301.210657 346.109937 
L 305.214609 344.715093 
L 309.218562 340.986887 
L 313.222515 336.035852 
L 317.226467 331.274459 
L 321.230396 327.989802 
L 325.234372 327.049036 
L 329.238301 328.762488 
L 333.242254 332.88763 
L 337.246207 338.736614 
L 341.250136 345.343251 
L 345.254112 351.648761 
L 349.258041 356.67293 
L 353.261994 359.650079 
L 357.265946 360.116318 
L 361.269899 357.94674 
L 365.273852 353.345894 
L 369.277781 346.80055 
L 373.281757 339.005665 
L 377.285686 330.776443 
L 381.289638 322.955934 
L 385.293591 316.330019 
L 389.29752 311.555259 
L 393.301496 309.105393 
L 397.305425 309.239068 
L 401.309378 311.988428 
L 405.313331 317.167733 
L 409.317283 324.398709 
L 413.321236 333.148974 
L 417.325165 342.779187 
L 421.329118 352.594904 
L 425.33307 361.89814 
L 429.337023 370.036181 
L 433.340975 376.443797 
L 437.344904 380.676989 
L 441.348857 382.436921 
L 445.35281 381.583055 
L 449.356762 378.136094 
L 453.360715 372.271003 
L 457.364668 364.301481 
L 461.36862 354.657416 
L 465.372549 343.857186 
L 469.376502 332.476308 
L 473.380455 321.115334 
" clip-path="url(#pbdf8aea564)" style="fill: none; stroke-dasharray: 5.55,2.4; stroke-dashoffset: 0; stroke: #000000; stroke-width: 1.5"/>
   </g>
   <g id="line2d_35">
    <path d="M 76.989545 339.198693 
L 80.993494 339.01032 
L 84.997443 338.744325 
L 89.001392 338.387895 
L 93.00534 337.947063 
L 97.009288 337.462855 
L 101.013238 337.017296 
L 105.017184 336.711619 
L 109.021134 336.617779 
L 113.025084 336.740035 
L 117.02903 337.026821 
L 121.03298 337.42205 
L 125.03693 337.902052 
L 129.040877 338.466283 
L 133.044823 339.102036 
L 137.048776 339.762069 
L 141.052723 340.371771 
L 145.056669 340.857672 
L 149.060622 341.179259 
L 153.064569 341.341321 
L 157.068515 341.373378 
L 161.072468 341.294144 
L 165.076415 341.097822 
L 169.080362 340.775603 
L 173.084314 340.347119 
L 177.088255 339.869551 
L 181.092208 339.419048 
L 185.09616 339.061356 
L 189.100101 338.829091 
L 193.104054 338.717845 
L 197.108006 338.703968 
L 201.111947 338.769157 
L 205.1159 338.909616 
L 209.119852 339.123747 
L 213.123793 339.393891 
L 217.127746 339.680182 
L 221.131699 339.930489 
L 225.135639 340.099592 
L 229.139592 340.167819 
L 233.143545 340.147944 
L 237.147485 340.074811 
L 241.151438 339.986095 
L 245.155391 339.908319 
L 249.159332 339.853519 
L 253.163284 339.822424 
L 257.167237 339.808793 
L 261.171178 339.803163 
L 265.17513 339.796623 
L 269.179083 339.784515 
L 273.183024 339.768091 
L 277.186988 339.752819 
L 281.190917 339.744808 
L 285.19487 339.747715 
L 289.198822 339.760776 
L 293.202751 339.777241 
L 297.206728 339.783455 
L 301.210657 339.760797 
L 305.214609 339.692813 
L 309.218562 339.57596 
L 313.222515 339.427845 
L 317.226467 339.287193 
L 321.230396 339.203726 
L 325.234372 339.219617 
L 329.238301 339.349759 
L 333.242254 339.573217 
L 337.246207 339.842207 
L 341.250136 340.102113 
L 345.254112 340.311276 
L 349.258041 340.451046 
L 353.261994 340.519642 
L 357.265946 340.513924 
L 361.269899 340.417254 
L 365.273852 340.208934 
L 369.277781 339.889253 
L 373.281757 339.497828 
L 377.285686 339.109993 
L 381.289638 338.812937 
L 385.293591 338.672411 
L 389.29752 338.70653 
L 393.301496 338.885169 
L 397.305425 339.156048 
L 401.309378 339.475529 
L 405.313331 339.822549 
L 409.317283 340.193032 
L 413.321236 340.585101 
L 417.325165 340.987329 
L 421.329118 341.379219 
L 425.33307 341.743556 
L 429.337023 342.07499 
L 433.340975 342.366872 
L 437.344904 342.584687 
L 441.348857 342.661964 
L 445.35281 342.539127 
L 449.356762 342.214858 
L 453.360715 341.757375 
L 457.364668 341.265456 
L 461.36862 340.819548 
L 465.372549 340.459695 
L 469.376502 340.191327 
L 473.380455 340.001269 
" clip-path="url(#pbdf8aea564)" style="fill: none; stroke: #1f77b4; stroke-width: 1.5; stroke-linecap: square"/>
   </g>
   <g id="patch_15">
    <path d="M 57.17 390.04 
L 57.17 289.24 
" style="fill: none; stroke: #000000; stroke-width: 0.8; stroke-linejoin: miter; stroke-linecap: square"/>
   </g>
   <g id="patch_16">
    <path d="M 493.2 390.04 
L 493.2 289.24 
" style="fill: none; stroke: #000000; stroke-width: 0.8; stroke-linejoin: miter; stroke-linecap: square"/>
   </g>
   <g id="patch_17">
    <path d="M 57.17 390.04 
L 493.2 390.04 
" style="fill: none; stroke: #000000; stroke-width: 0.8; stroke-linejoin: miter; stroke-linecap: square"/>
   </g>
   <g id="patch_18">
    <path d="M 57.17 289.24 
L 493.2 289.24 
" style="fill: none; stroke: #000000; stroke-width: 0.8; stroke-linejoin: miter; stroke-linecap: square"/>
   </g>
   <g id="text_29">
    <!-- RQKernel -->
    <g transform="translate(247.443438 283.24) scale(0.12 -0.12)">
     <defs>
      <path id="DejaVuSans-51" d="M 2522 4238 
Q 1834 4238 1429 3725 
Q 1025 3213 1025 2328 
Q 1025 1447 1429 934 
Q 1834 422 2522 422 
Q 3209 422 3611 934 
Q 4013 1447 4013 2328 
Q 4013 3213 3611 3725 
Q 3209 4238 2522 4238 
z
M 3406 84 
L 4238 -825 
L 3475 -825 
L 2784 -78 
Q 2681 -84 2626 -87 
Q 2572 -91 2522 -91 
Q 1538 -91 948 567 
Q 359 1225 359 2328 
Q 359 3434 948 4092 
Q 1538 4750 2522 4750 
Q 3503 4750 4090 4092 
Q 4678 3434 4678 2328 
Q 4678 1516 4351 937 
Q 4025 359 3406 84 
z
" transform="scale(0.015625)"/>
     </defs>
     <use xlink:href="#DejaVuSans-52"/>
     <use xlink:href="#DejaVuSans-51" transform="translate(69.482422 0)"/>
     <use xlink:href="#DejaVuSans-4b" transform="translate(148.193359 0)"/>
     <use xlink:href="#DejaVuSans-65" transform="translate(208.769531 0)"/>
     <use xlink:href="#DejaVuSans-72" transform="translate(270.292969 0)"/>
     <use xlink:href="#DejaVuSans-6e" transform="translate(309.65625 0)"/>
     <use xlink:href="#DejaVuSans-65" transform="translate(373.035156 0)"/>
     <use xlink:href="#DejaVuSans-6c" transform="translate(434.558594 0)"/>
    </g>
   </g>
  </g>
 </g>
 <defs>
  <clipPath id="pa6c941ea78">
   <rect x="57.17" y="26.88" width="436.03" height="100.8"/>
  </clipPath>
  <clipPath id="p4fc4ad2a9b">
   <rect x="57.17" y="158.06" width="436.03" height="100.8"/>
  </clipPath>
  <clipPath id="pbdf8aea564">
   <rect x="57.17" y="289.24" width="436.03" height="100.8"/>
  </clipPath>
 </defs>
</svg>
