<?xml version="1.0" encoding="utf-8" standalone="no"?>
<!DOCTYPE svg PUBLIC "-//W3C//DTD SVG 1.1//EN"
  "http://www.w3.org/Graphics/SVG/1.1/DTD/svg11.dtd">
<svg xmlns:xlink="http://www.w3.org/1999/xlink" width="504pt" height="432pt" viewBox="0 0 504 432" xmlns="http://www.w3.org/2000/svg" version="1.1">
 <metadata>
  <rdf:RDF xmlns:dc="http://purl.org/dc/elements/1.1/" xmlns:cc="http://creativecommons.org/ns#" xmlns:rdf="http://www.w3.org/1999/02/22-rdf-syntax-ns#">
   <cc:Work>
    <dc:type rdf:resource="http://purl.org/dc/dcmitype/StillImage"/>
    <dc:date>2026-03-05T14:41:52.101323</dc:date>
    <dc:format>image/svg+xml</dc:format>
    <dc:creator>
     <cc:Agent>
      <dc:title>Matplotlib v3.10.8, https://matplotlib.org/</dc:title>
     </cc:Agent>
    </dc:creator>
   </cc:Work>
  </rdf:RDF>
 </metadata>
 <defs>
  <style type="text/css">*{stroke-linejoin: round; stroke-linecap: butt}</style>
 </defs>
 <g id="figure_1">
  <g id="patch_1">
   <path d="M 0 432 
L 504 432 
L 504 0 
L 0 0 
z
" style="fill: #ffffff"/>
  </g>
  <g id="axes_1">
   <g id="patch_2">
    <path d="M 57.17 127.68 
L 493.2 127.68 
L 493.2 26.88 
L 57.17 26.88 
z
" style="fill: #ffffff"/>
   </g>
   <g id="PathCollection_1">
    <defs>
     <path id="ma95ff2dff2" d="M 0 3 
C 0.795609 3 1.55874 2.683901 2.12132 2.12132 
C 2.683901 1.55874 3 0.795609 3 0 
C 3 -0.795609 2.683901 -1.55874 2.12132 -2.12132 
C 1.55874 -2.683901 0.795609 -3 0 -3 
C -0.795609 -3 -1.55874 -2.683901 -2.12132 -2.12132 
C -2.683901 -1.55874 -3 -0.795609 -3 0 
C -3 0.795609 -2.683901 1.55874 -2.12132 2.12132 
C -1.55874 2.683901 -0.795609 3 0 3 
z
" style="stroke: #1f77b4"/>
    </defs>
    <g clip-path="url(#pb47a88e70a)">
     <use xlink:href="#ma95ff2dff2" x="423.831591" y="91.806836" style="fill: #1f77b4; stroke: #1f77b4"/>
     <use xlink:href="#ma95ff2dff2" x="443.651136" y="110.273373" style="fill: #1f77b4; stroke: #1f77b4"/>
     <use xlink:href="#ma95ff2dff2" x="225.636136" y="86.878509" style="fill: #1f77b4; stroke: #1f77b4"/>
     <use xlink:href="#ma95ff2dff2" x="265.275227" y="79.010221" style="fill: #1f77b4; stroke: #1f77b4"/>
     <use xlink:href="#ma95ff2dff2" x="324.733864" y="67.3274" style="fill: #1f77b4; stroke: #1f77b4"/>
     <use xlink:href="#ma95ff2dff2" x="106.718864" y="43.932537" style="fill: #1f77b4; stroke: #1f77b4"/>
     <use xlink:href="#ma95ff2dff2" x="384.1925" y="60.307918" style="fill: #1f77b4; stroke: #1f77b4"/>
     <use xlink:href="#ma95ff2dff2" x="166.1775" y="93.897992" style="fill: #1f77b4; stroke: #1f77b4"/>
     <use xlink:href="#ma95ff2dff2" x="205.816591" y="68.540463" style="fill: #1f77b4; stroke: #1f77b4"/>
     <use xlink:href="#ma95ff2dff2" x="146.357955" y="96.039567" style="fill: #1f77b4; stroke: #1f77b4"/>
     <use xlink:href="#ma95ff2dff2" x="185.997045" y="65.462361" style="fill: #1f77b4; stroke: #1f77b4"/>
     <use xlink:href="#ma95ff2dff2" x="304.914318" y="81.233199" style="fill: #1f77b4; stroke: #1f77b4"/>
     <use xlink:href="#ma95ff2dff2" x="126.538409" y="62.399073" style="fill: #1f77b4; stroke: #1f77b4"/>
     <use xlink:href="#ma95ff2dff2" x="344.553409" y="85.665446" style="fill: #1f77b4; stroke: #1f77b4"/>
     <use xlink:href="#ma95ff2dff2" x="364.372955" y="88.743549" style="fill: #1f77b4; stroke: #1f77b4"/>
    </g>
   </g>
   <g id="PathCollection_2">
    <defs>
     <path id="m7d7b56c567" d="M 0 -3 
L -0.673542 -0.927051 
L -2.85317 -0.927051 
L -1.089814 0.354102 
L -1.763356 2.427051 
L -0 1.145898 
L 1.763356 2.427051 
L 1.089814 0.354102 
L 2.85317 -0.927051 
L 0.673542 -0.927051 
z
" style="stroke: #ff7f0e"/>
    </defs>
    <g clip-path="url(#pb47a88e70a)">
     <use xlink:href="#m7d7b56c567" x="285.094773" y="75.195689" style="fill: #ff7f0e; stroke: #ff7f0e"/>
     <use xlink:href="#m7d7b56c567" x="245.455682" y="72.97271" style="fill: #ff7f0e; stroke: #ff7f0e"/>
     <use xlink:href="#m7d7b56c567" x="463.470682" y="84.48676" style="fill: #ff7f0e; stroke: #ff7f0e"/>
     <use xlink:href="#m7d7b56c567" x="404.012045" y="58.166343" style="fill: #ff7f0e; stroke: #ff7f0e"/>
     <use xlink:href="#m7d7b56c567" x="86.899318" y="69.71915" style="fill: #ff7f0e; stroke: #ff7f0e"/>
    </g>
   </g>
   <g id="FillBetweenPolyCollection_1">
    <defs>
     <path id="m92424b0cfc" d="M 76.989545 -390.935073 
L 76.989545 -325.102439 
L 80.993494 -327.15595 
L 84.997443 -330.387946 
L 89.001392 -335.369694 
L 93.00534 -342.800372 
L 97.009288 -353.307755 
L 101.013238 -366.909901 
L 105.017184 -381.966752 
L 109.021134 -381.308647 
L 113.025084 -370.529494 
L 117.02903 -363.995588 
L 121.03298 -363.288272 
L 125.03693 -367.352311 
L 129.040877 -358.611426 
L 133.044823 -343.361382 
L 137.048776 -333.326408 
L 141.052723 -329.963331 
L 145.056669 -333.422103 
L 149.060622 -326.800678 
L 153.064569 -318.457768 
L 157.068515 -316.956119 
L 161.072468 -322.271025 
L 165.076415 -333.832938 
L 169.080362 -333.54686 
L 173.084314 -332.382047 
L 177.088255 -337.73094 
L 181.092208 -348.757884 
L 185.09616 -363.003784 
L 189.100101 -359.607149 
L 193.104054 -352.693834 
L 197.108006 -350.631322 
L 201.111947 -354.167217 
L 205.1159 -361.654791 
L 209.119852 -351.680182 
L 213.123793 -340.465841 
L 217.127746 -334.881706 
L 221.131699 -336.016745 
L 225.135639 -343.425422 
L 229.139592 -334.516685 
L 233.143545 -326.301701 
L 237.147485 -322.029235 
L 241.151438 -320.54332 
L 245.155391 -320.84936 
L 249.159332 -322.554044 
L 253.163284 -325.912938 
L 257.167237 -331.678154 
L 261.171178 -340.640929 
L 265.17513 -351.816391 
L 269.179083 -341.32376 
L 273.183024 -332.374379 
L 277.186988 -326.713618 
L 281.190917 -323.61043 
L 285.19487 -322.339239 
L 289.198822 -322.651289 
L 293.202751 -324.915281 
L 297.206728 -330.042345 
L 301.210657 -339.026742 
L 305.214609 -349.456942 
L 309.218562 -342.044347 
L 313.222515 -340.255137 
L 317.226467 -344.822831 
L 321.230396 -354.428201 
L 325.234372 -362.786852 
L 329.238301 -351.086068 
L 333.242254 -341.94919 
L 337.246207 -338.159745 
L 341.250136 -340.475407 
L 345.254112 -343.51829 
L 349.258041 -331.570039 
L 353.261994 -325.188264 
L 357.265946 -325.60931 
L 361.269899 -333.06993 
L 365.273852 -341.292034 
L 369.277781 -337.021796 
L 373.281757 -339.298304 
L 377.285686 -347.961336 
L 381.289638 -361.144937 
L 385.293591 -368.523684 
L 389.29752 -356.643154 
L 393.301496 -345.525825 
L 397.305425 -336.880311 
L 401.309378 -330.803618 
L 405.313331 -326.946832 
L 409.317283 -325.123339 
L 413.321236 -325.554834 
L 417.325165 -328.791081 
L 421.329118 -335.090848 
L 425.33307 -334.154874 
L 429.337023 -320.830494 
L 433.340975 -312.481288 
L 437.344904 -310.316664 
L 441.348857 -315.358421 
L 445.35281 -317.169629 
L 449.356762 -310.606763 
L 453.360715 -308.901818 
L 457.364668 -310.157293 
L 461.36862 -312.586358 
L 465.372549 -315.09959 
L 469.376502 -317.206908 
L 473.380455 -318.784796 
L 473.380455 -384.618036 
L 473.380455 -384.618036 
L 469.376502 -382.52649 
L 465.372549 -379.243007 
L 461.36862 -374.197845 
L 457.364668 -366.701292 
L 453.360715 -356.150635 
L 449.356762 -342.576956 
L 445.35281 -327.693339 
L 441.348857 -328.761557 
L 437.344904 -340.168063 
L 433.340975 -347.317124 
L 429.337023 -348.222809 
L 425.33307 -343.248997 
L 421.329118 -350.236254 
L 417.325165 -364.241521 
L 413.321236 -374.741702 
L 409.317283 -382.023157 
L 405.313331 -386.95802 
L 401.309378 -390.171836 
L 397.305425 -391.661787 
L 393.301496 -390.640165 
L 389.29752 -385.657549 
L 385.293591 -375.548712 
L 381.289638 -377.557096 
L 377.285686 -379.14464 
L 373.281757 -373.391428 
L 369.277781 -361.710528 
L 365.273852 -346.889597 
L 361.269899 -349.962729 
L 357.265946 -356.754085 
L 353.261994 -358.828642 
L 349.258041 -355.396187 
L 345.254112 -348.097326 
L 341.250136 -358.298599 
L 337.246207 -369.71501 
L 333.242254 -375.389955 
L 329.238301 -374.141496 
L 325.234372 -366.425838 
L 321.230396 -373.23674 
L 317.226467 -376.976766 
L 313.222515 -373.881562 
L 309.218562 -364.829305 
L 305.214609 -352.341059 
L 301.210657 -360.844077 
L 297.206728 -370.306483 
L 293.202751 -376.988733 
L 289.198822 -380.954803 
L 285.19487 -382.649122 
L 281.190917 -382.278364 
L 277.186988 -379.597288 
L 273.183024 -373.975833 
L 269.179083 -364.846723 
L 265.17513 -354.161115 
L 261.171178 -365.230788 
L 257.167237 -373.998527 
L 253.163284 -379.202983 
L 249.159332 -381.394103 
L 245.155391 -381.146082 
L 241.151438 -378.644702 
L 237.147485 -373.657441 
L 233.143545 -365.803678 
L 229.139592 -355.248203 
L 225.135639 -347.16916 
L 221.131699 -359.614509 
L 217.127746 -368.73283 
L 213.123793 -372.220142 
L 209.119852 -369.558355 
L 205.1159 -366.238733 
L 201.111947 -378.008575 
L 197.108006 -384.275865 
L 193.104054 -383.828003 
L 189.100101 -376.484153 
L 185.09616 -368.591443 
L 181.092208 -373.340946 
L 177.088255 -371.534651 
L 173.084314 -363.059224 
L 169.080362 -349.45759 
L 165.076415 -340.460534 
L 161.072468 -347.587869 
L 157.068515 -350.901521 
L 153.064569 -348.655222 
L 149.060622 -341.729373 
L 145.056669 -341.104276 
L 141.052723 -355.992086 
L 137.048776 -367.392939 
L 133.044823 -373.066906 
L 129.040877 -372.556225 
L 125.03693 -376.111676 
L 121.03298 -390.123527 
L 117.02903 -398.457764 
L 113.025084 -400.21565 
L 109.021134 -394.675451 
L 105.017184 -392.476724 
L 101.013238 -398.856873 
L 97.009288 -400.538182 
L 93.00534 -399.33288 
L 89.001392 -396.97492 
L 84.997443 -394.528282 
L 80.993494 -392.474122 
L 76.989545 -390.935073 
z
" style="stroke: #1f77b4; stroke-opacity: 0.2"/>
    </defs>
    <g clip-path="url(#pb47a88e70a)">
     <use xlink:href="#m92424b0cfc" x="0" y="432" style="fill: #1f77b4; fill-opacity: 0.2; stroke: #1f77b4; stroke-opacity: 0.2"/>
    </g>
   </g>
   <g id="matplotlib.axis_1">
    <g id="xtick_1">
     <g id="line2d_1">
      <defs>
       <path id="me645b4c6fa" d="M 0 0 
L 0 3.5 
" style="stroke: #000000; stroke-width: 0.8"/>
      </defs>
      <g>
       <use xlink:href="#me645b4c6fa" x="116.628636" y="127.68" style="stroke: #000000; stroke-width: 0.8"/>
      </g>
     </g>
    </g>
    <g id="xtick_2">
     <g id="line2d_2">
      <g>
       <use xlink:href="#me645b4c6fa" x="195.906818" y="127.68" style="stroke: #000000; stroke-width: 0.8"/>
      </g>
     </g>
    </g>
    <g id="xtick_3">
     <g id="line2d_3">
      <g>
       <use xlink:href="#me645b4c6fa" x="275.185" y="127.68" style="stroke: #000000; stroke-width: 0.8"/>
      </g>
     </g>
    </g>
    <g id="xtick_4">
     <g id="line2d_4">
      <g>
       <use xlink:href="#me645b4c6fa" x="354.463182" y="127.68" style="stroke: #000000; stroke-width: 0.8"/>
      </g>
     </g>
    </g>
    <g id="xtick_5">
     <g id="line2d_5">
      <g>
       <use xlink:href="#me645b4c6fa" x="433.741364" y="127.68" style="stroke: #000000; stroke-width: 0.8"/>
      </g>
     </g>
    </g>
   </g>
   <g id="matplotlib.axis_2">
    <g id="ytick_1">
     <g id="line2d_6">
      <defs>
       <path id="mcb7bc70cf5" d="M 0 0 
L -3.5 0 
" style="stroke: #000000; stroke-width: 0.8"/>
      </defs>
      <g>
       <use xlink:href="#mcb7bc70cf5" x="57.17" y="110.436637" style="stroke: #000000; stroke-width: 0.8"/>
      </g>
     </g>
     <g id="text_1">
      <!-- 0 -->
      <g transform="translate(43.8075 114.235856) scale(0.1 -0.1)">
       <defs>
        <path id="DejaVuSans-30" d="M 2034 4250 
Q 1547 4250 1301 3770 
Q 1056 3291 1056 2328 
Q 1056 1369 1301 889 
Q 1547 409 2034 409 
Q 2525 409 2770 889 
Q 3016 1369 3016 2328 
Q 3016 3291 2770 3770 
Q 2525 4250 2034 4250 
z
M 2034 4750 
Q 2819 4750 3233 4129 
Q 3647 3509 3647 2328 
Q 3647 1150 3233 529 
Q 2819 -91 2034 -91 
Q 1250 -91 836 529 
Q 422 1150 422 2328 
Q 422 3509 836 4129 
Q 1250 4750 2034 4750 
z
" transform="scale(0.015625)"/>
       </defs>
       <use xlink:href="#DejaVuSans-30"/>
      </g>
     </g>
    </g>
    <g id="ytick_2">
     <g id="line2d_7">
      <g>
       <use xlink:href="#mcb7bc70cf5" x="57.17" y="70.65735" style="stroke: #000000; stroke-width: 0.8"/>
      </g>
     </g>
     <g id="text_2">
      <!-- 500 -->
      <g transform="translate(31.0825 74.456569) scale(0.1 -0.1)">
       <defs>
        <path id="DejaVuSans-35" d="M 691 4666 
L 3169 4666 
L 3169 4134 
L 1269 4134 
L 1269 2991 
Q 1406 3038 1543 3061 
Q 1681 3084 1819 3084 
Q 2600 3084 3056 2656 
Q 3513 2228 3513 1497 
Q 3513 744 3044 326 
Q 2575 -91 1722 -91 
Q 1428 -91 1123 -41 
Q 819 9 494 109 
L 494 744 
Q 775 591 1075 516 
Q 1375 441 1709 441 
Q 2250 441 2565 725 
Q 2881 1009 2881 1497 
Q 2881 1984 2565 2268 
Q 2250 2553 1709 2553 
Q 1456 2553 1204 2497 
Q 953 2441 691 2322 
L 691 4666 
z
" transform="scale(0.015625)"/>
       </defs>
       <use xlink:href="#DejaVuSans-35"/>
       <use xlink:href="#DejaVuSans-30" transform="translate(63.623047 0)"/>
       <use xlink:href="#DejaVuSans-30" transform="translate(127.246094 0)"/>
      </g>
     </g>
    </g>
    <g id="ytick_3">
     <g id="line2d_8">
      <g>
       <use xlink:href="#mcb7bc70cf5" x="57.17" y="30.878062" style="stroke: #000000; stroke-width: 0.8"/>
      </g>
     </g>
     <g id="text_3">
      <!-- 1000 -->
      <g transform="translate(24.72 34.677281) scale(0.1 -0.1)">
       <defs>
        <path id="DejaVuSans-31" d="M 794 531 
L 1825 531 
L 1825 4091 
L 703 3866 
L 703 4441 
L 1819 4666 
L 2450 4666 
L 2450 531 
L 3481 531 
L 3481 0 
L 794 0 
L 794 531 
z
" transform="scale(0.015625)"/>
       </defs>
       <use xlink:href="#DejaVuSans-31"/>
       <use xlink:href="#DejaVuSans-30" transform="translate(63.623047 0)"/>
       <use xlink:href="#DejaVuSans-30" transform="translate(127.246094 0)"/>
       <use xlink:href="#DejaVuSans-30" transform="translate(190.869141 0)"/>
      </g>
     </g>
    </g>
    <g id="text_4">
     <!-- y -->
     <g transform="translate(18.640313 80.239375) rotate(-90) scale(0.1 -0.1)">
      <defs>
       <path id="DejaVuSans-79" d="M 2059 -325 
Q 1816 -950 1584 -1140 
Q 1353 -1331 966 -1331 
L 506 -1331 
L 506 -850 
L 844 -850 
Q 1081 -850 1212 -737 
Q 1344 -625 1503 -206 
L 1606 56 
L 191 3500 
L 800 3500 
L 1894 763 
L 2988 3500 
L 3597 3500 
L 2059 -325 
z
" transform="scale(0.015625)"/>
      </defs>
      <use xlink:href="#DejaVuSans-79"/>
     </g>
    </g>
   </g>
   <g id="line2d_9">
    <path d="M 76.989545 91.470371 
L 80.993494 82.638724 
L 84.997443 73.791605 
L 89.001392 65.395811 
L 93.00534 57.898837 
L 97.009288 51.703595 
L 101.013238 47.144266 
L 105.017184 44.464712 
L 109.021134 43.800941 
L 113.025084 45.169049 
L 117.02903 48.45981 
L 121.03298 53.440882 
L 125.03693 59.767129 
L 129.040877 66.999155 
L 133.044823 74.629566 
L 137.048776 82.115828 
L 141.052723 88.91799 
L 145.056669 94.539109 
L 149.060622 98.565335 
L 153.064569 100.702596 
L 157.068515 100.80651 
L 161.072468 98.902074 
L 165.076415 95.190314 
L 169.080362 90.039548 
L 173.084314 83.960136 
L 177.088255 77.562985 
L 181.092208 71.503527 
L 185.09616 66.415357 
L 189.100101 62.838821 
L 193.104054 61.152261 
L 197.108006 61.5147 
L 201.111947 63.82903 
L 205.1159 67.734681 
L 209.119852 72.636353 
L 213.123793 77.772154 
L 217.127746 82.318967 
L 221.131699 85.525719 
L 225.135639 86.857703 
L 229.139592 86.126386 
L 233.143545 83.572985 
L 237.147485 79.87164 
L 241.151438 76.022865 
L 245.155391 73.124678 
L 249.159332 72.040371 
L 253.163284 73.032665 
L 257.167237 75.501356 
L 261.171178 78.033786 
L 265.17513 79.014522 
L 269.179083 77.925418 
L 273.183024 76.789644 
L 277.186988 77.416266 
L 281.190917 76.280492 
L 285.19487 75.191388 
L 289.198822 76.172124 
L 293.202751 78.704545 
L 297.206728 81.17325 
L 301.210657 82.165539 
L 305.214609 81.081232 
L 309.218562 78.183045 
L 313.222515 74.334269 
L 317.226467 70.632915 
L 321.230396 68.079529 
L 325.234372 67.348208 
L 329.238301 68.68019 
L 333.242254 71.886943 
L 337.246207 76.433755 
L 341.250136 81.569542 
L 345.254112 86.471242 
L 349.258041 90.37687 
L 353.261994 92.69121 
L 357.265946 93.053649 
L 361.269899 91.367089 
L 365.273852 87.790539 
L 369.277781 82.702399 
L 373.281757 76.642906 
L 377.285686 70.245774 
L 381.289638 64.166362 
L 385.293591 59.015589 
L 389.29752 55.303844 
L 393.301496 53.399397 
L 397.305425 53.503312 
L 401.309378 55.640575 
L 405.313331 59.666801 
L 409.317283 65.287929 
L 413.321236 72.090103 
L 417.325165 79.576321 
L 421.329118 87.206744 
L 425.33307 94.438781 
L 429.337023 100.765032 
L 433.340975 105.746106 
L 437.344904 109.036854 
L 441.348857 110.404968 
L 445.35281 109.7412 
L 449.356762 107.061643 
L 453.360715 102.50231 
L 457.364668 96.30706 
L 461.36862 88.810075 
L 465.372549 80.414323 
L 469.376502 71.567195 
L 473.380455 62.735539 
" clip-path="url(#pb47a88e70a)" style="fill: none; stroke-dasharray: 5.55,2.4; stroke-dashoffset: 0; stroke: #000000; stroke-width: 1.5"/>
   </g>
   <g id="line2d_10">
    <path d="M 76.989545 73.981244 
L 80.993494 72.184964 
L 84.997443 69.541886 
L 89.001392 65.827693 
L 93.00534 60.933374 
L 97.009288 55.077031 
L 101.013238 49.116613 
L 105.017184 44.778262 
L 109.021134 44.007951 
L 113.025084 46.627428 
L 117.02903 50.773324 
L 121.03298 55.294101 
L 125.03693 60.268007 
L 129.040877 66.416175 
L 133.044823 73.785856 
L 137.048776 81.640327 
L 141.052723 89.022291 
L 145.056669 94.73681 
L 149.060622 97.734974 
L 153.064569 98.443505 
L 157.068515 98.07118 
L 161.072468 97.070553 
L 165.076415 94.853264 
L 169.080362 90.497775 
L 173.084314 84.279365 
L 177.088255 77.367204 
L 181.092208 70.950585 
L 185.09616 66.202387 
L 189.100101 63.954349 
L 193.104054 63.739081 
L 197.108006 64.546407 
L 201.111947 65.912104 
L 205.1159 68.053238 
L 209.119852 71.380731 
L 213.123793 75.657008 
L 217.127746 80.192732 
L 221.131699 84.184373 
L 225.135639 86.702709 
L 229.139592 87.117556 
L 233.143545 85.947311 
L 237.147485 84.156662 
L 241.151438 82.405989 
L 245.155391 81.002279 
L 249.159332 80.025927 
L 253.163284 79.442039 
L 257.167237 79.161659 
L 261.171178 79.064142 
L 265.17513 79.011247 
L 269.179083 78.914758 
L 273.183024 78.824894 
L 277.186988 78.844547 
L 281.190917 79.055603 
L 285.19487 79.505819 
L 289.198822 80.196954 
L 293.202751 81.047993 
L 297.206728 81.825586 
L 301.210657 82.064591 
L 305.214609 81.101 
L 309.218562 78.563174 
L 313.222515 74.93165 
L 317.226467 71.100201 
L 321.230396 68.16753 
L 325.234372 67.393655 
L 329.238301 69.386218 
L 333.242254 73.330428 
L 337.246207 78.062623 
L 341.250136 82.612997 
L 345.254112 86.192192 
L 349.258041 88.516887 
L 353.261994 89.991547 
L 357.265946 90.818302 
L 361.269899 90.483671 
L 365.273852 87.909185 
L 369.277781 82.633838 
L 373.281757 75.655134 
L 377.285686 68.447012 
L 381.289638 62.648983 
L 385.293591 59.963802 
L 389.29752 60.849648 
L 393.301496 63.917005 
L 397.305425 67.728951 
L 401.309378 71.512273 
L 405.313331 75.047574 
L 409.317283 78.426752 
L 413.321236 81.851732 
L 417.325165 85.483699 
L 421.329118 89.336449 
L 425.33307 93.298065 
L 429.337023 97.473349 
L 433.340975 102.100794 
L 437.344904 106.757636 
L 441.348857 109.940011 
L 445.35281 109.568516 
L 449.356762 105.408141 
L 453.360715 99.473774 
L 457.364668 93.570707 
L 461.36862 88.607898 
L 465.372549 84.828702 
L 469.376502 82.133301 
L 473.380455 80.298584 
" clip-path="url(#pb47a88e70a)" style="fill: none; stroke: #1f77b4; stroke-width: 1.5; stroke-linecap: square"/>
   </g>
   <g id="patch_3">
    <path d="M 57.17 127.68 
L 57.17 26.88 
" style="fill: none; stroke: #000000; stroke-width: 0.8; stroke-linejoin: miter; stroke-linecap: square"/>
   </g>
   <g id="patch_4">
    <path d="M 493.2 127.68 
L 493.2 26.88 
" style="fill: none; stroke: #000000; stroke-width: 0.8; stroke-linejoin: miter; stroke-linecap: square"/>
   </g>
   <g id="patch_5">
    <path d="M 57.17 127.68 
L 493.2 127.68 
" style="fill: none; stroke: #000000; stroke-width: 0.8; stroke-linejoin: miter; stroke-linecap: square"/>
   </g>
   <g id="patch_6">
    <path d="M 57.17 26.88 
L 493.2 26.88 
" style="fill: none; stroke: #000000; stroke-width: 0.8; stroke-linejoin: miter; stroke-linecap: square"/>
   </g>
   <g id="text_5">
    <!-- MaternKernel -->
    <g transform="translate(235.27375 20.88) scale(0.12 -0.12)">
     <defs>
      <path id="DejaVuSans-4d" d="M 628 4666 
L 1569 4666 
L 2759 1491 
L 3956 4666 
L 4897 4666 
L 4897 0 
L 4281 0 
L 4281 4097 
L 3078 897 
L 2444 897 
L 1241 4097 
L 1241 0 
L 628 0 
L 628 4666 
z
" transform="scale(0.015625)"/>
      <path id="DejaVuSans-61" d="M 2194 1759 
Q 1497 1759 1228 1600 
Q 959 1441 959 1056 
Q 959 750 1161 570 
Q 1363 391 1709 391 
Q 2188 391 2477 730 
Q 2766 1069 2766 1631 
L 2766 1759 
L 2194 1759 
z
M 3341 1997 
L 3341 0 
L 2766 0 
L 2766 531 
Q 2569 213 2275 61 
Q 1981 -91 1556 -91 
Q 1019 -91 701 211 
Q 384 513 384 1019 
Q 384 1609 779 1909 
Q 1175 2209 1959 2209 
L 2766 2209 
L 2766 2266 
Q 2766 2663 2505 2880 
Q 2244 3097 1772 3097 
Q 1472 3097 1187 3025 
Q 903 2953 641 2809 
L 641 3341 
Q 956 3463 1253 3523 
Q 1550 3584 1831 3584 
Q 2591 3584 2966 3190 
Q 3341 2797 3341 1997 
z
" transform="scale(0.015625)"/>
      <path id="DejaVuSans-74" d="M 1172 4494 
L 1172 3500 
L 2356 3500 
L 2356 3053 
L 1172 3053 
L 1172 1153 
Q 1172 725 1289 603 
Q 1406 481 1766 481 
L 2356 481 
L 2356 0 
L 1766 0 
Q 1100 0 847 248 
Q 594 497 594 1153 
L 594 3053 
L 172 3053 
L 172 3500 
L 594 3500 
L 594 4494 
L 1172 4494 
z
" transform="scale(0.015625)"/>
      <path id="DejaVuSans-65" d="M 3597 1894 
L 3597 1613 
L 953 1613 
Q 991 1019 1311 708 
Q 1631 397 2203 397 
Q 2534 397 2845 478 
Q 3156 559 3463 722 
L 3463 178 
Q 3153 47 2828 -22 
Q 2503 -91 2169 -91 
Q 1331 -91 842 396 
Q 353 884 353 1716 
Q 353 2575 817 3079 
Q 1281 3584 2069 3584 
Q 2775 3584 3186 3129 
Q 3597 2675 3597 1894 
z
M 3022 2063 
Q 3016 2534 2758 2815 
Q 2500 3097 2075 3097 
Q 1594 3097 1305 2825 
Q 1016 2553 972 2059 
L 3022 2063 
z
" transform="scale(0.015625)"/>
      <path id="DejaVuSans-72" d="M 2631 2963 
Q 2534 3019 2420 3045 
Q 2306 3072 2169 3072 
Q 1681 3072 1420 2755 
Q 1159 2438 1159 1844 
L 1159 0 
L 581 0 
L 581 3500 
L 1159 3500 
L 1159 2956 
Q 1341 3275 1631 3429 
Q 1922 3584 2338 3584 
Q 2397 3584 2469 3576 
Q 2541 3569 2628 3553 
L 2631 2963 
z
" transform="scale(0.015625)"/>
      <path id="DejaVuSans-6e" d="M 3513 2113 
L 3513 0 
L 2938 0 
L 2938 2094 
Q 2938 2591 2744 2837 
Q 2550 3084 2163 3084 
Q 1697 3084 1428 2787 
Q 1159 2491 1159 1978 
L 1159 0 
L 581 0 
L 581 3500 
L 1159 3500 
L 1159 2956 
Q 1366 3272 1645 3428 
Q 1925 3584 2291 3584 
Q 2894 3584 3203 3211 
Q 3513 2838 3513 2113 
z
" transform="scale(0.015625)"/>
      <path id="DejaVuSans-4b" d="M 628 4666 
L 1259 4666 
L 1259 2694 
L 3353 4666 
L 4166 4666 
L 1850 2491 
L 4331 0 
L 3500 0 
L 1259 2247 
L 1259 0 
L 628 0 
L 628 4666 
z
" transform="scale(0.015625)"/>
      <path id="DejaVuSans-6c" d="M 603 4863 
L 1178 4863 
L 1178 0 
L 603 0 
L 603 4863 
z
" transform="scale(0.015625)"/>
     </defs>
     <use xlink:href="#DejaVuSans-4d"/>
     <use xlink:href="#DejaVuSans-61" transform="translate(86.279297 0)"/>
     <use xlink:href="#DejaVuSans-74" transform="translate(147.558594 0)"/>
     <use xlink:href="#DejaVuSans-65" transform="translate(186.767578 0)"/>
     <use xlink:href="#DejaVuSans-72" transform="translate(248.291016 0)"/>
     <use xlink:href="#DejaVuSans-6e" transform="translate(287.654297 0)"/>
     <use xlink:href="#DejaVuSans-4b" transform="translate(351.033203 0)"/>
     <use xlink:href="#DejaVuSans-65" transform="translate(411.609375 0)"/>
     <use xlink:href="#DejaVuSans-72" transform="translate(473.132812 0)"/>
     <use xlink:href="#DejaVuSans-6e" transform="translate(512.496094 0)"/>
     <use xlink:href="#DejaVuSans-65" transform="translate(575.875 0)"/>
     <use xlink:href="#DejaVuSans-6c" transform="translate(637.398438 0)"/>
    </g>
   </g>
   <g id="legend_1">
    <g id="patch_7">
     <path d="M 62.028 42.618619 
L 411.014575 42.618619 
Q 412.402575 42.618619 412.402575 41.230619 
L 412.402575 31.738 
Q 412.402575 30.35 411.014575 30.35 
L 62.028 30.35 
Q 60.64 30.35 60.64 31.738 
L 60.64 41.230619 
Q 60.64 42.618619 62.028 42.618619 
z
" style="fill: #ffffff; opacity: 0.8; stroke: #cccccc; stroke-linejoin: miter"/>
    </g>
    <g id="line2d_11">
     <path d="M 63.416 35.970316 
L 70.356 35.970316 
L 77.296 35.970316 
" style="fill: none; stroke-dasharray: 5.55,2.4; stroke-dashoffset: 0; stroke: #000000; stroke-width: 1.5"/>
    </g>
    <g id="text_6">
     <!-- Objective -->
     <g transform="translate(82.848 38.399316) scale(0.0694 -0.0694)">
      <defs>
       <path id="DejaVuSans-4f" d="M 2522 4238 
Q 1834 4238 1429 3725 
Q 1025 3213 1025 2328 
Q 1025 1447 1429 934 
Q 1834 422 2522 422 
Q 3209 422 3611 934 
Q 4013 1447 4013 2328 
Q 4013 3213 3611 3725 
Q 3209 4238 2522 4238 
z
M 2522 4750 
Q 3503 4750 4090 4092 
Q 4678 3434 4678 2328 
Q 4678 1225 4090 567 
Q 3503 -91 2522 -91 
Q 1538 -91 948 565 
Q 359 1222 359 2328 
Q 359 3434 948 4092 
Q 1538 4750 2522 4750 
z
" transform="scale(0.015625)"/>
       <path id="DejaVuSans-62" d="M 3116 1747 
Q 3116 2381 2855 2742 
Q 2594 3103 2138 3103 
Q 1681 3103 1420 2742 
Q 1159 2381 1159 1747 
Q 1159 1113 1420 752 
Q 1681 391 2138 391 
Q 2594 391 2855 752 
Q 3116 1113 3116 1747 
z
M 1159 2969 
Q 1341 3281 1617 3432 
Q 1894 3584 2278 3584 
Q 2916 3584 3314 3078 
Q 3713 2572 3713 1747 
Q 3713 922 3314 415 
Q 2916 -91 2278 -91 
Q 1894 -91 1617 61 
Q 1341 213 1159 525 
L 1159 0 
L 581 0 
L 581 4863 
L 1159 4863 
L 1159 2969 
z
" transform="scale(0.015625)"/>
       <path id="DejaVuSans-6a" d="M 603 3500 
L 1178 3500 
L 1178 -63 
Q 1178 -731 923 -1031 
Q 669 -1331 103 -1331 
L -116 -1331 
L -116 -844 
L 38 -844 
Q 366 -844 484 -692 
Q 603 -541 603 -63 
L 603 3500 
z
M 603 4863 
L 1178 4863 
L 1178 4134 
L 603 4134 
L 603 4863 
z
" transform="scale(0.015625)"/>
       <path id="DejaVuSans-63" d="M 3122 3366 
L 3122 2828 
Q 2878 2963 2633 3030 
Q 2388 3097 2138 3097 
Q 1578 3097 1268 2742 
Q 959 2388 959 1747 
Q 959 1106 1268 751 
Q 1578 397 2138 397 
Q 2388 397 2633 464 
Q 2878 531 3122 666 
L 3122 134 
Q 2881 22 2623 -34 
Q 2366 -91 2075 -91 
Q 1284 -91 818 406 
Q 353 903 353 1747 
Q 353 2603 823 3093 
Q 1294 3584 2113 3584 
Q 2378 3584 2631 3529 
Q 2884 3475 3122 3366 
z
" transform="scale(0.015625)"/>
       <path id="DejaVuSans-69" d="M 603 3500 
L 1178 3500 
L 1178 0 
L 603 0 
L 603 3500 
z
M 603 4863 
L 1178 4863 
L 1178 4134 
L 603 4134 
L 603 4863 
z
" transform="scale(0.015625)"/>
       <path id="DejaVuSans-76" d="M 191 3500 
L 800 3500 
L 1894 563 
L 2988 3500 
L 3597 3500 
L 2284 0 
L 1503 0 
L 191 3500 
z
" transform="scale(0.015625)"/>
      </defs>
      <use xlink:href="#DejaVuSans-4f"/>
      <use xlink:href="#DejaVuSans-62" transform="translate(78.710938 0)"/>
      <use xlink:href="#DejaVuSans-6a" transform="translate(142.1875 0)"/>
      <use xlink:href="#DejaVuSans-65" transform="translate(169.970703 0)"/>
      <use xlink:href="#DejaVuSans-63" transform="translate(231.494141 0)"/>
      <use xlink:href="#DejaVuSans-74" transform="translate(286.474609 0)"/>
      <use xlink:href="#DejaVuSans-69" transform="translate(325.683594 0)"/>
      <use xlink:href="#DejaVuSans-76" transform="translate(353.466797 0)"/>
      <use xlink:href="#DejaVuSans-65" transform="translate(412.646484 0)"/>
     </g>
    </g>
    <g id="PathCollection_3">
     <g>
      <use xlink:href="#ma95ff2dff2" x="136.577697" y="36.577566" style="fill: #1f77b4; stroke: #1f77b4"/>
     </g>
    </g>
    <g id="text_7">
     <!-- Training data -->
     <g transform="translate(149.069697 38.399316) scale(0.0694 -0.0694)">
      <defs>
       <path id="DejaVuSans-54" d="M -19 4666 
L 3928 4666 
L 3928 4134 
L 2272 4134 
L 2272 0 
L 1638 0 
L 1638 4134 
L -19 4134 
L -19 4666 
z
" transform="scale(0.015625)"/>
       <path id="DejaVuSans-67" d="M 2906 1791 
Q 2906 2416 2648 2759 
Q 2391 3103 1925 3103 
Q 1463 3103 1205 2759 
Q 947 2416 947 1791 
Q 947 1169 1205 825 
Q 1463 481 1925 481 
Q 2391 481 2648 825 
Q 2906 1169 2906 1791 
z
M 3481 434 
Q 3481 -459 3084 -895 
Q 2688 -1331 1869 -1331 
Q 1566 -1331 1297 -1286 
Q 1028 -1241 775 -1147 
L 775 -588 
Q 1028 -725 1275 -790 
Q 1522 -856 1778 -856 
Q 2344 -856 2625 -561 
Q 2906 -266 2906 331 
L 2906 616 
Q 2728 306 2450 153 
Q 2172 0 1784 0 
Q 1141 0 747 490 
Q 353 981 353 1791 
Q 353 2603 747 3093 
Q 1141 3584 1784 3584 
Q 2172 3584 2450 3431 
Q 2728 3278 2906 2969 
L 2906 3500 
L 3481 3500 
L 3481 434 
z
" transform="scale(0.015625)"/>
       <path id="DejaVuSans-20" transform="scale(0.015625)"/>
       <path id="DejaVuSans-64" d="M 2906 2969 
L 2906 4863 
L 3481 4863 
L 3481 0 
L 2906 0 
L 2906 525 
Q 2725 213 2448 61 
Q 2172 -91 1784 -91 
Q 1150 -91 751 415 
Q 353 922 353 1747 
Q 353 2572 751 3078 
Q 1150 3584 1784 3584 
Q 2172 3584 2448 3432 
Q 2725 3281 2906 2969 
z
M 947 1747 
Q 947 1113 1208 752 
Q 1469 391 1925 391 
Q 2381 391 2643 752 
Q 2906 1113 2906 1747 
Q 2906 2381 2643 2742 
Q 2381 3103 1925 3103 
Q 1469 3103 1208 2742 
Q 947 2381 947 1747 
z
" transform="scale(0.015625)"/>
      </defs>
      <use xlink:href="#DejaVuSans-54"/>
      <use xlink:href="#DejaVuSans-72" transform="translate(46.333984 0)"/>
      <use xlink:href="#DejaVuSans-61" transform="translate(87.447266 0)"/>
      <use xlink:href="#DejaVuSans-69" transform="translate(148.726562 0)"/>
      <use xlink:href="#DejaVuSans-6e" transform="translate(176.509766 0)"/>
      <use xlink:href="#DejaVuSans-69" transform="translate(239.888672 0)"/>
      <use xlink:href="#DejaVuSans-6e" transform="translate(267.671875 0)"/>
      <use xlink:href="#DejaVuSans-67" transform="translate(331.050781 0)"/>
      <use xlink:href="#DejaVuSans-20" transform="translate(394.527344 0)"/>
      <use xlink:href="#DejaVuSans-64" transform="translate(426.314453 0)"/>
      <use xlink:href="#DejaVuSans-61" transform="translate(489.791016 0)"/>
      <use xlink:href="#DejaVuSans-74" transform="translate(551.070312 0)"/>
      <use xlink:href="#DejaVuSans-61" transform="translate(590.279297 0)"/>
     </g>
    </g>
    <g id="PathCollection_4">
     <g>
      <use xlink:href="#m7d7b56c567" x="215.10705" y="36.577566" style="fill: #ff7f0e; stroke: #ff7f0e"/>
     </g>
    </g>
    <g id="text_8">
     <!-- Test data -->
     <g transform="translate(227.59905 38.399316) scale(0.0694 -0.0694)">
      <defs>
       <path id="DejaVuSans-73" d="M 2834 3397 
L 2834 2853 
Q 2591 2978 2328 3040 
Q 2066 3103 1784 3103 
Q 1356 3103 1142 2972 
Q 928 2841 928 2578 
Q 928 2378 1081 2264 
Q 1234 2150 1697 2047 
L 1894 2003 
Q 2506 1872 2764 1633 
Q 3022 1394 3022 966 
Q 3022 478 2636 193 
Q 2250 -91 1575 -91 
Q 1294 -91 989 -36 
Q 684 19 347 128 
L 347 722 
Q 666 556 975 473 
Q 1284 391 1588 391 
Q 1994 391 2212 530 
Q 2431 669 2431 922 
Q 2431 1156 2273 1281 
Q 2116 1406 1581 1522 
L 1381 1569 
Q 847 1681 609 1914 
Q 372 2147 372 2553 
Q 372 3047 722 3315 
Q 1072 3584 1716 3584 
Q 2034 3584 2315 3537 
Q 2597 3491 2834 3397 
z
" transform="scale(0.015625)"/>
      </defs>
      <use xlink:href="#DejaVuSans-54"/>
      <use xlink:href="#DejaVuSans-65" transform="translate(44.083984 0)"/>
      <use xlink:href="#DejaVuSans-73" transform="translate(105.607422 0)"/>
      <use xlink:href="#DejaVuSans-74" transform="translate(157.707031 0)"/>
      <use xlink:href="#DejaVuSans-20" transform="translate(196.916016 0)"/>
      <use xlink:href="#DejaVuSans-64" transform="translate(228.703125 0)"/>
      <use xlink:href="#DejaVuSans-61" transform="translate(292.179688 0)"/>
      <use xlink:href="#DejaVuSans-74" transform="translate(353.458984 0)"/>
      <use xlink:href="#DejaVuSans-61" transform="translate(392.667969 0)"/>
     </g>
    </g>
    <g id="line2d_12">
     <path d="M 272.982312 35.970316 
L 279.922312 35.970316 
L 286.862312 35.970316 
" style="fill: none; stroke: #1f77b4; stroke-width: 1.5; stroke-linecap: square"/>
    </g>
    <g id="text_9">
     <!-- Pred. mean -->
     <g transform="translate(292.414312 38.399316) scale(0.0694 -0.0694)">
      <defs>
       <path id="DejaVuSans-50" d="M 1259 4147 
L 1259 2394 
L 2053 2394 
Q 2494 2394 2734 2622 
Q 2975 2850 2975 3272 
Q 2975 3691 2734 3919 
Q 2494 4147 2053 4147 
L 1259 4147 
z
M 628 4666 
L 2053 4666 
Q 2838 4666 3239 4311 
Q 3641 3956 3641 3272 
Q 3641 2581 3239 2228 
Q 2838 1875 2053 1875 
L 1259 1875 
L 1259 0 
L 628 0 
L 628 4666 
z
" transform="scale(0.015625)"/>
       <path id="DejaVuSans-2e" d="M 684 794 
L 1344 794 
L 1344 0 
L 684 0 
L 684 794 
z
" transform="scale(0.015625)"/>
       <path id="DejaVuSans-6d" d="M 3328 2828 
Q 3544 3216 3844 3400 
Q 4144 3584 4550 3584 
Q 5097 3584 5394 3201 
Q 5691 2819 5691 2113 
L 5691 0 
L 5113 0 
L 5113 2094 
Q 5113 2597 4934 2840 
Q 4756 3084 4391 3084 
Q 3944 3084 3684 2787 
Q 3425 2491 3425 1978 
L 3425 0 
L 2847 0 
L 2847 2094 
Q 2847 2600 2669 2842 
Q 2491 3084 2119 3084 
Q 1678 3084 1418 2786 
Q 1159 2488 1159 1978 
L 1159 0 
L 581 0 
L 581 3500 
L 1159 3500 
L 1159 2956 
Q 1356 3278 1631 3431 
Q 1906 3584 2284 3584 
Q 2666 3584 2933 3390 
Q 3200 3197 3328 2828 
z
" transform="scale(0.015625)"/>
      </defs>
      <use xlink:href="#DejaVuSans-50"/>
      <use xlink:href="#DejaVuSans-72" transform="translate(58.552734 0)"/>
      <use xlink:href="#DejaVuSans-65" transform="translate(97.416016 0)"/>
      <use xlink:href="#DejaVuSans-64" transform="translate(158.939453 0)"/>
      <use xlink:href="#DejaVuSans-2e" transform="translate(222.416016 0)"/>
      <use xlink:href="#DejaVuSans-20" transform="translate(254.203125 0)"/>
      <use xlink:href="#DejaVuSans-6d" transform="translate(285.990234 0)"/>
      <use xlink:href="#DejaVuSans-65" transform="translate(383.402344 0)"/>
      <use xlink:href="#DejaVuSans-61" transform="translate(444.925781 0)"/>
      <use xlink:href="#DejaVuSans-6e" transform="translate(506.205078 0)"/>
     </g>
    </g>
    <g id="patch_8">
     <path d="M 345.823034 38.399316 
L 359.703034 38.399316 
L 359.703034 33.541316 
L 345.823034 33.541316 
z
" style="fill: #1f77b4; fill-opacity: 0.2; stroke: #1f77b4; stroke-opacity: 0.2; stroke-linejoin: miter"/>
    </g>
    <g id="text_10">
     <!-- Pred. 95% CI -->
     <g transform="translate(365.255034 38.399316) scale(0.0694 -0.0694)">
      <defs>
       <path id="DejaVuSans-39" d="M 703 97 
L 703 672 
Q 941 559 1184 500 
Q 1428 441 1663 441 
Q 2288 441 2617 861 
Q 2947 1281 2994 2138 
Q 2813 1869 2534 1725 
Q 2256 1581 1919 1581 
Q 1219 1581 811 2004 
Q 403 2428 403 3163 
Q 403 3881 828 4315 
Q 1253 4750 1959 4750 
Q 2769 4750 3195 4129 
Q 3622 3509 3622 2328 
Q 3622 1225 3098 567 
Q 2575 -91 1691 -91 
Q 1453 -91 1209 -44 
Q 966 3 703 97 
z
M 1959 2075 
Q 2384 2075 2632 2365 
Q 2881 2656 2881 3163 
Q 2881 3666 2632 3958 
Q 2384 4250 1959 4250 
Q 1534 4250 1286 3958 
Q 1038 3666 1038 3163 
Q 1038 2656 1286 2365 
Q 1534 2075 1959 2075 
z
" transform="scale(0.015625)"/>
       <path id="DejaVuSans-25" d="M 4653 2053 
Q 4381 2053 4226 1822 
Q 4072 1591 4072 1178 
Q 4072 772 4226 539 
Q 4381 306 4653 306 
Q 4919 306 5073 539 
Q 5228 772 5228 1178 
Q 5228 1588 5073 1820 
Q 4919 2053 4653 2053 
z
M 4653 2450 
Q 5147 2450 5437 2106 
Q 5728 1763 5728 1178 
Q 5728 594 5436 251 
Q 5144 -91 4653 -91 
Q 4153 -91 3862 251 
Q 3572 594 3572 1178 
Q 3572 1766 3864 2108 
Q 4156 2450 4653 2450 
z
M 1428 4353 
Q 1159 4353 1004 4120 
Q 850 3888 850 3481 
Q 850 3069 1003 2837 
Q 1156 2606 1428 2606 
Q 1700 2606 1854 2837 
Q 2009 3069 2009 3481 
Q 2009 3884 1853 4118 
Q 1697 4353 1428 4353 
z
M 4250 4750 
L 4750 4750 
L 1831 -91 
L 1331 -91 
L 4250 4750 
z
M 1428 4750 
Q 1922 4750 2215 4408 
Q 2509 4066 2509 3481 
Q 2509 2891 2217 2550 
Q 1925 2209 1428 2209 
Q 931 2209 642 2551 
Q 353 2894 353 3481 
Q 353 4063 643 4406 
Q 934 4750 1428 4750 
z
" transform="scale(0.015625)"/>
       <path id="DejaVuSans-43" d="M 4122 4306 
L 4122 3641 
Q 3803 3938 3442 4084 
Q 3081 4231 2675 4231 
Q 1875 4231 1450 3742 
Q 1025 3253 1025 2328 
Q 1025 1406 1450 917 
Q 1875 428 2675 428 
Q 3081 428 3442 575 
Q 3803 722 4122 1019 
L 4122 359 
Q 3791 134 3420 21 
Q 3050 -91 2638 -91 
Q 1578 -91 968 557 
Q 359 1206 359 2328 
Q 359 3453 968 4101 
Q 1578 4750 2638 4750 
Q 3056 4750 3426 4639 
Q 3797 4528 4122 4306 
z
" transform="scale(0.015625)"/>
       <path id="DejaVuSans-49" d="M 628 4666 
L 1259 4666 
L 1259 0 
L 628 0 
L 628 4666 
z
" transform="scale(0.015625)"/>
      </defs>
      <use xlink:href="#DejaVuSans-50"/>
      <use xlink:href="#DejaVuSans-72" transform="translate(58.552734 0)"/>
      <use xlink:href="#DejaVuSans-65" transform="translate(97.416016 0)"/>
      <use xlink:href="#DejaVuSans-64" transform="translate(158.939453 0)"/>
      <use xlink:href="#DejaVuSans-2e" transform="translate(222.416016 0)"/>
      <use xlink:href="#DejaVuSans-20" transform="translate(254.203125 0)"/>
      <use xlink:href="#DejaVuSans-39" transform="translate(285.990234 0)"/>
      <use xlink:href="#DejaVuSans-35" transform="translate(349.613281 0)"/>
      <use xlink:href="#DejaVuSans-25" transform="translate(413.236328 0)"/>
      <use xlink:href="#DejaVuSans-20" transform="translate(508.255859 0)"/>
      <use xlink:href="#DejaVuSans-43" transform="translate(540.042969 0)"/>
      <use xlink:href="#DejaVuSans-49" transform="translate(609.867188 0)"/>
     </g>
    </g>
   </g>
  </g>
  <g id="axes_2">
   <g id="patch_9">
    <path d="M 57.17 258.86 
L 493.2 258.86 
L 493.2 158.06 
L 57.17 158.06 
z
" style="fill: #ffffff"/>
   </g>
   <g id="PathCollection_5">
    <g clip-path="url(#p89967d9f03)">
     <use xlink:href="#ma95ff2dff2" x="423.831591" y="220.240701" style="fill: #1f77b4; stroke: #1f77b4"/>
     <use xlink:href="#ma95ff2dff2" x="443.651136" y="236.806719" style="fill: #1f77b4; stroke: #1f77b4"/>
     <use xlink:href="#ma95ff2dff2" x="225.636136" y="215.819582" style="fill: #1f77b4; stroke: #1f77b4"/>
     <use xlink:href="#ma95ff2dff2" x="265.275227" y="208.761074" style="fill: #1f77b4; stroke: #1f77b4"/>
     <use xlink:href="#ma95ff2dff2" x="324.733864" y="198.280612" style="fill: #1f77b4; stroke: #1f77b4"/>
     <use xlink:href="#ma95ff2dff2" x="106.718864" y="177.293476" style="fill: #1f77b4; stroke: #1f77b4"/>
     <use xlink:href="#ma95ff2dff2" x="384.1925" y="191.983553" style="fill: #1f77b4; stroke: #1f77b4"/>
     <use xlink:href="#ma95ff2dff2" x="166.1775" y="222.116641" style="fill: #1f77b4; stroke: #1f77b4"/>
     <use xlink:href="#ma95ff2dff2" x="205.816591" y="199.368831" style="fill: #1f77b4; stroke: #1f77b4"/>
     <use xlink:href="#ma95ff2dff2" x="146.357955" y="224.037812" style="fill: #1f77b4; stroke: #1f77b4"/>
     <use xlink:href="#ma95ff2dff2" x="185.997045" y="196.607517" style="fill: #1f77b4; stroke: #1f77b4"/>
     <use xlink:href="#ma95ff2dff2" x="304.914318" y="210.75527" style="fill: #1f77b4; stroke: #1f77b4"/>
     <use xlink:href="#ma95ff2dff2" x="126.538409" y="193.859494" style="fill: #1f77b4; stroke: #1f77b4"/>
     <use xlink:href="#ma95ff2dff2" x="344.553409" y="214.731364" style="fill: #1f77b4; stroke: #1f77b4"/>
     <use xlink:href="#ma95ff2dff2" x="364.372955" y="217.492678" style="fill: #1f77b4; stroke: #1f77b4"/>
    </g>
   </g>
   <g id="PathCollection_6">
    <g clip-path="url(#p89967d9f03)">
     <use xlink:href="#m7d7b56c567" x="285.094773" y="205.339121" style="fill: #ff7f0e; stroke: #ff7f0e"/>
     <use xlink:href="#m7d7b56c567" x="245.455682" y="203.344925" style="fill: #ff7f0e; stroke: #ff7f0e"/>
     <use xlink:href="#m7d7b56c567" x="463.470682" y="213.673984" style="fill: #ff7f0e; stroke: #ff7f0e"/>
     <use xlink:href="#m7d7b56c567" x="404.012045" y="190.062382" style="fill: #ff7f0e; stroke: #ff7f0e"/>
     <use xlink:href="#m7d7b56c567" x="86.899318" y="200.42621" style="fill: #ff7f0e; stroke: #ff7f0e"/>
    </g>
   </g>
   <g id="FillBetweenPolyCollection_2">
    <defs>
     <path id="me3af5483e3" d="M 76.989545 -269.358182 
L 76.989545 -204.426981 
L 80.993494 -210.772462 
L 84.997443 -218.116906 
L 89.001392 -226.136684 
L 93.00534 -234.325973 
L 97.009288 -242.032696 
L 101.013238 -248.521767 
L 105.017184 -252.92297 
L 109.021134 -252.700451 
L 113.025084 -250.069726 
L 117.02903 -247.100374 
L 121.03298 -243.616556 
L 125.03693 -239.135087 
L 129.040877 -232.84907 
L 133.044823 -225.631831 
L 137.048776 -218.815923 
L 141.052723 -212.970401 
L 145.056669 -208.206121 
L 149.060622 -204.296453 
L 153.064569 -201.834201 
L 157.068515 -201.589406 
L 161.072468 -203.660444 
L 165.076415 -207.526946 
L 169.080362 -212.233262 
L 173.084314 -217.473393 
L 177.088255 -223.156165 
L 181.092208 -228.771176 
L 185.09616 -233.44358 
L 189.100101 -236.132968 
L 193.104054 -236.892598 
L 197.108006 -236.304427 
L 201.111947 -234.718476 
L 205.1159 -232.114162 
L 209.119852 -227.949573 
L 213.123793 -223.153898 
L 217.127746 -219.069146 
L 221.131699 -216.453924 
L 225.135639 -215.247129 
L 229.139592 -212.558522 
L 233.143545 -209.329052 
L 237.147485 -206.836971 
L 241.151438 -205.52251 
L 245.155391 -205.645265 
L 249.159332 -207.271235 
L 253.163284 -210.248915 
L 257.167237 -214.21695 
L 261.171178 -218.631702 
L 265.17513 -222.115375 
L 269.179083 -217.563885 
L 273.183024 -211.977162 
L 277.186988 -207.126394 
L 281.190917 -203.718184 
L 285.19487 -202.243687 
L 289.198822 -202.925781 
L 293.202751 -205.680453 
L 297.206728 -210.115897 
L 301.210657 -215.54156 
L 305.214609 -220.386839 
L 309.218562 -222.966946 
L 313.222515 -225.932151 
L 317.226467 -229.149408 
L 321.230396 -231.759834 
L 325.234372 -232.502035 
L 329.238301 -230.618826 
L 333.242254 -227.332684 
L 337.246207 -223.478788 
L 341.250136 -219.505096 
L 345.254112 -215.411458 
L 349.258041 -211.388238 
L 353.261994 -208.818765 
L 357.265946 -208.546458 
L 361.269899 -210.653815 
L 365.273852 -214.238761 
L 369.277781 -218.237017 
L 373.281757 -223.117324 
L 377.285686 -228.881074 
L 381.289638 -235.040888 
L 385.293591 -239.719011 
L 389.29752 -240.26013 
L 393.301496 -238.475115 
L 397.305425 -235.170571 
L 401.309378 -231.012308 
L 405.313331 -226.625877 
L 409.317283 -222.493259 
L 413.321236 -218.878697 
L 417.325165 -215.80344 
L 421.329118 -213.003842 
L 425.33307 -208.124671 
L 429.337023 -201.07994 
L 433.340975 -195.968565 
L 437.344904 -193.437295 
L 441.348857 -193.548932 
L 445.35281 -193.031045 
L 449.356762 -189.091026 
L 453.360715 -185.308194 
L 457.364668 -182.131639 
L 461.36862 -179.773136 
L 465.372549 -178.315556 
L 469.376502 -177.721818 
L 473.380455 -177.858091 
L 473.380455 -245.266118 
L 473.380455 -245.266118 
L 469.376502 -239.16987 
L 465.372549 -232.120271 
L 461.36862 -224.38068 
L 457.364668 -216.378353 
L 453.360715 -208.686259 
L 449.356762 -201.981976 
L 445.35281 -197.105594 
L 441.348857 -197.909322 
L 437.344904 -201.725304 
L 433.340975 -205.24363 
L 429.337023 -208.328361 
L 425.33307 -211.277666 
L 421.329118 -217.709618 
L 417.325165 -226.944792 
L 413.321236 -235.943385 
L 409.317283 -243.692975 
L 405.313331 -249.438737 
L 401.309378 -252.695126 
L 397.305425 -253.291431 
L 393.301496 -251.381532 
L 389.29752 -247.426028 
L 385.293591 -242.362808 
L 381.289638 -238.506066 
L 377.285686 -234.06188 
L 373.281757 -228.299902 
L 369.277781 -222.039176 
L 365.273852 -216.580686 
L 361.269899 -213.503173 
L 357.265946 -212.496327 
L 353.261994 -212.933392 
L 349.258041 -214.640281 
L 345.254112 -217.700919 
L 341.250136 -222.347212 
L 337.246207 -227.402507 
L 333.242254 -231.499189 
L 329.238301 -233.931926 
L 325.234372 -234.774619 
L 321.230396 -234.988288 
L 317.226467 -234.073182 
L 313.222515 -231.473129 
L 309.218562 -227.33757 
L 305.214609 -222.65701 
L 301.210657 -221.127242 
L 297.206728 -221.868314 
L 293.202751 -223.768257 
L 289.198822 -226.213528 
L 285.19487 -228.539041 
L 281.190917 -230.121127 
L 277.186988 -230.490518 
L 273.183024 -229.414679 
L 269.179083 -226.952854 
L 265.17513 -224.3877 
L 261.171178 -228.440014 
L 257.167237 -231.955293 
L 253.163284 -233.725842 
L 249.159332 -233.568598 
L 245.155391 -231.626773 
L 241.151438 -228.339053 
L 237.147485 -224.380966 
L 233.143545 -220.570247 
L 229.139592 -217.783285 
L 225.135639 -217.547882 
L 221.131699 -220.816549 
L 217.127746 -224.442997 
L 213.123793 -227.842452 
L 209.119852 -231.017944 
L 205.1159 -234.397065 
L 201.111947 -237.941428 
L 197.108006 -240.215891 
L 193.104054 -240.512532 
L 189.100101 -238.814364 
L 185.09616 -235.73326 
L 181.092208 -231.771628 
L 177.088255 -226.718553 
L 173.084314 -220.812475 
L 169.080362 -214.800654 
L 165.076415 -209.834783 
L 161.072468 -206.683119 
L 157.068515 -205.17132 
L 153.064569 -205.18883 
L 149.060622 -206.846825 
L 145.056669 -210.556379 
L 141.052723 -216.245476 
L 137.048776 -222.809314 
L 133.044823 -229.370875 
L 129.040877 -235.50305 
L 125.03693 -241.623231 
L 121.03298 -247.840977 
L 117.02903 -252.785538 
L 113.025084 -255.635599 
L 109.021134 -256.106739 
L 105.017184 -256.373313 
L 101.013238 -258.935897 
L 97.009288 -261.678093 
L 93.00534 -264.230117 
L 89.001392 -266.383256 
L 84.997443 -267.987171 
L 80.993494 -268.972276 
L 76.989545 -269.358182 
z
" style="stroke: #1f77b4; stroke-opacity: 0.2"/>
    </defs>
    <g clip-path="url(#p89967d9f03)">
     <use xlink:href="#me3af5483e3" x="0" y="432" style="fill: #1f77b4; fill-opacity: 0.2; stroke: #1f77b4; stroke-opacity: 0.2"/>
    </g>
   </g>
   <g id="matplotlib.axis_3">
    <g id="xtick_6">
     <g id="line2d_13">
      <g>
       <use xlink:href="#me645b4c6fa" x="116.628636" y="258.86" style="stroke: #000000; stroke-width: 0.8"/>
      </g>
     </g>
    </g>
    <g id="xtick_7">
     <g id="line2d_14">
      <g>
       <use xlink:href="#me645b4c6fa" x="195.906818" y="258.86" style="stroke: #000000; stroke-width: 0.8"/>
      </g>
     </g>
    </g>
    <g id="xtick_8">
     <g id="line2d_15">
      <g>
       <use xlink:href="#me645b4c6fa" x="275.185" y="258.86" style="stroke: #000000; stroke-width: 0.8"/>
      </g>
     </g>
    </g>
    <g id="xtick_9">
     <g id="line2d_16">
      <g>
       <use xlink:href="#me645b4c6fa" x="354.463182" y="258.86" style="stroke: #000000; stroke-width: 0.8"/>
      </g>
     </g>
    </g>
    <g id="xtick_10">
     <g id="line2d_17">
      <g>
       <use xlink:href="#me645b4c6fa" x="433.741364" y="258.86" style="stroke: #000000; stroke-width: 0.8"/>
      </g>
     </g>
    </g>
   </g>
   <g id="matplotlib.axis_4">
    <g id="ytick_4">
     <g id="line2d_18">
      <g>
       <use xlink:href="#mcb7bc70cf5" x="57.17" y="236.953181" style="stroke: #000000; stroke-width: 0.8"/>
      </g>
     </g>
     <g id="text_11">
      <!-- 0 -->
      <g transform="translate(43.8075 240.7524) scale(0.1 -0.1)">
       <use xlink:href="#DejaVuSans-30"/>
      </g>
     </g>
    </g>
    <g id="ytick_5">
     <g id="line2d_19">
      <g>
       <use xlink:href="#mcb7bc70cf5" x="57.17" y="201.267854" style="stroke: #000000; stroke-width: 0.8"/>
      </g>
     </g>
     <g id="text_12">
      <!-- 500 -->
      <g transform="translate(31.0825 205.067073) scale(0.1 -0.1)">
       <use xlink:href="#DejaVuSans-35"/>
       <use xlink:href="#DejaVuSans-30" transform="translate(63.623047 0)"/>
       <use xlink:href="#DejaVuSans-30" transform="translate(127.246094 0)"/>
      </g>
     </g>
    </g>
    <g id="ytick_6">
     <g id="line2d_20">
      <g>
       <use xlink:href="#mcb7bc70cf5" x="57.17" y="165.582527" style="stroke: #000000; stroke-width: 0.8"/>
      </g>
     </g>
     <g id="text_13">
      <!-- 1000 -->
      <g transform="translate(24.72 169.381746) scale(0.1 -0.1)">
       <use xlink:href="#DejaVuSans-31"/>
       <use xlink:href="#DejaVuSans-30" transform="translate(63.623047 0)"/>
       <use xlink:href="#DejaVuSans-30" transform="translate(127.246094 0)"/>
       <use xlink:href="#DejaVuSans-30" transform="translate(190.869141 0)"/>
      </g>
     </g>
    </g>
    <g id="text_14">
     <!-- y -->
     <g transform="translate(18.640313 211.419375) rotate(-90) scale(0.1 -0.1)">
      <use xlink:href="#DejaVuSans-79"/>
     </g>
    </g>
   </g>
   <g id="line2d_21">
    <path d="M 76.989545 219.938864 
L 80.993494 212.016142 
L 84.997443 204.079541 
L 89.001392 196.547817 
L 93.00534 189.822407 
L 97.009288 184.264761 
L 101.013238 180.174664 
L 105.017184 177.770881 
L 109.021134 177.175423 
L 113.025084 178.40273 
L 117.02903 181.354816 
L 121.03298 185.823252 
L 125.03693 191.498421 
L 129.040877 197.986149 
L 133.044823 204.831262 
L 137.048776 211.547061 
L 141.052723 217.649166 
L 145.056669 222.691777 
L 149.060622 226.303636 
L 153.064569 228.220937 
L 157.068515 228.314156 
L 161.072468 226.605719 
L 165.076415 223.275962 
L 169.080362 218.655297 
L 173.084314 213.201559 
L 177.088255 207.462782 
L 181.092208 202.026945 
L 185.09616 197.462434 
L 189.100101 194.253983 
L 193.104054 192.740999 
L 197.108006 193.066137 
L 201.111947 195.142284 
L 205.1159 198.645977 
L 209.119852 203.043184 
L 213.123793 207.650425 
L 217.127746 211.729293 
L 221.131699 214.606017 
L 225.135639 215.800917 
L 229.139592 215.144865 
L 233.143545 212.854252 
L 237.147485 209.533838 
L 241.151438 206.081167 
L 245.155391 203.481252 
L 249.159332 202.508539 
L 253.163284 203.398709 
L 257.167237 205.61333 
L 261.171178 207.88513 
L 265.17513 208.764932 
L 269.179083 207.787915 
L 273.183024 206.769032 
L 277.186988 207.331163 
L 281.190917 206.31228 
L 285.19487 205.335263 
L 289.198822 206.215064 
L 293.202751 208.486857 
L 297.206728 210.701491 
L 301.210657 211.591656 
L 305.214609 210.618943 
L 309.218562 208.019028 
L 313.222515 204.566356 
L 317.226467 201.245934 
L 321.230396 198.955334 
L 325.234372 198.299279 
L 329.238301 199.494177 
L 333.242254 202.370901 
L 337.246207 206.44977 
L 341.250136 211.056997 
L 345.254112 215.45423 
L 349.258041 218.957902 
L 353.261994 221.034057 
L 357.265946 221.359196 
L 361.269899 219.846211 
L 365.273852 216.637749 
L 369.277781 212.073264 
L 373.281757 206.637396 
L 377.285686 200.898636 
L 381.289638 195.444898 
L 385.293591 190.824227 
L 389.29752 187.494483 
L 393.301496 185.786036 
L 397.305425 185.879256 
L 401.309378 187.796559 
L 405.313331 191.408418 
L 409.317283 196.451037 
L 413.321236 202.553153 
L 417.325165 209.268913 
L 421.329118 216.114036 
L 425.33307 222.601774 
L 429.337023 228.276947 
L 433.340975 232.745384 
L 437.344904 235.697459 
L 441.348857 236.924771 
L 445.35281 236.329316 
L 449.356762 233.925531 
L 453.360715 229.83543 
L 457.364668 224.277776 
L 461.36862 217.552357 
L 465.372549 210.02067 
L 469.376502 202.08406 
L 473.380455 194.161331 
" clip-path="url(#p89967d9f03)" style="fill: none; stroke-dasharray: 5.55,2.4; stroke-dashoffset: 0; stroke: #000000; stroke-width: 1.5"/>
   </g>
   <g id="line2d_22">
    <path d="M 76.989545 195.107419 
L 80.993494 192.127631 
L 84.997443 188.947962 
L 89.001392 185.74003 
L 93.00534 182.721955 
L 97.009288 180.144606 
L 101.013238 178.271168 
L 105.017184 177.351858 
L 109.021134 177.596405 
L 113.025084 179.147338 
L 117.02903 182.057044 
L 121.03298 186.271234 
L 125.03693 191.620841 
L 129.040877 197.82394 
L 133.044823 204.498647 
L 137.048776 211.187382 
L 141.052723 217.392061 
L 145.056669 222.61875 
L 149.060622 226.428361 
L 153.064569 228.488484 
L 157.068515 228.619637 
L 161.072468 226.828219 
L 165.076415 223.319135 
L 169.080362 218.483042 
L 173.084314 212.857066 
L 177.088255 207.062641 
L 181.092208 201.728598 
L 185.09616 197.41158 
L 189.100101 194.526334 
L 193.104054 193.297435 
L 197.108006 193.739841 
L 201.111947 195.670048 
L 205.1159 198.744387 
L 209.119852 202.516241 
L 213.123793 206.501825 
L 217.127746 210.243929 
L 221.131699 213.364764 
L 225.135639 215.602494 
L 229.139592 216.829097 
L 233.143545 217.05035 
L 237.147485 216.391031 
L 241.151438 215.069218 
L 245.155391 213.363981 
L 249.159332 211.580083 
L 253.163284 210.012621 
L 257.167237 208.913879 
L 261.171178 208.464142 
L 265.17513 208.748462 
L 269.179083 209.741631 
L 273.183024 211.304079 
L 277.186988 213.191544 
L 281.190917 215.080345 
L 285.19487 216.608636 
L 289.198822 217.430346 
L 293.202751 217.275645 
L 297.206728 216.007895 
L 301.210657 213.665599 
L 305.214609 210.478075 
L 309.218562 206.847742 
L 313.222515 203.29736 
L 317.226467 200.388705 
L 321.230396 198.625939 
L 325.234372 198.361673 
L 329.238301 199.724624 
L 333.242254 202.584064 
L 337.246207 206.559353 
L 341.250136 211.073846 
L 345.254112 215.443811 
L 349.258041 218.98574 
L 353.261994 221.123922 
L 357.265946 221.478608 
L 361.269899 219.921506 
L 365.273852 216.590276 
L 369.277781 211.861904 
L 373.281757 206.291387 
L 377.285686 200.528523 
L 381.289638 195.226523 
L 385.293591 190.959091 
L 389.29752 188.156921 
L 393.301496 187.071677 
L 397.305425 187.768999 
L 401.309378 190.146283 
L 405.313331 193.967693 
L 409.317283 198.906883 
L 413.321236 204.588959 
L 417.325165 210.625884 
L 421.329118 216.64327 
L 425.33307 222.298832 
L 429.337023 227.29585 
L 433.340975 231.393903 
L 437.344904 234.4187 
L 441.348857 236.270873 
L 445.35281 236.931681 
L 449.356762 236.463499 
L 453.360715 235.002773 
L 457.364668 232.745004 
L 461.36862 229.923092 
L 465.372549 226.782086 
L 469.376502 223.554156 
L 473.380455 220.437895 
" clip-path="url(#p89967d9f03)" style="fill: none; stroke: #1f77b4; stroke-width: 1.5; stroke-linecap: square"/>
   </g>
   <g id="patch_10">
    <path d="M 57.17 258.86 
L 57.17 158.06 
" style="fill: none; stroke: #000000; stroke-width: 0.8; stroke-linejoin: miter; stroke-linecap: square"/>
   </g>
   <g id="patch_11">
    <path d="M 493.2 258.86 
L 493.2 158.06 
" style="fill: none; stroke: #000000; stroke-width: 0.8; stroke-linejoin: miter; stroke-linecap: square"/>
   </g>
   <g id="patch_12">
    <path d="M 57.17 258.86 
L 493.2 258.86 
" style="fill: none; stroke: #000000; stroke-width: 0.8; stroke-linejoin: miter; stroke-linecap: square"/>
   </g>
   <g id="patch_13">
    <path d="M 57.17 158.06 
L 493.2 158.06 
" style="fill: none; stroke: #000000; stroke-width: 0.8; stroke-linejoin: miter; stroke-linecap: square"/>
   </g>
   <g id="text_15">
    <!-- RBFKernel -->
    <g transform="translate(244.599063 152.06) scale(0.12 -0.12)">
     <defs>
      <path id="DejaVuSans-52" d="M 2841 2188 
Q 3044 2119 3236 1894 
Q 3428 1669 3622 1275 
L 4263 0 
L 3584 0 
L 2988 1197 
Q 2756 1666 2539 1819 
Q 2322 1972 1947 1972 
L 1259 1972 
L 1259 0 
L 628 0 
L 628 4666 
L 2053 4666 
Q 2853 4666 3247 4331 
Q 3641 3997 3641 3322 
Q 3641 2881 3436 2590 
Q 3231 2300 2841 2188 
z
M 1259 4147 
L 1259 2491 
L 2053 2491 
Q 2509 2491 2742 2702 
Q 2975 2913 2975 3322 
Q 2975 3731 2742 3939 
Q 2509 4147 2053 4147 
L 1259 4147 
z
" transform="scale(0.015625)"/>
      <path id="DejaVuSans-42" d="M 1259 2228 
L 1259 519 
L 2272 519 
Q 2781 519 3026 730 
Q 3272 941 3272 1375 
Q 3272 1813 3026 2020 
Q 2781 2228 2272 2228 
L 1259 2228 
z
M 1259 4147 
L 1259 2741 
L 2194 2741 
Q 2656 2741 2882 2914 
Q 3109 3088 3109 3444 
Q 3109 3797 2882 3972 
Q 2656 4147 2194 4147 
L 1259 4147 
z
M 628 4666 
L 2241 4666 
Q 2963 4666 3353 4366 
Q 3744 4066 3744 3513 
Q 3744 3084 3544 2831 
Q 3344 2578 2956 2516 
Q 3422 2416 3680 2098 
Q 3938 1781 3938 1306 
Q 3938 681 3513 340 
Q 3088 0 2303 0 
L 628 0 
L 628 4666 
z
" transform="scale(0.015625)"/>
      <path id="DejaVuSans-46" d="M 628 4666 
L 3309 4666 
L 3309 4134 
L 1259 4134 
L 1259 2759 
L 3109 2759 
L 3109 2228 
L 1259 2228 
L 1259 0 
L 628 0 
L 628 4666 
z
" transform="scale(0.015625)"/>
     </defs>
     <use xlink:href="#DejaVuSans-52"/>
     <use xlink:href="#DejaVuSans-42" transform="translate(69.482422 0)"/>
     <use xlink:href="#DejaVuSans-46" transform="translate(138.085938 0)"/>
     <use xlink:href="#DejaVuSans-4b" transform="translate(195.605469 0)"/>
     <use xlink:href="#DejaVuSans-65" transform="translate(256.181641 0)"/>
     <use xlink:href="#DejaVuSans-72" transform="translate(317.705078 0)"/>
     <use xlink:href="#DejaVuSans-6e" transform="translate(357.068359 0)"/>
     <use xlink:href="#DejaVuSans-65" transform="translate(420.447266 0)"/>
     <use xlink:href="#DejaVuSans-6c" transform="translate(481.970703 0)"/>
    </g>
   </g>
  </g>
  <g id="axes_3">
   <g id="patch_14">
    <path d="M 57.17 390.04 
L 493.2 390.04 
L 493.2 289.24 
L 57.17 289.24 
z
" style="fill: #ffffff"/>
   </g>
   <g id="PathCollection_7">
    <g clip-path="url(#pba830a3fdf)">
     <use xlink:href="#ma95ff2dff2" x="423.831591" y="352.025289" style="fill: #1f77b4; stroke: #1f77b4"/>
     <use xlink:href="#ma95ff2dff2" x="443.651136" y="368.402762" style="fill: #1f77b4; stroke: #1f77b4"/>
     <use xlink:href="#ma95ff2dff2" x="225.636136" y="347.654488" style="fill: #1f77b4; stroke: #1f77b4"/>
     <use xlink:href="#ma95ff2dff2" x="265.275227" y="340.676316" style="fill: #1f77b4; stroke: #1f77b4"/>
     <use xlink:href="#ma95ff2dff2" x="324.733864" y="330.315137" style="fill: #1f77b4; stroke: #1f77b4"/>
     <use xlink:href="#ma95ff2dff2" x="106.718864" y="309.566863" style="fill: #1f77b4; stroke: #1f77b4"/>
     <use xlink:href="#ma95ff2dff2" x="384.1925" y="324.089747" style="fill: #1f77b4; stroke: #1f77b4"/>
     <use xlink:href="#ma95ff2dff2" x="166.1775" y="353.879878" style="fill: #1f77b4; stroke: #1f77b4"/>
     <use xlink:href="#ma95ff2dff2" x="205.816591" y="331.39097" style="fill: #1f77b4; stroke: #1f77b4"/>
     <use xlink:href="#ma95ff2dff2" x="146.357955" y="355.779184" style="fill: #1f77b4; stroke: #1f77b4"/>
     <use xlink:href="#ma95ff2dff2" x="185.997045" y="328.661083" style="fill: #1f77b4; stroke: #1f77b4"/>
     <use xlink:href="#ma95ff2dff2" x="304.914318" y="342.647815" style="fill: #1f77b4; stroke: #1f77b4"/>
     <use xlink:href="#ma95ff2dff2" x="126.538409" y="325.944336" style="fill: #1f77b4; stroke: #1f77b4"/>
     <use xlink:href="#ma95ff2dff2" x="344.553409" y="346.578655" style="fill: #1f77b4; stroke: #1f77b4"/>
     <use xlink:href="#ma95ff2dff2" x="364.372955" y="349.308542" style="fill: #1f77b4; stroke: #1f77b4"/>
    </g>
   </g>
   <g id="PathCollection_8">
    <g clip-path="url(#pba830a3fdf)">
     <use xlink:href="#m7d7b56c567" x="285.094773" y="337.293309" style="fill: #ff7f0e; stroke: #ff7f0e"/>
     <use xlink:href="#m7d7b56c567" x="245.455682" y="335.32181" style="fill: #ff7f0e; stroke: #ff7f0e"/>
     <use xlink:href="#m7d7b56c567" x="463.470682" y="345.53331" style="fill: #ff7f0e; stroke: #ff7f0e"/>
     <use xlink:href="#m7d7b56c567" x="404.012045" y="322.190441" style="fill: #ff7f0e; stroke: #ff7f0e"/>
     <use xlink:href="#m7d7b56c567" x="86.899318" y="332.436315" style="fill: #ff7f0e; stroke: #ff7f0e"/>
    </g>
   </g>
   <g id="FillBetweenPolyCollection_3">
    <defs>
     <path id="m352f7657e9" d="M 76.989545 -138.178182 
L 76.989545 -82.414183 
L 80.993494 -85.291289 
L 84.997443 -88.764084 
L 89.001392 -93.011209 
L 93.00534 -98.24341 
L 97.009288 -104.62628 
L 101.013238 -112.018297 
L 105.017184 -119.380415 
L 109.021134 -118.11581 
L 113.025084 -111.608468 
L 117.02903 -107.149738 
L 121.03298 -105.423033 
L 125.03693 -105.521355 
L 129.040877 -98.670046 
L 133.044823 -88.029102 
L 137.048776 -79.966885 
L 141.052723 -75.66819 
L 145.056669 -75.238276 
L 149.060622 -70.460744 
L 153.064569 -65.399184 
L 157.068515 -64.607431 
L 161.072468 -68.093613 
L 165.076415 -75.209018 
L 169.080362 -76.978249 
L 173.084314 -78.51917 
L 177.088255 -83.704959 
L 181.092208 -91.844036 
L 185.09616 -100.861262 
L 189.100101 -100.340698 
L 193.104054 -96.960982 
L 197.108006 -95.581026 
L 201.111947 -96.846106 
L 205.1159 -99.494052 
L 209.119852 -93.280954 
L 213.123793 -85.8699 
L 217.127746 -81.370855 
L 221.131699 -80.626602 
L 225.135639 -83.144349 
L 229.139592 -77.889945 
L 233.143545 -72.687977 
L 237.147485 -69.743223 
L 241.151438 -68.650834 
L 245.155391 -69.006023 
L 249.159332 -70.635347 
L 253.163284 -73.586116 
L 257.167237 -78.033135 
L 261.171178 -84.010842 
L 265.17513 -90.120845 
L 269.179083 -84.732696 
L 273.183024 -79.099516 
L 277.186988 -75.008359 
L 281.190917 -72.457189 
L 285.19487 -71.281262 
L 289.198822 -71.432409 
L 293.202751 -73.068958 
L 297.206728 -76.553752 
L 301.210657 -82.219067 
L 305.214609 -88.230501 
L 309.218562 -85.809995 
L 313.222515 -86.177924 
L 317.226467 -89.959154 
L 321.230396 -96.01352 
L 325.234372 -100.207872 
L 329.238301 -93.722647 
L 333.242254 -87.466823 
L 337.246207 -83.82474 
L 341.250136 -83.460931 
L 345.254112 -83.362931 
L 349.258041 -76.277257 
L 353.261994 -72.137966 
L 357.265946 -72.121769 
L 361.269899 -76.448538 
L 365.273852 -81.714126 
L 369.277781 -81.636826 
L 373.281757 -85.225792 
L 377.285686 -92.31897 
L 381.289638 -101.309455 
L 385.293591 -106.115378 
L 389.29752 -99.691598 
L 393.301496 -92.32107 
L 397.305425 -85.789431 
L 401.309378 -80.652815 
L 405.313331 -76.996883 
L 409.317283 -74.842411 
L 413.321236 -74.285678 
L 417.325165 -75.424986 
L 421.329118 -77.93098 
L 425.33307 -76.000255 
L 429.337023 -67.416343 
L 433.340975 -61.447393 
L 437.344904 -59.105413 
L 441.348857 -60.729771 
L 445.35281 -60.307478 
L 449.356762 -54.558375 
L 453.360715 -50.780084 
L 457.364668 -48.621144 
L 461.36862 -47.469483 
L 465.372549 -46.890304 
L 469.376502 -46.628421 
L 473.380455 -46.541818 
L 473.380455 -102.34817 
L 473.380455 -102.34817 
L 469.376502 -99.542106 
L 465.372549 -96.154514 
L 461.36862 -92.011175 
L 457.364668 -86.908417 
L 453.360715 -80.69317 
L 449.356762 -73.528648 
L 445.35281 -66.483238 
L 441.348857 -68.201197 
L 437.344904 -75.283383 
L 433.340975 -80.282516 
L 429.337023 -82.176132 
L 425.33307 -81.217701 
L 421.329118 -86.384501 
L 417.325165 -95.510322 
L 413.321236 -103.029681 
L 409.317283 -108.858287 
L 405.313331 -113.27106 
L 401.309378 -116.445555 
L 397.305425 -118.300379 
L 393.301496 -118.39625 
L 389.29752 -115.930353 
L 385.293591 -110.389268 
L 381.289638 -110.214892 
L 377.285686 -109.052038 
L 373.281757 -103.490907 
L 369.277781 -94.775825 
L 365.273852 -85.258155 
L 361.269899 -85.477052 
L 357.265946 -88.72393 
L 353.261994 -90.101267 
L 349.258041 -88.937543 
L 345.254112 -86.491671 
L 341.250136 -92.96724 
L 337.246207 -100.648375 
L 333.242254 -105.321725 
L 329.238301 -105.976835 
L 325.234372 -102.989903 
L 321.230396 -106.043746 
L 317.226467 -107.148437 
L 313.222515 -104.223832 
L 309.218562 -98.056158 
L 305.214609 -90.771337 
L 301.210657 -94.33189 
L 297.206728 -99.564878 
L 293.202751 -103.715247 
L 289.198822 -106.434484 
L 285.19487 -107.761956 
L 281.190917 -107.732349 
L 277.186988 -106.239425 
L 273.183024 -103.036462 
L 269.179083 -97.947808 
L 265.17513 -92.508375 
L 261.171178 -97.832995 
L 257.167237 -102.418069 
L 253.163284 -105.092927 
L 249.159332 -106.03579 
L 245.155391 -105.477042 
L 241.151438 -103.506686 
L 237.147485 -100.089079 
L 233.143545 -95.226725 
L 229.139592 -89.394683 
L 225.135639 -85.978201 
L 221.131699 -93.303551 
L 217.127746 -99.536814 
L 213.123793 -102.839305 
L 209.119852 -102.826822 
L 205.1159 -102.625384 
L 201.111947 -109.517663 
L 197.108006 -113.547509 
L 193.104054 -113.555291 
L 189.100101 -109.35782 
L 185.09616 -104.399076 
L 181.092208 -104.906592 
L 177.088255 -101.755735 
L 173.084314 -94.863506 
L 169.080362 -85.498183 
L 165.076415 -79.196727 
L 161.072468 -81.54784 
L 157.068515 -82.735808 
L 153.064569 -81.48298 
L 149.060622 -78.478999 
L 145.056669 -79.70333 
L 141.052723 -89.505891 
L 137.048776 -98.167566 
L 133.044823 -103.854796 
L 129.040877 -106.195582 
L 125.03693 -110.496805 
L 121.03298 -119.739256 
L 117.02903 -125.689347 
L 113.025084 -127.652691 
L 109.021134 -125.555461 
L 105.017184 -125.541966 
L 101.013238 -130.954499 
L 97.009288 -134.498905 
L 93.00534 -136.488321 
L 89.001392 -137.510049 
L 84.997443 -137.985448 
L 80.993494 -138.162308 
L 76.989545 -138.178182 
z
" style="stroke: #1f77b4; stroke-opacity: 0.2"/>
    </defs>
    <g clip-path="url(#pba830a3fdf)">
     <use xlink:href="#m352f7657e9" x="0" y="432" style="fill: #1f77b4; fill-opacity: 0.2; stroke: #1f77b4; stroke-opacity: 0.2"/>
    </g>
   </g>
   <g id="matplotlib.axis_5">
    <g id="xtick_11">
     <g id="line2d_23">
      <g>
       <use xlink:href="#me645b4c6fa" x="116.628636" y="390.04" style="stroke: #000000; stroke-width: 0.8"/>
      </g>
     </g>
     <g id="text_16">
      <!-- −400 -->
      <g transform="translate(102.895043 404.638437) scale(0.1 -0.1)">
       <defs>
        <path id="DejaVuSans-2212" d="M 678 2272 
L 4684 2272 
L 4684 1741 
L 678 1741 
L 678 2272 
z
" transform="scale(0.015625)"/>
        <path id="DejaVuSans-34" d="M 2419 4116 
L 825 1625 
L 2419 1625 
L 2419 4116 
z
M 2253 4666 
L 3047 4666 
L 3047 1625 
L 3713 1625 
L 3713 1100 
L 3047 1100 
L 3047 0 
L 2419 0 
L 2419 1100 
L 313 1100 
L 313 1709 
L 2253 4666 
z
" transform="scale(0.015625)"/>
       </defs>
       <use xlink:href="#DejaVuSans-2212"/>
       <use xlink:href="#DejaVuSans-34" transform="translate(83.789062 0)"/>
       <use xlink:href="#DejaVuSans-30" transform="translate(147.412109 0)"/>
       <use xlink:href="#DejaVuSans-30" transform="translate(211.035156 0)"/>
      </g>
     </g>
    </g>
    <g id="xtick_12">
     <g id="line2d_24">
      <g>
       <use xlink:href="#me645b4c6fa" x="195.906818" y="390.04" style="stroke: #000000; stroke-width: 0.8"/>
      </g>
     </g>
     <g id="text_17">
      <!-- −200 -->
      <g transform="translate(182.173224 404.638437) scale(0.1 -0.1)">
       <defs>
        <path id="DejaVuSans-32" d="M 1228 531 
L 3431 531 
L 3431 0 
L 469 0 
L 469 531 
Q 828 903 1448 1529 
Q 2069 2156 2228 2338 
Q 2531 2678 2651 2914 
Q 2772 3150 2772 3378 
Q 2772 3750 2511 3984 
Q 2250 4219 1831 4219 
Q 1534 4219 1204 4116 
Q 875 4013 500 3803 
L 500 4441 
Q 881 4594 1212 4672 
Q 1544 4750 1819 4750 
Q 2544 4750 2975 4387 
Q 3406 4025 3406 3419 
Q 3406 3131 3298 2873 
Q 3191 2616 2906 2266 
Q 2828 2175 2409 1742 
Q 1991 1309 1228 531 
z
" transform="scale(0.015625)"/>
       </defs>
       <use xlink:href="#DejaVuSans-2212"/>
       <use xlink:href="#DejaVuSans-32" transform="translate(83.789062 0)"/>
       <use xlink:href="#DejaVuSans-30" transform="translate(147.412109 0)"/>
       <use xlink:href="#DejaVuSans-30" transform="translate(211.035156 0)"/>
      </g>
     </g>
    </g>
    <g id="xtick_13">
     <g id="line2d_25">
      <g>
       <use xlink:href="#me645b4c6fa" x="275.185" y="390.04" style="stroke: #000000; stroke-width: 0.8"/>
      </g>
     </g>
     <g id="text_18">
      <!-- 0 -->
      <g transform="translate(272.00375 404.638437) scale(0.1 -0.1)">
       <use xlink:href="#DejaVuSans-30"/>
      </g>
     </g>
    </g>
    <g id="xtick_14">
     <g id="line2d_26">
      <g>
       <use xlink:href="#me645b4c6fa" x="354.463182" y="390.04" style="stroke: #000000; stroke-width: 0.8"/>
      </g>
     </g>
     <g id="text_19">
      <!-- 200 -->
      <g transform="translate(344.919432 404.638437) scale(0.1 -0.1)">
       <use xlink:href="#DejaVuSans-32"/>
       <use xlink:href="#DejaVuSans-30" transform="translate(63.623047 0)"/>
       <use xlink:href="#DejaVuSans-30" transform="translate(127.246094 0)"/>
      </g>
     </g>
    </g>
    <g id="xtick_15">
     <g id="line2d_27">
      <g>
       <use xlink:href="#me645b4c6fa" x="433.741364" y="390.04" style="stroke: #000000; stroke-width: 0.8"/>
      </g>
     </g>
     <g id="text_20">
      <!-- 400 -->
      <g transform="translate(424.197614 404.638437) scale(0.1 -0.1)">
       <use xlink:href="#DejaVuSans-34"/>
       <use xlink:href="#DejaVuSans-30" transform="translate(63.623047 0)"/>
       <use xlink:href="#DejaVuSans-30" transform="translate(127.246094 0)"/>
      </g>
     </g>
    </g>
    <g id="text_21">
     <!-- x -->
     <g transform="translate(272.225625 418.316562) scale(0.1 -0.1)">
      <defs>
       <path id="DejaVuSans-78" d="M 3513 3500 
L 2247 1797 
L 3578 0 
L 2900 0 
L 1881 1375 
L 863 0 
L 184 0 
L 1544 1831 
L 300 3500 
L 978 3500 
L 1906 2253 
L 2834 3500 
L 3513 3500 
z
" transform="scale(0.015625)"/>
      </defs>
      <use xlink:href="#DejaVuSans-78"/>
     </g>
    </g>
   </g>
   <g id="matplotlib.axis_6">
    <g id="ytick_7">
     <g id="line2d_28">
      <g>
       <use xlink:href="#mcb7bc70cf5" x="57.17" y="368.547557" style="stroke: #000000; stroke-width: 0.8"/>
      </g>
     </g>
     <g id="text_22">
      <!-- 0 -->
      <g transform="translate(43.8075 372.346776) scale(0.1 -0.1)">
       <use xlink:href="#DejaVuSans-30"/>
      </g>
     </g>
    </g>
    <g id="ytick_8">
     <g id="line2d_29">
      <g>
       <use xlink:href="#mcb7bc70cf5" x="57.17" y="333.268379" style="stroke: #000000; stroke-width: 0.8"/>
      </g>
     </g>
     <g id="text_23">
      <!-- 500 -->
      <g transform="translate(31.0825 337.067598) scale(0.1 -0.1)">
       <use xlink:href="#DejaVuSans-35"/>
       <use xlink:href="#DejaVuSans-30" transform="translate(63.623047 0)"/>
       <use xlink:href="#DejaVuSans-30" transform="translate(127.246094 0)"/>
      </g>
     </g>
    </g>
    <g id="ytick_9">
     <g id="line2d_30">
      <g>
       <use xlink:href="#mcb7bc70cf5" x="57.17" y="297.989201" style="stroke: #000000; stroke-width: 0.8"/>
      </g>
     </g>
     <g id="text_24">
      <!-- 1000 -->
      <g transform="translate(24.72 301.78842) scale(0.1 -0.1)">
       <use xlink:href="#DejaVuSans-31"/>
       <use xlink:href="#DejaVuSans-30" transform="translate(63.623047 0)"/>
       <use xlink:href="#DejaVuSans-30" transform="translate(127.246094 0)"/>
       <use xlink:href="#DejaVuSans-30" transform="translate(190.869141 0)"/>
      </g>
     </g>
    </g>
    <g id="text_25">
     <!-- y -->
     <g transform="translate(18.640313 342.599375) rotate(-90) scale(0.1 -0.1)">
      <use xlink:href="#DejaVuSans-79"/>
     </g>
    </g>
   </g>
   <g id="line2d_31">
    <path d="M 76.989545 351.726887 
L 80.993494 343.894337 
L 84.997443 336.048065 
L 89.001392 328.602062 
L 93.00534 321.953197 
L 97.009288 316.458805 
L 101.013238 312.415259 
L 105.017184 310.038835 
L 109.021134 309.450154 
L 113.025084 310.663492 
L 117.02903 313.581979 
L 121.03298 317.999558 
L 125.03693 323.610136 
L 129.040877 330.024024 
L 133.044823 336.79123 
L 137.048776 343.430595 
L 141.052723 349.463249 
L 145.056669 354.448468 
L 149.060622 358.019219 
L 153.064569 359.914699 
L 157.068515 360.006857 
L 161.072468 358.317864 
L 165.076415 355.026004 
L 169.080362 350.457929 
L 173.084314 345.066262 
L 177.088255 339.392801 
L 181.092208 334.018831 
L 185.09616 329.50627 
L 189.100101 326.334336 
L 193.104054 324.838572 
L 197.108006 325.160009 
L 201.111947 327.212526 
L 205.1159 330.676343 
L 209.119852 335.023503 
L 213.123793 339.578307 
L 217.127746 343.610753 
L 221.131699 346.454735 
L 225.135639 347.636035 
L 229.139592 346.98745 
L 233.143545 344.722908 
L 237.147485 341.440285 
L 241.151438 338.02691 
L 245.155391 335.456586 
L 249.159332 334.494943 
L 253.163284 335.374982 
L 257.167237 337.564398 
L 261.171178 339.810342 
L 265.17513 340.68013 
L 269.179083 339.714233 
L 273.183024 338.706946 
L 277.186988 339.262679 
L 281.190917 338.255393 
L 285.19487 337.289495 
L 289.198822 338.159284 
L 293.202751 340.40522 
L 297.206728 342.594648 
L 301.210657 343.474682 
L 305.214609 342.513039 
L 309.218562 339.942715 
L 313.222515 336.52934 
L 317.226467 333.246709 
L 321.230396 330.982179 
L 325.234372 330.33359 
L 329.238301 331.51489 
L 333.242254 334.358872 
L 337.246207 338.391318 
L 341.250136 342.946108 
L 345.254112 347.293294 
L 349.258041 350.75709 
L 353.261994 352.809616 
L 357.265946 353.131053 
L 361.269899 351.635289 
L 365.273852 348.463343 
L 369.277781 343.950809 
L 373.281757 338.576808 
L 377.285686 332.903363 
L 381.289638 327.511697 
L 385.293591 322.943615 
L 389.29752 319.651769 
L 393.301496 317.962766 
L 397.305425 318.054925 
L 401.309378 319.950406 
L 405.313331 323.521157 
L 409.317283 328.506384 
L 413.321236 334.539049 
L 417.325165 341.178375 
L 421.329118 347.945591 
L 425.33307 354.359489 
L 429.337023 359.970071 
L 433.340975 364.387652 
L 437.344904 367.306127 
L 441.348857 368.519471 
L 445.35281 367.930793 
L 449.356762 365.554366 
L 453.360715 361.510817 
L 457.364668 356.016416 
L 461.36862 349.367542 
L 465.372549 341.921576 
L 469.376502 334.075296 
L 473.380455 326.242738 
" clip-path="url(#pba830a3fdf)" style="fill: none; stroke-dasharray: 5.55,2.4; stroke-dashoffset: 0; stroke: #000000; stroke-width: 1.5"/>
   </g>
   <g id="line2d_32">
    <path d="M 76.989545 321.703818 
L 80.993494 320.273202 
L 84.997443 318.625234 
L 89.001392 316.739371 
L 93.00534 314.634134 
L 97.009288 312.437408 
L 101.013238 310.513602 
L 105.017184 309.538809 
L 109.021134 310.164364 
L 113.025084 312.369421 
L 117.02903 315.580457 
L 121.03298 319.418855 
L 125.03693 323.99092 
L 129.040877 329.567186 
L 133.044823 336.058051 
L 137.048776 342.932775 
L 141.052723 349.412959 
L 145.056669 354.529197 
L 149.060622 357.530128 
L 153.064569 358.558918 
L 157.068515 358.328381 
L 161.072468 357.179273 
L 165.076415 354.797128 
L 169.080362 350.761784 
L 173.084314 345.308662 
L 177.088255 339.269653 
L 181.092208 333.624686 
L 185.09616 329.369831 
L 189.100101 327.150741 
L 193.104054 326.741863 
L 197.108006 327.435733 
L 201.111947 328.818115 
L 205.1159 330.940282 
L 209.119852 333.946112 
L 213.123793 337.645398 
L 217.127746 341.546166 
L 221.131699 345.034924 
L 225.135639 347.438725 
L 229.139592 348.357686 
L 233.143545 348.042649 
L 237.147485 347.083849 
L 241.151438 345.92124 
L 245.155391 344.758467 
L 249.159332 343.664432 
L 253.163284 342.660479 
L 257.167237 341.774398 
L 261.171178 341.078081 
L 265.17513 340.68539 
L 269.179083 340.659748 
L 273.183024 340.932011 
L 277.186988 341.376108 
L 281.190917 341.905231 
L 285.19487 342.478391 
L 289.198822 343.066554 
L 293.202751 343.607898 
L 297.206728 343.940685 
L 301.210657 343.724521 
L 305.214609 342.499081 
L 309.218562 340.066924 
L 313.222515 336.799122 
L 317.226467 333.446205 
L 321.230396 330.971367 
L 325.234372 330.401112 
L 329.238301 332.150259 
L 333.242254 335.605726 
L 337.246207 339.763443 
L 341.250136 343.785915 
L 345.254112 347.072699 
L 349.258041 349.3926 
L 353.261994 350.880384 
L 357.265946 351.577151 
L 361.269899 351.037205 
L 365.273852 348.513859 
L 369.277781 343.793675 
L 373.281757 337.641651 
L 377.285686 331.314496 
L 381.289638 326.237827 
L 385.293591 323.747677 
L 389.29752 324.189025 
L 393.301496 326.64134 
L 397.305425 329.955095 
L 401.309378 333.450815 
L 405.313331 336.866028 
L 409.317283 340.149651 
L 413.321236 343.342321 
L 417.325165 346.532346 
L 421.329118 349.84226 
L 425.33307 353.391022 
L 429.337023 357.203762 
L 433.340975 361.135045 
L 437.344904 364.805602 
L 441.348857 367.534516 
L 445.35281 368.604642 
L 449.356762 367.956488 
L 453.360715 366.263373 
L 457.364668 364.235219 
L 461.36862 362.259671 
L 465.372549 360.477591 
L 469.376502 358.914737 
L 473.380455 357.555006 
" clip-path="url(#pba830a3fdf)" style="fill: none; stroke: #1f77b4; stroke-width: 1.5; stroke-linecap: square"/>
   </g>
   <g id="patch_15">
    <path d="M 57.17 390.04 
L 57.17 289.24 
" style="fill: none; stroke: #000000; stroke-width: 0.8; stroke-linejoin: miter; stroke-linecap: square"/>
   </g>
   <g id="patch_16">
    <path d="M 493.2 390.04 
L 493.2 289.24 
" style="fill: none; stroke: #000000; stroke-width: 0.8; stroke-linejoin: miter; stroke-linecap: square"/>
   </g>
   <g id="patch_17">
    <path d="M 57.17 390.04 
L 493.2 390.04 
" style="fill: none; stroke: #000000; stroke-width: 0.8; stroke-linejoin: miter; stroke-linecap: square"/>
   </g>
   <g id="patch_18">
    <path d="M 57.17 289.24 
L 493.2 289.24 
" style="fill: none; stroke: #000000; stroke-width: 0.8; stroke-linejoin: miter; stroke-linecap: square"/>
   </g>
   <g id="text_26">
    <!-- RQKernel -->
    <g transform="translate(247.443438 283.24) scale(0.12 -0.12)">
     <defs>
      <path id="DejaVuSans-51" d="M 2522 4238 
Q 1834 4238 1429 3725 
Q 1025 3213 1025 2328 
Q 1025 1447 1429 934 
Q 1834 422 2522 422 
Q 3209 422 3611 934 
Q 4013 1447 4013 2328 
Q 4013 3213 3611 3725 
Q 3209 4238 2522 4238 
z
M 3406 84 
L 4238 -825 
L 3475 -825 
L 2784 -78 
Q 2681 -84 2626 -87 
Q 2572 -91 2522 -91 
Q 1538 -91 948 567 
Q 359 1225 359 2328 
Q 359 3434 948 4092 
Q 1538 4750 2522 4750 
Q 3503 4750 4090 4092 
Q 4678 3434 4678 2328 
Q 4678 1516 4351 937 
Q 4025 359 3406 84 
z
" transform="scale(0.015625)"/>
     </defs>
     <use xlink:href="#DejaVuSans-52"/>
     <use xlink:href="#DejaVuSans-51" transform="translate(69.482422 0)"/>
     <use xlink:href="#DejaVuSans-4b" transform="translate(148.193359 0)"/>
     <use xlink:href="#DejaVuSans-65" transform="translate(208.769531 0)"/>
     <use xlink:href="#DejaVuSans-72" transform="translate(270.292969 0)"/>
     <use xlink:href="#DejaVuSans-6e" transform="translate(309.65625 0)"/>
     <use xlink:href="#DejaVuSans-65" transform="translate(373.035156 0)"/>
     <use xlink:href="#DejaVuSans-6c" transform="translate(434.558594 0)"/>
    </g>
   </g>
  </g>
 </g>
 <defs>
  <clipPath id="pb47a88e70a">
   <rect x="57.17" y="26.88" width="436.03" height="100.8"/>
  </clipPath>
  <clipPath id="p89967d9f03">
   <rect x="57.17" y="158.06" width="436.03" height="100.8"/>
  </clipPath>
  <clipPath id="pba830a3fdf">
   <rect x="57.17" y="289.24" width="436.03" height="100.8"/>
  </clipPath>
 </defs>
</svg>
